<svg width="158" height="120" viewBox="0 0 158 120" fill="none" xmlns="http://www.w3.org/2000/svg">
<g clip-path="url(#clip0_1_1714)">
<path d="M65.8312 120.001C98.9683 120.001 125.831 93.1378 125.831 60.0007C125.831 26.8636 98.9683 0.000732422 65.8312 0.000732422C32.6941 0.000732422 5.83118 26.8636 5.83118 60.0007C5.83118 93.1378 32.6941 120.001 65.8312 120.001Z" fill="url(#paint0_linear_1_1714)"/>
<mask id="mask0_1_1714" style="mask-type:luminance" maskUnits="userSpaceOnUse" x="5" y="0" width="121" height="121">
<path d="M65.8312 120.001C98.9683 120.001 125.831 93.1378 125.831 60.0007C125.831 26.8636 98.9683 0.000732422 65.8312 0.000732422C32.6941 0.000732422 5.83118 26.8636 5.83118 60.0007C5.83118 93.1378 32.6941 120.001 65.8312 120.001Z" fill="white"/>
</mask>
<g mask="url(#mask0_1_1714)">
<path d="M91.3072 99.6009C88.5952 102.109 81.6832 101.377 80.1112 98.7489C78.6352 96.3129 74.4232 91.9209 72.0232 83.7969C69.6712 75.8409 79.4032 62.7249 83.4952 70.4649C86.7592 76.6449 88.6192 81.0489 89.8672 85.1169C90.9952 88.7769 91.6192 92.1609 92.3272 96.3129C92.5792 97.7409 92.1352 98.8329 91.2952 99.6009H91.3072Z" fill="url(#paint1_linear_1_1714)"/>
<path style="mix-blend-mode:multiply" d="M91.3072 99.6009C88.5952 102.109 81.6832 101.377 80.1112 98.7489C78.6352 96.3129 74.4232 91.9209 72.0232 83.7969C69.6712 75.8409 79.4032 62.7249 83.4952 70.4649C86.7592 76.6449 88.6192 81.0489 89.8672 85.1169C87.5512 88.9089 85.4392 91.1169 86.0992 91.2489C86.9392 91.4289 89.8072 91.0689 90.8872 93.4209L91.3072 99.6009Z" fill="url(#paint2_linear_1_1714)"/>
<path d="M19.8712 89.6407C19.5112 90.3967 14.7232 90.7688 10.5592 90.4688C7.33119 90.2408 4.48719 89.6047 4.36719 88.4407C4.28319 87.5887 4.67919 86.2087 5.42319 84.5048C6.98319 80.8927 10.0912 75.9128 13.3192 71.8208C18.0712 65.8088 28.6192 55.2608 35.0032 60.3968C41.6392 65.7368 20.4952 88.2847 19.8712 89.6407Z" fill="url(#paint3_linear_1_1714)"/>
<path style="mix-blend-mode:multiply" d="M19.8712 89.6407C19.5112 90.3967 14.7232 90.7688 10.5592 90.4688L11.2192 85.2968C13.4032 83.8208 17.0152 85.7048 19.8592 87.7328C20.4352 88.2008 21.0232 87.3728 20.3992 86.7848C19.7752 86.1968 12.6712 82.1767 10.4392 80.3407C9.07122 79.2127 7.01922 81.9487 5.42322 84.5048C6.98322 80.8927 10.0912 75.9128 13.3192 71.8208C18.0712 65.8088 28.6192 55.2608 35.0032 60.3968C41.6392 65.7368 20.4952 88.2847 19.8712 89.6407Z" fill="url(#paint4_linear_1_1714)"/>
<path d="M91.7153 80.9529C91.1033 82.0209 90.0353 83.8569 86.0153 89.7009C85.7273 90.1209 85.4513 90.5289 85.1753 90.9489C82.6313 94.7049 78.7793 97.5609 78.1673 97.0809C75.6113 95.0889 73.9073 92.9649 72.9113 91.1169C72.6233 87.4449 74.6633 77.3409 75.6233 70.0449C76.0793 66.6009 77.1593 64.6809 78.2873 64.2969C78.4313 64.2489 78.5633 64.2249 78.7073 64.2249C78.8993 64.3449 79.0913 64.4769 79.2953 64.6329C79.3553 64.6809 79.4153 64.7289 79.4873 64.7769C84.1433 68.3529 91.3553 79.2489 91.7273 80.9649L91.7153 80.9529Z" fill="url(#paint5_linear_1_1714)"/>
<path style="mix-blend-mode:multiply" opacity="0.5" d="M85.1753 90.9489C82.6313 94.7049 78.7793 97.5609 78.1673 97.0809C75.6113 95.0889 73.9073 92.9649 72.9113 91.1169C72.6233 87.4449 74.6633 77.3409 75.6233 70.0449C76.0793 66.6009 77.1593 64.6809 78.2873 64.2969C78.4313 64.2489 78.5633 64.2249 78.7073 64.2249C78.8993 64.3449 79.0913 64.4769 79.2953 64.6329L79.4633 64.6929C79.4633 64.6929 79.4633 64.7529 79.4753 64.7769C82.6553 80.7249 80.2193 83.4729 81.0353 87.1209C81.7433 90.2769 83.1113 80.8689 84.0353 78.5769C85.5833 74.7129 84.6593 82.6089 83.7353 86.8209C83.3033 88.7649 84.0593 90.3369 85.1753 90.9609V90.9489Z" fill="url(#paint6_linear_1_1714)"/>
<mask id="mask1_1_1714" style="mask-type:luminance" maskUnits="userSpaceOnUse" x="-1" y="77" width="38" height="45">
<path d="M-0.264771 77.6888H36.0712V120.985C31.3312 121.393 13.2472 120.265 -0.168771 118.957L-0.264771 77.7008L-0.264771 77.6888Z" fill="white"/>
</mask>
<g mask="url(#mask1_1_1714)">
<path d="M30.5991 121.201C30.6231 121.753 30.1551 124.381 30.1551 124.837C30.1551 125.293 31.4631 126.901 31.2231 127.981C30.9951 129.049 29.9151 129.229 29.6151 128.617C29.3031 128.005 28.3311 125.653 28.2591 125.281C28.1391 124.537 27.9591 122.437 27.9831 121.489C28.0071 120.901 30.5031 119.677 30.5871 121.213L30.5991 121.201Z" fill="url(#paint7_linear_1_1714)"/>
<path d="M32.0032 120.805C32.0392 121.465 31.4872 124.561 31.4872 125.101C31.4872 125.641 33.0232 127.537 32.7472 128.809C32.4712 130.069 31.2112 130.273 30.8512 129.553C30.4912 128.833 29.0392 126.097 29.0392 125.641C29.0392 125.185 28.6792 121.705 28.9432 121.081C29.2192 120.445 31.9072 119.005 31.9912 120.805H32.0032Z" fill="url(#paint8_linear_1_1714)"/>
<path d="M32.5071 121.009C32.5431 121.669 32.1951 124.825 32.1951 125.365C32.1951 125.905 33.7311 127.801 33.4551 129.073C33.1791 130.333 31.9191 130.537 31.5591 129.817C31.1991 129.097 29.7591 125.929 29.6991 125.473C29.6031 124.873 29.4591 121.813 29.6631 120.421C29.7591 119.737 32.4231 119.185 32.5071 120.997V121.009Z" fill="url(#paint9_linear_1_1714)"/>
<path d="M33.2872 120.133C33.3232 120.793 32.7712 123.889 32.7712 124.429C32.7712 124.969 34.3072 126.865 34.0312 128.137C33.7552 129.397 32.4952 129.601 32.1352 128.881C31.7752 128.161 30.3232 125.425 30.3232 124.969C30.3232 124.513 30.1312 121.273 30.4072 120.637C30.6832 120.001 33.2032 118.321 33.2872 120.133Z" fill="url(#paint10_linear_1_1714)"/>
<path d="M31.2712 112.717C29.9272 113.857 28.0192 114.685 27.8752 114.433C26.2312 111.685 12.5152 102.961 6.74318 94.1888C4.89518 91.3928 3.89918 88.9088 4.43918 87.2288C6.43118 85.2968 9.02318 84.7928 11.5672 85.0808C15.5032 85.5248 19.3072 87.8408 20.5672 89.6888C20.6272 89.7728 20.6752 89.8568 20.7232 89.9408C20.8672 90.2048 21.0592 90.5528 21.2992 90.9608C22.6192 93.3368 25.1512 97.9568 27.4432 101.977C29.3152 105.253 32.0992 109.525 32.4592 110.149C32.4832 110.185 32.4952 110.209 32.4952 110.221C32.5072 110.245 32.5192 110.281 32.5192 110.305C32.7712 111.085 32.1352 111.961 31.2592 112.705L31.2712 112.717Z" fill="url(#paint11_linear_1_1714)"/>
<path d="M33.9472 115.657C33.8512 117.277 33.4072 120.445 33.2272 120.901C33.2032 120.961 32.9752 121.093 32.6392 121.249C31.3672 121.849 28.4272 122.917 28.1392 122.845C27.7792 122.761 28.0552 118.141 27.8032 114.037C27.6352 111.241 31.7992 109.933 32.5072 110.245C32.9752 110.449 33.2992 110.737 33.5392 111.097C34.1152 112.021 34.0792 113.473 33.9592 115.669L33.9472 115.657Z" fill="url(#paint12_linear_1_1714)"/>
<g style="mix-blend-mode:multiply">
<path d="M33.9472 115.657C33.8512 117.277 33.4072 120.445 33.2272 120.901C33.2032 120.961 32.0392 120.445 31.8712 119.365C31.7392 118.501 31.6672 116.809 31.7392 115.321C31.7992 114.109 33.2032 112.705 33.5392 111.085C34.1152 112.009 34.0792 113.461 33.9592 115.657H33.9472Z" fill="#FAC9AF"/>
</g>
<path d="M35.3032 114.073C35.3032 116.149 34.6672 117.913 34.1752 120.085C33.9592 121.045 32.0992 120.217 32.0512 119.089C31.9672 116.917 32.0512 116.065 31.6432 114.613C31.4992 114.121 31.3432 113.413 31.2712 112.717C31.1992 112.021 31.2232 111.325 31.4512 110.833C31.6072 110.497 31.8712 110.257 32.2792 110.185C32.3392 110.185 32.4112 110.161 32.4712 110.161C32.6392 110.137 32.8072 110.137 32.9512 110.149C34.8232 110.245 35.3032 112.321 35.3032 114.073Z" fill="url(#paint13_linear_1_1714)"/>
<path style="mix-blend-mode:multiply" d="M32.9512 110.149C32.8072 110.197 32.6752 110.257 32.5312 110.317C32.1352 110.497 31.7512 110.689 31.4512 110.833C30.9952 111.049 30.7432 111.145 30.9232 110.833C31.3312 110.161 30.7912 108.997 30.1792 107.785C29.5672 106.561 21.7072 91.7169 20.0752 89.2089L20.5672 89.6769C20.6272 89.7609 20.6752 89.8449 20.7232 89.9289C21.7192 91.6929 24.7432 97.2489 27.4432 101.965C29.3152 105.241 32.0992 109.513 32.4592 110.137C32.6272 110.113 32.7952 110.113 32.9392 110.125L32.9512 110.149Z" fill="url(#paint14_linear_1_1714)"/>
<path style="mix-blend-mode:multiply" d="M21.2991 90.9608C18.9231 87.6488 14.0391 85.8848 11.5671 85.0808C15.5031 85.5248 19.3071 87.8408 20.5671 89.6888C20.6271 89.7728 20.6751 89.8568 20.7231 89.9408C20.8671 90.2048 21.0591 90.5528 21.2991 90.9608Z" fill="url(#paint15_linear_1_1714)"/>
</g>
<path d="M61.2473 73.5969C53.8433 74.3529 48.3593 66.9729 50.1833 56.4849C50.6993 55.2249 55.1153 39.9849 55.5353 38.5569C55.5353 38.5569 72.9473 46.8609 72.6713 47.7849C72.4433 48.5529 69.5033 55.9569 68.4593 60.5409C68.4473 60.6129 68.4233 60.6969 68.4113 60.7689C68.4713 61.1049 68.0633 62.5929 68.0873 63.0129C68.3153 66.6129 66.9713 73.0209 61.2353 73.6089L61.2473 73.5969Z" fill="url(#paint16_linear_1_1714)"/>
<path style="mix-blend-mode:multiply" d="M61.2473 73.5969C53.8433 74.3529 48.3593 66.9729 50.1833 56.4849C50.6993 55.2249 55.1153 39.9849 55.5353 38.5569C55.5353 38.5569 72.9473 46.8609 72.6713 47.7849C72.4433 48.5529 69.5033 55.9569 68.4593 60.5409C65.8193 60.4569 62.3033 61.5009 58.8473 59.1849C55.0673 56.6529 54.7193 55.7169 53.6873 58.2369C52.6553 60.7569 56.8793 65.8689 60.5153 66.6609C64.2233 67.4769 66.2993 66.9369 67.9673 63.2769C68.0153 63.1809 68.0513 63.0849 68.0993 63.0009C68.3273 66.6009 66.9833 73.0089 61.2473 73.5969Z" fill="url(#paint17_linear_1_1714)"/>
<path d="M79.3313 87.4568C78.2993 95.6768 76.4632 103.249 75.1192 109.801C74.1353 114.577 73.4152 118.801 73.4512 122.341C73.4512 123.289 42.5873 123.517 33.5033 121.081C33.5033 121.081 29.4833 97.3568 28.5593 90.3728C27.9353 85.6808 30.0473 71.0529 30.4073 61.6089C30.5153 58.7769 30.6833 56.9408 30.9353 56.8208C33.3713 55.6688 51.1792 52.3808 51.5392 52.3448C51.8152 58.4408 52.5592 66.8889 61.5712 68.0768C66.7192 68.7488 67.4512 65.9288 68.6632 59.6288C69.1073 59.8088 77.4473 63.2049 78.9953 64.4169C80.1713 72.2889 80.2312 80.3288 79.3432 87.4688L79.3313 87.4568Z" fill="url(#paint18_linear_1_1714)"/>
<path d="M63.9353 70.8489C51.5273 71.3288 50.0393 59.2568 49.2233 52.7528C49.9553 52.6208 51.1553 52.3808 51.5273 52.3448C52.0673 60.9488 54.7913 67.2968 63.1433 67.7528C66.3953 67.9328 67.0313 65.5808 68.6513 59.6168C69.2033 59.7729 69.8633 60.1329 70.4753 60.3729C69.9953 64.5729 68.7113 70.6688 63.9353 70.8489Z" fill="url(#paint19_linear_1_1714)"/>
<path style="mix-blend-mode:multiply" opacity="0.5" d="M75.1192 109.801C74.1353 114.577 73.4152 118.801 73.4512 122.341C73.4512 123.289 42.5873 123.517 33.5033 121.081C33.5033 121.081 29.4833 97.3568 28.5593 90.3728C27.9353 85.6808 30.0473 71.0528 30.4073 61.6088L35.9513 61.5608C39.2033 64.9448 39.7433 71.8688 40.4273 82.1648C40.8833 89.0408 56.6993 95.1848 64.1512 97.0808C71.6032 98.9768 55.0672 97.6208 47.0632 95.8568C39.9473 94.2848 41.5073 107.521 41.9153 112.393C42.3233 117.277 52.8953 116.461 54.7913 116.461C56.6873 116.461 49.1033 106.561 53.0273 105.745C55.4153 105.253 58.3193 104.113 59.2673 101.677C62.3873 102.217 66.3232 102.757 68.2192 105.613C69.7673 107.941 72.4913 108.817 75.1313 109.801H75.1192Z" fill="url(#paint20_linear_1_1714)"/>
<path style="mix-blend-mode:multiply" opacity="0.5" d="M79.3312 87.4568C75.2992 90.9008 68.4832 91.4768 70.7872 90.4328C78.2392 87.0488 78.5152 83.2928 78.8512 81.2768C79.5232 77.2808 79.0552 70.7648 78.9832 64.3928C80.1592 72.2648 80.2192 80.3048 79.3312 87.4448V87.4568Z" fill="url(#paint21_linear_1_1714)"/>
<path d="M82.5112 39.4328C83.8192 37.2608 84.4192 34.7168 84.8032 32.0048C86.4472 20.4608 78.8512 15.6728 70.3072 15.1568C61.7752 14.6408 49.7992 15.6128 50.3872 29.6888C50.6392 35.7368 54.7672 39.6368 55.2112 41.2928C55.2112 41.3048 55.7992 46.2488 56.5192 47.3288C58.1032 49.7048 62.8912 55.8848 65.0512 56.5808C66.8392 57.1568 71.9392 58.1048 74.5312 57.0128C75.8992 56.4368 82.9672 47.3768 82.7032 43.5128C82.5112 40.7888 82.2232 39.9248 82.5232 39.4208C82.5232 39.4208 82.5232 39.4208 82.5112 39.4208V39.4328Z" fill="url(#paint22_linear_1_1714)"/>
<path style="mix-blend-mode:multiply" d="M84.9471 30.8288C80.9871 29.7968 77.5191 27.1568 76.7271 25.6688C75.1551 29.2808 69.5631 31.9328 63.9831 31.3328C62.3631 31.2368 61.0791 34.5008 60.2751 38.7128C59.5311 42.6608 61.0071 53.6528 65.0631 56.5928C62.9511 55.9688 58.1151 49.7168 56.5311 47.3408C55.8111 46.2608 55.2231 41.3408 55.2231 41.3048C54.7791 39.6488 50.6631 35.7488 50.3991 29.6888C49.7991 15.6128 61.7751 14.6528 70.3191 15.1568C78.5631 15.6488 85.9311 20.1248 84.9471 30.8168V30.8288Z" fill="url(#paint23_linear_1_1714)"/>
<path style="mix-blend-mode:multiply" d="M73.8232 32.9528C74.9992 34.2848 73.8232 38.2928 73.3072 39.0128C72.7912 39.7328 70.7872 38.5569 67.3192 38.5809C64.7632 38.6049 64.6192 36.6008 64.9072 35.1848C65.1952 33.7808 65.4832 32.4968 65.8192 32.5208C66.1552 32.5448 73.1752 32.2329 73.8112 32.9409L73.8232 32.9528Z" fill="url(#paint24_linear_1_1714)"/>
<path d="M73.3913 37.7288C73.3553 38.0408 73.2113 38.2928 73.0073 38.4968C72.2633 38.0648 71.5553 38.0408 70.1033 37.8488C68.6753 37.6688 66.8993 37.6808 66.5033 37.7528C66.0113 37.3808 65.8073 36.9608 65.9993 36.4448C66.4673 35.2328 68.5433 33.6488 70.8953 34.3328C72.4433 34.7888 73.5713 36.3008 73.3913 37.7168V37.7288Z" fill="url(#paint25_linear_1_1714)"/>
<mask id="mask2_1_1714" style="mask-type:luminance" maskUnits="userSpaceOnUse" x="65" y="34" width="9" height="5">
<path d="M73.3913 37.7288C73.3553 38.0408 73.2113 38.2928 73.0073 38.4968C72.3593 38.1848 71.5553 38.0288 70.1033 37.8488C68.6273 37.6568 66.8993 37.6808 66.5033 37.7528C66.0113 37.3808 65.8073 36.9608 65.9993 36.4448C66.4673 35.2328 68.5433 33.6488 70.8953 34.3328C72.4433 34.7888 73.5713 36.3008 73.3913 37.7168V37.7288Z" fill="white"/>
</mask>
<g mask="url(#mask2_1_1714)">
<path d="M72.4433 36.6368C72.3713 37.5008 71.6753 38.1488 70.9073 38.0768C70.1393 38.0048 69.5753 37.2488 69.6473 36.3848C69.7193 35.5208 70.4153 34.8728 71.1833 34.9448C71.9513 35.0168 72.5153 35.7728 72.4433 36.6368Z" fill="url(#paint26_linear_1_1714)"/>
<path style="mix-blend-mode:multiply" d="M71.1833 34.9448C70.4153 34.8728 69.7193 35.5208 69.6473 36.3848C69.5753 37.2488 70.1393 38.0048 70.9073 38.0768C71.6753 38.1488 72.3713 37.5008 72.4433 36.6368C72.5153 35.7728 71.9513 35.0168 71.1833 34.9448ZM70.8473 37.8608C70.1753 37.8008 69.6833 37.1528 69.7553 36.3968C69.8273 35.6528 70.4153 35.0888 71.0873 35.1488C71.7593 35.2088 72.2513 35.8568 72.1793 36.6128C72.1073 37.3688 71.5193 37.9208 70.8473 37.8608Z" fill="url(#paint27_linear_1_1714)"/>
<path d="M71.5553 36.4568C71.5313 36.7448 71.3033 36.9608 71.0393 36.9368C70.7873 36.9128 70.5953 36.6608 70.6193 36.3728C70.6433 36.0848 70.8713 35.8688 71.1353 35.8928C71.3873 35.9168 71.5793 36.1688 71.5553 36.4568Z" fill="url(#paint28_linear_1_1714)"/>
<path d="M70.9313 35.8448C70.9073 36.0968 70.7393 36.2768 70.5593 36.2648C70.3793 36.2528 70.2473 36.0368 70.2593 35.7848C70.2833 35.5328 70.4513 35.3528 70.6313 35.3648C70.8113 35.3768 70.9433 35.5928 70.9313 35.8448Z" fill="url(#paint29_linear_1_1714)"/>
</g>
<path style="mix-blend-mode:multiply" d="M73.3913 37.7288C73.5713 36.3008 72.4433 34.7888 70.8953 34.3448C68.5433 33.6608 66.4673 35.2568 65.9993 36.4568C65.8073 36.9728 66.0113 37.3928 66.5033 37.7648C66.8633 37.6688 68.5673 37.6808 70.1033 37.8608C71.4233 38.0168 72.2393 38.0528 73.0073 38.5088C73.2233 38.3048 73.3553 38.0528 73.3913 37.7408V37.7288ZM70.5593 37.4408C68.1953 36.9008 66.8273 37.2128 67.2113 36.2168C67.5953 35.2328 69.3833 34.8608 70.6553 35.0288C72.1073 35.2208 73.2233 36.4808 73.0433 37.6568C72.9473 38.2688 71.9873 37.7648 70.5593 37.4408Z" fill="url(#paint30_linear_1_1714)"/>
<path d="M73.3552 37.7888C73.4272 36.9128 73.0792 36.0368 72.4792 35.4248C72.1792 35.1128 71.8192 34.8728 71.4352 34.7048C71.0512 34.5368 70.6312 34.4288 70.2112 34.3928C69.7912 34.3568 69.3712 34.4048 68.9632 34.5008C68.5552 34.5968 68.1472 34.7288 67.7632 34.9088C67.0072 35.2688 66.3112 35.8208 65.9392 36.6248H65.8912C65.9512 36.1688 66.1792 35.7368 66.4792 35.3768C66.7792 35.0168 67.1512 34.7288 67.5592 34.5008C68.3632 34.0448 69.3232 33.8528 70.2592 33.9968C70.7152 34.0688 71.1592 34.2008 71.5792 34.4168C71.9872 34.6208 72.3712 34.9088 72.6712 35.2568C72.9712 35.6048 73.1992 36.0129 73.3192 36.4448C73.4512 36.8769 73.4872 37.3448 73.4152 37.7768H73.3672L73.3552 37.7888Z" fill="url(#paint31_linear_1_1714)"/>
<path d="M72.9473 38.5088C72.7913 38.4008 72.5513 38.3168 72.2873 38.2448C72.0353 38.1728 71.7593 38.1128 71.4713 38.0528C70.9073 37.9448 70.3313 37.8728 69.7553 37.8128C69.1793 37.7648 68.6153 37.7288 68.0513 37.7168C67.7753 37.7168 67.4873 37.7168 67.2233 37.7168C66.9593 37.7168 66.6833 37.7408 66.4673 37.7768C66.6953 37.7408 66.9713 37.7288 67.2353 37.7288C67.5113 37.7288 67.7873 37.7288 68.0633 37.7408C68.6273 37.7648 69.1913 37.8008 69.7553 37.8488C70.3193 37.8968 70.8953 37.9808 71.4473 38.0768C71.7233 38.1248 71.9993 38.1848 72.2513 38.2568C72.5033 38.3288 72.7553 38.4128 72.9233 38.5088H72.9473Z" fill="url(#paint32_linear_1_1714)"/>
<path style="mix-blend-mode:multiply" d="M82.5112 39.4329H82.5231C82.3671 39.8049 82.5231 40.1769 82.4631 40.5849C80.3991 40.1769 77.3391 40.1169 76.2591 39.9609C75.0591 39.7809 75.7911 38.9529 75.9711 38.1489C76.2711 36.8289 77.9632 33.3009 78.9112 33.2169C79.4992 33.1689 82.7512 34.1049 84.3952 34.3449C84.0111 36.1809 83.4352 37.8969 82.5112 39.4329Z" fill="url(#paint33_linear_1_1714)"/>
<path d="M76.5112 38.3768C76.4872 38.6048 76.5112 38.8088 76.6072 39.0008C77.6872 38.7968 78.3952 39.0248 79.6312 39.1328C80.7472 39.2288 81.6952 39.5768 81.9112 39.9128C82.3192 39.6128 82.4152 39.1568 82.3432 38.5328C82.1872 37.2968 81.8512 35.8088 79.5472 35.8568C78.0352 35.8928 76.6672 37.0088 76.5112 38.3768Z" fill="url(#paint34_linear_1_1714)"/>
<mask id="mask3_1_1714" style="mask-type:luminance" maskUnits="userSpaceOnUse" x="76" y="36" width="7" height="4">
<path d="M76.5112 38.4368C76.4872 38.6408 76.5112 38.8328 76.6072 39.0008C77.9272 38.8448 78.4072 39.0008 79.6312 39.1208C80.6032 39.2168 81.6952 39.5168 81.9112 39.8288C82.3192 39.5648 82.4152 39.1448 82.3432 38.5808C82.1872 37.4648 81.8512 36.1328 79.5472 36.1688C78.0352 36.1928 76.6672 37.2128 76.5112 38.4368Z" fill="white"/>
</mask>
<g mask="url(#mask3_1_1714)">
<path d="M81.3472 38.0288C81.2752 38.7848 80.6632 39.3368 79.9792 39.2768C79.3072 39.2048 78.8152 38.5448 78.8992 37.7888C78.9712 37.0328 79.5832 36.4808 80.2672 36.5408C80.9512 36.6008 81.4312 37.2728 81.3472 38.0288Z" fill="url(#paint35_linear_1_1714)"/>
<path style="mix-blend-mode:multiply" d="M80.2553 36.5409C79.5833 36.4689 78.9713 37.0329 78.8873 37.7889C78.8153 38.5449 79.2953 39.2169 79.9673 39.2769C80.6393 39.3489 81.2513 38.7849 81.3353 38.0289C81.4073 37.2729 80.9273 36.6009 80.2553 36.5409ZM79.9313 39.0849C79.3433 39.0249 78.9233 38.4489 78.9953 37.7889C79.0673 37.1289 79.5953 36.6489 80.1713 36.7089C80.7593 36.7689 81.1793 37.3449 81.1073 38.0049C81.0353 38.6649 80.5073 39.1449 79.9313 39.0849Z" fill="url(#paint36_linear_1_1714)"/>
<path d="M80.5313 37.9448C80.5073 38.1968 80.3033 38.3768 80.0753 38.3648C79.8473 38.3528 79.6913 38.1248 79.7153 37.8728C79.7393 37.6208 79.9433 37.4408 80.1713 37.4528C80.3993 37.4648 80.5553 37.6928 80.5313 37.9448Z" fill="url(#paint37_linear_1_1714)"/>
<path d="M79.8833 37.4049C79.8593 37.6209 79.7153 37.7769 79.5473 37.7649C79.3913 37.7529 79.2713 37.5609 79.2953 37.3449C79.3193 37.1289 79.4633 36.9729 79.6313 36.9849C79.7873 36.9969 79.9073 37.1889 79.8833 37.4049Z" fill="url(#paint38_linear_1_1714)"/>
</g>
<path style="mix-blend-mode:multiply" d="M79.3672 39.0848C80.4472 39.2168 81.7552 39.5768 81.9112 39.9008C82.3192 39.6008 82.4152 39.1448 82.3432 38.5208C82.1872 37.2848 81.8512 35.7968 79.5472 35.8448C78.0352 35.8808 76.6672 36.9968 76.5112 38.3648C76.4872 38.5928 76.5112 38.7968 76.6072 38.9888C77.6152 38.7848 78.1312 38.9408 79.3672 39.0848ZM78.2392 37.7768C78.3952 36.6608 78.9952 36.5528 80.0512 36.6248C81.6112 36.7328 81.8872 37.3808 82.0072 38.3888C82.1272 39.3968 81.8032 38.8568 80.1592 38.8088C79.0192 38.7848 78.0952 38.7848 78.2392 37.7648V37.7768Z" fill="url(#paint39_linear_1_1714)"/>
<path d="M82.3432 39.0488C82.3552 38.6648 82.3432 38.2808 82.2472 37.9208C82.1632 37.5608 82.0072 37.2128 81.7912 36.9248C81.5752 36.6368 81.2752 36.4208 80.9512 36.2888C80.6272 36.1448 80.2672 36.0728 79.9192 36.0488C79.5712 36.0248 79.2112 36.0488 78.8872 36.1448C78.5512 36.2288 78.2392 36.3608 77.9512 36.5408C77.3632 36.9008 76.9192 37.4888 76.5712 38.1728H76.5232C76.6312 37.3928 77.0272 36.6248 77.6752 36.1328C77.9992 35.8808 78.3712 35.7128 78.7672 35.6288C79.1632 35.5448 79.5712 35.5568 79.9672 35.6168C80.3512 35.6768 80.7472 35.7848 81.1072 35.9768C81.4672 36.1568 81.7912 36.4328 82.0192 36.7808C82.2472 37.1168 82.3672 37.5128 82.4272 37.9088C82.4872 38.3048 82.4752 38.6888 82.4152 39.0728H82.3672L82.3432 39.0488Z" fill="url(#paint40_linear_1_1714)"/>
<path d="M76.5712 39.0487C76.7392 38.9887 76.9432 38.9527 77.1712 38.9407C77.3872 38.9287 77.6272 38.9287 77.8552 38.9407C78.3232 38.9647 78.7912 39.0247 79.2592 39.0967C79.7272 39.1687 80.1952 39.2407 80.6512 39.3487C80.8792 39.3967 81.1072 39.4687 81.3112 39.5407C81.5152 39.6127 81.7192 39.6967 81.8512 39.8167C81.7432 39.6967 81.5392 39.6007 81.3352 39.5287C81.1312 39.4447 80.9032 39.3847 80.6752 39.3247C80.2192 39.2167 79.7392 39.1327 79.2712 39.0607C78.8032 38.9887 78.3232 38.9287 77.8552 38.9167C77.6152 38.9167 77.3872 38.9167 77.1592 38.9287C76.9432 38.9527 76.7392 38.9887 76.5712 39.0607V39.0487Z" fill="url(#paint41_linear_1_1714)"/>
<path d="M79.1872 33.4928C77.4832 34.3568 76.7392 37.1888 76.5712 39.0608C76.3072 41.8568 78.9352 41.4008 78.0472 43.4408C77.6752 44.3048 75.3472 45.1448 74.4832 45.1688C73.4152 45.1928 71.8072 44.5688 71.0872 43.9088C69.8152 42.7448 70.0792 42.1568 70.8832 41.8088C71.6512 41.4848 72.6232 41.2688 72.9832 39.6728C73.7152 36.3848 73.8112 33.9728 73.3312 33.3248C72.5272 32.2568 80.7832 32.6768 79.1872 33.4808V33.4928Z" fill="url(#paint42_linear_1_1714)"/>
<path d="M75.2511 31.2009C75.2871 31.8369 74.0872 33.9129 73.1152 33.9009C70.8592 33.9009 68.1711 33.4089 66.0351 32.8089C64.9191 32.4969 66.4192 31.1169 67.1152 31.3209C68.3392 31.6569 69.9111 32.0649 71.9992 31.8009C73.5591 31.5969 75.2151 30.3849 75.2511 31.2009Z" fill="url(#paint43_linear_1_1714)"/>
<path d="M78.7792 31.4288C78.4912 31.9328 78.3952 33.4328 79.1152 33.7568C80.4232 34.3568 82.1152 35.1608 83.4832 35.5208C84.1432 35.6888 84.8272 34.6088 84.1792 34.2608C83.3632 33.8168 82.6072 33.3128 81.4432 32.5208C80.0752 31.5848 79.1512 30.7688 78.7792 31.4168V31.4288Z" fill="url(#paint44_linear_1_1714)"/>
<path style="mix-blend-mode:multiply" d="M78.0471 43.4408C77.4351 44.4728 75.0591 45.3368 73.8831 45.1328C72.7791 44.9408 71.3991 44.3168 70.8591 43.6808C70.8831 43.3928 71.3871 43.5128 73.7991 44.3528C74.8431 44.7128 77.1951 44.2808 78.0471 43.4288V43.4408Z" fill="url(#paint45_linear_1_1714)"/>
<path d="M73.4151 44.6168C73.1631 44.5088 71.7231 43.5488 71.4951 43.7528C71.2671 43.9568 72.5511 44.4488 72.9111 44.5928C73.2711 44.7368 73.7031 44.7488 73.4151 44.6168Z" fill="url(#paint46_linear_1_1714)"/>
<path d="M75.6231 44.6769C75.8031 44.6289 77.0031 44.1009 77.1111 44.1609C77.3271 44.2809 76.2231 44.6889 75.9591 44.7489C75.6951 44.8089 75.4071 44.7489 75.6111 44.6769H75.6231Z" fill="url(#paint47_linear_1_1714)"/>
<path d="M69.9593 46.8728C71.1953 46.2488 76.4273 46.7408 77.0513 46.9208C77.6873 47.1008 77.2793 49.1408 77.1473 49.4048C77.0153 49.6808 75.1193 48.9968 73.3913 48.9968C71.3153 48.9968 69.4553 49.2728 69.1433 49.0928C68.8313 48.9128 69.6833 47.0168 69.9593 46.8728Z" fill="url(#paint48_linear_1_1714)"/>
<path d="M69.9112 46.7648C70.1272 46.6568 70.3312 46.6088 70.5472 46.5728C70.7632 46.5368 70.9792 46.5008 71.1832 46.4888C71.6152 46.4408 72.0352 46.4288 72.4672 46.4288C72.8872 46.4288 73.3192 46.4288 73.7392 46.4528C74.1592 46.4648 74.5912 46.5008 75.0112 46.5368C75.4312 46.5848 75.8512 46.6328 76.2712 46.6928C76.4872 46.7288 76.6912 46.7648 76.9072 46.8008C76.9552 46.8008 77.0152 46.8248 77.0752 46.8368C77.1352 46.8608 77.2072 46.8848 77.2432 46.9328C77.3392 47.0288 77.3872 47.1368 77.4112 47.2448C77.4712 47.4608 77.4832 47.6768 77.4712 47.8928C77.4712 48.1088 77.4472 48.3248 77.4232 48.5408C77.3992 48.7568 77.3632 48.9608 77.3152 49.1768C77.3032 49.2248 77.2912 49.2848 77.2792 49.3328C77.2792 49.3568 77.2672 49.3928 77.2552 49.4168V49.4408H77.2432V49.4648C77.2432 49.4648 77.2072 49.4888 77.1952 49.5008C77.1952 49.5008 77.1712 49.5128 77.1592 49.5248C77.0752 49.5728 77.0152 49.5728 76.9552 49.5728C76.8952 49.5728 76.8352 49.5728 76.7872 49.5728C76.3432 49.5368 75.9352 49.4648 75.5152 49.4168C75.0952 49.3688 74.6872 49.3208 74.2672 49.2848C74.0632 49.2728 73.8592 49.2608 73.6552 49.2488C73.4512 49.2488 73.2472 49.2488 73.0312 49.2488H71.7712H70.4992H69.8632C69.6472 49.2488 69.4312 49.2488 69.2152 49.1888C69.1792 49.1888 69.1552 49.1648 69.1192 49.1528C69.1072 49.1528 69.0832 49.1288 69.0712 49.1168C69.0592 49.1048 69.0472 49.0808 69.0352 49.0688C69.0112 48.9968 69.0112 48.9368 69.0112 48.8768C69.0112 48.7568 69.0352 48.6488 69.0592 48.5528C69.1072 48.3368 69.1792 48.1328 69.2512 47.9288C69.3232 47.7248 69.4072 47.5328 69.5032 47.3288C69.5512 47.2328 69.5992 47.1368 69.6592 47.0408C69.6832 46.9928 69.7192 46.9448 69.7552 46.8968C69.7912 46.8488 69.8272 46.8008 69.9112 46.7528V46.7648ZM70.0192 46.9808C70.0192 46.9808 69.9712 47.0168 69.9472 47.0648L69.8632 47.1848C69.8032 47.2688 69.7552 47.3528 69.7072 47.4488C69.6112 47.6288 69.5152 47.8208 69.4192 48.0008C69.3352 48.1928 69.2512 48.3848 69.2032 48.5888C69.1792 48.6848 69.1552 48.7928 69.1552 48.8888C69.1552 48.9368 69.1552 48.9848 69.1672 49.0088C69.1672 49.0088 69.1672 49.0088 69.1672 49.0208H69.2272C69.4192 49.0688 69.6352 49.0568 69.8392 49.0448C70.0432 49.0328 70.2592 49.0088 70.4632 48.9848L71.7232 48.8288C72.1432 48.7808 72.5752 48.7448 72.9952 48.7328C73.4152 48.7208 73.8712 48.7328 74.2912 48.7928C74.7232 48.8528 75.1432 48.9488 75.5512 49.0448C75.9592 49.1408 76.3792 49.2608 76.7752 49.3208C76.8232 49.3208 76.8712 49.3208 76.9192 49.3328C76.9672 49.3328 77.0152 49.3328 77.0152 49.3328C77.0032 49.3688 77.0272 49.3088 77.0392 49.2608C77.0512 49.2128 77.0752 49.1648 77.0872 49.1168C77.1472 48.9128 77.1832 48.7088 77.2192 48.5048C77.2792 48.0968 77.3152 47.6648 77.2192 47.2808C77.1952 47.1848 77.1472 47.1008 77.0872 47.0528C77.0632 47.0288 77.0272 47.0168 76.9912 47.0048C76.9432 47.0048 76.8952 46.9808 76.8472 46.9808C76.6432 46.9448 76.4272 46.9328 76.2232 46.9088C75.8032 46.8728 75.3832 46.8488 74.9632 46.8248L73.7032 46.7648C73.2832 46.7528 72.8632 46.7408 72.4432 46.7288C72.0232 46.7288 71.6032 46.7288 71.1832 46.7648C70.9792 46.7768 70.7632 46.8008 70.5712 46.8368C70.3672 46.8728 70.1632 46.9208 69.9952 46.9928L70.0192 46.9808Z" fill="url(#paint49_linear_1_1714)"/>
<path d="M90.1912 26.3408C89.7592 27.5408 87.0832 29.6168 84.2992 29.1248C79.7392 28.3088 77.7232 25.5608 76.0912 24.0128C74.8912 28.8248 69.2512 30.7568 63.6352 30.9608C63.4432 30.9968 63.3952 30.9608 63.4432 30.8408C63.6472 30.3848 65.6632 28.7528 67.0072 27.0968C67.0072 27.0968 67.0192 27.0848 67.0312 27.0728C67.6672 26.2808 68.1472 25.4768 68.1832 24.8048C67.0792 26.6408 64.0672 29.9168 60.3232 31.1888C59.2192 31.3928 59.0512 37.6808 59.0152 38.3048C58.9792 38.9408 57.3472 39.0848 57.1432 37.9208C56.9032 36.5768 54.8512 38.2568 54.5512 43.0808C54.5272 43.4168 51.5392 41.8688 51.1912 40.7528C50.4592 38.3648 49.4392 26.7968 49.9792 21.5168C50.0632 20.6648 50.1952 19.9808 50.3632 19.5128C51.9832 15.2648 64.1992 9.62479 66.1552 9.98479C66.7792 10.1048 67.3552 10.2848 67.8832 10.4888C69.2272 11.0168 70.2712 11.7008 71.0512 11.7488C71.6512 11.7848 72.4912 11.5568 73.4272 11.4128C74.1712 11.2928 74.9872 11.2328 75.7792 11.4008C78.8392 12.0488 82.3552 15.0848 84.7552 18.7328C86.7472 21.7448 87.3832 25.4168 89.6872 25.5488C90.2272 25.5848 90.3712 25.8968 90.2032 26.3408H90.1912Z" fill="url(#paint50_linear_1_1714)"/>
<path style="mix-blend-mode:multiply" opacity="0.5" d="M60.3112 31.1769C59.2072 31.3809 59.0392 37.6689 59.0032 38.2929C58.9672 38.9289 57.3352 39.0729 57.1312 37.9089C56.8912 36.5649 54.8392 38.2449 54.5392 43.0689C54.5152 43.4049 51.5272 41.8569 51.1792 40.7409C50.4472 38.3529 49.4272 26.7849 49.9672 21.5049C52.4632 25.2009 57.8392 30.1809 59.3392 30.3729C62.3032 30.7569 67.3072 25.5609 68.4232 23.9889C68.2672 25.2969 67.7392 26.2449 67.0192 27.0609C67.6552 26.2689 68.1352 25.4649 68.1712 24.7929C67.0672 26.6289 64.0552 29.9049 60.3112 31.1769Z" fill="url(#paint51_linear_1_1714)"/>
<path style="mix-blend-mode:multiply" opacity="0.5" d="M67.8832 10.4888C69.2272 11.0168 70.2712 11.7008 71.0512 11.7488C71.6512 11.7848 72.4912 11.5568 73.4272 11.4128C72.2752 12.3608 72.9232 13.6688 72.5512 15.3728C72.3352 16.3448 70.5712 12.0848 67.8832 10.4888Z" fill="url(#paint52_linear_1_1714)"/>
<path style="mix-blend-mode:multiply" opacity="0.5" d="M90.1912 26.3408C89.7592 27.5408 87.0832 29.6168 84.2992 29.1248C79.7392 28.3088 77.7232 25.5608 76.0912 24.0128C74.8912 28.8248 69.2512 30.7568 63.6352 30.9608C63.4432 30.9968 63.3952 30.9608 63.4432 30.8408C66.5512 30.3968 74.6992 29.2688 76.1032 22.8368C78.6232 25.7408 85.5712 29.1608 90.2032 26.3528L90.1912 26.3408Z" fill="url(#paint53_linear_1_1714)"/>
<g style="mix-blend-mode:screen" opacity="0.5">
<path style="mix-blend-mode:screen" d="M63.6712 25.9808C62.6272 25.3568 61.5952 24.7568 60.5992 24.0968C59.6152 23.4368 58.6672 22.7168 57.7912 21.9368C56.9152 21.1448 56.1232 20.2928 55.3912 19.3688C54.6712 18.4448 54.4072 18.0608 53.7952 17.0408C54.1192 18.1808 54.2632 18.6728 54.9232 19.6928C55.5712 20.7128 56.3752 21.6608 57.2872 22.4768C58.1992 23.3048 59.2192 24.0128 60.2992 24.5888C61.3792 25.1768 62.5072 25.6448 63.6712 25.9808Z" fill="url(#paint54_linear_1_1714)"/>
</g>
<path d="M57.7791 38.2928C57.8031 36.5048 57.6471 35.3048 57.2631 34.3688C56.6751 32.9768 55.4751 31.7288 54.1671 31.8728C50.8431 32.2448 50.6151 37.5608 52.3911 39.8408C53.6511 41.4488 57.7071 43.7168 57.7791 38.2928Z" fill="url(#paint55_linear_1_1714)"/>
<path opacity="0.09" d="M53.6991 34.9569C54.7551 34.8849 57.0711 36.3969 57.1071 38.2329C56.6871 37.6089 55.2111 37.5849 54.5391 37.5729C54.9471 37.3569 55.3791 37.4169 55.8111 37.4049C55.4151 36.6489 54.3951 35.4729 53.7111 34.9569H53.6991Z" fill="url(#paint56_linear_1_1714)"/>
<path opacity="0.18" d="M53.6991 34.9569C54.7551 34.8849 57.0711 36.3969 57.0951 38.2329C56.6271 37.7169 55.1991 37.5849 54.5271 37.5729C54.9471 37.3569 55.3791 37.4649 55.8351 37.4529C55.4751 36.5889 54.3591 35.4369 53.6991 34.9569Z" fill="url(#paint57_linear_1_1714)"/>
<path opacity="0.27" d="M53.7111 34.9568C54.7671 34.8848 57.0831 36.4088 57.1071 38.2328C56.6031 37.8368 55.2111 37.5968 54.5391 37.5728C54.9711 37.3568 55.4031 37.5248 55.8951 37.5008C55.5591 36.5288 54.3591 35.4008 53.7111 34.9448V34.9568Z" fill="url(#paint58_linear_1_1714)"/>
<path opacity="0.36" d="M53.7111 34.9569C54.7671 34.8849 57.0711 36.4089 57.1071 38.2329C56.5551 37.9449 55.2111 37.5969 54.5391 37.5849C54.9711 37.3689 55.4151 37.5849 55.9311 37.5729C55.6191 36.4929 54.3351 35.3769 53.7111 34.9569Z" fill="url(#paint59_linear_1_1714)"/>
<path opacity="0.45" d="M53.7111 34.9448C54.7671 34.8728 57.0711 36.3968 57.0951 38.2328C56.5071 38.0528 55.2111 37.5968 54.5271 37.5848C54.9711 37.3688 55.4151 37.6328 55.9671 37.6208C55.6911 36.4328 54.3111 35.3408 53.7111 34.9568V34.9448Z" fill="url(#paint60_linear_1_1714)"/>
<path opacity="0.55" d="M53.7231 34.9448C54.7791 34.8728 57.0831 36.3968 57.1071 38.2328C56.4711 38.1608 55.2231 37.5968 54.5391 37.5848C54.9951 37.3808 55.4391 37.6808 56.0151 37.6688C55.7631 36.3728 54.2991 35.3048 53.7231 34.9448Z" fill="url(#paint61_linear_1_1714)"/>
<path opacity="0.64" d="M53.7231 34.9449C54.7791 34.8729 57.0711 36.3969 57.1071 38.2329C56.4351 38.2809 55.2231 37.5969 54.5391 37.5849C54.9951 37.3809 55.4511 37.7289 56.0631 37.7169C55.8471 36.3129 54.2751 35.2689 53.7351 34.9329L53.7231 34.9449Z" fill="url(#paint62_linear_1_1714)"/>
<path opacity="0.73" d="M53.7231 34.9448C54.7791 34.8728 57.0711 36.4088 57.0951 38.2328C56.3751 38.3888 55.2111 37.5968 54.5271 37.5848C54.9951 37.3808 55.4631 37.7768 56.0871 37.7768C55.8951 36.2648 54.2391 35.2448 53.7111 34.9448H53.7231Z" fill="url(#paint63_linear_1_1714)"/>
<path opacity="0.82" d="M53.7351 34.9448C54.7911 34.8728 57.0831 36.4088 57.1071 38.2328C56.3391 38.4968 55.2231 37.6088 54.5391 37.5968C55.0191 37.3928 55.4871 37.8368 56.1471 37.8368C55.9791 36.2168 54.2391 35.2088 53.7351 34.9448Z" fill="url(#paint64_linear_1_1714)"/>
<path opacity="0.91" d="M53.7351 34.9329C54.7911 34.8609 57.0711 36.3969 57.1071 38.2209C56.3031 38.5929 55.2231 37.5969 54.5391 37.5849C55.0191 37.3809 55.4991 37.8729 56.1831 37.8729C56.0511 36.1449 54.2151 35.1609 53.7351 34.9329Z" fill="url(#paint65_linear_1_1714)"/>
<path d="M56.2191 37.9329C56.1111 36.0969 54.1911 35.1369 53.7351 34.9329C54.7911 34.8609 57.0711 36.3969 57.1071 38.2329C56.2551 38.7129 55.2231 37.6089 54.5391 37.5969C55.0311 37.3929 55.5111 37.9329 56.2191 37.9449V37.9329Z" fill="url(#paint66_linear_1_1714)"/>
<path opacity="0.05" d="M55.2952 35.5569C55.8712 35.9409 56.9992 37.0209 57.1072 38.2329C56.7712 38.4729 56.3512 38.4009 55.4992 37.9689L55.2952 35.5569Z" fill="url(#paint67_linear_1_1714)"/>
<path opacity="0.1" d="M55.3191 35.569C55.8831 35.941 56.9991 37.009 57.0951 38.233C56.7711 38.461 56.3511 38.401 55.5231 37.981L55.3191 35.581V35.569Z" fill="url(#paint68_linear_1_1714)"/>
<path opacity="0.14" d="M55.3432 35.593C55.8952 35.953 56.9992 37.009 57.0952 38.233C56.7712 38.461 56.3632 38.413 55.5472 37.993L55.3312 35.593H55.3432Z" fill="url(#paint69_linear_1_1714)"/>
<path opacity="0.19" d="M55.3792 35.6169C55.9192 35.9649 57.0112 37.0209 57.1072 38.2329C56.7952 38.4489 56.3752 38.4129 55.5952 38.0049L55.3792 35.6169Z" fill="url(#paint70_linear_1_1714)"/>
<path opacity="0.24" d="M55.4031 35.641C55.9311 35.989 56.9991 37.021 57.1071 38.233C56.7951 38.449 56.3871 38.413 55.6311 38.029L55.4031 35.641Z" fill="url(#paint71_linear_1_1714)"/>
<path opacity="0.29" d="M55.4271 35.653C55.9431 35.989 56.9991 37.009 57.1071 38.233C56.8071 38.437 56.3991 38.425 55.6551 38.041L55.4271 35.665V35.653Z" fill="url(#paint72_linear_1_1714)"/>
<path opacity="0.33" d="M55.4512 35.677C55.9432 36.001 56.9992 37.009 57.0952 38.233C56.7952 38.437 56.3992 38.425 55.6792 38.053L55.4512 35.677Z" fill="url(#paint73_linear_1_1714)"/>
<path opacity="0.38" d="M55.4871 35.7009C55.9671 36.0249 57.0111 37.0209 57.1071 38.2329C56.8191 38.4249 56.4111 38.4249 55.7271 38.0649L55.4871 35.7009Z" fill="url(#paint74_linear_1_1714)"/>
<path opacity="0.43" d="M55.5111 35.725C55.9791 36.037 56.9991 37.021 57.1071 38.233C56.8191 38.425 56.4231 38.425 55.7631 38.089L55.5231 35.725H55.5111Z" fill="url(#paint75_linear_1_1714)"/>
<path opacity="0.48" d="M55.5352 35.7369C55.9912 36.0369 56.9992 37.0089 57.1072 38.2329C56.8312 38.4129 56.4352 38.4369 55.7872 38.1009L55.5352 35.7489V35.7369Z" fill="url(#paint76_linear_1_1714)"/>
<path opacity="0.52" d="M55.5591 35.761C56.0031 36.049 56.9991 37.021 57.0951 38.233C56.8191 38.413 56.4351 38.437 55.8111 38.113L55.5591 35.761Z" fill="url(#paint77_linear_1_1714)"/>
<path opacity="0.57" d="M55.5951 35.7849C56.0271 36.0729 57.0111 37.0209 57.1071 38.2329C56.8431 38.4009 56.4471 38.4369 55.8591 38.1249L55.5951 35.7849Z" fill="url(#paint78_linear_1_1714)"/>
<path opacity="0.62" d="M55.6191 35.809C56.0271 36.085 57.0111 37.021 57.1071 38.233C56.8551 38.401 56.4591 38.449 55.8831 38.149L55.6191 35.809Z" fill="url(#paint79_linear_1_1714)"/>
<path opacity="0.67" d="M55.6431 35.8209C56.0391 36.0849 56.9991 37.0089 57.1071 38.2329C56.8551 38.3889 56.4711 38.4489 55.9191 38.1609L55.6431 35.8329V35.8209Z" fill="url(#paint80_linear_1_1714)"/>
<path opacity="0.71" d="M55.6671 35.845C56.0511 36.109 56.9991 37.021 57.0951 38.233C56.8551 38.389 56.4711 38.449 55.9431 38.173L55.6671 35.845Z" fill="url(#paint81_linear_1_1714)"/>
<path opacity="0.76" d="M55.6912 35.8689C56.0632 36.1209 56.9992 37.0209 57.0952 38.2329C56.8552 38.3769 56.4712 38.4609 55.9792 38.1849L55.6912 35.8689Z" fill="url(#paint82_linear_1_1714)"/>
<path opacity="0.81" d="M55.7272 35.8929C56.0872 36.1329 57.0112 37.0209 57.1072 38.2329C56.8792 38.3769 56.4952 38.4609 56.0152 38.2089L55.7272 35.8929Z" fill="url(#paint83_linear_1_1714)"/>
<path opacity="0.86" d="M55.7511 35.905C56.0991 36.133 56.9991 37.009 57.1071 38.233C56.8791 38.365 56.5071 38.461 56.0511 38.221L55.7511 35.917V35.905Z" fill="url(#paint84_linear_1_1714)"/>
<path opacity="0.9" d="M55.7751 35.929C56.0991 36.157 56.9991 37.021 57.0951 38.233C56.8791 38.365 56.5071 38.473 56.0751 38.233L55.7751 35.929Z" fill="url(#paint85_linear_1_1714)"/>
<path opacity="0.95" d="M55.7991 35.9529C56.1111 36.1689 56.9991 37.0209 57.0951 38.2329C56.8791 38.3529 56.5071 38.4729 56.0991 38.2449L55.7871 35.9529H55.7991Z" fill="url(#paint86_linear_1_1714)"/>
<path d="M55.8351 35.965C56.1351 36.169 57.0111 37.009 57.1071 38.221C56.9031 38.341 56.5311 38.461 56.1471 38.257L55.8351 35.965Z" fill="url(#paint87_linear_1_1714)"/>
<path d="M56.9631 38.1368C57.0711 36.9728 54.9351 34.8728 53.7351 34.9328C54.9351 34.8608 57.1791 36.6128 57.1071 38.2328C56.6991 38.4608 56.4111 38.3888 56.1471 38.2688C56.4111 38.2688 56.7351 38.2448 56.9631 38.1368Z" fill="url(#paint88_linear_1_1714)"/>
<path d="M27.9353 89.5208C27.8873 89.5808 27.8153 89.6288 27.7553 89.6768C22.1153 87.7208 11.2913 78.3368 9.70728 74.6648C20.9993 61.9688 27.3833 56.8088 32.7233 56.1488C35.1833 55.8368 40.6673 72.2648 36.4673 78.0968C34.6913 80.5688 30.5873 85.8008 27.9233 89.5208H27.9353Z" fill="url(#paint89_linear_1_1714)"/>
<path style="mix-blend-mode:multiply" opacity="0.5" d="M27.9353 89.5208C27.9353 89.5208 27.8153 89.6288 27.7553 89.6768C22.1153 87.7208 11.2913 78.3368 9.70728 74.6648C20.9993 61.9688 27.3833 56.8088 32.7233 56.1488C28.6553 57.7448 21.8033 63.1208 25.6913 63.1688C36.7553 63.3128 34.0913 64.8128 29.4113 65.7248C24.1553 66.7448 19.4153 67.9928 16.7753 70.2488C14.1473 72.5048 12.5993 74.1008 14.3753 77.1008C16.1273 80.0528 21.4313 85.4768 27.9113 89.5088L27.9353 89.5208Z" fill="url(#paint90_linear_1_1714)"/>
<path d="M92.3752 98.3288C92.2792 100.693 91.4272 103.585 88.8952 105.709C83.0152 110.665 76.4632 112.801 73.3432 113.737C73.2352 113.773 73.1032 113.461 72.9472 112.969C72.4072 111.205 71.6992 107.005 71.8552 106.885C71.9032 106.849 71.9512 106.813 71.9872 106.777C72.0232 106.741 72.0712 106.705 72.1072 106.669C73.3912 105.577 74.5672 103.849 75.7072 101.989C77.1112 99.6967 78.4672 97.2127 79.9432 95.4847C84.0952 90.6007 90.5152 91.0088 91.9672 95.0288C92.2432 95.7848 92.4352 96.9607 92.3752 98.3047V98.3288Z" fill="url(#paint91_linear_1_1714)"/>
<path d="M60.4312 103.633C62.0152 104.305 63.0592 104.149 63.4312 104.269C63.9472 104.425 64.5952 104.545 64.7152 104.905C65.0512 105.877 66.0112 107.113 67.2472 107.521C68.3032 107.869 69.9592 107.497 71.0752 107.233C71.2312 107.197 71.3752 107.149 71.5072 107.101C71.8312 106.981 72.0592 106.825 72.1072 106.657C72.1432 106.549 71.2552 105.553 70.7872 105.109C69.5872 103.993 68.2912 102.721 67.2472 102.145C66.0232 101.473 61.4152 101.245 59.7832 101.269C58.9672 101.281 58.9792 103.009 60.4192 103.633H60.4312Z" fill="url(#paint92_linear_1_1714)"/>
<path d="M60.3952 105.241C59.8432 105.241 56.8072 105.541 56.4592 105.541C56.1112 105.541 53.8192 105.397 53.0032 105.397C52.1872 105.397 51.8152 106.765 53.2312 107.233C54.6472 107.701 56.1472 107.977 56.6872 107.977C57.2272 107.977 60.0472 107.905 60.5152 107.773C60.9952 107.641 61.1272 105.229 60.3832 105.229L60.3952 105.241Z" fill="url(#paint93_linear_1_1714)"/>
<path d="M61.0792 107.857C60.4552 107.845 57.0472 108.313 56.6512 108.289C54.9112 108.169 53.7232 108.061 52.7872 108.037C51.8632 108.013 51.1912 109.621 52.8112 110.209C54.4192 110.785 55.9672 110.977 56.5792 111.001C57.2032 111.013 60.7192 110.977 61.2592 110.833C61.7992 110.689 61.9192 107.881 61.0672 107.857H61.0792Z" fill="url(#paint94_linear_1_1714)"/>
<path d="M61.9672 110.797C61.3912 110.785 57.7192 111.241 57.3712 111.229C56.0032 111.181 55.0552 111.037 54.3712 110.989C53.5192 110.929 53.0272 112.537 54.5032 113.065C55.9792 113.593 56.7352 113.689 57.2992 113.701C57.8632 113.713 61.6072 113.761 62.0992 113.629C62.5912 113.497 62.7352 110.809 61.9552 110.797H61.9672Z" fill="url(#paint95_linear_1_1714)"/>
<path d="M62.7112 113.473C62.2312 113.497 59.6512 114.049 59.3512 114.061C59.0512 114.073 56.6392 114.229 55.9192 114.265C55.1992 114.301 54.8632 115.741 56.1352 116.101C57.3952 116.449 59.0272 116.317 59.4952 116.293C59.9752 116.269 62.5912 115.981 62.9992 115.837C63.4072 115.693 63.3472 113.437 62.6992 113.473H62.7112Z" fill="url(#paint96_linear_1_1714)"/>
<path d="M73.3432 113.749C72.2632 114.157 65.0752 115.921 63.0352 115.921C63.0352 115.921 63.0112 115.921 62.9992 115.921C62.8912 115.921 62.7952 115.885 62.6872 115.825C60.7792 114.769 59.0872 105.241 60.1072 105.241C60.4312 105.241 62.4112 104.929 64.3192 104.689C65.5792 104.533 66.8032 104.389 67.4992 104.389C68.3872 104.389 70.8472 105.769 71.7592 106.381C71.9632 106.513 72.0832 106.621 72.0952 106.657C72.0952 106.657 72.0952 106.669 72.0952 106.681C72.1672 106.897 72.2632 107.185 72.3712 107.521C72.3952 107.593 72.4192 107.665 72.4432 107.737C72.8992 109.201 73.5352 111.445 73.5952 112.741C73.6192 113.281 73.5472 113.665 73.3192 113.749H73.3432Z" fill="url(#paint97_linear_1_1714)"/>
<path style="mix-blend-mode:multiply" d="M92.3751 98.3288C92.2791 100.693 91.4271 103.585 88.8951 105.709C83.0151 110.665 76.4631 112.801 73.3431 113.737C72.2631 114.145 65.0751 115.909 63.0351 115.909C63.0351 115.909 63.0111 115.909 62.9991 115.909C62.8911 115.909 62.7951 115.873 62.6871 115.813C65.9391 115.237 70.9191 113.665 72.9351 112.969C73.2231 112.873 73.4391 112.789 73.5951 112.729C74.8551 112.249 78.4791 111.217 84.1791 107.965C89.2311 105.073 91.5831 101.341 92.3631 98.3168L92.3751 98.3288Z" fill="url(#paint98_linear_1_1714)"/>
<path style="mix-blend-mode:multiply" d="M75.7191 102.001C75.2511 102.937 74.8791 103.957 74.3511 104.989C73.2231 107.209 73.1751 109.189 72.9471 108.649C72.7791 108.253 72.3231 107.449 72.1191 106.681C73.4031 105.589 74.5791 103.861 75.7191 102.001Z" fill="url(#paint99_linear_1_1714)"/>
</g>
<path d="M126.645 11.5106C149.423 11.5106 156.293 29.5827 154.807 45.8466C153.241 63.0825 141.4 72.5001 123.685 72.5001C104.906 72.5001 94.5284 57.3755 94.0369 46.7455C93.054 25.0568 111.821 11.5001 126.645 11.5001V11.5106Z" fill="url(#paint100_linear_1_1714)"/>
<path d="M93.5919 56.0721C93.5919 58.6041 91.5399 60.6441 89.0199 60.6441C86.4999 60.6441 84.4479 58.5921 84.4479 56.0721C84.4479 53.5521 86.4999 51.5001 89.0199 51.5001C91.5399 51.5001 93.5919 53.5521 93.5919 56.0721Z" fill="url(#paint101_linear_1_1714)"/>
<path d="M83.1439 59.6481C83.1439 61.3041 81.7639 62.6481 80.0719 62.6481C78.3799 62.6481 76.9999 61.3041 76.9999 59.6481C76.9999 57.9921 78.3799 56.6481 80.0719 56.6481C81.7639 56.6481 83.1439 57.9921 83.1439 59.6481Z" fill="url(#paint102_linear_1_1714)"/>
<path d="M130.74 43.8802V45.5482C130.74 49.7002 126.204 51.0322 126.204 60.9922H118.02C117.072 54.9202 114.3 52.5442 111.972 50.6962C110.172 49.2562 108.636 48.1402 108.456 45.8602C108.456 45.8602 108.456 45.8362 108.456 45.8242C108.456 45.7402 108.444 45.6442 108.444 45.5482V43.8802C108.444 42.2962 109.728 41.0242 111.3 41.0242H127.884C129.468 41.0242 130.74 42.3082 130.74 43.8802Z" fill="url(#paint103_linear_1_1714)"/>
<path style="mix-blend-mode:multiply" d="M130.74 43.8802V45.5482C130.74 49.7002 126.204 51.0322 126.204 60.9922H118.02C117.072 54.9202 114.3 52.5442 111.972 50.6962C117.336 53.2402 125.1 52.4842 126.948 49.8322C128.1 48.1882 127.524 45.4762 126.084 45.4762C124.8 45.4762 111.84 44.9482 108.42 44.5882V43.8802C108.42 42.2962 109.704 41.0242 111.276 41.0242H127.86C129.444 41.0242 130.716 42.3082 130.716 43.8802H130.74Z" fill="url(#paint104_linear_1_1714)"/>
<path d="M128.832 42.0201C127.8 42.0201 126.972 41.1921 126.972 40.1601V17.3601C126.972 16.3281 127.8 15.5001 128.832 15.5001C129.864 15.5001 130.692 16.3281 130.692 17.3601V40.1721C130.692 41.2041 129.864 42.0321 128.832 42.0321V42.0201Z" fill="url(#paint105_linear_1_1714)"/>
<path style="mix-blend-mode:screen" opacity="0.5" d="M127.74 38.3241C127.584 38.3241 127.452 37.5321 127.452 36.5601V18.4401C127.452 17.4681 127.584 16.6761 127.74 16.6761C127.74 16.6761 127.812 16.7241 127.848 16.8201C127.956 17.0841 128.028 17.7201 128.028 18.4521V36.5721C128.028 37.5441 127.896 38.3361 127.74 38.3361V38.3241Z" fill="url(#paint106_linear_1_1714)"/>
<path style="mix-blend-mode:multiply" d="M128.844 15.5001C129.552 15.7641 130.056 16.4481 130.056 17.2401V37.3761C130.056 38.4081 129.228 39.2361 128.196 39.2361C127.728 39.2361 127.308 39.0681 126.984 38.7801V40.1601C126.984 41.1921 127.812 42.0201 128.844 42.0201C129.876 42.0201 130.704 41.1921 130.704 40.1601V17.3601C130.704 16.3401 129.876 15.5001 128.856 15.5001H128.844Z" fill="url(#paint107_linear_1_1714)"/>
<path d="M129.768 39.6921H109.116C108.5 39.6921 108 40.1918 108 40.8081V43.4361C108 44.0525 108.5 44.5521 109.116 44.5521H129.768C130.384 44.5521 130.884 44.0525 130.884 43.4361V40.8081C130.884 40.1918 130.384 39.6921 129.768 39.6921Z" fill="url(#paint108_linear_1_1714)"/>
<path style="mix-blend-mode:screen" opacity="0.5" d="M125.112 42.1642H109.38C108.744 42.1642 108.24 41.6482 108.24 41.0242C108.24 40.3882 108.756 39.8842 109.38 39.8842H125.112C125.748 39.8842 126.252 40.4002 126.252 41.0242C126.252 41.6602 125.736 42.1642 125.112 42.1642Z" fill="url(#paint109_linear_1_1714)"/>
<path style="mix-blend-mode:multiply" d="M129.744 39.6921H129.42C129.444 39.7881 129.456 39.8841 129.456 39.9801V40.8681C129.456 42.4281 128.196 43.6881 126.636 43.6881H108.048C108.18 44.1801 108.624 44.5401 109.152 44.5401H129.744C130.38 44.5401 130.884 44.0241 130.884 43.4001V40.8321C130.884 40.1961 130.368 39.6921 129.744 39.6921Z" fill="url(#paint110_linear_1_1714)"/>
<path d="M112.428 65.0001C112.212 65.0001 112.044 64.8201 112.056 64.6161C112.26 61.6041 114.768 59.2161 117.84 59.2161H125.472C128.544 59.2161 131.052 61.6041 131.256 64.6161C131.268 64.8321 131.1 65.0001 130.884 65.0001H112.428Z" fill="url(#paint111_linear_1_1714)"/>
<path style="mix-blend-mode:screen" opacity="0.5" d="M113.76 62.4201C113.616 62.4201 113.508 62.3361 113.508 62.2401C113.64 60.8601 115.32 59.7681 117.384 59.7681H122.508C124.56 59.7681 126.252 60.8601 126.384 62.2401C126.384 62.3361 126.276 62.4201 126.132 62.4201H113.76Z" fill="url(#paint112_linear_1_1714)"/>
<path style="mix-blend-mode:multiply" d="M125.472 59.2041H124.428C126.876 59.6001 128.772 61.6641 128.94 64.1961C128.952 64.3881 128.796 64.5561 128.592 64.5561H112.056C112.056 64.5561 112.056 64.5801 112.056 64.5921C112.044 64.8081 112.212 64.9761 112.428 64.9761H130.884C131.1 64.9761 131.268 64.7961 131.256 64.5921C131.052 61.5801 128.544 59.1921 125.472 59.1921V59.2041Z" fill="url(#paint113_linear_1_1714)"/>
<path d="M138.432 43.9042H133.5V65.0002H138.432V43.9042Z" fill="url(#paint114_linear_1_1714)"/>
<path style="mix-blend-mode:multiply" d="M138.432 46.4601V43.9161H133.5V65.0121H138.432V60.4881H136.512C135.3 60.4881 134.316 59.5041 134.316 58.2921V48.6681C134.316 47.4561 135.3 46.4721 136.512 46.4721H138.432V46.4601Z" fill="url(#paint115_linear_1_1714)"/>
<path d="M139.992 65.0001H131.928C131.784 65.0001 131.652 64.8801 131.652 64.7241C131.652 63.1641 132.912 61.8921 134.484 61.8921H137.436C138.996 61.8921 140.268 63.1521 140.268 64.7241C140.268 64.8681 140.148 65.0001 139.992 65.0001Z" fill="url(#paint116_linear_1_1714)"/>
<path style="mix-blend-mode:multiply" d="M140.052 64.7481H132.42C132.3 64.7481 132.204 64.6521 132.204 64.5321V64.1241C132.204 62.9601 133.08 62.0121 134.208 61.8921H133.896C132.66 61.8921 131.652 62.9001 131.652 64.1361V64.7841C131.652 64.9041 131.748 65.0001 131.868 65.0001H140.04C140.16 65.0001 140.256 64.9041 140.256 64.7841V64.5321C140.256 64.6521 140.16 64.7481 140.04 64.7481H140.052Z" fill="url(#paint117_linear_1_1714)"/>
<path d="M138.708 21.9562H133.224C131.951 21.9562 130.92 22.9877 130.92 24.2602V43.0282C130.92 44.3006 131.951 45.3322 133.224 45.3322H138.708C139.98 45.3322 141.012 44.3006 141.012 43.0282V24.2602C141.012 22.9877 139.98 21.9562 138.708 21.9562Z" fill="url(#paint118_linear_1_1714)"/>
<path style="mix-blend-mode:multiply" d="M140.376 44.2881H134.484C132.936 44.2881 131.676 43.0281 131.676 41.4801V22.3041C131.676 22.2321 131.676 22.1721 131.688 22.1001C131.232 22.3281 130.908 22.7961 130.908 23.3481V43.9401C130.908 44.7081 131.532 45.3321 132.3 45.3321H139.608C140.304 45.3321 140.892 44.8161 140.988 44.1441C140.808 44.2401 140.592 44.2881 140.376 44.2881Z" fill="url(#paint119_linear_1_1714)"/>
<path style="mix-blend-mode:multiply" d="M130.956 27.3921V27.9681H141.012V27.3921H130.956Z" fill="url(#paint120_linear_1_1714)"/>
</g>
<defs>
<linearGradient id="paint0_linear_1_1714" x1="5.83118" y1="60.0007" x2="125.831" y2="60.0007" gradientUnits="userSpaceOnUse">
<stop stop-color="#CCE9F1"/>
<stop offset="1" stop-color="#D0E1E7"/>
</linearGradient>
<linearGradient id="paint1_linear_1_1714" x1="91.1752" y1="82.5729" x2="58.8712" y2="91.5249" gradientUnits="userSpaceOnUse">
<stop stop-color="#EC7A2A"/>
<stop offset="1" stop-color="#C87944"/>
</linearGradient>
<linearGradient id="paint2_linear_1_1714" x1="85.8232" y1="96.3609" x2="76.1152" y2="72.5889" gradientUnits="userSpaceOnUse">
<stop stop-color="#FFECDF"/>
<stop offset="1" stop-color="#E5A480"/>
</linearGradient>
<linearGradient id="paint3_linear_1_1714" x1="17.5432" y1="78.6848" x2="-10.8368" y2="98.2088" gradientUnits="userSpaceOnUse">
<stop stop-color="#FF8533"/>
<stop offset="1" stop-color="#FFA973"/>
</linearGradient>
<linearGradient id="paint4_linear_1_1714" x1="-1.76478" y1="76.7288" x2="48.7432" y2="72.7928" gradientUnits="userSpaceOnUse">
<stop stop-color="#FFECDF"/>
<stop offset="1" stop-color="#E5A480"/>
</linearGradient>
<linearGradient id="paint5_linear_1_1714" x1="95.1953" y1="71.1369" x2="68.7713" y2="86.2449" gradientUnits="userSpaceOnUse">
<stop stop-color="#24BEBE"/>
<stop offset="1" stop-color="#228686"/>
</linearGradient>
<linearGradient id="paint6_linear_1_1714" x1="82.8233" y1="78.3729" x2="61.1153" y2="89.9528" gradientUnits="userSpaceOnUse">
<stop stop-color="#0BBEBE"/>
<stop offset="1" stop-color="#228686"/>
</linearGradient>
<linearGradient id="paint7_linear_1_1714" x1="30.0231" y1="124.705" x2="27.2751" y2="125.425" gradientUnits="userSpaceOnUse">
<stop stop-color="#FF8533"/>
<stop offset="1" stop-color="#FFA973"/>
</linearGradient>
<linearGradient id="paint8_linear_1_1714" x1="30.4432" y1="125.173" x2="28.3072" y2="125.749" gradientUnits="userSpaceOnUse">
<stop stop-color="#FF8533"/>
<stop offset="1" stop-color="#FFA973"/>
</linearGradient>
<linearGradient id="paint9_linear_1_1714" x1="31.5951" y1="125.005" x2="28.3671" y2="125.821" gradientUnits="userSpaceOnUse">
<stop stop-color="#FF8533"/>
<stop offset="1" stop-color="#FFA973"/>
</linearGradient>
<linearGradient id="paint10_linear_1_1714" x1="33.3592" y1="124.261" x2="29.2192" y2="124.525" gradientUnits="userSpaceOnUse">
<stop stop-color="#FF8533"/>
<stop offset="1" stop-color="#FFA973"/>
</linearGradient>
<linearGradient id="paint11_linear_1_1714" x1="25.6912" y1="94.1768" x2="2.45918" y2="111.253" gradientUnits="userSpaceOnUse">
<stop stop-color="#FF8533"/>
<stop offset="1" stop-color="#FFA973"/>
</linearGradient>
<linearGradient id="paint12_linear_1_1714" x1="38.1112" y1="111.073" x2="14.8792" y2="128.149" gradientUnits="userSpaceOnUse">
<stop stop-color="#FF8533"/>
<stop offset="1" stop-color="#FFA973"/>
</linearGradient>
<linearGradient id="paint13_linear_1_1714" x1="35.9992" y1="112.621" x2="27.5872" y2="120.109" gradientUnits="userSpaceOnUse">
<stop stop-color="#FF8533"/>
<stop offset="1" stop-color="#FFA973"/>
</linearGradient>
<linearGradient id="paint14_linear_1_1714" x1="27.6472" y1="99.9609" x2="37.0432" y2="99.2409" gradientUnits="userSpaceOnUse">
<stop stop-color="#FFECDF"/>
<stop offset="1" stop-color="#E5A480"/>
</linearGradient>
<linearGradient id="paint15_linear_1_1714" x1="-0.78086" y1="89.3648" x2="49.7271" y2="85.4288" gradientUnits="userSpaceOnUse">
<stop stop-color="#FFECDF"/>
<stop offset="1" stop-color="#E5A480"/>
</linearGradient>
<linearGradient id="paint16_linear_1_1714" x1="51.1515" y1="45.1442" x2="70.3875" y2="67.8189" gradientUnits="userSpaceOnUse">
<stop stop-color="#FF8533"/>
<stop offset="1" stop-color="#FFA973"/>
</linearGradient>
<linearGradient id="paint17_linear_1_1714" x1="68.8784" y1="70.2639" x2="51.6565" y2="38.6374" gradientUnits="userSpaceOnUse">
<stop stop-color="#FFECDF"/>
<stop offset="1" stop-color="#E5A480"/>
</linearGradient>
<linearGradient id="paint18_linear_1_1714" x1="71.8553" y1="54.2528" x2="41.4833" y2="108.769" gradientUnits="userSpaceOnUse">
<stop stop-color="#24BEBE"/>
<stop offset="1" stop-color="#228686"/>
</linearGradient>
<linearGradient id="paint19_linear_1_1714" x1="51.1553" y1="61.1168" x2="64.7393" y2="62.2328" gradientUnits="userSpaceOnUse">
<stop stop-color="#146969"/>
<stop offset="1" stop-color="#1A6969"/>
</linearGradient>
<linearGradient id="paint20_linear_1_1714" x1="28.4273" y1="92.2808" x2="75.1193" y2="92.2808" gradientUnits="userSpaceOnUse">
<stop stop-color="#0BBEBE"/>
<stop offset="1" stop-color="#228686"/>
</linearGradient>
<linearGradient id="paint21_linear_1_1714" x1="70.3072" y1="77.6528" x2="79.9432" y2="77.6528" gradientUnits="userSpaceOnUse">
<stop stop-color="#0BBEBE"/>
<stop offset="1" stop-color="#228686"/>
</linearGradient>
<linearGradient id="paint22_linear_1_1714" x1="49.7821" y1="48.6027" x2="82.8819" y2="24.288" gradientUnits="userSpaceOnUse">
<stop stop-color="#FF8533"/>
<stop offset="0.72" stop-color="#FFA973"/>
</linearGradient>
<linearGradient id="paint23_linear_1_1714" x1="78.7219" y1="44.7743" x2="53.817" y2="16.664" gradientUnits="userSpaceOnUse">
<stop stop-color="#FFECDF"/>
<stop offset="1" stop-color="#E5A480"/>
</linearGradient>
<linearGradient id="paint24_linear_1_1714" x1="69.2497" y1="38.7917" x2="69.5795" y2="35.3253" gradientUnits="userSpaceOnUse">
<stop stop-color="#FFECDF"/>
<stop offset="1" stop-color="#E5A480"/>
</linearGradient>
<linearGradient id="paint25_linear_1_1714" x1="71.3079" y1="34.7698" x2="68.7077" y2="38.6348" gradientUnits="userSpaceOnUse">
<stop stop-color="#FFECDF"/>
<stop offset="1" stop-color="#E5A480"/>
</linearGradient>
<linearGradient id="paint26_linear_1_1714" x1="72.375" y1="36.4847" x2="69.5652" y2="36.381" gradientUnits="userSpaceOnUse">
<stop stop-color="#331500"/>
<stop offset="1" stop-color="#A04915"/>
</linearGradient>
<linearGradient id="paint27_linear_1_1714" x1="72.2078" y1="35.881" x2="69.4899" y2="36.808" gradientUnits="userSpaceOnUse">
<stop stop-color="#331500"/>
<stop offset="1" stop-color="#A04915"/>
</linearGradient>
<linearGradient id="paint28_linear_1_1714" x1="71.4827" y1="36.3577" x2="70.5461" y2="36.3232" gradientUnits="userSpaceOnUse">
<stop stop-color="#140800"/>
<stop offset="1" stop-color="#421E08"/>
</linearGradient>
<linearGradient id="paint29_linear_1_1714" x1="70.8608" y1="35.7607" x2="70.1893" y2="35.7254" gradientUnits="userSpaceOnUse">
<stop stop-color="#FFF7F1"/>
<stop offset="1" stop-color="#E5DBD5"/>
</linearGradient>
<linearGradient id="paint30_linear_1_1714" x1="72.8165" y1="36.652" x2="34.6424" y2="30.9453" gradientUnits="userSpaceOnUse">
<stop stop-color="#FFECDF"/>
<stop offset="1" stop-color="#E5A480"/>
</linearGradient>
<linearGradient id="paint31_linear_1_1714" x1="65.6815" y1="36.391" x2="73.4894" y2="35.7135" gradientUnits="userSpaceOnUse">
<stop stop-color="#1F0D00"/>
<stop offset="1" stop-color="#421E08"/>
</linearGradient>
<linearGradient id="paint32_linear_1_1714" x1="64.8542" y1="50.6425" x2="70.2776" y2="48.5414" gradientUnits="userSpaceOnUse">
<stop stop-color="#1F0D00"/>
<stop offset="1" stop-color="#421E08"/>
</linearGradient>
<linearGradient id="paint33_linear_1_1714" x1="78.4333" y1="41.5526" x2="80.6886" y2="35.0704" gradientUnits="userSpaceOnUse">
<stop stop-color="#FFECDF"/>
<stop offset="1" stop-color="#E5A480"/>
</linearGradient>
<linearGradient id="paint34_linear_1_1714" x1="81.7408" y1="37.4033" x2="78.1761" y2="38.7356" gradientUnits="userSpaceOnUse">
<stop stop-color="#FFECDF"/>
<stop offset="1" stop-color="#E5A480"/>
</linearGradient>
<linearGradient id="paint35_linear_1_1714" x1="81.3888" y1="37.7724" x2="78.9293" y2="37.6432" gradientUnits="userSpaceOnUse">
<stop stop-color="#331500"/>
<stop offset="1" stop-color="#A04915"/>
</linearGradient>
<linearGradient id="paint36_linear_1_1714" x1="81.5996" y1="37.6449" x2="79.2142" y2="38.4307" gradientUnits="userSpaceOnUse">
<stop stop-color="#331500"/>
<stop offset="1" stop-color="#A04915"/>
</linearGradient>
<linearGradient id="paint37_linear_1_1714" x1="80.5735" y1="37.7257" x2="79.758" y2="37.6791" gradientUnits="userSpaceOnUse">
<stop stop-color="#140800"/>
<stop offset="1" stop-color="#421E08"/>
</linearGradient>
<linearGradient id="paint38_linear_1_1714" x1="79.9283" y1="37.1898" x2="79.3409" y2="37.1543" gradientUnits="userSpaceOnUse">
<stop stop-color="#FFF7F1"/>
<stop offset="1" stop-color="#E5DBD5"/>
</linearGradient>
<linearGradient id="paint39_linear_1_1714" x1="77.0135" y1="37.5236" x2="107.041" y2="40.6649" gradientUnits="userSpaceOnUse">
<stop stop-color="#FFECDF"/>
<stop offset="1" stop-color="#E5A480"/>
</linearGradient>
<linearGradient id="paint40_linear_1_1714" x1="76.549" y1="36.5953" x2="82.8555" y2="37.7169" gradientUnits="userSpaceOnUse">
<stop stop-color="#1F0D00"/>
<stop offset="1" stop-color="#421E08"/>
</linearGradient>
<linearGradient id="paint41_linear_1_1714" x1="79.7379" y1="56.3648" x2="75.4519" y2="53.8142" gradientUnits="userSpaceOnUse">
<stop stop-color="#1F0D00"/>
<stop offset="1" stop-color="#421E08"/>
</linearGradient>
<linearGradient id="paint42_linear_1_1714" x1="73.7565" y1="44.5822" x2="76.5627" y2="32.7661" gradientUnits="userSpaceOnUse">
<stop stop-color="#FF8533"/>
<stop offset="1" stop-color="#FFA973"/>
</linearGradient>
<linearGradient id="paint43_linear_1_1714" x1="65.9763" y1="33.3179" x2="75.5176" y2="31.6784" gradientUnits="userSpaceOnUse">
<stop stop-color="#693B26"/>
<stop offset="0.35" stop-color="#633722"/>
<stop offset="0.79" stop-color="#542B18"/>
<stop offset="1" stop-color="#4A2412"/>
</linearGradient>
<linearGradient id="paint44_linear_1_1714" x1="95.4736" y1="38.9257" x2="101.619" y2="41.1235" gradientUnits="userSpaceOnUse">
<stop stop-color="#693B26"/>
<stop offset="0.35" stop-color="#633722"/>
<stop offset="0.79" stop-color="#542B18"/>
<stop offset="1" stop-color="#4A2412"/>
</linearGradient>
<linearGradient id="paint45_linear_1_1714" x1="74.5066" y1="43.329" x2="74.2047" y2="45.0428" gradientUnits="userSpaceOnUse">
<stop stop-color="#ECDBCF"/>
<stop offset="1" stop-color="#BC927F"/>
</linearGradient>
<linearGradient id="paint46_linear_1_1714" x1="72.5184" y1="44.4041" x2="72.5331" y2="45.7384" gradientUnits="userSpaceOnUse">
<stop stop-color="#70220D"/>
<stop offset="1" stop-color="#CB684F"/>
</linearGradient>
<linearGradient id="paint47_linear_1_1714" x1="75.8206" y1="44.8837" x2="75.4476" y2="46.1453" gradientUnits="userSpaceOnUse">
<stop stop-color="#70220D"/>
<stop offset="1" stop-color="#CB684F"/>
</linearGradient>
<linearGradient id="paint48_linear_1_1714" x1="68.6513" y1="49.5488" x2="81.6113" y2="45.8168" gradientUnits="userSpaceOnUse">
<stop stop-color="#70220D"/>
<stop offset="1" stop-color="#CB684F"/>
</linearGradient>
<linearGradient id="paint49_linear_1_1714" x1="68.9512" y1="49.4528" x2="77.5312" y2="46.9808" gradientUnits="userSpaceOnUse">
<stop stop-color="#C36727"/>
<stop offset="1" stop-color="#EF813A"/>
</linearGradient>
<linearGradient id="paint50_linear_1_1714" x1="49.6754" y1="25.9108" x2="90.1136" y2="28.3558" gradientUnits="userSpaceOnUse">
<stop stop-color="#693B26"/>
<stop offset="0.35" stop-color="#633722"/>
<stop offset="0.79" stop-color="#542B18"/>
<stop offset="1" stop-color="#4A2412"/>
</linearGradient>
<linearGradient id="paint51_linear_1_1714" x1="42.0043" y1="42.8308" x2="70.9745" y2="13.0489" gradientUnits="userSpaceOnUse">
<stop stop-color="#593D00"/>
<stop offset="1" stop-color="#B26217"/>
</linearGradient>
<linearGradient id="paint52_linear_1_1714" x1="69.1591" y1="14.0451" x2="73.5565" y2="9.51419" gradientUnits="userSpaceOnUse">
<stop stop-color="#593D00"/>
<stop offset="1" stop-color="#B26217"/>
</linearGradient>
<linearGradient id="paint53_linear_1_1714" x1="64.3091" y1="41.5705" x2="90.5998" y2="14.548" gradientUnits="userSpaceOnUse">
<stop stop-color="#593D00"/>
<stop offset="1" stop-color="#B26217"/>
</linearGradient>
<linearGradient id="paint54_linear_1_1714" x1="63.8751" y1="14.2685" x2="60.3753" y2="16.5856" gradientUnits="userSpaceOnUse">
<stop stop-color="#380E00"/>
<stop offset="1" stop-color="#A73A16"/>
</linearGradient>
<linearGradient id="paint55_linear_1_1714" x1="60.5565" y1="39.5134" x2="49.322" y2="34.0784" gradientUnits="userSpaceOnUse">
<stop stop-color="#FF6700"/>
<stop offset="1" stop-color="#FFA063"/>
</linearGradient>
<linearGradient id="paint56_linear_1_1714" x1="56.5015" y1="35.6485" x2="54.3569" y2="36.9603" gradientUnits="userSpaceOnUse">
<stop stop-color="#B44900"/>
<stop offset="1" stop-color="#FE8D43"/>
</linearGradient>
<linearGradient id="paint57_linear_1_1714" x1="56.5015" y1="35.6485" x2="54.3569" y2="36.9603" gradientUnits="userSpaceOnUse">
<stop stop-color="#B44900"/>
<stop offset="1" stop-color="#FC8B40"/>
</linearGradient>
<linearGradient id="paint58_linear_1_1714" x1="56.5015" y1="35.6484" x2="54.3569" y2="36.9602" gradientUnits="userSpaceOnUse">
<stop stop-color="#B44900"/>
<stop offset="1" stop-color="#FB8A3E"/>
</linearGradient>
<linearGradient id="paint59_linear_1_1714" x1="56.5015" y1="35.6485" x2="54.3569" y2="36.9603" gradientUnits="userSpaceOnUse">
<stop stop-color="#B44900"/>
<stop offset="1" stop-color="#FA883C"/>
</linearGradient>
<linearGradient id="paint60_linear_1_1714" x1="56.5015" y1="35.6484" x2="54.3569" y2="36.9602" gradientUnits="userSpaceOnUse">
<stop stop-color="#B44900"/>
<stop offset="1" stop-color="#F9863A"/>
</linearGradient>
<linearGradient id="paint61_linear_1_1714" x1="56.5016" y1="35.6484" x2="54.357" y2="36.9602" gradientUnits="userSpaceOnUse">
<stop stop-color="#B44900"/>
<stop offset="1" stop-color="#F78437"/>
</linearGradient>
<linearGradient id="paint62_linear_1_1714" x1="56.5016" y1="35.6484" x2="54.357" y2="36.9602" gradientUnits="userSpaceOnUse">
<stop stop-color="#B44900"/>
<stop offset="1" stop-color="#F68235"/>
</linearGradient>
<linearGradient id="paint63_linear_1_1714" x1="56.4965" y1="35.6375" x2="54.3569" y2="36.9602" gradientUnits="userSpaceOnUse">
<stop stop-color="#B44900"/>
<stop offset="1" stop-color="#F58033"/>
</linearGradient>
<linearGradient id="paint64_linear_1_1714" x1="56.4965" y1="35.6375" x2="54.357" y2="36.9602" gradientUnits="userSpaceOnUse">
<stop stop-color="#B44900"/>
<stop offset="1" stop-color="#F47F31"/>
</linearGradient>
<linearGradient id="paint65_linear_1_1714" x1="56.4965" y1="35.6375" x2="54.357" y2="36.9602" gradientUnits="userSpaceOnUse">
<stop stop-color="#B44900"/>
<stop offset="1" stop-color="#F27D2E"/>
</linearGradient>
<linearGradient id="paint66_linear_1_1714" x1="56.5074" y1="35.6325" x2="54.357" y2="36.9602" gradientUnits="userSpaceOnUse">
<stop stop-color="#B44900"/>
<stop offset="1" stop-color="#F17B2C"/>
</linearGradient>
<linearGradient id="paint67_linear_1_1714" x1="-416.835" y1="305.685" x2="-418.209" y2="306.693" gradientUnits="userSpaceOnUse">
<stop stop-color="#6B2C00"/>
<stop offset="1" stop-color="#E26E20"/>
</linearGradient>
<linearGradient id="paint68_linear_1_1714" x1="-416.829" y1="305.693" x2="-418.179" y2="306.695" gradientUnits="userSpaceOnUse">
<stop stop-color="#6B2C00"/>
<stop offset="1" stop-color="#E26E20"/>
</linearGradient>
<linearGradient id="paint69_linear_1_1714" x1="-416.818" y1="305.71" x2="-418.157" y2="306.698" gradientUnits="userSpaceOnUse">
<stop stop-color="#6B2C00"/>
<stop offset="1" stop-color="#E26E20"/>
</linearGradient>
<linearGradient id="paint70_linear_1_1714" x1="-416.809" y1="305.727" x2="-418.127" y2="306.702" gradientUnits="userSpaceOnUse">
<stop stop-color="#6B2C00"/>
<stop offset="1" stop-color="#E26E20"/>
</linearGradient>
<linearGradient id="paint71_linear_1_1714" x1="-416.806" y1="305.749" x2="-418.098" y2="306.7" gradientUnits="userSpaceOnUse">
<stop stop-color="#6B2C00"/>
<stop offset="1" stop-color="#E26E20"/>
</linearGradient>
<linearGradient id="paint72_linear_1_1714" x1="-416.801" y1="305.757" x2="-418.072" y2="306.697" gradientUnits="userSpaceOnUse">
<stop stop-color="#6B2C00"/>
<stop offset="1" stop-color="#E26E20"/>
</linearGradient>
<linearGradient id="paint73_linear_1_1714" x1="-416.79" y1="305.774" x2="-418.046" y2="306.705" gradientUnits="userSpaceOnUse">
<stop stop-color="#6B2C00"/>
<stop offset="1" stop-color="#E26E20"/>
</linearGradient>
<linearGradient id="paint74_linear_1_1714" x1="-416.781" y1="305.792" x2="-418.019" y2="306.703" gradientUnits="userSpaceOnUse">
<stop stop-color="#6B2C00"/>
<stop offset="1" stop-color="#E26E20"/>
</linearGradient>
<linearGradient id="paint75_linear_1_1714" x1="-416.778" y1="305.813" x2="-417.988" y2="306.708" gradientUnits="userSpaceOnUse">
<stop stop-color="#6B2C00"/>
<stop offset="1" stop-color="#E26E20"/>
</linearGradient>
<linearGradient id="paint76_linear_1_1714" x1="-416.773" y1="305.821" x2="-417.968" y2="306.708" gradientUnits="userSpaceOnUse">
<stop stop-color="#6B2C00"/>
<stop offset="1" stop-color="#E26E20"/>
</linearGradient>
<linearGradient id="paint77_linear_1_1714" x1="-416.761" y1="305.839" x2="-417.939" y2="306.706" gradientUnits="userSpaceOnUse">
<stop stop-color="#6B2C00"/>
<stop offset="1" stop-color="#E26E20"/>
</linearGradient>
<linearGradient id="paint78_linear_1_1714" x1="-416.753" y1="305.856" x2="-417.909" y2="306.711" gradientUnits="userSpaceOnUse">
<stop stop-color="#6B2C00"/>
<stop offset="1" stop-color="#E26E20"/>
</linearGradient>
<linearGradient id="paint79_linear_1_1714" x1="-416.749" y1="305.877" x2="-417.88" y2="306.709" gradientUnits="userSpaceOnUse">
<stop stop-color="#6B2C00"/>
<stop offset="1" stop-color="#E26E20"/>
</linearGradient>
<linearGradient id="paint80_linear_1_1714" x1="-416.739" y1="305.894" x2="-417.856" y2="306.718" gradientUnits="userSpaceOnUse">
<stop stop-color="#6B2C00"/>
<stop offset="1" stop-color="#E26E20"/>
</linearGradient>
<linearGradient id="paint81_linear_1_1714" x1="-416.733" y1="305.903" x2="-417.828" y2="306.714" gradientUnits="userSpaceOnUse">
<stop stop-color="#6B2C00"/>
<stop offset="1" stop-color="#E26E20"/>
</linearGradient>
<linearGradient id="paint82_linear_1_1714" x1="-416.722" y1="305.92" x2="-417.8" y2="306.712" gradientUnits="userSpaceOnUse">
<stop stop-color="#6B2C00"/>
<stop offset="1" stop-color="#E26E20"/>
</linearGradient>
<linearGradient id="paint83_linear_1_1714" x1="-416.721" y1="305.941" x2="-417.777" y2="306.721" gradientUnits="userSpaceOnUse">
<stop stop-color="#6B2C00"/>
<stop offset="1" stop-color="#E26E20"/>
</linearGradient>
<linearGradient id="paint84_linear_1_1714" x1="-416.711" y1="305.958" x2="-417.748" y2="306.719" gradientUnits="userSpaceOnUse">
<stop stop-color="#6B2C00"/>
<stop offset="1" stop-color="#E26E20"/>
</linearGradient>
<linearGradient id="paint85_linear_1_1714" x1="-416.704" y1="305.967" x2="-417.718" y2="306.721" gradientUnits="userSpaceOnUse">
<stop stop-color="#6B2C00"/>
<stop offset="1" stop-color="#E26E20"/>
</linearGradient>
<linearGradient id="paint86_linear_1_1714" x1="-416.695" y1="305.984" x2="-417.69" y2="306.72" gradientUnits="userSpaceOnUse">
<stop stop-color="#6B2C00"/>
<stop offset="1" stop-color="#E26E20"/>
</linearGradient>
<linearGradient id="paint87_linear_1_1714" x1="-416.685" y1="306.001" x2="-417.669" y2="306.722" gradientUnits="userSpaceOnUse">
<stop stop-color="#6B2C00"/>
<stop offset="1" stop-color="#E26E20"/>
</linearGradient>
<linearGradient id="paint88_linear_1_1714" x1="55.2903" y1="36.5197" x2="57.2231" y2="37.3109" gradientUnits="userSpaceOnUse">
<stop stop-color="#D8661A"/>
<stop offset="1" stop-color="#A24B0D"/>
</linearGradient>
<linearGradient id="paint89_linear_1_1714" x1="43.0362" y1="81.0151" x2="15.8482" y2="63.8095" gradientUnits="userSpaceOnUse">
<stop stop-color="#24BEBE"/>
<stop offset="1" stop-color="#228686"/>
</linearGradient>
<linearGradient id="paint90_linear_1_1714" x1="15.3972" y1="61.9128" x2="33.05" y2="75.8562" gradientUnits="userSpaceOnUse">
<stop stop-color="#A3F4F4"/>
<stop offset="1" stop-color="#228686"/>
</linearGradient>
<linearGradient id="paint91_linear_1_1714" x1="90.7792" y1="107.965" x2="60.4672" y2="92.1727" gradientUnits="userSpaceOnUse">
<stop stop-color="#FF8533"/>
<stop offset="1" stop-color="#FFA973"/>
</linearGradient>
<linearGradient id="paint92_linear_1_1714" x1="65.0512" y1="105.769" x2="66.4912" y2="102.265" gradientUnits="userSpaceOnUse">
<stop stop-color="#FF8533"/>
<stop offset="1" stop-color="#FFA973"/>
</linearGradient>
<linearGradient id="paint93_linear_1_1714" x1="56.7232" y1="105.313" x2="56.4952" y2="107.665" gradientUnits="userSpaceOnUse">
<stop stop-color="#FF8533"/>
<stop offset="1" stop-color="#FFA973"/>
</linearGradient>
<linearGradient id="paint94_linear_1_1714" x1="56.8672" y1="108.601" x2="56.6392" y2="110.437" gradientUnits="userSpaceOnUse">
<stop stop-color="#FF8533"/>
<stop offset="1" stop-color="#FFA973"/>
</linearGradient>
<linearGradient id="paint95_linear_1_1714" x1="58.0912" y1="111.097" x2="58.0072" y2="113.077" gradientUnits="userSpaceOnUse">
<stop stop-color="#FF8533"/>
<stop offset="1" stop-color="#FFA973"/>
</linearGradient>
<linearGradient id="paint96_linear_1_1714" x1="59.1832" y1="113.965" x2="59.3992" y2="116.041" gradientUnits="userSpaceOnUse">
<stop stop-color="#FF8533"/>
<stop offset="1" stop-color="#FFA973"/>
</linearGradient>
<linearGradient id="paint97_linear_1_1714" x1="85.1992" y1="120.397" x2="53.2072" y2="103.729" gradientUnits="userSpaceOnUse">
<stop stop-color="#FF8533"/>
<stop offset="1" stop-color="#FFA973"/>
</linearGradient>
<linearGradient id="paint98_linear_1_1714" x1="78.5631" y1="113.161" x2="75.1311" y2="92.7368" gradientUnits="userSpaceOnUse">
<stop stop-color="#FFECDF"/>
<stop offset="1" stop-color="#E5A480"/>
</linearGradient>
<linearGradient id="paint99_linear_1_1714" x1="75.4671" y1="109.057" x2="70.3791" y2="93.6007" gradientUnits="userSpaceOnUse">
<stop stop-color="#FFECDF"/>
<stop offset="1" stop-color="#E5A480"/>
</linearGradient>
<linearGradient id="paint100_linear_1_1714" x1="132.622" y1="42.2928" x2="398.54" y2="54.324" gradientUnits="userSpaceOnUse">
<stop stop-color="#98B7C1"/>
<stop offset="1" stop-color="#BEDEE7"/>
</linearGradient>
<linearGradient id="paint101_linear_1_1714" x1="80.4759" y1="79.7121" x2="105.376" y2="10.7241" gradientUnits="userSpaceOnUse">
<stop stop-color="#98B7C1"/>
<stop offset="1" stop-color="#BEDEE7"/>
</linearGradient>
<linearGradient id="paint102_linear_1_1714" x1="73.8319" y1="76.9521" x2="98.7319" y2="7.96409" gradientUnits="userSpaceOnUse">
<stop stop-color="#98B7C1"/>
<stop offset="1" stop-color="#BEDEE7"/>
</linearGradient>
<linearGradient id="paint103_linear_1_1714" x1="110.592" y1="61.0522" x2="124.776" y2="41.8882" gradientUnits="userSpaceOnUse">
<stop stop-color="#F1E6DE"/>
<stop offset="1" stop-color="#E5DDD9"/>
</linearGradient>
<linearGradient id="paint104_linear_1_1714" x1="110.592" y1="61.0522" x2="124.776" y2="41.8882" gradientUnits="userSpaceOnUse">
<stop stop-color="#F1E6DE"/>
<stop offset="1" stop-color="#E5DDD9"/>
</linearGradient>
<linearGradient id="paint105_linear_1_1714" x1="126.312" y1="28.7601" x2="130.788" y2="28.7601" gradientUnits="userSpaceOnUse">
<stop stop-color="#F1E6DE"/>
<stop offset="1" stop-color="#E5DDD9"/>
</linearGradient>
<linearGradient id="paint106_linear_1_1714" x1="127.344" y1="27.5001" x2="128.04" y2="27.5001" gradientUnits="userSpaceOnUse">
<stop stop-color="#F1E6DE"/>
<stop offset="1" stop-color="#E5DDD9"/>
</linearGradient>
<linearGradient id="paint107_linear_1_1714" x1="126.312" y1="28.7601" x2="130.788" y2="28.7601" gradientUnits="userSpaceOnUse">
<stop stop-color="#F1E6DE"/>
<stop offset="1" stop-color="#E5DDD9"/>
</linearGradient>
<linearGradient id="paint108_linear_1_1714" x1="117.792" y1="35.0721" x2="122.364" y2="54.5481" gradientUnits="userSpaceOnUse">
<stop stop-color="#F1E6DE"/>
<stop offset="1" stop-color="#E5DDD9"/>
</linearGradient>
<linearGradient id="paint109_linear_1_1714" x1="116.232" y1="36.6562" x2="119.064" y2="48.7042" gradientUnits="userSpaceOnUse">
<stop stop-color="#F1E6DE"/>
<stop offset="1" stop-color="#E5DDD9"/>
</linearGradient>
<linearGradient id="paint110_linear_1_1714" x1="118.848" y1="39.5841" x2="121.656" y2="51.5241" gradientUnits="userSpaceOnUse">
<stop stop-color="#F1E6DE"/>
<stop offset="1" stop-color="#E5DDD9"/>
</linearGradient>
<linearGradient id="paint111_linear_1_1714" x1="117.66" y1="62.0961" x2="127.74" y2="62.0961" gradientUnits="userSpaceOnUse">
<stop stop-color="#F1E6DE"/>
<stop offset="1" stop-color="#E5DDD9"/>
</linearGradient>
<linearGradient id="paint112_linear_1_1714" x1="117.264" y1="61.1001" x2="124.02" y2="61.1001" gradientUnits="userSpaceOnUse">
<stop stop-color="#F1E6DE"/>
<stop offset="1" stop-color="#E5DDD9"/>
</linearGradient>
<linearGradient id="paint113_linear_1_1714" x1="117.66" y1="62.0961" x2="127.74" y2="62.0961" gradientUnits="userSpaceOnUse">
<stop stop-color="#F1E6DE"/>
<stop offset="1" stop-color="#E5DDD9"/>
</linearGradient>
<linearGradient id="paint114_linear_1_1714" x1="138.42" y1="54.4522" x2="133.716" y2="54.4522" gradientUnits="userSpaceOnUse">
<stop stop-color="#F1E6DE"/>
<stop offset="1" stop-color="#E5DDD9"/>
</linearGradient>
<linearGradient id="paint115_linear_1_1714" x1="138.42" y1="54.4521" x2="133.716" y2="54.4521" gradientUnits="userSpaceOnUse">
<stop stop-color="#F1E6DE"/>
<stop offset="1" stop-color="#E5DDD9"/>
</linearGradient>
<linearGradient id="paint116_linear_1_1714" x1="142.224" y1="63.4521" x2="130.452" y2="63.4521" gradientUnits="userSpaceOnUse">
<stop stop-color="#F1E6DE"/>
<stop offset="1" stop-color="#E5DDD9"/>
</linearGradient>
<linearGradient id="paint117_linear_1_1714" x1="142.224" y1="63.4521" x2="130.452" y2="63.4521" gradientUnits="userSpaceOnUse">
<stop stop-color="#F1E6DE"/>
<stop offset="1" stop-color="#E5DDD9"/>
</linearGradient>
<linearGradient id="paint118_linear_1_1714" x1="127.308" y1="33.6442" x2="144.552" y2="33.6442" gradientUnits="userSpaceOnUse">
<stop stop-color="#F1E6DE"/>
<stop offset="1" stop-color="#E5DDD9"/>
</linearGradient>
<linearGradient id="paint119_linear_1_1714" x1="127.308" y1="33.7161" x2="144.54" y2="33.7161" gradientUnits="userSpaceOnUse">
<stop stop-color="#F1E6DE"/>
<stop offset="1" stop-color="#E5DDD9"/>
</linearGradient>
<linearGradient id="paint120_linear_1_1714" x1="141.804" y1="26.0601" x2="122.94" y2="31.2921" gradientUnits="userSpaceOnUse">
<stop stop-color="#F1E6DE"/>
<stop offset="1" stop-color="#E5DDD9"/>
</linearGradient>
<clipPath id="clip0_1_1714">
<rect width="157.571" height="120" fill="white" transform="translate(0.214355 0.000732422)"/>
</clipPath>
</defs>
</svg>
