<svg width="121" height="121" viewBox="0 0 121 121" fill="none" xmlns="http://www.w3.org/2000/svg">
<g clip-path="url(#clip0_1_388)">
<path d="M60.2144 120.141C93.3515 120.141 120.214 93.2778 120.214 60.1408C120.214 27.0037 93.3515 0.140747 60.2144 0.140747C27.0773 0.140747 0.214417 27.0037 0.214417 60.1408C0.214417 93.2778 27.0773 120.141 60.2144 120.141Z" fill="url(#paint0_linear_1_388)"/>
<mask id="mask0_1_388" style="mask-type:luminance" maskUnits="userSpaceOnUse" x="0" y="0" width="121" height="121">
<path d="M60.2144 120.141C93.3515 120.141 120.214 93.2778 120.214 60.1408C120.214 27.0037 93.3515 0.140747 60.2144 0.140747C27.0773 0.140747 0.214417 27.0037 0.214417 60.1408C0.214417 93.2778 27.0773 120.141 60.2144 120.141Z" fill="white"/>
</mask>
<g mask="url(#mask0_1_388)">
<path d="M97.6905 96.0447C93.7304 96.5607 87.7544 94.9527 82.6304 92.4927C80.4944 91.4727 78.5144 90.3087 76.8944 89.0847C71.3864 84.9327 71.0144 78.5127 73.0064 71.2767C74.7224 65.0367 81.0465 69.1047 85.3905 72.6327C88.1625 74.8887 92.6864 79.7367 95.8424 83.4807C97.6184 85.5807 98.9624 87.3447 99.3104 88.0887C100.306 90.1647 103.282 95.3247 97.6905 96.0447Z" fill="url(#paint1_linear_1_388)"/>
<path style="mix-blend-mode:multiply" d="M95.8424 83.4807C95.5544 88.3767 94.9304 92.2887 93.6704 92.2887C90.2744 92.2887 86.2184 88.4967 85.5344 86.9967C84.9344 85.6767 83.9024 89.9127 82.6424 92.4927C80.5064 91.4727 78.5264 90.3087 76.9064 89.0847C71.3984 84.9327 71.0264 78.5127 73.0184 71.2767C74.7344 65.0367 81.0584 69.1047 85.4024 72.6327C88.1744 74.8887 92.6984 79.7367 95.8544 83.4807H95.8424Z" fill="url(#paint2_linear_1_388)"/>
<path d="M88.8224 74.4327C88.5344 74.7087 86.0024 81.8607 83.5904 87.6687C81.8504 91.8687 80.1824 95.3727 79.4864 95.0607C75.5624 93.3447 73.9784 88.9047 73.2584 88.6527C73.0064 85.3887 72.8744 75.4767 73.7264 68.9967C74.1824 65.5527 72.0464 61.5927 73.1744 61.5807C77.2424 64.0887 88.4744 72.8247 88.8224 74.4327Z" fill="url(#paint3_linear_1_388)"/>
<path style="mix-blend-mode:multiply" opacity="0.5" d="M83.5905 87.6686C81.8505 91.8686 80.1825 95.3726 79.4865 95.0606C75.5625 93.3446 73.9785 88.9046 73.2585 88.6526C73.0065 85.3886 70.1265 75.6326 70.9785 69.1526L72.9345 62.2646C76.3065 67.1126 76.8105 82.4366 77.5905 84.5606C78.5865 87.2606 77.5185 75.2006 79.1145 71.8646C80.7105 68.5286 79.6305 76.7246 80.5305 86.4566C80.7825 89.3726 81.7185 90.6206 83.5785 87.6686H83.5905Z" fill="url(#paint4_linear_1_388)"/>
<path d="M57.0224 70.5808C49.6184 71.3368 44.1344 63.9568 45.9584 53.4688C46.4744 52.2088 50.8904 36.9688 51.3104 35.5408C51.3104 35.5408 68.7224 43.8448 68.4464 44.7688C68.2184 45.5368 64.8224 54.0448 63.7784 58.6288C63.7664 58.7008 63.7424 58.7848 63.7304 58.8568C63.7904 59.1928 63.8384 59.5648 63.8744 59.9968C64.1024 63.5968 62.7584 70.0048 57.0224 70.5928V70.5808Z" fill="url(#paint5_linear_1_388)"/>
<path style="mix-blend-mode:multiply" d="M57.0224 70.5808C49.6184 71.3368 44.1344 63.9568 45.9584 53.4688C46.4744 52.2088 50.8904 36.9688 51.3104 35.5408C51.3104 35.5408 68.7224 43.8448 68.4464 44.7688C68.2184 45.5368 64.8224 54.0448 63.7784 58.6288C61.1384 58.5448 58.0904 58.4848 54.6224 56.1688C50.8424 53.6368 50.3504 53.4448 49.3304 55.9648C48.2984 58.4848 52.5584 63.8848 56.1944 64.6888C59.9024 65.5048 62.5184 64.9648 63.7304 60.2728C63.7544 60.1648 63.8144 60.0808 63.8624 59.9968C64.0904 63.5968 62.7464 70.0048 57.0104 70.5928L57.0224 70.5808Z" fill="url(#paint6_linear_1_388)"/>
<path d="M74.0384 87.8127C73.8344 94.0887 73.5104 100.461 73.1384 105.717C72.7424 111.417 71.4224 118.629 71.0264 120.105C70.7864 121.017 41.7224 120.801 32.6384 118.365C32.6384 118.365 32.2544 103.161 32.3984 96.1047C32.4824 91.9407 29.7224 80.4327 28.1504 71.4927C27.9704 70.4607 27.8024 69.4647 27.6584 68.5047C26.9384 63.7767 28.3184 60.0807 29.4224 59.5647C31.8584 58.4127 37.6424 56.3367 42.8744 54.0327C44.0744 53.5047 45.9104 52.6647 46.2824 52.6287C47.3264 57.1527 50.0624 66.5127 59.1224 65.7327C63.8624 65.3247 63.9464 63.8607 63.4544 56.9247C63.8984 57.1047 64.3184 57.2007 65.2064 57.5007C69.1784 58.8087 72.0704 60.6327 73.6064 61.8327C73.9424 63.2367 74.1464 65.9727 74.2424 69.5127C74.3744 74.5047 74.2784 81.1047 74.0504 87.8127H74.0384Z" fill="url(#paint7_linear_1_388)"/>
<path d="M60.0944 68.5287C50.1824 70.1487 45.0944 60.6687 42.8624 54.0207C44.0984 53.5647 45.8984 52.6527 46.2704 52.6167C47.3984 57.6807 50.3864 65.6967 58.7384 65.4927C62.5304 65.3967 63.8384 63.8007 63.4424 56.9007C63.9944 57.0567 64.4744 57.2367 65.1944 57.4767C66.6464 62.9487 65.6024 67.6167 60.0944 68.5167V68.5287Z" fill="url(#paint8_linear_1_388)"/>
<path style="mix-blend-mode:multiply" opacity="0.5" d="M73.1384 105.705C72.7424 111.405 71.4224 118.617 71.0264 120.093C70.7864 121.005 41.7224 120.789 32.6384 118.353C32.6384 118.353 32.2544 103.149 32.3984 96.0927C32.4824 91.9287 29.7224 80.4207 28.1504 71.4807L39.5864 61.9287C41.4824 64.5087 40.4504 76.4607 39.7184 81.9927C38.6384 90.2607 54.0944 94.7367 64.2584 95.6847C70.5344 96.2727 53.9504 98.3967 46.4984 95.8167C39.0464 93.2367 37.2824 100.017 37.6904 104.217C38.0984 108.417 52.4624 107.205 55.4504 105.165C58.4384 103.137 62.0984 102.993 62.6384 103.137C63.1784 103.269 66.0224 105.165 70.0904 105.165C71.1104 105.165 72.1544 105.369 73.1504 105.693L73.1384 105.705Z" fill="url(#paint9_linear_1_388)"/>
<path style="mix-blend-mode:multiply" opacity="0.5" d="M74.0384 87.8127C73.5944 83.9127 72.8264 79.9407 71.5664 81.1887C69.2624 83.4927 57.0584 87.1527 64.6544 83.6247C71.0144 80.6727 73.5584 74.5887 74.2304 69.5127C74.3624 74.5047 74.2664 81.1047 74.0384 87.8127Z" fill="url(#paint10_linear_1_388)"/>
<path d="M31.8944 93.6087C31.8944 94.4487 27.7064 96.8127 23.8064 98.3007C20.7824 99.4527 17.9384 100.089 17.3384 99.0807C16.9064 98.3487 16.6784 96.9207 16.6304 95.0727C16.5224 91.1367 17.2184 85.3167 18.4184 80.2407C20.1824 72.7887 25.2824 58.7607 33.2384 60.7167C41.5064 62.7447 31.8824 92.1207 31.8824 93.6207L31.8944 93.6087Z" fill="url(#paint11_linear_1_388)"/>
<path style="mix-blend-mode:multiply" d="M31.8944 93.6086C31.8944 94.4486 27.7064 96.8126 23.8064 98.3006L22.2224 93.3446C23.5784 91.0886 27.6464 91.2686 31.0784 91.9046C31.7984 92.0846 31.9784 91.0886 31.1744 90.8246C30.3584 90.5486 22.2224 89.9246 19.4264 89.1926C17.6984 88.7486 17.0024 92.0966 16.6424 95.0846C16.5344 91.1486 17.2304 85.3286 18.4304 80.2526C20.1944 72.8006 25.2944 58.7726 33.2504 60.7286C41.5184 62.7566 31.8944 92.1326 31.8944 93.6326V93.6086Z" fill="url(#paint12_linear_1_388)"/>
<path d="M78.5264 41.5407C80.0984 39.5487 81.0224 37.1007 81.7544 34.4727C84.8624 23.2287 77.9384 17.5167 69.5384 15.9207C61.1384 14.3127 49.1384 13.7487 47.9264 27.7767C47.4104 33.8127 50.9984 38.2047 51.2264 39.9087C51.2264 39.9207 51.1784 44.9007 51.7544 46.0647C53.0144 48.6207 56.9864 55.3647 59.0384 56.3367C60.7424 57.1407 65.6744 58.7247 68.3864 57.9807C69.8144 57.5847 77.1824 51.6207 78.1784 45.2247C78.5624 42.7407 78.1904 42.0087 78.5504 41.5407C78.5504 41.5407 78.5504 41.5407 78.5384 41.5407H78.5264Z" fill="url(#paint13_linear_1_388)"/>
<path d="M78.5264 41.5407C80.0984 39.5487 81.0224 37.1007 81.7544 34.4727C84.8624 23.2287 77.9384 17.5167 69.5384 15.9207C61.1384 14.3127 49.1384 13.7487 47.9264 27.7767C47.4104 33.8127 50.9984 38.2047 51.2264 39.9087C51.2264 39.9207 51.1784 44.9007 51.7544 46.0647C53.0144 48.6207 56.9864 55.3647 59.0384 56.3367C60.7424 57.1407 65.6744 58.7247 68.3864 57.9807C69.8144 57.5847 77.1824 51.6207 78.1784 45.2247C78.5624 42.7407 78.1904 42.0087 78.5504 41.5407C78.5504 41.5407 78.5504 41.5407 78.5384 41.5407H78.5264Z" fill="url(#paint14_linear_1_388)"/>
<path style="mix-blend-mode:multiply" d="M82.0304 33.3207C78.2384 31.7847 75.1304 28.7247 74.5304 27.1527C72.5024 30.5367 66.6224 32.4567 61.1624 31.1367C59.5664 30.8367 57.8744 33.9087 56.5424 37.9887C55.2944 41.8047 55.3544 52.8927 59.0144 56.3367C57.0104 55.4487 53.0024 48.6207 51.7304 46.0647C51.1544 44.9127 51.2024 39.9447 51.2024 39.9087C50.9744 38.2047 47.3864 33.8127 47.9024 27.7767C49.1024 13.7487 61.1144 14.3127 69.5144 15.9207C77.6264 17.4687 84.3584 22.8447 82.0184 33.3207H82.0304Z" fill="url(#paint15_linear_1_388)"/>
<path style="mix-blend-mode:multiply" d="M70.7384 34.0046C71.7344 35.4686 70.0664 39.3086 69.4544 39.9446C68.8544 40.5926 67.0064 39.1646 63.5744 38.7566C61.0424 38.4566 61.1504 36.4406 61.6184 35.0846C62.0864 33.7286 62.5304 32.4926 62.8664 32.5526C63.2024 32.6126 70.1984 33.2006 70.7384 33.9926V34.0046Z" fill="url(#paint16_linear_1_388)"/>
<path d="M69.6944 38.6846C69.6104 38.9846 69.4424 39.2246 69.2144 39.3926C68.5304 38.8646 67.8464 38.6246 66.4304 38.2526C65.0384 37.8806 63.2624 37.8086 62.8664 37.8326C62.4224 37.4006 62.2784 36.9566 62.5304 36.4766C63.1544 35.3366 65.4104 34.0286 67.6544 35.0006C69.1304 35.6486 70.0544 37.2926 69.6944 38.6846Z" fill="url(#paint17_linear_1_388)"/>
<mask id="mask1_1_388" style="mask-type:luminance" maskUnits="userSpaceOnUse" x="62" y="34" width="8" height="6">
<path d="M69.6944 38.6846C69.6104 38.9846 69.4424 39.2246 69.2144 39.3926C68.5304 38.8646 67.8464 38.6246 66.4304 38.2526C65.0384 37.8806 63.2624 37.8086 62.8664 37.8326C62.4224 37.4006 62.2784 36.9566 62.5304 36.4766C63.1544 35.3366 65.4104 34.0286 67.6544 35.0006C69.1304 35.6486 70.0544 37.2926 69.6944 38.6846Z" fill="white"/>
</mask>
<g mask="url(#mask1_1_388)">
<path d="M68.7104 37.8926C68.5184 38.7446 67.7624 39.2846 67.0064 39.1286C66.2504 38.9606 65.7824 38.1446 65.9744 37.2926C66.1664 36.4406 66.9224 35.9006 67.6784 36.0566C68.4344 36.2246 68.9024 37.0406 68.7104 37.8926Z" fill="url(#paint18_linear_1_388)"/>
<path style="mix-blend-mode:multiply" d="M67.6664 36.0566C66.9104 35.8886 66.1424 36.4406 65.9624 37.2926C65.7824 38.1446 66.2384 38.9606 66.9944 39.1286C67.7504 39.2966 68.5184 38.7446 68.6984 37.8926C68.8784 37.0406 68.4224 36.2246 67.6664 36.0566ZM66.9704 38.9126C66.3104 38.7686 65.9144 38.0606 66.0704 37.3166C66.2264 36.5846 66.8984 36.1046 67.5464 36.2486C68.2064 36.3926 68.6024 37.1006 68.4464 37.8446C68.2904 38.5886 67.6184 39.0566 66.9704 38.9126Z" fill="url(#paint19_linear_1_388)"/>
<path d="M67.8465 37.6046C67.7865 37.8926 67.5345 38.0726 67.2825 38.0126C67.0305 37.9526 66.8745 37.6886 66.9345 37.4006C66.9945 37.1126 67.2465 36.9326 67.4985 36.9926C67.7505 37.0526 67.9065 37.3166 67.8465 37.6046Z" fill="url(#paint20_linear_1_388)"/>
<path d="M67.3064 36.9207C67.2584 37.1607 67.0664 37.3287 66.8864 37.2807C66.7064 37.2447 66.5984 37.0167 66.6584 36.7647C66.7184 36.5127 66.8984 36.3567 67.0784 36.4047C67.2584 36.4407 67.3664 36.6687 67.3064 36.9207Z" fill="url(#paint21_linear_1_388)"/>
</g>
<path style="mix-blend-mode:multiply" d="M69.6944 38.6846C70.0544 37.2926 69.1304 35.6486 67.6544 35.0006C65.4104 34.0286 63.1424 35.3366 62.5304 36.4766C62.2664 36.9566 62.4224 37.4126 62.8664 37.8326C63.2384 37.7846 64.9424 37.8806 66.4304 38.2526C67.7264 38.5766 68.5184 38.8406 69.2144 39.3926C69.4544 39.2126 69.6224 38.9846 69.6944 38.6846ZM66.9224 38.0486C64.6424 37.2086 63.2504 37.3406 63.7544 36.4046C64.2584 35.4686 66.0824 35.3366 67.3184 35.6726C68.7344 36.0446 69.6824 37.4486 69.3584 38.5766C69.1904 39.1766 68.2904 38.5526 66.9224 38.0486Z" fill="url(#paint22_linear_1_388)"/>
<path d="M69.6584 38.7446C69.8384 37.8806 69.5984 36.9686 69.0944 36.2966C68.8424 35.9486 68.5184 35.6726 68.1464 35.4566C67.7864 35.2406 67.3784 35.0846 66.9704 34.9886C66.5624 34.8926 66.1424 34.8926 65.7224 34.9286C65.3024 34.9766 64.8824 35.0486 64.4864 35.1806C63.6824 35.4446 62.9264 35.8886 62.4584 36.6566L62.4104 36.6326C62.5304 36.2006 62.8064 35.8046 63.1424 35.4806C63.4784 35.1686 63.8864 34.9286 64.3184 34.7486C65.1824 34.4006 66.1544 34.3406 67.0544 34.5926C67.4984 34.7246 67.9184 34.9166 68.3024 35.1686C68.6864 35.4326 69.0224 35.7566 69.2744 36.1406C69.5264 36.5246 69.6944 36.9566 69.7664 37.4126C69.8384 37.8566 69.8264 38.3246 69.6944 38.7446H69.6464H69.6584Z" fill="url(#paint23_linear_1_388)"/>
<path d="M69.1544 39.3807C69.0224 39.2247 68.7944 39.0807 68.5544 38.9607C68.3144 38.8407 68.0504 38.7327 67.7864 38.6367C67.2464 38.4447 66.6824 38.2887 66.1184 38.1687C65.5544 38.0487 64.9904 37.9527 64.4264 37.8927C64.1504 37.8567 63.8744 37.8327 63.5984 37.8207C63.3224 37.8087 63.0584 37.7967 62.8184 37.8447C63.0584 37.8087 63.3344 37.8207 63.5984 37.8447C63.8744 37.8687 64.1504 37.8927 64.4264 37.9287C64.9784 38.0007 65.5424 38.0967 66.1064 38.2167C66.6704 38.3367 67.2224 38.4807 67.7624 38.6727C68.0264 38.7687 68.2904 38.8647 68.5304 38.9847C68.7704 39.1047 68.9984 39.2367 69.1424 39.3927L69.1544 39.3807Z" fill="url(#paint24_linear_1_388)"/>
<path style="mix-blend-mode:multiply" d="M78.5264 41.5407H78.5384C78.3344 41.8887 78.4424 42.2847 78.3224 42.6687C76.3304 41.9967 73.2944 41.5527 72.2504 41.2647C71.0864 40.9407 71.9144 40.2087 72.2024 39.4287C72.6704 38.1567 74.3264 35.6847 75.2864 35.7207C75.8744 35.7447 79.4504 36.2847 81.0464 36.7287C80.4224 38.4927 79.6424 40.1247 78.5264 41.5287V41.5407Z" fill="url(#paint25_linear_1_388)"/>
<path d="M72.6944 39.8727C72.6464 40.0767 72.6584 40.2567 72.7184 40.4367C73.9064 40.1607 74.5304 40.5927 75.7424 40.8447C76.8344 41.0727 77.6984 41.6007 77.8664 41.9367C78.3104 41.7207 78.4544 41.3247 78.4544 40.7607C78.4544 39.6327 78.2744 38.2647 75.9944 38.0127C74.4824 37.8447 73.0064 38.6727 72.6944 39.8727Z" fill="url(#paint26_linear_1_388)"/>
<mask id="mask2_1_388" style="mask-type:luminance" maskUnits="userSpaceOnUse" x="72" y="37" width="7" height="5">
<path d="M72.6944 39.8727C72.6464 40.0767 72.6584 40.2567 72.7184 40.4367C73.9064 40.1607 74.5304 40.5927 75.7424 40.8447C76.8344 41.0727 77.6984 41.6007 77.8664 41.9367C78.3104 41.7207 78.4544 41.3247 78.4544 40.7607C78.4544 39.6327 78.2744 38.2647 75.9944 38.0127C74.4824 37.8447 73.0064 38.6727 72.6944 39.8727Z" fill="white"/>
</mask>
<g mask="url(#mask2_1_388)">
<path d="M76.9545 40.0887C76.7865 40.8327 76.1025 41.3007 75.4425 41.1447C74.7825 40.9887 74.3865 40.2687 74.5545 39.5247C74.7225 38.7807 75.4065 38.3127 76.0665 38.4687C76.7265 38.6247 77.1225 39.3447 76.9545 40.0887Z" fill="url(#paint27_linear_1_388)"/>
<path style="mix-blend-mode:multiply" d="M76.0665 38.4807C75.4065 38.3247 74.7225 38.8047 74.5545 39.5367C74.3865 40.2687 74.7825 41.0007 75.4425 41.1567C76.1025 41.3127 76.7865 40.8327 76.9545 40.1007C77.1225 39.3687 76.7265 38.6367 76.0665 38.4807ZM75.4185 40.9647C74.8425 40.8327 74.5065 40.1967 74.6505 39.5607C74.7945 38.9247 75.3825 38.5047 75.9585 38.6487C76.5345 38.7807 76.8705 39.4047 76.7265 40.0527C76.5825 40.6887 75.9945 41.1087 75.4185 40.9767V40.9647Z" fill="url(#paint28_linear_1_388)"/>
<path d="M76.1505 39.9087C76.0905 40.1607 75.8625 40.3167 75.6465 40.2567C75.4305 40.2087 75.2985 39.9687 75.3465 39.7167C75.4065 39.4647 75.6345 39.3087 75.8505 39.3687C76.0665 39.4167 76.1985 39.6567 76.1505 39.9087Z" fill="url(#paint29_linear_1_388)"/>
<path d="M75.5865 39.2847C75.5385 39.5007 75.3705 39.6327 75.2145 39.5967C75.0585 39.5607 74.9625 39.3567 75.0225 39.1527C75.0705 38.9367 75.2385 38.8047 75.3945 38.8407C75.5505 38.8767 75.6465 39.0807 75.5865 39.2847Z" fill="url(#paint30_linear_1_388)"/>
</g>
<path style="mix-blend-mode:multiply" d="M75.5264 40.7727C76.7624 41.0127 77.7584 41.6247 77.8784 41.9367C78.3224 41.7207 78.4664 41.3247 78.4664 40.7607C78.4664 39.6327 78.2864 38.2647 76.0064 38.0127C74.4944 37.8447 73.0184 38.6727 72.7064 39.8727C72.6584 40.0767 72.6704 40.2567 72.7304 40.4367C73.9904 40.2207 74.3144 40.5207 75.5384 40.7607L75.5264 40.7727ZM74.4704 39.5607C74.7584 38.5767 75.3584 38.5647 76.4024 38.7687C77.9384 39.0687 78.1304 39.6687 78.1424 40.5927C78.1424 41.5167 77.8904 40.9767 76.2584 40.7367C75.1304 40.5687 74.2184 40.4487 74.4704 39.5607Z" fill="url(#paint31_linear_1_388)"/>
<path d="M78.3944 41.2167C78.4544 40.8807 78.4784 40.5327 78.4304 40.1967C78.3824 39.8607 78.2744 39.5367 78.0824 39.2487C77.8904 38.9727 77.6264 38.7327 77.3264 38.5767C77.0264 38.4087 76.6784 38.3007 76.3304 38.2287C75.9824 38.1567 75.6344 38.1447 75.2864 38.1807C74.9504 38.2167 74.6144 38.2887 74.3144 38.4087C73.6904 38.6607 73.1864 39.1287 72.7544 39.6807L72.7064 39.6567C72.9104 38.9847 73.3784 38.3607 74.0864 38.0007C74.4344 37.8207 74.8304 37.7127 75.2264 37.7007C75.6344 37.6767 76.0304 37.7367 76.4144 37.8447C76.7984 37.9527 77.1704 38.0967 77.5064 38.3127C77.8424 38.5287 78.1304 38.8167 78.3104 39.1407C78.5024 39.4767 78.5744 39.8367 78.5864 40.1967C78.5864 40.5567 78.5384 40.9047 78.4304 41.2287H78.3824L78.3944 41.2167Z" fill="url(#paint32_linear_1_388)"/>
<path d="M72.6824 40.4727C72.8624 40.4127 73.0784 40.3767 73.3064 40.3887C73.5344 40.3887 73.7624 40.4127 73.9904 40.4487C74.4584 40.5207 74.9144 40.6287 75.3704 40.7607C75.8264 40.8807 76.2824 41.0247 76.7144 41.1927C76.9304 41.2767 77.1464 41.3727 77.3384 41.4807C77.5304 41.5887 77.7224 41.7087 77.8184 41.8647C77.7344 41.7087 77.5544 41.5767 77.3624 41.4687C77.1704 41.3607 76.9544 41.2527 76.7384 41.1687C76.3064 40.9887 75.8384 40.8567 75.3824 40.7247C74.9264 40.6047 74.4584 40.4847 73.9904 40.4247C73.7504 40.4007 73.5224 40.3767 73.2944 40.3887C73.0664 40.3887 72.8504 40.4247 72.6824 40.5087V40.4727Z" fill="url(#paint33_linear_1_388)"/>
<path d="M76.0304 35.6847C74.2304 36.3207 73.0904 38.5767 72.6824 40.4127C72.0704 43.1487 74.7224 43.0407 73.5824 44.9487C73.1024 45.7527 70.6904 46.3047 69.8264 46.2087C68.7704 46.1007 67.2464 45.2727 66.6224 44.5287C65.5184 43.2087 65.8544 42.6567 66.6944 42.4287C67.4984 42.2007 68.4944 42.1167 69.0464 40.5807C70.1984 37.4127 70.5944 35.0247 70.1984 34.3287C69.5384 33.1647 77.7104 35.0967 76.0304 35.6967V35.6847Z" fill="url(#paint34_linear_1_388)"/>
<path d="M76.0304 35.6847C74.2304 36.3207 73.0904 38.5767 72.6824 40.4127C72.0704 43.1487 74.7224 43.0407 73.5824 44.9487C73.1024 45.7527 70.6904 46.3047 69.8264 46.2087C68.7704 46.1007 67.2464 45.2727 66.6224 44.5287C65.5184 43.2087 65.8544 42.6567 66.6944 42.4287C67.4984 42.2007 68.4944 42.1167 69.0464 40.5807C70.1984 37.4127 70.5944 35.0247 70.1984 34.3287C69.5384 33.1647 77.7104 35.0967 76.0304 35.6967V35.6847Z" fill="url(#paint35_linear_1_388)"/>
<path d="M72.5624 32.0607C72.5144 32.6967 71.0624 34.5927 70.1024 34.4727C68.8064 34.3167 67.0304 33.8127 62.7944 33.3567C61.6424 33.2367 62.5184 31.7727 63.5384 31.7967C65.5064 31.8567 66.5024 31.9287 68.6024 31.8927C70.8224 31.8567 72.6344 31.2447 72.5744 32.0607H72.5624Z" fill="url(#paint36_linear_1_388)"/>
<path d="M76.0064 33.8367C75.7064 34.3407 75.5504 35.8047 76.2224 36.1167C77.4464 36.6807 79.0304 37.4367 80.3264 37.7607C80.9504 37.9167 81.6584 36.8487 81.0464 36.5247C80.2784 36.1047 79.5824 35.6367 78.5024 34.8807C77.2424 33.9927 76.3784 33.2127 75.9944 33.8487L76.0064 33.8367Z" fill="url(#paint37_linear_1_388)"/>
<path style="mix-blend-mode:multiply" d="M73.5823 44.9366C72.8383 45.8846 70.3783 46.4246 69.2383 46.0766C68.1703 45.7406 66.8743 44.9486 66.4183 44.2526C66.4783 43.9766 66.9583 44.1566 69.2503 45.2966C70.2343 45.7886 72.6223 45.6566 73.5823 44.9246V44.9366Z" fill="url(#paint38_linear_1_388)"/>
<path d="M68.8424 45.5247C68.6144 45.3807 67.3064 44.2527 67.0424 44.4207C66.7784 44.5887 68.0024 45.2487 68.3384 45.4407C68.6744 45.6327 69.1064 45.6927 68.8304 45.5247H68.8424Z" fill="url(#paint39_linear_1_388)"/>
<path d="M71.0144 45.8607C71.2064 45.8367 72.4664 45.4647 72.5624 45.5367C72.7664 45.6807 71.6144 45.9447 71.3504 45.9807C71.0864 46.0047 70.7984 45.8967 71.0144 45.8607Z" fill="url(#paint40_linear_1_388)"/>
<path d="M65.8184 48.7527C66.2504 48.5967 66.6944 48.5607 67.1384 48.5847C67.5824 48.6087 68.0144 48.6807 68.4344 48.8127C68.8544 48.9447 69.2624 49.1247 69.6344 49.3887C69.8144 49.5207 69.9944 49.6647 70.1504 49.8567C70.2944 50.0367 70.4264 50.2647 70.4264 50.4927C70.2704 50.3247 70.1024 50.2287 69.9224 50.1447C69.7424 50.0607 69.5504 49.9887 69.3704 49.9167C68.9984 49.7847 68.6144 49.6647 68.2184 49.5447L67.0424 49.1727C66.6464 49.0407 66.2504 48.9207 65.8304 48.7527H65.8184Z" fill="url(#paint41_linear_1_388)"/>
<path opacity="0.7" d="M59.9984 38.2286C59.9624 38.9246 59.0864 39.4406 58.4024 39.2726C57.7184 39.1046 57.2024 38.2166 57.5504 37.6046C57.9344 36.9086 59.2544 34.6766 59.5784 34.7606C59.9264 34.8446 60.0584 37.2806 59.9984 38.2286Z" fill="url(#paint42_linear_1_388)"/>
<path style="mix-blend-mode:multiply" opacity="0.7" d="M59.5783 34.7606C59.5783 34.7606 59.5423 34.7606 59.5183 34.7606C59.7823 35.0366 59.8303 37.1006 59.7703 37.9286C59.7223 38.5766 58.9663 39.0686 58.3903 38.9246C57.8143 38.7806 57.3823 37.9766 57.6823 37.4006C57.7663 37.2446 57.8983 37.0046 58.0543 36.7286C57.8383 37.0886 57.6583 37.4006 57.5503 37.6046C57.2143 38.2166 57.7303 39.0926 58.4023 39.2726C59.0743 39.4526 59.9623 38.9366 59.9983 38.2286C60.0463 37.2806 59.9263 34.8566 59.5783 34.7606Z" fill="url(#paint43_linear_1_388)"/>
<path d="M87.8144 29.5287C87.2264 30.6567 84.3104 32.3847 81.6104 31.5327C77.1944 30.1407 75.5384 27.1527 74.1224 25.4127C72.3224 30.0327 66.4784 31.2207 60.8744 30.7047C60.6824 30.7167 60.6344 30.6687 60.6944 30.5607C60.9584 30.1287 63.1664 28.7727 64.7024 27.2967C64.7024 27.2967 64.7144 27.2847 64.7264 27.2727C65.4584 26.5647 66.0344 25.8327 66.1664 25.1727C64.8344 26.8527 61.4384 29.7207 57.5624 30.5007C56.4464 30.5607 55.4624 36.7767 55.3544 37.3887C55.2344 38.0127 53.6024 37.9407 53.5424 36.7647C53.4704 35.3967 51.2264 36.8007 50.3144 41.5527C50.2544 41.8887 47.4824 39.9567 47.2784 38.8167C46.8584 36.3567 47.3264 24.7527 48.5384 19.5807C48.7304 18.7407 48.9464 18.0807 49.1744 17.6487C51.3224 13.6407 64.1504 9.60871 66.0464 10.2207C66.6464 10.4127 67.1984 10.6767 67.7024 10.9407C68.9624 11.6367 69.9104 12.4407 70.6784 12.5967C71.2664 12.7047 72.1304 12.5967 73.0784 12.5727C73.8344 12.5487 74.6504 12.5967 75.4184 12.8607C78.3704 13.8927 81.4664 17.3607 83.3864 21.2847C84.9704 24.5367 85.1384 28.2447 87.4064 28.6767C87.9344 28.7727 88.0304 29.1087 87.8264 29.5287H87.8144Z" fill="url(#paint44_linear_1_388)"/>
<path style="mix-blend-mode:multiply" opacity="0.5" d="M57.5624 30.5127C56.4464 30.5727 55.4624 36.7887 55.3544 37.4007C55.2344 38.0247 53.6024 37.9527 53.5424 36.7767C53.4704 35.4087 51.2264 36.8127 50.3144 41.5647C50.2544 41.9007 47.4824 39.9687 47.2784 38.8287C46.8584 36.3687 47.3264 24.7647 48.5384 19.5927C50.5424 23.5887 55.2344 29.1927 56.6984 29.5887C59.5904 30.3447 65.2184 25.8327 66.5144 24.4287C66.1904 25.7007 65.5424 26.5767 64.7264 27.2967C65.4584 26.5887 66.0344 25.8567 66.1664 25.1967C64.8344 26.8767 61.4384 29.7447 57.5624 30.5247V30.5127Z" fill="url(#paint45_linear_1_388)"/>
<path style="mix-blend-mode:multiply" opacity="0.5" d="M67.7144 10.9647C68.9744 11.6607 69.9224 12.4647 70.6904 12.6207C71.2784 12.7287 72.1424 12.6207 73.0904 12.5967C71.8184 13.3887 72.3104 14.7687 71.7224 16.4127C71.3864 17.3487 70.1864 12.8967 67.7144 10.9767V10.9647Z" fill="url(#paint46_linear_1_388)"/>
<path style="mix-blend-mode:multiply" opacity="0.5" d="M87.8144 29.5287C87.2264 30.6567 84.3104 32.3847 81.6104 31.5327C77.1944 30.1407 75.5384 27.1527 74.1224 25.4127C72.3224 30.0327 66.4784 31.2207 60.8744 30.7047C60.6824 30.7167 60.6344 30.6687 60.6944 30.5607C63.8264 30.5127 72.0584 30.4407 74.2784 24.2367C76.4024 27.4407 82.8704 31.7247 87.8144 29.5167V29.5287Z" fill="url(#paint47_linear_1_388)"/>
<g style="mix-blend-mode:screen" opacity="0.5">
<path style="mix-blend-mode:screen" d="M60.6464 26.3127C59.7704 25.4727 58.8824 24.6567 58.0664 23.8047C57.2504 22.9407 56.4824 22.0407 55.8104 21.0687C55.1384 20.1087 54.5504 19.0887 54.0464 18.0327C53.5544 16.9767 53.3744 16.5447 53.0024 15.4047C53.0744 16.5927 53.0984 17.1087 53.5184 18.2367C53.9264 19.3767 54.5024 20.4687 55.2104 21.4767C55.9184 22.4847 56.7584 23.3967 57.6824 24.2007C58.6064 25.0047 59.6024 25.7127 60.6584 26.3007L60.6464 26.3127Z" fill="url(#paint48_linear_1_388)"/>
</g>
<path d="M54.1424 37.2447C54.3944 35.4807 54.3944 34.2687 54.1304 33.2967C53.7224 31.8327 52.7024 30.4527 51.3824 30.4287C48.0464 30.3687 47.1344 35.6247 48.6104 38.0967C49.6544 39.8487 53.3864 42.6207 54.1544 37.2447H54.1424Z" fill="url(#paint49_linear_1_388)"/>
<path d="M54.1424 37.2447C54.3944 35.4807 54.3944 34.2687 54.1304 33.2967C53.7224 31.8327 52.7024 30.4527 51.3824 30.4287C48.0464 30.3687 47.1344 35.6247 48.6104 38.0967C49.6544 39.8487 53.3864 42.6207 54.1544 37.2447H54.1424Z" fill="url(#paint50_linear_1_388)"/>
<path opacity="0.09" d="M50.5184 33.4167C51.5744 33.4767 53.6864 35.2767 53.4824 37.1007C53.1464 36.4287 51.6824 36.2127 51.0104 36.1167C51.4424 35.9487 51.8624 36.0687 52.2944 36.1167C52.0064 35.3127 51.1424 34.0167 50.5184 33.4287V33.4167Z" fill="url(#paint51_linear_1_388)"/>
<path opacity="0.18" d="M50.5184 33.4167C51.5744 33.4767 53.6744 35.2767 53.4704 37.1007C53.0744 36.5367 51.6704 36.2247 50.9984 36.1167C51.4424 35.9607 51.8504 36.1167 52.3184 36.1647C52.0664 35.2647 51.1184 33.9807 50.5184 33.4167Z" fill="url(#paint52_linear_1_388)"/>
<path opacity="0.27" d="M50.5304 33.4167C51.5864 33.4767 53.6864 35.2887 53.4824 37.1007C53.0264 36.6447 51.6944 36.2247 51.0104 36.1167C51.4664 35.9607 51.8744 36.1767 52.3664 36.2247C52.1624 35.2167 51.1064 33.9447 50.5304 33.4167Z" fill="url(#paint53_linear_1_388)"/>
<path opacity="0.36" d="M50.5304 33.4167C51.5864 33.4767 53.6864 35.2887 53.4704 37.1007C52.9664 36.7407 51.6824 36.2247 50.9984 36.1287C51.4544 35.9727 51.8624 36.2367 52.3784 36.2967C52.2104 35.1807 51.0704 33.9207 50.5184 33.4287L50.5304 33.4167Z" fill="url(#paint54_linear_1_388)"/>
<path opacity="0.45" d="M50.5304 33.4167C51.5864 33.4767 53.6744 35.2887 53.4704 37.1007C52.9064 36.8487 51.6824 36.2247 50.9984 36.1287C51.4664 35.9727 51.8744 36.2847 52.4144 36.3447C52.2944 35.1327 51.0584 33.8727 50.5184 33.4167H50.5304Z" fill="url(#paint55_linear_1_388)"/>
<path opacity="0.55" d="M50.5425 33.4167C51.5985 33.4767 53.6865 35.2887 53.4825 37.1127C52.8585 36.9687 51.6945 36.2367 51.0225 36.1407C51.5025 35.9967 51.9105 36.3447 52.4745 36.4167C52.3905 35.0967 51.0705 33.8487 50.5425 33.4287V33.4167Z" fill="url(#paint56_linear_1_388)"/>
<path opacity="0.64" d="M50.5425 33.4047C51.5985 33.4647 53.6865 35.2767 53.4705 37.1007C52.7985 37.0527 51.6825 36.2367 51.0105 36.1287C51.4905 35.9847 51.8985 36.3927 52.4985 36.4647C52.4625 35.0367 51.0465 33.8007 50.5425 33.4047Z" fill="url(#paint57_linear_1_388)"/>
<path opacity="0.73" d="M50.5425 33.4047C51.5985 33.4647 53.6745 35.2767 53.4705 37.1007C52.7385 37.1607 51.6825 36.2367 51.0105 36.1287C51.5025 35.9847 51.9105 36.4407 52.5345 36.5127C52.5345 34.9887 51.0345 33.7647 50.5425 33.3927V33.4047Z" fill="url(#paint58_linear_1_388)"/>
<path opacity="0.82" d="M50.5544 33.4047C51.6104 33.4647 53.6864 35.2767 53.4824 37.1007C52.6904 37.2687 51.6944 36.2367 51.0224 36.1407C51.5144 35.9967 51.9224 36.5007 52.5824 36.5847C52.6304 34.9527 51.0224 33.7407 50.5664 33.4047H50.5544Z" fill="url(#paint59_linear_1_388)"/>
<path opacity="0.91" d="M50.5544 33.4047C51.6104 33.4647 53.6864 35.2887 53.4704 37.1007C52.6184 37.3647 51.6824 36.2367 51.0104 36.1407C51.5144 35.9967 51.9224 36.5487 52.6064 36.6447C52.6904 34.9167 50.9984 33.7047 50.5544 33.4047Z" fill="url(#paint60_linear_1_388)"/>
<path d="M52.6424 36.6927C52.7744 34.8567 50.9864 33.6567 50.5664 33.3927C51.6224 33.4527 53.6864 35.2767 53.4824 37.0887C52.5824 37.4607 51.6944 36.2247 51.0224 36.1287C51.5384 35.9967 51.9464 36.5967 52.6544 36.6807L52.6424 36.6927Z" fill="url(#paint61_linear_1_388)"/>
<path opacity="0.05" d="M52.0305 34.2087C52.5585 34.6647 53.5425 35.8767 53.4825 37.1007C53.1225 37.2927 52.7145 37.1727 51.9225 36.6327L52.0305 34.2207V34.2087Z" fill="url(#paint62_linear_1_388)"/>
<path opacity="0.1" d="M52.0545 34.2327C52.5705 34.6767 53.5425 35.8767 53.4825 37.1007C53.1225 37.2927 52.7265 37.1727 51.9465 36.6447L52.0545 34.2327Z" fill="url(#paint63_linear_1_388)"/>
<path opacity="0.14" d="M52.0784 34.2567C52.5824 34.6887 53.5424 35.8767 53.4824 37.1007C53.1344 37.2807 52.7264 37.1847 51.9824 36.6687L52.0784 34.2567Z" fill="url(#paint64_linear_1_388)"/>
<path opacity="0.19" d="M52.1025 34.2806C52.5945 34.7006 53.5425 35.8766 53.4825 37.1006C53.1465 37.2806 52.7385 37.1846 52.0065 36.6926L52.1025 34.2926V34.2806Z" fill="url(#paint65_linear_1_388)"/>
<path opacity="0.24" d="M52.1265 34.3047C52.6065 34.7127 53.5425 35.8767 53.4825 37.1007C53.1465 37.2807 52.7505 37.1847 52.0425 36.7047L52.1265 34.3047Z" fill="url(#paint66_linear_1_388)"/>
<path opacity="0.29" d="M52.1505 34.3287C52.6185 34.7247 53.5425 35.8767 53.4825 37.1007C53.1585 37.2687 52.7505 37.1967 52.0785 36.7287L52.1625 34.3407L52.1505 34.3287Z" fill="url(#paint67_linear_1_388)"/>
<path opacity="0.33" d="M52.1744 34.3527C52.6304 34.7367 53.5424 35.8767 53.4824 37.1007C53.1584 37.2687 52.7624 37.1967 52.1024 36.7407L52.1744 34.3527Z" fill="url(#paint68_linear_1_388)"/>
<path opacity="0.38" d="M52.1984 34.3767C52.6304 34.7487 53.5424 35.8767 53.4824 37.1007C53.1704 37.2567 52.7744 37.2087 52.1384 36.7647L52.1984 34.3887V34.3767Z" fill="url(#paint69_linear_1_388)"/>
<path opacity="0.43" d="M52.2225 34.4006C52.6425 34.7726 53.5425 35.8766 53.4825 37.1006C53.1825 37.2566 52.7865 37.2086 52.1625 36.7766L52.2225 34.4006Z" fill="url(#paint70_linear_1_388)"/>
<path opacity="0.48" d="M52.2465 34.4247C52.6545 34.7847 53.5425 35.8767 53.4825 37.1007C53.1825 37.2447 52.7865 37.2087 52.1985 36.8007L52.2465 34.4247Z" fill="url(#paint71_linear_1_388)"/>
<path opacity="0.52" d="M52.2705 34.4487C52.6665 34.7967 53.5425 35.8767 53.4825 37.1007C53.1945 37.2447 52.7985 37.2207 52.2225 36.8247L52.2705 34.4607V34.4487Z" fill="url(#paint72_linear_1_388)"/>
<path opacity="0.57" d="M52.2944 34.4847C52.6784 34.8207 53.5424 35.8887 53.4824 37.1127C53.1944 37.2447 52.8104 37.2327 52.2584 36.8487L52.2944 34.4847Z" fill="url(#paint73_linear_1_388)"/>
<path opacity="0.62" d="M52.3185 34.5087C52.6905 34.8327 53.5425 35.8887 53.4825 37.1127C53.2065 37.2447 52.8105 37.2447 52.2825 36.8727L52.3185 34.5207V34.5087Z" fill="url(#paint74_linear_1_388)"/>
<path opacity="0.67" d="M52.3425 34.5326C52.7025 34.8446 53.5425 35.8886 53.4825 37.1006C53.2185 37.2326 52.8225 37.2326 52.3185 36.8726L52.3425 34.5206V34.5326Z" fill="url(#paint75_linear_1_388)"/>
<path opacity="0.71" d="M52.3665 34.5566C52.7145 34.8566 53.5425 35.8886 53.4825 37.1006C53.2185 37.2206 52.8345 37.2446 52.3425 36.8966L52.3665 34.5566Z" fill="url(#paint76_linear_1_388)"/>
<path opacity="0.76" d="M52.3904 34.5807C52.7264 34.8807 53.5424 35.8887 53.4824 37.1007C53.2304 37.2207 52.8344 37.2447 52.3784 36.9087V34.5687L52.3904 34.5807Z" fill="url(#paint77_linear_1_388)"/>
<path opacity="0.81" d="M52.4145 34.6047C52.7385 34.8927 53.5425 35.8887 53.4825 37.1007C53.2305 37.2087 52.8465 37.2447 52.4025 36.9327V34.6047H52.4145Z" fill="url(#paint78_linear_1_388)"/>
<path opacity="0.86" d="M52.4385 34.6287C52.7505 34.9047 53.5425 35.8887 53.4825 37.1007C53.2425 37.2087 52.8585 37.2567 52.4385 36.9567V34.6287Z" fill="url(#paint79_linear_1_388)"/>
<path opacity="0.9" d="M52.4625 34.6527C52.7625 34.9167 53.5425 35.8887 53.4825 37.1007C53.2545 37.1967 52.8705 37.2567 52.4625 36.9687V34.6407V34.6527Z" fill="url(#paint80_linear_1_388)"/>
<path opacity="0.95" d="M52.4865 34.6766C52.7745 34.9286 53.5424 35.8886 53.4824 37.1006C53.2544 37.1966 52.8704 37.2686 52.4984 36.9926V34.6766H52.4865Z" fill="url(#paint81_linear_1_388)"/>
<path d="M52.5105 34.7007C52.7865 34.9407 53.5425 35.8887 53.4825 37.1007C53.2665 37.1847 52.8825 37.2687 52.5225 37.0047V34.6887L52.5105 34.7007Z" fill="url(#paint82_linear_1_388)"/>
<path d="M53.3504 36.9807C53.6024 35.8407 51.7544 33.4767 50.5664 33.3927C51.7664 33.4767 53.7584 35.4927 53.4824 37.0887C53.0504 37.2687 52.7744 37.1487 52.5224 36.9927C52.7864 37.0287 53.1104 37.0407 53.3504 36.9687V36.9807Z" fill="url(#paint83_linear_1_388)"/>
<path d="M34.1984 90.3327C34.1744 90.4047 34.1264 90.4767 34.0904 90.5367C28.1264 90.5367 15.5624 87.5247 12.8624 84.5847C19.3544 68.8887 23.6984 61.9287 28.5224 59.5407C30.7424 58.4487 33.0944 58.2207 35.7704 58.7607C43.9184 60.4047 39.4544 74.4687 34.1984 90.3447V90.3327Z" fill="url(#paint84_linear_1_388)"/>
<path style="mix-blend-mode:multiply" opacity="0.5" d="M34.1984 90.3327C34.1624 90.4047 34.1264 90.4767 34.0904 90.5367C28.1264 90.5367 15.5624 87.5247 12.8624 84.5847C19.3544 68.8887 23.6984 61.9286 28.5224 59.5406C25.2104 62.3726 20.4944 69.7167 24.1904 68.4807C34.6904 64.9767 32.6624 67.2806 28.5464 69.6686C23.9144 72.3566 19.8464 75.0926 18.0944 78.0926C16.3544 81.0926 15.4184 83.1087 18.0944 85.3527C20.7104 87.5607 26.7584 88.6527 34.2104 90.3327H34.1984Z" fill="url(#paint85_linear_1_388)"/>
<path d="M51.0224 113.205C50.6624 113.541 50.2304 113.733 49.7384 113.709C48.6104 113.649 30.8504 108.777 21.9104 103.269C19.0544 101.505 17.0984 99.6807 16.8824 97.9287C19.4624 91.1487 29.9384 91.4607 32.7944 93.5007C34.4384 94.6767 39.5264 98.4327 43.9664 101.577C47.2184 103.869 50.1225 105.849 51.0945 106.245C51.3224 106.341 51.5265 106.497 51.6945 106.701C51.8144 106.845 51.9224 107.013 52.0064 107.193C52.7984 108.849 52.3304 111.969 51.0224 113.193V113.205Z" fill="url(#paint86_linear_1_388)"/>
<path d="M62.4224 103.689C60.6584 104.025 59.9864 103.797 59.6384 104.001C59.5304 104.061 59.0504 104.253 58.7504 104.661C58.1384 105.489 57.1424 106.737 55.9064 107.145C54.8504 107.493 53.1224 107.469 52.0064 107.205C51.8504 107.169 51.7064 107.121 51.5744 107.073C51.2504 106.953 51.0224 106.797 50.9744 106.629C50.9384 106.521 50.9744 106.389 51.0944 106.269C51.4064 105.945 51.8144 105.525 52.2824 105.093C53.4824 103.977 55.0304 102.669 56.0984 102.141C56.8064 101.793 62.4704 101.265 63.2864 101.265C64.1024 101.265 63.9464 103.413 62.4104 103.701L62.4224 103.689Z" fill="url(#paint87_linear_1_388)"/>
<path d="M62.6864 105.213C63.2384 105.213 66.2744 105.513 66.6224 105.513C66.9704 105.513 69.2624 105.177 70.0784 105.177C70.8944 105.177 71.2664 106.737 69.8384 107.205C68.4104 107.685 66.9224 107.949 66.3824 107.949C65.8424 107.949 63.0224 107.877 62.5544 107.745C62.0744 107.613 61.9424 105.201 62.6864 105.201V105.213Z" fill="url(#paint88_linear_1_388)"/>
<path d="M62.0263 107.721C62.6263 107.709 65.8783 108.165 66.2503 108.141C67.9063 108.021 69.1183 107.697 70.0063 107.685C70.8943 107.661 71.4583 109.425 69.9103 109.977C68.3743 110.529 66.8983 110.721 66.3103 110.733C65.7223 110.745 62.3623 110.709 61.8343 110.577C61.3183 110.445 61.2103 107.757 62.0143 107.733L62.0263 107.721Z" fill="url(#paint89_linear_1_388)"/>
<path d="M61.2583 110.505C61.8343 110.493 64.9543 110.913 65.3023 110.901C67.1983 110.841 68.0503 110.481 68.9023 110.457C69.7543 110.433 70.2823 112.125 68.8183 112.653C67.3423 113.181 65.9383 113.361 65.3623 113.373C64.7983 113.385 61.6063 113.469 61.1143 113.337C60.6103 113.205 60.4783 110.517 61.2583 110.505Z" fill="url(#paint90_linear_1_388)"/>
<path d="M60.4184 113.361C60.9344 113.385 63.6824 113.973 64.0064 113.997C64.3184 114.009 66.9104 114.177 67.6664 114.213C68.4224 114.249 68.7944 115.797 67.4384 116.169C66.0824 116.541 64.3544 116.397 63.8504 116.373C63.3464 116.349 60.5384 116.037 60.1064 115.893C59.6744 115.749 59.7344 113.337 60.4304 113.373L60.4184 113.361Z" fill="url(#paint91_linear_1_388)"/>
<path d="M60.0824 115.881C60.0824 115.881 60.0584 115.881 60.0464 115.881C58.0184 115.881 50.8304 114.117 49.7384 113.709C49.5104 113.625 49.4384 113.241 49.4624 112.701C49.5224 111.405 50.1584 109.161 50.6144 107.697C50.7584 107.253 50.8784 106.881 50.9624 106.617C51.0344 106.401 51.0824 106.281 51.0824 106.257C51.0824 106.257 51.5024 105.969 52.0544 105.645C53.0024 105.093 54.4544 104.361 55.5464 104.361C56.2424 104.361 57.4664 104.493 58.7264 104.661C60.6344 104.901 62.6144 105.213 62.9384 105.213C64.0184 105.213 62.0744 115.773 60.0584 115.893L60.0824 115.881Z" fill="url(#paint92_linear_1_388)"/>
<path style="mix-blend-mode:multiply" d="M52.2944 105.081C52.2224 105.261 52.1504 105.453 52.0784 105.645C51.9464 106.005 51.8144 106.377 51.7064 106.713C51.6704 106.833 51.6224 106.953 51.5864 107.073C51.4904 107.349 51.4064 107.589 51.3344 107.793C51.2624 107.973 50.8904 108.057 50.6384 107.697C49.1624 105.621 46.8104 103.905 43.9784 101.589C47.2304 103.881 50.1344 105.861 51.1064 106.257C51.4184 105.933 51.8264 105.513 52.2944 105.081Z" fill="url(#paint93_linear_1_388)"/>
<path style="mix-blend-mode:multiply" d="M60.0825 115.881C60.0825 115.881 60.0585 115.881 60.0465 115.881C58.0185 115.881 50.8305 114.117 49.7385 113.709C48.6105 113.649 30.8505 108.777 21.9105 103.269C25.4625 104.997 32.7705 107.781 49.0545 112.569C49.1865 112.605 49.3305 112.653 49.4625 112.689C49.9785 112.845 50.4945 113.013 51.0105 113.193C53.8545 114.141 56.8665 115.293 60.0585 115.869L60.0825 115.881Z" fill="url(#paint94_linear_1_388)"/>
<path d="M100.138 95.1447C98.6984 95.9607 92.9024 95.5047 88.6544 89.7207C87.3464 87.9447 85.9784 84.8607 84.6944 81.4047C82.3304 75.0807 80.2064 67.5087 79.1984 64.4727C79.0784 64.1127 78.9704 63.8127 78.8864 63.5847C78.8024 63.3687 78.7304 63.2247 78.6824 63.1527C78.1424 62.4447 80.0744 60.9087 81.7184 60.1647C82.3544 59.8767 82.9424 59.7207 83.3264 59.7687C83.4584 59.7807 83.5784 59.8287 83.6504 59.9007C83.7464 59.9847 83.8664 60.0927 84.0224 60.2367C84.0464 60.2607 84.0584 60.2727 84.0824 60.2967C84.6944 60.8487 85.7024 61.7847 86.9624 62.9967C91.9784 67.8207 100.75 76.8807 102.046 82.4247C103.762 89.7447 101.59 94.3527 100.15 95.1687L100.138 95.1447Z" fill="url(#paint95_linear_1_388)"/>
<path d="M84.2744 56.7687C84.2504 58.1967 84.1664 59.5887 84.0704 60.2727C84.0464 60.4527 84.0224 60.5847 83.9864 60.6567C83.9024 60.8607 83.4584 60.8367 82.8704 60.6567C82.5104 60.5487 82.1144 60.3687 81.7064 60.1647C80.7704 59.6847 79.8464 59.0007 79.5584 58.3647C79.0304 57.1527 80.1224 54.7767 80.5904 53.7927C80.6504 53.6607 80.6984 53.5647 80.7344 53.4807C81.0344 52.8207 79.4024 51.7527 79.0664 50.0847C78.7304 48.4167 79.8224 47.0727 80.5304 47.9367C81.1304 48.6807 83.5424 51.4407 83.9984 52.8927C84.2144 53.5767 84.2744 55.1847 84.2624 56.7807L84.2744 56.7687Z" fill="url(#paint96_linear_1_388)"/>
<path d="M76.7865 51.1167C76.3065 50.8887 73.9185 49.5447 73.3305 49.1847C72.9945 48.9807 70.9185 47.5767 70.1745 47.5527C69.4425 47.5407 68.7465 48.9687 69.8865 49.7967C71.0265 50.6247 74.4585 53.3487 74.9265 53.6607C75.3945 53.9727 77.8545 51.6207 76.7745 51.1047L76.7865 51.1167Z" fill="url(#paint97_linear_1_388)"/>
<path d="M75.0944 52.5207C74.6024 52.2567 71.9144 50.8526 71.6264 50.5646C71.3264 50.2766 68.9504 48.4767 68.1944 48.4287C67.4384 48.3807 66.6704 49.8326 67.8104 50.7326C68.9504 51.6326 72.6224 54.7286 73.0904 55.0766C73.5584 55.4246 76.1864 53.0846 75.1064 52.5086L75.0944 52.5207Z" fill="url(#paint98_linear_1_388)"/>
<path d="M73.9424 54.8006C73.4864 54.5486 70.9304 53.2166 70.6544 52.9406C70.3784 52.6646 68.1944 51.1046 67.4744 51.0566C66.7544 51.0086 66.1424 52.2566 67.1024 53.2406C67.5704 53.7206 68.5664 54.7406 69.3704 55.5086C70.1864 56.2886 72.3224 57.3086 72.5864 57.5126C73.0304 57.8366 74.9744 55.3406 73.9424 54.7886V54.8006Z" fill="url(#paint99_linear_1_388)"/>
<path d="M73.2464 57.5247C72.8144 57.3327 70.4384 56.2647 70.1744 56.0247C69.9104 55.7967 68.4344 54.0687 67.7744 53.9247C67.1384 53.7927 66.6464 54.8727 67.2704 55.9527C68.1464 57.5127 71.2304 59.5407 71.6504 59.8047C72.0704 60.0687 74.2064 57.9447 73.2464 57.5127V57.5247Z" fill="url(#paint100_linear_1_388)"/>
<path d="M84.0104 60.2246C84.0104 60.3806 84.0104 60.5366 83.9864 60.6566C83.9624 60.8246 83.8424 61.0766 83.6504 61.3646C82.8824 62.5406 80.9384 64.4126 79.7144 64.5446C79.5224 64.5686 79.3424 64.5446 79.1984 64.4606C79.1624 64.4486 79.1384 64.4246 79.1024 64.4006C77.8424 63.4886 73.0424 61.5926 71.5544 59.6726C70.9304 58.8686 72.4544 55.5686 72.9104 55.1126C73.3664 54.6566 76.1984 50.8766 76.7984 51.0926C77.5664 51.3926 79.2704 52.7126 80.6024 53.7686C81.3584 54.3806 82.0064 54.8966 82.2824 55.1006C83.0744 55.6886 83.5904 57.0926 83.8304 58.4126C83.9504 59.0726 84.0104 59.7086 84.0104 60.2006V60.2246Z" fill="url(#paint101_linear_1_388)"/>
<path style="mix-blend-mode:multiply" d="M86.9384 62.9846C85.4624 61.9526 84.3704 61.5446 83.6504 61.3766C82.7144 61.1606 82.3904 61.3286 82.5944 61.0766C82.6664 60.9926 82.7624 60.8486 82.8704 60.6566C83.0024 60.4166 83.1584 60.1166 83.3144 59.7686C83.4944 59.3726 83.6744 58.9166 83.8304 58.4486C84.0224 57.8846 84.1904 57.3086 84.2744 56.7806C84.2504 58.1966 84.1664 59.6006 84.0704 60.2846C84.6824 60.8366 85.6904 61.7726 86.9504 62.9846H86.9384Z" fill="url(#paint102_linear_1_388)"/>
<path style="mix-blend-mode:multiply" d="M84.6944 81.4047C82.3304 75.0807 80.2064 67.5087 79.1984 64.4727C79.1624 64.4607 79.1384 64.4367 79.1024 64.4127C77.8424 63.5007 73.0424 61.6047 71.5544 59.6847C74.2424 61.5807 77.4944 62.8287 78.8864 63.5727C79.2344 63.7647 79.4624 63.9207 79.5344 64.0407C79.5704 64.1007 79.6304 64.2687 79.7144 64.5327C80.5544 67.0287 83.7104 77.9367 84.6944 81.3807V81.4047Z" fill="url(#paint103_linear_1_388)"/>
</g>
</g>
<defs>
<linearGradient id="paint0_linear_1_388" x1="0.214417" y1="60.1407" x2="120.214" y2="60.1407" gradientUnits="userSpaceOnUse">
<stop stop-color="#CCE9F1"/>
<stop offset="1" stop-color="#D0E1E7"/>
</linearGradient>
<linearGradient id="paint1_linear_1_388" x1="85.7625" y1="84.6927" x2="55.7984" y2="59.8767" gradientUnits="userSpaceOnUse">
<stop stop-color="#FF8533"/>
<stop offset="1" stop-color="#FFA973"/>
</linearGradient>
<linearGradient id="paint2_linear_1_388" x1="86.9744" y1="90.0927" x2="78.5984" y2="69.5847" gradientUnits="userSpaceOnUse">
<stop stop-color="#FFECDF"/>
<stop offset="1" stop-color="#E5A480"/>
</linearGradient>
<linearGradient id="paint3_linear_1_388" x1="93.3081" y1="67.4797" x2="68.5077" y2="83.3587" gradientUnits="userSpaceOnUse">
<stop stop-color="#24BEBE"/>
<stop offset="1" stop-color="#228686"/>
</linearGradient>
<linearGradient id="paint4_linear_1_388" x1="79.783" y1="76.5756" x2="62.8752" y2="86.732" gradientUnits="userSpaceOnUse">
<stop stop-color="#0BBEBE"/>
<stop offset="1" stop-color="#228686"/>
</linearGradient>
<linearGradient id="paint5_linear_1_388" x1="46.9354" y1="42.1175" x2="66.183" y2="64.7956" gradientUnits="userSpaceOnUse">
<stop stop-color="#FF8533"/>
<stop offset="1" stop-color="#FFA973"/>
</linearGradient>
<linearGradient id="paint6_linear_1_388" x1="64.6739" y1="67.2406" x2="47.4405" y2="35.6107" gradientUnits="userSpaceOnUse">
<stop stop-color="#FFECDF"/>
<stop offset="1" stop-color="#E5A480"/>
</linearGradient>
<linearGradient id="paint7_linear_1_388" x1="70.1984" y1="53.6847" x2="40.7264" y2="106.593" gradientUnits="userSpaceOnUse">
<stop stop-color="#24BEBE"/>
<stop offset="1" stop-color="#228686"/>
</linearGradient>
<linearGradient id="paint8_linear_1_388" x1="45.1784" y1="60.1287" x2="59.8184" y2="61.3167" gradientUnits="userSpaceOnUse">
<stop stop-color="#146969"/>
<stop offset="1" stop-color="#1A6969"/>
</linearGradient>
<linearGradient id="paint9_linear_1_388" x1="64.7144" y1="83.8767" x2="30.8384" y2="109.605" gradientUnits="userSpaceOnUse">
<stop stop-color="#A3F4F4"/>
<stop offset="1" stop-color="#228686"/>
</linearGradient>
<linearGradient id="paint10_linear_1_388" x1="81.0584" y1="73.4007" x2="64.9544" y2="85.6287" gradientUnits="userSpaceOnUse">
<stop stop-color="#A3F4F4"/>
<stop offset="1" stop-color="#228686"/>
</linearGradient>
<linearGradient id="paint11_linear_1_388" x1="6.45442" y1="91.0047" x2="39.3224" y2="72.8247" gradientUnits="userSpaceOnUse">
<stop stop-color="#FF8533"/>
<stop offset="0.72" stop-color="#FFA973"/>
</linearGradient>
<linearGradient id="paint12_linear_1_388" x1="34.0064" y1="93.3686" x2="18.5864" y2="65.0606" gradientUnits="userSpaceOnUse">
<stop stop-color="#FFECDF"/>
<stop offset="1" stop-color="#E5A480"/>
</linearGradient>
<linearGradient id="paint13_linear_1_388" x1="44.9176" y1="46.4369" x2="80.8525" y2="26.5501" gradientUnits="userSpaceOnUse">
<stop stop-color="#FF8533"/>
<stop offset="0.72" stop-color="#FFA973"/>
</linearGradient>
<linearGradient id="paint14_linear_1_388" x1="66.3584" y1="20.0127" x2="60.5744" y2="65.2047" gradientUnits="userSpaceOnUse">
<stop stop-color="#FFA062"/>
<stop offset="1" stop-color="#458622"/>
</linearGradient>
<linearGradient id="paint15_linear_1_388" x1="74.1116" y1="46.3253" x2="53.002" y2="15.2636" gradientUnits="userSpaceOnUse">
<stop stop-color="#FFECDF"/>
<stop offset="1" stop-color="#E5A480"/>
</linearGradient>
<linearGradient id="paint16_linear_1_388" x1="65.4672" y1="39.1911" x2="66.2512" y2="35.7857" gradientUnits="userSpaceOnUse">
<stop stop-color="#FFECDF"/>
<stop offset="1" stop-color="#E5A480"/>
</linearGradient>
<linearGradient id="paint17_linear_1_388" x1="67.3784" y1="35.1326" x2="65.5544" y2="38.6966" gradientUnits="userSpaceOnUse">
<stop stop-color="#FFECDF"/>
<stop offset="1" stop-color="#E5A480"/>
</linearGradient>
<linearGradient id="paint18_linear_1_388" x1="68.7139" y1="37.9496" x2="65.9429" y2="37.476" gradientUnits="userSpaceOnUse">
<stop stop-color="#331500"/>
<stop offset="1" stop-color="#A04915"/>
</linearGradient>
<linearGradient id="paint19_linear_1_388" x1="68.7297" y1="37.2259" x2="65.9157" y2="37.7981" gradientUnits="userSpaceOnUse">
<stop stop-color="#331500"/>
<stop offset="1" stop-color="#A04915"/>
</linearGradient>
<linearGradient id="paint20_linear_1_388" x1="67.8478" y1="37.6979" x2="66.9233" y2="37.544" gradientUnits="userSpaceOnUse">
<stop stop-color="#140800"/>
<stop offset="1" stop-color="#421E08"/>
</linearGradient>
<linearGradient id="paint21_linear_1_388" x1="67.3072" y1="37.0263" x2="66.6431" y2="36.9173" gradientUnits="userSpaceOnUse">
<stop stop-color="#FFF7F1"/>
<stop offset="1" stop-color="#E5DBD5"/>
</linearGradient>
<linearGradient id="paint22_linear_1_388" x1="69.2801" y1="37.5227" x2="32.1582" y2="26.9993" gradientUnits="userSpaceOnUse">
<stop stop-color="#FFECDF"/>
<stop offset="1" stop-color="#E5A480"/>
</linearGradient>
<linearGradient id="paint23_linear_1_388" x1="62.1821" y1="36.3881" x2="70.0096" y2="36.7253" gradientUnits="userSpaceOnUse">
<stop stop-color="#1F0D00"/>
<stop offset="1" stop-color="#421E08"/>
</linearGradient>
<linearGradient id="paint24_linear_1_388" x1="66.117" y1="24.7213" x2="72.2061" y2="23.9424" gradientUnits="userSpaceOnUse">
<stop stop-color="#1F0D00"/>
<stop offset="1" stop-color="#421E08"/>
</linearGradient>
<linearGradient id="paint25_linear_1_388" x1="74.17" y1="43.1366" x2="77.235" y2="36.9956" gradientUnits="userSpaceOnUse">
<stop stop-color="#FFECDF"/>
<stop offset="1" stop-color="#E5A480"/>
</linearGradient>
<linearGradient id="paint26_linear_1_388" x1="77.6384" y1="38.9487" x2="74.8184" y2="40.9407" gradientUnits="userSpaceOnUse">
<stop stop-color="#FFECDF"/>
<stop offset="1" stop-color="#E5A480"/>
</linearGradient>
<linearGradient id="paint27_linear_1_388" x1="76.8862" y1="39.9406" x2="74.4606" y2="39.5099" gradientUnits="userSpaceOnUse">
<stop stop-color="#331500"/>
<stop offset="1" stop-color="#A04915"/>
</linearGradient>
<linearGradient id="paint28_linear_1_388" x1="77.079" y1="39.2942" x2="74.6127" y2="39.7684" gradientUnits="userSpaceOnUse">
<stop stop-color="#331500"/>
<stop offset="1" stop-color="#A04915"/>
</linearGradient>
<linearGradient id="paint29_linear_1_388" x1="76.0807" y1="39.8018" x2="75.2662" y2="39.6486" gradientUnits="userSpaceOnUse">
<stop stop-color="#140800"/>
<stop offset="1" stop-color="#421E08"/>
</linearGradient>
<linearGradient id="paint30_linear_1_388" x1="75.5093" y1="39.1879" x2="74.9312" y2="39.0776" gradientUnits="userSpaceOnUse">
<stop stop-color="#FFF7F1"/>
<stop offset="1" stop-color="#E5DBD5"/>
</linearGradient>
<linearGradient id="paint31_linear_1_388" x1="73.5926" y1="38.9635" x2="102.928" y2="45.8975" gradientUnits="userSpaceOnUse">
<stop stop-color="#FFECDF"/>
<stop offset="1" stop-color="#E5A480"/>
</linearGradient>
<linearGradient id="paint32_linear_1_388" x1="72.8836" y1="38.2758" x2="78.9719" y2="40.1879" gradientUnits="userSpaceOnUse">
<stop stop-color="#1F0D00"/>
<stop offset="1" stop-color="#421E08"/>
</linearGradient>
<linearGradient id="paint33_linear_1_388" x1="72.4983" y1="62.0698" x2="68.1305" y2="59.3279" gradientUnits="userSpaceOnUse">
<stop stop-color="#1F0D00"/>
<stop offset="1" stop-color="#421E08"/>
</linearGradient>
<linearGradient id="paint34_linear_1_388" x1="69.1973" y1="45.5101" x2="73.3728" y2="34.4445" gradientUnits="userSpaceOnUse">
<stop stop-color="#FF8533"/>
<stop offset="1" stop-color="#FFA973"/>
</linearGradient>
<linearGradient id="paint35_linear_1_388" x1="73.4384" y1="20.9247" x2="69.2864" y2="53.3247" gradientUnits="userSpaceOnUse">
<stop stop-color="#FFA062"/>
<stop offset="0.11" stop-color="#F79E5F"/>
<stop offset="0.27" stop-color="#E29C58"/>
<stop offset="0.47" stop-color="#C1974C"/>
<stop offset="0.69" stop-color="#92903C"/>
<stop offset="0.93" stop-color="#578828"/>
<stop offset="1" stop-color="#458622"/>
</linearGradient>
<linearGradient id="paint36_linear_1_388" x1="62.3147" y1="33.3242" x2="72.6477" y2="32.8912" gradientUnits="userSpaceOnUse">
<stop stop-color="#693B26"/>
<stop offset="0.35" stop-color="#633722"/>
<stop offset="0.79" stop-color="#542B18"/>
<stop offset="1" stop-color="#4A2412"/>
</linearGradient>
<linearGradient id="paint37_linear_1_388" x1="111.813" y1="43.5974" x2="117.557" y2="45.6256" gradientUnits="userSpaceOnUse">
<stop stop-color="#693B26"/>
<stop offset="0.35" stop-color="#633722"/>
<stop offset="0.79" stop-color="#542B18"/>
<stop offset="1" stop-color="#4A2412"/>
</linearGradient>
<linearGradient id="paint38_linear_1_388" x1="70.0052" y1="44.4272" x2="69.4866" y2="46.0883" gradientUnits="userSpaceOnUse">
<stop stop-color="#ECDBCF"/>
<stop offset="1" stop-color="#BC927F"/>
</linearGradient>
<linearGradient id="paint39_linear_1_388" x1="67.8959" y1="45.2392" x2="67.736" y2="46.5758" gradientUnits="userSpaceOnUse">
<stop stop-color="#70220D"/>
<stop offset="1" stop-color="#CB684F"/>
</linearGradient>
<linearGradient id="paint40_linear_1_388" x1="71.1914" y1="45.5255" x2="70.6584" y2="46.74" gradientUnits="userSpaceOnUse">
<stop stop-color="#70220D"/>
<stop offset="1" stop-color="#CB684F"/>
</linearGradient>
<linearGradient id="paint41_linear_1_388" x1="65.7464" y1="48.7047" x2="70.8704" y2="50.0127" gradientUnits="userSpaceOnUse">
<stop stop-color="#693B26"/>
<stop offset="0.35" stop-color="#633722"/>
<stop offset="0.79" stop-color="#542B18"/>
<stop offset="1" stop-color="#4A2412"/>
</linearGradient>
<linearGradient id="paint42_linear_1_388" x1="59.2064" y1="34.6286" x2="58.5944" y2="39.0326" gradientUnits="userSpaceOnUse">
<stop stop-color="#EAF5FF"/>
<stop offset="1" stop-color="#80D4E5"/>
</linearGradient>
<linearGradient id="paint43_linear_1_388" x1="59.2063" y1="34.6286" x2="58.5943" y2="39.0326" gradientUnits="userSpaceOnUse">
<stop stop-color="#EAF5FF"/>
<stop offset="1" stop-color="#80D4E5"/>
</linearGradient>
<linearGradient id="paint44_linear_1_388" x1="47.7012" y1="23.9034" x2="87.4956" y2="31.4946" gradientUnits="userSpaceOnUse">
<stop stop-color="#693B26"/>
<stop offset="0.35" stop-color="#633722"/>
<stop offset="0.79" stop-color="#542B18"/>
<stop offset="1" stop-color="#4A2412"/>
</linearGradient>
<linearGradient id="paint45_linear_1_388" x1="37.9313" y1="39.7045" x2="70.469" y2="13.8678" gradientUnits="userSpaceOnUse">
<stop stop-color="#593D00"/>
<stop offset="1" stop-color="#B26217"/>
</linearGradient>
<linearGradient id="paint46_linear_1_388" x1="68.5411" y1="14.624" x2="73.4791" y2="10.7039" gradientUnits="userSpaceOnUse">
<stop stop-color="#593D00"/>
<stop offset="1" stop-color="#B26217"/>
</linearGradient>
<linearGradient id="paint47_linear_1_388" x1="60.2238" y1="41.3183" x2="89.7397" y2="17.8738" gradientUnits="userSpaceOnUse">
<stop stop-color="#593D00"/>
<stop offset="1" stop-color="#B26217"/>
</linearGradient>
<linearGradient id="paint48_linear_1_388" x1="62.715" y1="14.8722" x2="58.7891" y2="16.357" gradientUnits="userSpaceOnUse">
<stop stop-color="#380E00"/>
<stop offset="1" stop-color="#A73A16"/>
</linearGradient>
<linearGradient id="paint49_linear_1_388" x1="56.7389" y1="38.7979" x2="46.2808" y2="31.9659" gradientUnits="userSpaceOnUse">
<stop stop-color="#FF6700"/>
<stop offset="1" stop-color="#FFA063"/>
</linearGradient>
<linearGradient id="paint50_linear_1_388" x1="46.2584" y1="29.2887" x2="59.5424" y2="45.1047" gradientUnits="userSpaceOnUse">
<stop stop-color="#FFA062"/>
<stop offset="1" stop-color="#458622"/>
</linearGradient>
<linearGradient id="paint51_linear_1_388" x1="52.9282" y1="34.5629" x2="50.6451" y2="35.5865" gradientUnits="userSpaceOnUse">
<stop stop-color="#B44900"/>
<stop offset="1" stop-color="#FE8D43"/>
</linearGradient>
<linearGradient id="paint52_linear_1_388" x1="52.9282" y1="34.5629" x2="50.6451" y2="35.5865" gradientUnits="userSpaceOnUse">
<stop stop-color="#B44900"/>
<stop offset="1" stop-color="#FC8B40"/>
</linearGradient>
<linearGradient id="paint53_linear_1_388" x1="52.9281" y1="34.5629" x2="50.645" y2="35.5865" gradientUnits="userSpaceOnUse">
<stop stop-color="#B44900"/>
<stop offset="1" stop-color="#FB8A3E"/>
</linearGradient>
<linearGradient id="paint54_linear_1_388" x1="52.9282" y1="34.5629" x2="50.6336" y2="35.59" gradientUnits="userSpaceOnUse">
<stop stop-color="#B44900"/>
<stop offset="1" stop-color="#FA883C"/>
</linearGradient>
<linearGradient id="paint55_linear_1_388" x1="52.9282" y1="34.5629" x2="50.6336" y2="35.59" gradientUnits="userSpaceOnUse">
<stop stop-color="#B44900"/>
<stop offset="1" stop-color="#F9863A"/>
</linearGradient>
<linearGradient id="paint56_linear_1_388" x1="52.9397" y1="34.5594" x2="50.6336" y2="35.59" gradientUnits="userSpaceOnUse">
<stop stop-color="#B44900"/>
<stop offset="1" stop-color="#F78437"/>
</linearGradient>
<linearGradient id="paint57_linear_1_388" x1="52.9397" y1="34.5593" x2="50.6336" y2="35.5899" gradientUnits="userSpaceOnUse">
<stop stop-color="#B44900"/>
<stop offset="1" stop-color="#F68235"/>
</linearGradient>
<linearGradient id="paint58_linear_1_388" x1="52.9397" y1="34.5593" x2="50.6336" y2="35.59" gradientUnits="userSpaceOnUse">
<stop stop-color="#B44900"/>
<stop offset="1" stop-color="#F58033"/>
</linearGradient>
<linearGradient id="paint59_linear_1_388" x1="52.9396" y1="34.5593" x2="50.6336" y2="35.5899" gradientUnits="userSpaceOnUse">
<stop stop-color="#B44900"/>
<stop offset="1" stop-color="#F47F31"/>
</linearGradient>
<linearGradient id="paint60_linear_1_388" x1="52.9397" y1="34.5593" x2="50.6336" y2="35.5899" gradientUnits="userSpaceOnUse">
<stop stop-color="#B44900"/>
<stop offset="1" stop-color="#F27D2E"/>
</linearGradient>
<linearGradient id="paint61_linear_1_388" x1="52.9396" y1="34.5593" x2="50.6336" y2="35.59" gradientUnits="userSpaceOnUse">
<stop stop-color="#B44900"/>
<stop offset="1" stop-color="#F17B2C"/>
</linearGradient>
<linearGradient id="paint62_linear_1_388" x1="-389.906" y1="217.239" x2="-391.395" y2="218.07" gradientUnits="userSpaceOnUse">
<stop stop-color="#6B2C00"/>
<stop offset="1" stop-color="#E26E20"/>
</linearGradient>
<linearGradient id="paint63_linear_1_388" x1="-389.898" y1="217.257" x2="-391.367" y2="218.072" gradientUnits="userSpaceOnUse">
<stop stop-color="#6B2C00"/>
<stop offset="1" stop-color="#E26E20"/>
</linearGradient>
<linearGradient id="paint64_linear_1_388" x1="-389.898" y1="217.279" x2="-391.344" y2="218.084" gradientUnits="userSpaceOnUse">
<stop stop-color="#6B2C00"/>
<stop offset="1" stop-color="#E26E20"/>
</linearGradient>
<linearGradient id="paint65_linear_1_388" x1="-389.89" y1="217.297" x2="-391.316" y2="218.086" gradientUnits="userSpaceOnUse">
<stop stop-color="#6B2C00"/>
<stop offset="1" stop-color="#E26E20"/>
</linearGradient>
<linearGradient id="paint66_linear_1_388" x1="-389.886" y1="217.306" x2="-391.287" y2="218.092" gradientUnits="userSpaceOnUse">
<stop stop-color="#6B2C00"/>
<stop offset="1" stop-color="#E26E20"/>
</linearGradient>
<linearGradient id="paint67_linear_1_388" x1="-389.878" y1="217.325" x2="-391.265" y2="218.097" gradientUnits="userSpaceOnUse">
<stop stop-color="#6B2C00"/>
<stop offset="1" stop-color="#E26E20"/>
</linearGradient>
<linearGradient id="paint68_linear_1_388" x1="-389.877" y1="217.346" x2="-391.237" y2="218.099" gradientUnits="userSpaceOnUse">
<stop stop-color="#6B2C00"/>
<stop offset="1" stop-color="#E26E20"/>
</linearGradient>
<linearGradient id="paint69_linear_1_388" x1="-389.87" y1="217.365" x2="-391.207" y2="218.107" gradientUnits="userSpaceOnUse">
<stop stop-color="#6B2C00"/>
<stop offset="1" stop-color="#E26E20"/>
</linearGradient>
<linearGradient id="paint70_linear_1_388" x1="-389.865" y1="217.374" x2="-391.187" y2="218.11" gradientUnits="userSpaceOnUse">
<stop stop-color="#6B2C00"/>
<stop offset="1" stop-color="#E26E20"/>
</linearGradient>
<linearGradient id="paint71_linear_1_388" x1="-389.858" y1="217.392" x2="-391.157" y2="218.119" gradientUnits="userSpaceOnUse">
<stop stop-color="#6B2C00"/>
<stop offset="1" stop-color="#E26E20"/>
</linearGradient>
<linearGradient id="paint72_linear_1_388" x1="-389.857" y1="217.414" x2="-391.129" y2="218.12" gradientUnits="userSpaceOnUse">
<stop stop-color="#6B2C00"/>
<stop offset="1" stop-color="#E26E20"/>
</linearGradient>
<linearGradient id="paint73_linear_1_388" x1="-389.85" y1="217.432" x2="-391.101" y2="218.122" gradientUnits="userSpaceOnUse">
<stop stop-color="#6B2C00"/>
<stop offset="1" stop-color="#E26E20"/>
</linearGradient>
<linearGradient id="paint74_linear_1_388" x1="-389.846" y1="217.441" x2="-391.079" y2="218.132" gradientUnits="userSpaceOnUse">
<stop stop-color="#6B2C00"/>
<stop offset="1" stop-color="#E26E20"/>
</linearGradient>
<linearGradient id="paint75_linear_1_388" x1="-389.839" y1="217.459" x2="-391.051" y2="218.133" gradientUnits="userSpaceOnUse">
<stop stop-color="#6B2C00"/>
<stop offset="1" stop-color="#E26E20"/>
</linearGradient>
<linearGradient id="paint76_linear_1_388" x1="-389.831" y1="217.477" x2="-391.021" y2="218.142" gradientUnits="userSpaceOnUse">
<stop stop-color="#6B2C00"/>
<stop offset="1" stop-color="#E26E20"/>
</linearGradient>
<linearGradient id="paint77_linear_1_388" x1="-389.829" y1="217.499" x2="-390.999" y2="218.147" gradientUnits="userSpaceOnUse">
<stop stop-color="#6B2C00"/>
<stop offset="1" stop-color="#E26E20"/>
</linearGradient>
<linearGradient id="paint78_linear_1_388" x1="-389.825" y1="217.508" x2="-390.972" y2="218.147" gradientUnits="userSpaceOnUse">
<stop stop-color="#6B2C00"/>
<stop offset="1" stop-color="#E26E20"/>
</linearGradient>
<linearGradient id="paint79_linear_1_388" x1="-389.818" y1="217.527" x2="-390.942" y2="218.155" gradientUnits="userSpaceOnUse">
<stop stop-color="#6B2C00"/>
<stop offset="1" stop-color="#E26E20"/>
</linearGradient>
<linearGradient id="paint80_linear_1_388" x1="-389.809" y1="217.545" x2="-390.913" y2="218.157" gradientUnits="userSpaceOnUse">
<stop stop-color="#6B2C00"/>
<stop offset="1" stop-color="#E26E20"/>
</linearGradient>
<linearGradient id="paint81_linear_1_388" x1="-389.801" y1="217.563" x2="-390.89" y2="218.168" gradientUnits="userSpaceOnUse">
<stop stop-color="#6B2C00"/>
<stop offset="1" stop-color="#E26E20"/>
</linearGradient>
<linearGradient id="paint82_linear_1_388" x1="-389.805" y1="217.575" x2="-390.863" y2="218.168" gradientUnits="userSpaceOnUse">
<stop stop-color="#6B2C00"/>
<stop offset="1" stop-color="#E26E20"/>
</linearGradient>
<linearGradient id="paint83_linear_1_388" x1="51.6155" y1="35.2723" x2="53.4314" y2="36.304" gradientUnits="userSpaceOnUse">
<stop stop-color="#D8661A"/>
<stop offset="1" stop-color="#A24B0D"/>
</linearGradient>
<linearGradient id="paint84_linear_1_388" x1="46.1388" y1="77.4714" x2="16.484" y2="70.5378" gradientUnits="userSpaceOnUse">
<stop stop-color="#24BEBE"/>
<stop offset="1" stop-color="#228686"/>
</linearGradient>
<linearGradient id="paint85_linear_1_388" x1="14.3532" y1="70.3307" x2="34.289" y2="77.2423" gradientUnits="userSpaceOnUse">
<stop stop-color="#A3F4F4"/>
<stop offset="1" stop-color="#228686"/>
</linearGradient>
<linearGradient id="paint86_linear_1_388" x1="32.3864" y1="108.849" x2="41.3384" y2="91.1247" gradientUnits="userSpaceOnUse">
<stop stop-color="#FF8533"/>
<stop offset="1" stop-color="#FFA973"/>
</linearGradient>
<linearGradient id="paint87_linear_1_388" x1="57.9344" y1="105.537" x2="56.6264" y2="102.333" gradientUnits="userSpaceOnUse">
<stop stop-color="#FF8533"/>
<stop offset="1" stop-color="#FFA973"/>
</linearGradient>
<linearGradient id="paint88_linear_1_388" x1="66.3824" y1="105.285" x2="66.6104" y2="107.637" gradientUnits="userSpaceOnUse">
<stop stop-color="#FF8533"/>
<stop offset="1" stop-color="#FFA973"/>
</linearGradient>
<linearGradient id="paint89_linear_1_388" x1="66.0823" y1="108.429" x2="66.3103" y2="110.193" gradientUnits="userSpaceOnUse">
<stop stop-color="#FF8533"/>
<stop offset="1" stop-color="#FFA973"/>
</linearGradient>
<linearGradient id="paint90_linear_1_388" x1="65.1823" y1="110.793" x2="65.2663" y2="112.737" gradientUnits="userSpaceOnUse">
<stop stop-color="#FF8533"/>
<stop offset="1" stop-color="#FFA973"/>
</linearGradient>
<linearGradient id="paint91_linear_1_388" x1="64.1864" y1="113.889" x2="63.9584" y2="116.097" gradientUnits="userSpaceOnUse">
<stop stop-color="#FF8533"/>
<stop offset="1" stop-color="#FFA973"/>
</linearGradient>
<linearGradient id="paint92_linear_1_388" x1="52.0064" y1="118.761" x2="60.9584" y2="101.037" gradientUnits="userSpaceOnUse">
<stop stop-color="#FF8533"/>
<stop offset="1" stop-color="#FFA973"/>
</linearGradient>
<linearGradient id="paint93_linear_1_388" x1="50.7824" y1="108.213" x2="46.2344" y2="99.8367" gradientUnits="userSpaceOnUse">
<stop stop-color="#FFECDF"/>
<stop offset="1" stop-color="#E5A480"/>
</linearGradient>
<linearGradient id="paint94_linear_1_388" x1="44.9025" y1="105.201" x2="22.5705" y2="130.329" gradientUnits="userSpaceOnUse">
<stop stop-color="#FFECDF"/>
<stop offset="1" stop-color="#E5A480"/>
</linearGradient>
<linearGradient id="paint95_linear_1_388" x1="84.1664" y1="83.0007" x2="96.1784" y2="73.1487" gradientUnits="userSpaceOnUse">
<stop stop-color="#FF8533"/>
<stop offset="1" stop-color="#FFA973"/>
</linearGradient>
<linearGradient id="paint96_linear_1_388" x1="76.5104" y1="54.1047" x2="83.6024" y2="54.2847" gradientUnits="userSpaceOnUse">
<stop stop-color="#FF8533"/>
<stop offset="0.48" stop-color="#FF954F"/>
<stop offset="1" stop-color="#FFA973"/>
</linearGradient>
<linearGradient id="paint97_linear_1_388" x1="72.5745" y1="50.9487" x2="73.6425" y2="49.4127" gradientUnits="userSpaceOnUse">
<stop stop-color="#FF8533"/>
<stop offset="1" stop-color="#FFA973"/>
</linearGradient>
<linearGradient id="paint98_linear_1_388" x1="70.3064" y1="52.7246" x2="71.6384" y2="50.7086" gradientUnits="userSpaceOnUse">
<stop stop-color="#FF8533"/>
<stop offset="1" stop-color="#FFA973"/>
</linearGradient>
<linearGradient id="paint99_linear_1_388" x1="69.4424" y1="55.2926" x2="71.1224" y2="52.7246" gradientUnits="userSpaceOnUse">
<stop stop-color="#FF8533"/>
<stop offset="1" stop-color="#FFA973"/>
</linearGradient>
<linearGradient id="paint100_linear_1_388" x1="69.1664" y1="57.8007" x2="70.5944" y2="55.8807" gradientUnits="userSpaceOnUse">
<stop stop-color="#FF8533"/>
<stop offset="1" stop-color="#FFA973"/>
</linearGradient>
<linearGradient id="paint101_linear_1_388" x1="69.5264" y1="65.1566" x2="81.5744" y2="55.2806" gradientUnits="userSpaceOnUse">
<stop stop-color="#FF8533"/>
<stop offset="1" stop-color="#FFA973"/>
</linearGradient>
<linearGradient id="paint102_linear_1_388" x1="85.2224" y1="60.4886" x2="80.3144" y2="56.4206" gradientUnits="userSpaceOnUse">
<stop stop-color="#FFECDF"/>
<stop offset="1" stop-color="#E5A480"/>
</linearGradient>
<linearGradient id="paint103_linear_1_388" x1="84.0584" y1="65.0247" x2="72.4664" y2="75.8007" gradientUnits="userSpaceOnUse">
<stop stop-color="#FFECDF"/>
<stop offset="1" stop-color="#E5A480"/>
</linearGradient>
<clipPath id="clip0_1_388">
<rect width="120" height="120.444" fill="white" transform="translate(0.214417 0.140747)"/>
</clipPath>
</defs>
</svg>
