<svg width="121" height="129" viewBox="0 0 121 129" fill="none" xmlns="http://www.w3.org/2000/svg">
<g clip-path="url(#clip0_1_97)">
<path d="M102.637 105.642C126.068 82.2105 126.068 44.2206 102.637 20.7892C79.2052 -2.64229 41.2153 -2.64229 17.7838 20.7892C-5.64763 44.2206 -5.64763 82.2105 17.7838 105.642C41.2153 129.073 79.2052 129.073 102.637 105.642Z" fill="url(#paint0_linear_1_97)"/>
<mask id="mask0_1_97" style="mask-type:luminance" maskUnits="userSpaceOnUse" x="0" y="3" width="121" height="121">
<path d="M102.637 105.642C126.068 82.2105 126.068 44.2206 102.637 20.7892C79.2052 -2.64229 41.2153 -2.64229 17.7838 20.7892C-5.64763 44.2206 -5.64763 82.2105 17.7838 105.642C41.2153 129.073 79.2052 129.073 102.637 105.642Z" fill="white"/>
</mask>
<g mask="url(#mask0_1_97)">
<path d="M96.7665 103.889C92.5305 102.761 89.2065 100.997 83.3985 97.1926C80.8305 95.5126 78.4185 93.7006 76.4265 91.9006C69.9225 86.0086 71.9505 74.0086 75.8145 69.3286C79.8825 64.4086 90.8745 78.4726 97.1985 86.4046C98.3025 87.7966 99.2625 88.9846 100.018 89.8606C102.658 92.9086 102.862 105.521 96.7665 103.889Z" fill="url(#paint1_linear_1_97)"/>
<path style="mix-blend-mode:multiply" d="M97.1985 86.4046C95.6145 91.9126 94.5825 101.537 93.0585 100.733C89.6265 98.9206 85.7385 93.3166 85.2825 93.9526C84.9585 94.4086 84.1185 95.7646 83.3985 97.1926C80.8305 95.5126 78.4185 93.7006 76.4265 91.9006C69.9225 86.0086 71.9505 74.0086 75.8145 69.3286C79.8825 64.4086 90.8745 78.4726 97.1985 86.4046Z" fill="url(#paint2_linear_1_97)"/>
<path d="M91.2704 78.0646C90.9704 78.3286 88.0784 85.3366 85.3784 91.0246C83.4344 95.1286 81.5864 98.5486 80.9024 98.2006C77.0624 96.2806 75.7184 91.7686 75.0104 91.4926C74.9264 88.2166 75.2984 78.3166 76.4744 71.8846C77.0984 68.4646 77.9504 66.0286 79.0784 66.0766C83.5544 67.8406 91.0064 76.4446 91.2824 78.0766L91.2704 78.0646Z" fill="url(#paint3_linear_1_97)"/>
<path style="mix-blend-mode:multiply" opacity="0.5" d="M85.3784 91.0246C83.4344 95.1286 81.5864 98.5486 80.9024 98.2006C77.0624 96.2806 75.7184 91.7686 75.0104 91.4926C74.9264 88.2166 75.2984 78.3166 76.4744 71.8846L78.5984 70.5526C78.5984 73.2646 78.4664 85.3246 78.8744 88.1806C79.2824 91.0366 79.9544 78.2806 81.7184 75.0286C83.4824 71.7766 79.8224 82.0726 81.3104 92.7886C81.4184 95.7166 83.3744 93.8926 85.3784 91.0366V91.0246Z" fill="url(#paint4_linear_1_97)"/>
<path d="M61.6544 74.7407C54.7664 77.5607 47.4224 72.0287 46.1984 61.4567C46.3304 60.1007 46.2704 44.2367 46.2704 42.7487C46.2704 42.7487 65.3144 45.7847 65.3144 46.7447C65.3144 47.5487 64.4624 56.6687 64.7624 61.3607C64.7624 61.4327 64.7624 61.5167 64.7744 61.5887C64.9304 61.8887 65.0864 62.2367 65.2304 62.6327C66.4664 66.0167 66.9944 72.5447 61.6544 74.7287V74.7407Z" fill="url(#paint5_linear_1_97)"/>
<path style="mix-blend-mode:multiply" d="M61.6544 74.7407C54.7664 77.5607 47.4224 72.0287 46.1984 61.4567C46.3304 60.1007 46.2704 44.2367 46.2704 42.7487C46.2704 42.7487 65.3144 45.7847 65.3144 46.7447C65.3144 47.5487 64.4624 56.6687 64.7624 61.3607C62.2064 62.0207 59.2664 62.8367 55.2824 61.5887C50.9504 60.2327 50.1344 61.0487 49.8584 63.7607C49.5824 66.4727 55.8224 70.8047 59.4824 70.1327C63.1424 69.4487 64.6304 67.4207 65.1704 62.9447C65.1824 62.8367 65.1944 62.7407 65.2184 62.6327C66.4544 66.0167 66.9824 72.5447 61.6424 74.7287L61.6544 74.7407Z" fill="url(#paint6_linear_1_97)"/>
<path d="M79.0664 66.0646C79.0664 67.3486 78.2504 80.6806 77.3384 94.0246C76.4384 107.093 75.4424 120.173 75.0224 121.901C75.0224 121.937 75.0104 121.961 74.9984 121.997C70.1144 124.433 44.8304 125.453 35.7464 123.017C35.7464 123.017 34.3904 107.837 34.5224 100.781C34.6064 96.1366 31.1624 82.3486 29.7824 73.1806C29.0624 68.4526 30.4424 64.7566 31.5464 64.2406C33.9824 63.0886 38.3264 61.0606 43.5584 58.7446C44.7584 58.2166 45.8264 57.8326 46.1984 57.7966C47.2424 62.3206 49.5944 71.2126 58.6664 70.9486C63.3224 70.8166 65.1704 66.5206 64.6784 59.5726C65.1224 59.7526 65.5424 59.8486 66.4304 60.1486C70.4024 61.4566 77.5184 64.8646 79.0664 66.0646Z" fill="url(#paint7_linear_1_97)"/>
<path style="mix-blend-mode:multiply" opacity="0.5" d="M75.0224 121.901C75.0224 121.901 75.0104 121.961 74.9984 121.997C70.1144 124.433 44.8304 125.453 35.7464 123.017C35.7464 123.017 34.3904 107.837 34.5224 100.781C34.6064 96.1367 31.1624 82.3487 29.7824 73.1807C33.8024 69.9167 40.2224 70.5407 40.2224 70.5407C41.2424 73.5887 42.2024 79.0847 41.1944 87.2207C39.7664 98.6327 44.9024 99.4247 62.8064 99.8327C80.6984 100.241 57.5144 103.289 46.9424 102.881C36.7064 102.485 43.0784 117.725 44.9144 120.977C46.6304 124.013 66.4544 123.377 75.0344 121.901H75.0224Z" fill="url(#paint8_linear_1_97)"/>
<path style="mix-blend-mode:multiply" opacity="0.5" d="M79.0664 66.0647C79.0664 67.3487 78.2504 80.6807 77.3384 94.0247C76.9784 90.1967 76.1744 87.8207 74.5904 89.0567C69.0944 93.3287 61.5584 95.2727 65.4344 92.5127C73.1624 87.0167 76.4144 82.5527 76.6184 73.3967C76.7264 68.5127 76.3664 65.3927 75.8264 64.0967C77.3384 64.9127 78.5384 65.6567 79.0664 66.0767V66.0647Z" fill="url(#paint9_linear_1_97)"/>
<path d="M59.4825 73.3846C49.4985 74.4286 45.7905 65.3806 43.5585 58.7446C44.7945 58.2886 45.8265 57.8326 46.1985 57.7966C47.3265 62.8606 50.3145 70.8526 58.6665 70.9486C62.8665 70.9966 65.0865 66.4726 64.6785 59.5726C65.2305 59.7286 65.7105 59.9086 66.4305 60.1486C67.8825 65.6206 64.6305 72.8566 59.4705 73.3846H59.4825Z" fill="url(#paint10_linear_1_97)"/>
<path d="M32.3024 104.813V104.837C32.1584 105.329 31.5464 105.893 30.6584 106.421C27.1544 108.497 19.3424 110.057 18.6944 105.209C18.5024 103.769 18.4784 100.793 18.6944 97.0966C19.3904 85.1206 24.3944 66.7126 32.3144 67.4926C41.3984 68.3806 32.9264 102.365 32.3144 104.813H32.3024Z" fill="url(#paint11_linear_1_97)"/>
<path d="M41.8544 124.265C38.1944 124.337 33.0464 124.133 29.1104 123.581C29.0504 123.521 28.9784 123.437 28.8704 123.317C27.0944 121.181 18.6704 109.253 18.6704 105.209C18.6704 101.165 25.7024 102.113 30.0344 103.685C30.4784 103.853 30.8984 104.021 31.2824 104.189C31.6184 104.345 31.9544 104.561 32.2904 104.825C37.1744 108.713 41.4824 123.485 41.8544 124.253V124.265Z" fill="url(#paint12_linear_1_97)"/>
<path style="mix-blend-mode:multiply" d="M41.8544 124.265C38.1944 124.337 33.0464 124.133 29.1104 123.581C29.0504 123.521 28.9784 123.437 28.8704 123.317C32.0144 123.329 36.8864 123.365 38.9984 123.449C42.2504 123.581 39.1304 118.025 36.8264 113.285C35.4944 110.525 32.9624 108.053 30.6224 106.421C28.9424 105.245 27.3464 104.525 26.3864 104.465C24.0824 104.333 26.3864 103.241 29.2304 103.649C29.5184 103.685 29.7824 103.697 30.0104 103.685C32.0624 103.529 31.7984 101.213 30.8504 99.7246C29.4824 97.5766 22.8224 97.2286 18.6464 97.0966C19.3424 85.1206 24.3464 66.7126 32.2664 67.4926C41.3504 68.3806 32.8784 102.365 32.2664 104.813V104.837C37.1504 108.725 41.4584 123.497 41.8304 124.265H41.8544Z" fill="url(#paint13_linear_1_97)"/>
<path d="M74.0503 40.4206C75.2263 38.1766 75.6703 35.5966 75.8983 32.8726C76.8463 21.2446 68.9623 16.9366 60.4183 16.9366C51.8743 16.9366 39.9703 18.6286 41.4103 32.6326C42.0343 38.6566 46.3783 42.3046 46.9183 43.9246C46.9183 43.9366 47.8063 48.8326 48.5863 49.8647C50.3023 52.1446 55.9063 57.2687 58.1023 57.8326C59.9263 58.3006 65.0743 58.9366 67.5943 57.7006C68.9263 57.0526 73.8583 47.8846 73.8343 44.6206C73.8343 43.3966 73.6063 41.7766 74.0623 40.4086C74.0623 40.4086 74.0623 40.4086 74.0503 40.4086V40.4206Z" fill="url(#paint14_linear_1_97)"/>
<path d="M57.5263 34.4687C62.1463 34.6487 66.7543 35.4767 71.3503 36.1367C72.9943 36.3767 74.6863 36.6287 76.3543 37.0007C76.4983 35.0807 76.6303 34.0367 76.6303 34.0367C76.6303 34.0367 76.0183 32.7407 74.2423 31.5527C74.5063 27.2447 74.1463 25.7567 74.1463 25.7567C74.1463 25.7567 73.4983 29.4527 72.9463 30.7847C72.2263 30.4607 70.5703 29.7167 70.5703 29.7167C70.5703 29.7167 70.6183 25.8767 70.5583 23.8727C70.5583 23.8727 69.9223 27.4847 69.5863 29.6207C69.5863 29.6207 64.1623 29.0927 59.9023 29.1527C59.3263 27.6527 59.4343 22.7207 59.4343 22.7207C59.4343 22.7207 58.4263 26.0207 58.5463 29.0807C56.9383 29.5487 54.6943 30.4967 54.6943 30.4967C54.6943 30.4967 54.5383 27.8927 54.6223 24.1247C54.6223 24.1247 53.8183 26.8607 53.4703 30.5087L50.7223 31.9247C50.7223 31.9247 50.5663 33.1247 50.3743 34.9127C52.7383 34.4807 55.1503 34.3847 57.5503 34.4807L57.5263 34.4687Z" fill="#E0402B"/>
<path style="mix-blend-mode:multiply" d="M75.9583 31.6967C71.9503 30.9047 68.3143 28.4807 67.4383 27.0407C66.0823 30.7487 60.6583 33.7247 55.0543 33.4607C53.4223 33.4607 52.3423 36.8087 51.8023 41.0567C51.2983 45.0407 53.8663 55.1687 58.1023 57.8687C55.9663 57.3767 50.3023 52.1687 48.5863 49.9007C47.8063 48.8687 46.9183 43.9967 46.9183 43.9607C46.3663 42.3287 42.0223 38.6807 41.4103 32.6567C39.9703 18.6527 51.8623 16.9607 60.4183 16.9607C68.9743 16.9607 76.2943 20.9807 75.9703 31.7087L75.9583 31.6967Z" fill="url(#paint15_linear_1_97)"/>
<path d="M64.9903 34.4927C66.2503 35.7527 64.9543 41.1887 64.4863 41.9327C64.0063 42.6767 61.3303 43.1327 58.6183 42.3887C56.1583 41.7167 55.6663 40.0487 55.8703 38.6207C56.0743 37.1927 56.6503 35.7407 56.9863 35.7407C57.3223 35.7407 64.3063 33.8087 64.9903 34.4807V34.4927Z" fill="url(#paint16_linear_1_97)"/>
<path d="M74.0503 40.4206H74.0623C73.9183 40.8646 73.8343 41.3326 73.7983 41.8006C72.6463 43.7686 68.8063 42.8086 67.7983 42.3046C66.7183 41.7646 67.1263 41.1046 67.2583 40.2886C67.4863 38.9446 68.8303 35.4526 69.7783 35.3086C70.5463 35.2006 75.2023 37.3486 75.0703 37.8046C74.8063 38.7046 74.4823 39.5806 74.0503 40.4086V40.4206Z" fill="url(#paint17_linear_1_97)"/>
<path d="M70.7383 42.7487C68.3983 42.5807 67.6903 41.2847 67.8583 40.0367C67.8943 39.7727 69.5263 40.0247 70.7863 39.9887C72.3943 39.9407 73.7983 39.7487 73.8343 40.1447C73.9783 41.3927 73.1263 42.9047 70.7383 42.7367V42.7487Z" fill="url(#paint18_linear_1_97)"/>
<path d="M71.0142 41.9567C69.4542 41.9087 67.7022 41.2847 67.8582 40.0487C67.8942 39.7847 67.9782 39.5327 68.0862 39.3047C68.5782 38.2847 69.7182 38.2247 70.9782 38.2127C73.2102 38.1887 73.7982 39.7727 73.8462 40.1687C73.9902 41.4167 73.4142 42.0287 71.0142 41.9687V41.9567Z" fill="url(#paint19_linear_1_97)"/>
<path d="M72.1782 40.3367C72.0942 41.1047 71.4702 41.6807 70.7742 41.6087C70.0782 41.5367 69.5862 40.8527 69.6702 40.0727C69.7542 39.2927 70.3782 38.7287 71.0742 38.8007C71.7702 38.8727 72.2622 39.5567 72.1782 40.3367Z" fill="url(#paint20_linear_1_97)"/>
<path style="mix-blend-mode:multiply" d="M71.0622 38.8007C70.3662 38.7287 69.7422 39.2927 69.6582 40.0727C69.5742 40.8527 70.0782 41.5367 70.7622 41.6087C71.4582 41.6807 72.0822 41.1167 72.1662 40.3367C72.2502 39.5687 71.7462 38.8727 71.0622 38.8007ZM70.7262 41.4047C70.1262 41.3447 69.6942 40.7447 69.7662 40.0727C69.8382 39.4007 70.3782 38.9087 70.9782 38.9687C71.5782 39.0287 72.0102 39.6287 71.9382 40.3007C71.8662 40.9727 71.3262 41.4647 70.7262 41.4047Z" fill="url(#paint21_linear_1_97)"/>
<path d="M71.3383 40.2528C71.3143 40.5048 71.0983 40.6968 70.8703 40.6728C70.6423 40.6488 70.4743 40.4208 70.4983 40.1568C70.5223 39.9048 70.7383 39.7128 70.9663 39.7368C71.1943 39.7608 71.3623 39.9888 71.3383 40.2528Z" fill="url(#paint22_linear_1_97)"/>
<path d="M70.6782 39.6887C70.6542 39.9047 70.4982 40.0727 70.3302 40.0607C70.1622 40.0487 70.0542 39.8447 70.0662 39.6287C70.0782 39.4127 70.2462 39.2447 70.4142 39.2567C70.5822 39.2687 70.6902 39.4727 70.6782 39.6887Z" fill="url(#paint23_linear_1_97)"/>
<path style="mix-blend-mode:multiply" d="M71.0143 41.9567C73.4143 42.0287 73.9903 41.4047 73.8463 40.1567C73.7023 38.9087 73.3423 38.1407 70.9903 38.2007C69.4303 38.2367 68.0503 38.6687 67.8703 40.0367C67.7023 41.2727 69.4663 41.9087 71.0263 41.9447L71.0143 41.9567ZM69.7543 39.8567C69.9343 38.7287 70.4143 38.1887 71.5063 38.2607C73.1023 38.3687 73.3783 39.0047 73.4863 40.0127C73.5943 41.0207 72.9823 41.6567 71.2903 41.6327C70.1143 41.6087 69.5983 40.8647 69.7543 39.8447V39.8567Z" fill="url(#paint24_linear_1_97)"/>
<path d="M71.0142 41.9568C69.4542 41.9088 67.7022 41.2848 67.8582 40.0488C67.8942 39.7848 67.9782 39.5328 68.0862 39.3048L68.3262 39.2448C68.2302 40.0848 68.1102 41.3928 70.7742 41.6208C73.2582 41.8368 73.6662 40.9968 73.7502 39.5688C73.7862 39.7728 73.8222 39.9767 73.8342 40.1807C73.9782 41.4287 73.4022 42.0407 71.0022 41.9807L71.0142 41.9568Z" fill="url(#paint25_linear_1_97)"/>
<path d="M69.0462 40.1208C68.8902 40.1448 68.7342 40.1808 68.5902 40.2168C68.4342 40.2648 68.2662 40.3128 68.1102 40.3848C68.2782 40.3848 68.4462 40.3848 68.6142 40.3608C68.7822 40.3368 68.9382 40.3128 69.1062 40.2768H69.1422L69.1542 40.2528C69.2982 40.0608 69.4182 39.8568 69.5262 39.6288C69.3462 39.7848 69.1902 39.9528 69.0582 40.1328L69.0462 40.1208Z" fill="url(#paint26_linear_1_97)"/>
<path d="M68.8182 40.1687L69.3942 40.5887L68.7462 40.3007L68.8182 40.1687Z" fill="url(#paint27_linear_1_97)"/>
<path d="M69.2142 41.3567C69.2502 41.2487 69.3102 41.1767 69.3822 41.1167C69.4542 41.0567 69.5382 41.0087 69.6462 40.9967C69.6102 41.1047 69.5502 41.1767 69.4782 41.2367C69.4062 41.2967 69.3222 41.3447 69.2142 41.3567Z" fill="url(#paint28_linear_1_97)"/>
<path d="M73.4023 40.7687C73.4023 40.7687 73.3423 40.6607 73.3063 40.6127C73.2463 40.5167 73.1743 40.4207 73.1023 40.3367C73.0663 40.1687 73.0183 40.0007 72.9343 39.8447C72.9103 40.0247 72.9343 40.2047 72.9583 40.3847L72.9703 40.4207C73.0423 40.5167 73.1143 40.6127 73.1983 40.6967C73.2463 40.7447 73.2823 40.7807 73.3303 40.8167C73.3783 40.8527 73.4263 40.9007 73.4863 40.9247C73.4503 40.8767 73.4263 40.8167 73.4023 40.7687Z" fill="url(#paint29_linear_1_97)"/>
<path d="M73.2462 40.5767C73.1262 40.5527 73.0062 40.5767 72.8862 40.5887C72.7782 40.6127 72.6822 40.6607 72.5862 40.6967C72.4782 40.6007 72.3582 40.4927 72.2502 40.3967C72.3462 40.5407 72.4422 40.6727 72.5502 40.8047L72.5742 40.8287H72.6102C72.7182 40.7927 73.1742 40.6727 73.2702 40.5887L73.2462 40.5767Z" fill="url(#paint30_linear_1_97)"/>
<path d="M72.4182 41.1407C72.5262 41.1407 72.6102 41.1887 72.6822 41.2487C72.7542 41.3087 72.8142 41.3687 72.8502 41.4767C72.7422 41.4767 72.6582 41.4287 72.5862 41.3687C72.5142 41.3087 72.4542 41.2487 72.4182 41.1407Z" fill="url(#paint31_linear_1_97)"/>
<path d="M67.8583 40.0487C68.0383 39.5687 69.5383 39.1367 71.2183 39.3047C72.8863 39.4727 73.4863 39.9047 73.8343 40.1567C73.7983 39.1607 73.4743 37.8767 70.9423 37.7327C69.3943 37.6487 67.8343 38.7407 67.8583 40.0367V40.0487Z" fill="url(#paint32_linear_1_97)"/>
<path d="M67.8583 40.0127C67.8703 39.9047 67.9783 39.8207 68.0743 39.7487C68.1823 39.6767 68.3023 39.6167 68.4223 39.5687C68.6743 39.4727 68.9263 39.3887 69.2023 39.3407C69.7423 39.2327 70.2943 39.1967 70.8583 39.2087C71.4223 39.2327 71.9503 39.3047 72.4783 39.4247C72.9943 39.5567 73.5223 39.7727 73.8463 40.0967C73.3303 39.9527 72.8503 39.8687 72.3463 39.8207C71.8423 39.7727 71.3263 39.7367 70.8223 39.7247C70.3183 39.7127 69.8143 39.7127 69.3103 39.7247C69.0583 39.7367 68.8063 39.7607 68.5543 39.7967C68.4343 39.8087 68.3023 39.8327 68.1823 39.8687C68.0623 39.9047 67.9423 39.9287 67.8583 40.0127Z" fill="url(#paint33_linear_1_97)"/>
<path d="M68.0623 40.8767C68.2063 41.0807 68.3983 41.2367 68.6023 41.3567C68.8063 41.4767 69.0343 41.5727 69.2623 41.6327C69.7303 41.7647 70.2103 41.8487 70.6903 41.8847C71.1703 41.9327 71.6623 41.9567 72.1423 41.9207C72.3823 41.9087 72.6223 41.8727 72.8503 41.8007C73.0783 41.7407 73.3183 41.6327 73.4743 41.4527C73.3183 41.6447 73.0903 41.7647 72.8623 41.8367C72.6343 41.9087 72.3823 41.9567 72.1423 41.9807C71.6503 42.0287 71.1583 42.0047 70.6783 41.9567C70.1983 41.9087 69.7063 41.8367 69.2383 41.6807C69.0103 41.5967 68.7823 41.5007 68.5663 41.3687C68.3623 41.2367 68.1703 41.0687 68.0503 40.8527L68.0623 40.8767Z" fill="url(#paint34_linear_1_97)"/>
<path d="M70.4983 35.1406C68.8543 36.1126 68.1583 38.5366 68.0863 40.4086C67.9903 43.2046 70.5823 42.6046 69.8263 44.6926C69.5023 45.5806 67.2343 46.5646 66.3703 46.6366C65.3023 46.7326 63.6703 46.2046 62.9023 45.5806C61.5703 44.4886 61.7983 43.8886 62.5783 43.5046C63.3223 43.1326 64.2823 42.8686 64.5463 41.2486C65.0863 37.9246 65.0263 35.5006 64.5103 34.8886C63.6343 33.8686 72.0343 34.2286 70.4983 35.1406Z" fill="url(#paint35_linear_1_97)"/>
<path d="M60.0343 48.9887C60.8503 48.7247 61.6663 48.4967 62.5183 48.3647C63.3823 48.2327 64.2703 48.2447 65.1223 48.3647C65.5543 48.4247 65.9743 48.4967 66.3943 48.6047C66.8143 48.7007 67.2343 48.8567 67.6423 49.0247C68.0503 49.2047 68.4343 49.4327 68.7703 49.6967C69.1063 49.9847 69.4303 50.2967 69.5983 50.7047C69.2863 50.4047 68.9383 50.1887 68.5663 50.0087C68.1943 49.8287 67.8103 49.6847 67.4263 49.5767C67.0303 49.4687 66.6463 49.3607 66.2383 49.3007C66.0343 49.2647 65.8303 49.2287 65.6263 49.1927C65.4223 49.1567 65.2183 49.1327 65.0143 49.0967C64.1983 48.9887 63.3823 48.9287 62.5663 48.9407C61.7383 48.9527 60.8863 49.0247 60.0223 48.9767L60.0343 48.9887Z" fill="url(#paint36_linear_1_97)"/>
<path style="mix-blend-mode:multiply" d="M62.3863 50.7166C62.7823 50.6326 63.2023 50.6326 63.5983 50.6446C64.0063 50.6566 64.4143 50.7046 64.8103 50.7766C65.2063 50.8486 65.6143 50.9326 65.9983 51.0526C66.0943 51.0886 66.1903 51.1126 66.2863 51.1486C66.3823 51.1846 66.4783 51.2206 66.5743 51.2686C66.7543 51.3646 66.9463 51.4606 67.0783 51.6166C66.8983 51.5086 66.7063 51.4606 66.5143 51.4126C66.3223 51.3646 66.1303 51.3286 65.9263 51.2806C65.5303 51.2086 65.1463 51.1366 64.7503 51.0766C64.3543 51.0046 63.9583 50.9446 63.5623 50.8846C63.1663 50.8246 62.7703 50.7646 62.3623 50.7166H62.3863Z" fill="url(#paint37_linear_1_97)"/>
<path d="M61.5224 40.6847C59.1344 40.3487 57.9104 39.7967 56.8184 39.3527C56.8184 40.2647 57.9104 42.0167 61.0664 42.1967C62.8064 42.2927 64.1504 41.4287 64.5104 40.2047C64.5704 39.9887 63.3464 40.9367 61.5344 40.6847H61.5224Z" fill="url(#paint38_linear_1_97)"/>
<path d="M64.6063 39.7847C64.5103 41.1527 62.5783 41.5967 60.9223 41.2967C58.3663 40.8287 56.4463 40.1447 56.8663 38.8367C57.2863 37.5287 59.2783 36.3287 61.7503 36.9167C63.3823 37.3127 64.7143 38.2607 64.6063 39.7727V39.7847Z" fill="url(#paint39_linear_1_97)"/>
<path d="M64.6063 39.7846C64.5103 41.1526 62.5783 41.5966 60.9343 41.2966C58.3783 40.8286 56.4583 40.1446 56.8783 38.8366C56.9503 38.6206 59.6983 36.4246 61.7623 36.9166C62.7943 37.1686 64.6543 39.2206 64.6183 39.7726L64.6063 39.7846Z" fill="url(#paint40_linear_1_97)"/>
<path d="M62.8782 39.5567C62.8422 40.4087 62.2182 41.0807 61.4622 41.0567C60.7062 41.0327 60.1302 40.3127 60.1542 39.4607C60.1902 38.6087 60.8142 37.9367 61.5702 37.9607C62.3262 37.9847 62.9022 38.7047 62.8782 39.5567Z" fill="url(#paint41_linear_1_97)"/>
<path style="mix-blend-mode:multiply" d="M61.5703 37.9607C60.8143 37.9367 60.1903 38.5967 60.1543 39.4607C60.1183 40.3127 60.7063 41.0327 61.4623 41.0567C62.2183 41.0807 62.8423 40.4207 62.8783 39.5567C62.9143 38.7047 62.3263 37.9847 61.5703 37.9607ZM61.4023 40.8407C60.7543 40.8167 60.2503 40.1927 60.2743 39.4607C60.2983 38.7287 60.8503 38.1407 61.4983 38.1647C62.1463 38.1887 62.6503 38.8127 62.6263 39.5447C62.6023 40.2767 62.0503 40.8647 61.4023 40.8407Z" fill="url(#paint42_linear_1_97)"/>
<path d="M62.0023 39.4247C62.0023 39.7127 61.7863 39.9287 61.5343 39.9287C61.2823 39.9287 61.0903 39.6767 61.1023 39.4007C61.1023 39.1127 61.3183 38.8967 61.5703 38.8967C61.8223 38.8967 62.0143 39.1487 62.0023 39.4247Z" fill="url(#paint43_linear_1_97)"/>
<path d="M61.3783 38.8607C61.3783 39.1007 61.2223 39.2927 61.0423 39.2927C60.8623 39.2927 60.7183 39.0887 60.7303 38.8367C60.7303 38.5967 60.8863 38.4047 61.0663 38.4047C61.2463 38.4047 61.3903 38.6087 61.3783 38.8607Z" fill="url(#paint44_linear_1_97)"/>
<path style="mix-blend-mode:multiply" d="M64.6063 39.7847C64.7143 38.2727 63.3823 37.3247 61.7503 36.9287C59.2783 36.3407 57.2863 37.5407 56.8663 38.8487C56.4463 40.1567 58.3783 40.8407 60.9223 41.3087C62.5783 41.6087 64.4983 41.1647 64.6063 39.7967V39.7847ZM61.2703 40.6847C58.9663 40.2287 57.7663 39.5927 58.1143 38.5247C58.4623 37.4567 60.2143 37.5647 61.5463 37.6727C63.0583 37.7927 64.3663 38.4887 64.2463 39.7247C64.1863 40.3847 62.7583 40.9727 61.2703 40.6727V40.6847Z" fill="url(#paint45_linear_1_97)"/>
<path d="M64.6063 39.7846C64.5103 41.1526 62.5783 41.5966 60.9343 41.2966C58.3783 40.8286 56.4583 40.1446 56.8783 38.8366C56.9503 38.6206 57.0583 38.3926 57.2143 38.1646L57.7423 38.0686C57.3463 38.5606 57.5383 39.5686 57.9223 39.8566C58.4503 40.2646 59.5903 40.9006 61.4743 41.0566C62.8423 41.1646 64.1623 40.6246 64.2943 39.8206C64.3663 39.3886 64.4383 38.9686 64.4983 38.7886C64.5943 39.1126 64.6423 39.4606 64.6183 39.7966L64.6063 39.7846Z" fill="url(#paint46_linear_1_97)"/>
<path d="M61.9063 38.3927C59.5063 38.1167 58.1143 38.5367 56.8663 38.8487C57.0943 38.1527 58.3423 36.3647 61.6903 36.8207C63.4063 37.0487 64.3783 38.2247 64.5343 38.9567C64.5943 39.2327 63.7303 38.6087 61.9063 38.4047V38.3927Z" fill="url(#paint47_linear_1_97)"/>
<path d="M64.2463 40.6126C64.0423 40.8646 63.7543 41.0206 63.4663 41.1406C63.1663 41.2486 62.8543 41.3206 62.5423 41.3566C61.9183 41.4286 61.2823 41.4046 60.6583 41.3086C60.0343 41.2006 59.4223 41.0566 58.8223 40.8526C58.5223 40.7446 58.2343 40.6366 57.9463 40.4926C57.6703 40.3486 57.3823 40.1926 57.1663 39.9646C57.3943 40.1926 57.6823 40.3366 57.9583 40.4686C58.2463 40.6006 58.5343 40.7086 58.8343 40.8046C59.4343 40.9966 60.0463 41.1406 60.6583 41.2486C61.2703 41.3446 61.9063 41.3806 62.5303 41.3086C62.8423 41.2726 63.1543 41.2246 63.4423 41.1166C63.7303 41.0206 64.0183 40.8646 64.2343 40.6366L64.2463 40.6126Z" fill="url(#paint48_linear_1_97)"/>
<path d="M64.5342 39.0407C64.3782 39.0167 64.1742 38.9207 64.0182 38.8847C63.8622 38.8367 63.7062 38.8007 63.5502 38.7647C63.2382 38.6927 62.9262 38.6447 62.6022 38.6087C62.2782 38.5727 61.9662 38.5247 61.6422 38.5127C61.3182 38.4767 61.0062 38.4647 60.6822 38.4647C60.3582 38.4647 60.0462 38.4647 59.7222 38.4647C59.3982 38.4647 59.0862 38.5007 58.7622 38.5367C58.1262 38.6087 57.4902 38.7407 56.8542 38.8367C57.2742 38.5847 58.2462 38.2727 58.8822 38.1527C59.5302 38.0327 60.1782 37.9847 60.8382 37.9967C61.4982 38.0207 62.1462 38.0807 62.7822 38.2127C63.1062 38.2727 63.4182 38.3567 63.7302 38.4647C63.8862 38.5247 64.0422 38.5727 64.1862 38.6447C64.3422 38.7047 64.5342 38.8487 64.5222 39.0407H64.5342Z" fill="url(#paint49_linear_1_97)"/>
<path d="M59.3983 40.0367C59.3983 40.0367 59.3023 39.9287 59.2543 39.8687C59.2303 39.8447 59.2063 39.8207 59.1703 39.7847C59.1343 39.7607 59.0983 39.7367 59.0743 39.7247C58.9423 39.6527 58.8223 39.5807 58.6903 39.5087C58.6063 39.4607 58.5223 39.4247 58.4383 39.3887C58.5943 39.3047 58.7503 39.2327 58.8943 39.1367C59.0623 39.0407 59.2303 38.9327 59.3983 38.8247C59.2063 38.8727 59.0263 38.9447 58.8463 39.0287C58.6663 39.1007 58.4983 39.1967 58.3183 39.2807L58.2583 39.3167C58.2583 39.3167 58.2463 39.3167 58.2103 39.3167C58.1623 39.3167 58.1143 39.3167 58.0663 39.3167C57.9703 39.3167 57.8743 39.3167 57.7783 39.3167C57.5863 39.3167 57.3823 39.3167 57.2023 39.4007C57.2983 39.4007 57.3943 39.4007 57.4903 39.4007L57.7783 39.4247C57.8743 39.4247 57.9703 39.4367 58.0663 39.4487C58.1143 39.4487 58.1623 39.4487 58.2223 39.4487C58.2223 39.4487 58.2463 39.4487 58.2583 39.4487C58.5103 39.5927 58.7623 39.7127 59.0263 39.8447L59.1103 39.8927C59.1103 39.8927 59.1583 39.9407 59.1943 39.9527L59.3623 40.0967C59.4703 40.1927 59.5903 40.2887 59.6983 40.3847C59.6143 40.2527 59.5183 40.1447 59.4223 40.0367H59.3983Z" fill="url(#paint50_linear_1_97)"/>
<path d="M58.0663 40.1087L58.7503 40.0007L58.1023 40.2527L58.0663 40.1087Z" fill="url(#paint51_linear_1_97)"/>
<path d="M63.9343 39.3887C63.7903 39.2087 63.6463 39.0407 63.4663 38.8967C63.5383 39.0767 63.6463 39.2327 63.7543 39.3887H63.4543L63.1183 39.5207L63.4663 39.4847L63.8983 39.5447C63.9703 39.6047 64.0303 39.6767 64.1023 39.7367C64.1503 39.7727 64.1983 39.8087 64.2463 39.8447C64.2943 39.8807 64.3423 39.9167 64.4023 39.9407C64.2703 39.7367 64.1263 39.5687 63.9583 39.4007L63.9343 39.3887Z" fill="url(#paint52_linear_1_97)"/>
<path d="M63.7423 40.7087L63.4423 40.0247L63.8743 40.6367L63.7423 40.7087Z" fill="url(#paint53_linear_1_97)"/>
<path d="M63.5623 40.8167L62.9983 40.4567L63.6223 40.6847L63.5623 40.8167Z" fill="url(#paint54_linear_1_97)"/>
<path d="M66.3583 33.9047C66.4423 34.5407 65.4103 36.6887 64.4383 36.7727C63.1423 36.8807 61.2943 36.7607 57.0583 37.1807C55.9063 37.3007 56.4703 35.6807 57.4663 35.5007C59.4103 35.1527 60.3943 35.0207 62.4343 34.5527C64.5943 34.0607 66.2503 33.0887 66.3463 33.9047H66.3583Z" fill="url(#paint55_linear_1_97)"/>
<path d="M69.5503 34.7686C69.3223 35.3086 69.4183 36.8086 70.1743 37.0486C71.5423 37.4806 73.3303 38.0686 74.7343 38.2606C75.4183 38.3566 75.9583 37.1926 75.2743 36.9286C74.4103 36.5926 73.5943 36.1846 72.3343 35.5486C70.8583 34.7926 69.8263 34.0966 69.5383 34.7806L69.5503 34.7686Z" fill="url(#paint56_linear_1_97)"/>
<path style="mix-blend-mode:multiply" d="M69.8264 44.6926C69.2744 45.7606 66.9584 46.7566 65.7704 46.6366C64.6544 46.5166 63.2384 45.9646 62.6624 45.3766C62.6624 45.0886 63.1784 45.1726 65.6384 45.8806C66.6944 46.1806 69.0224 45.6046 69.8144 44.7046L69.8264 44.6926Z" fill="url(#paint57_linear_1_97)"/>
<path d="M65.2904 46.1446C65.0384 46.0486 63.5384 45.1726 63.3224 45.4006C63.1064 45.6166 64.4144 46.0366 64.7864 46.1566C65.1584 46.2766 65.5904 46.2646 65.2904 46.1566V46.1446Z" fill="url(#paint58_linear_1_97)"/>
<path d="M67.4864 46.0846C67.6664 46.0246 68.8304 45.4246 68.9384 45.4726C69.1664 45.5806 68.0864 46.0606 67.8224 46.1326C67.5584 46.2046 67.2704 46.1566 67.4744 46.0846H67.4864Z" fill="url(#paint59_linear_1_97)"/>
<path d="M80.9264 26.8846C80.5664 28.1086 78.0224 30.3406 75.2144 30.0166C70.6184 29.4766 68.4344 26.8486 66.7184 25.4086C65.8184 30.2926 60.2984 32.5486 54.6944 33.0886C54.5024 33.1366 54.4544 33.0886 54.4904 32.9806C54.6704 32.5126 56.5904 30.7606 57.8144 29.0206C57.8144 29.0206 57.8264 29.0086 57.8264 28.9966C58.4144 28.1686 58.8464 27.3406 58.8464 26.6566C57.8504 28.5526 55.0544 32.0086 51.3944 33.5086C50.3144 33.7846 50.5184 40.0606 50.5184 40.6966C50.5184 41.3326 48.8984 41.5726 48.6224 40.4326C48.2984 39.1006 46.3544 40.9006 46.3544 45.7366C46.3544 46.0726 43.2704 44.7046 42.8624 43.6126C41.9864 41.2846 40.2824 29.7886 40.4984 24.4846C40.5344 23.6326 40.6184 22.9366 40.7624 22.4686C42.1184 18.1246 53.9744 11.7646 55.9424 12.0046C56.5784 12.0766 57.1544 12.2326 57.7064 12.4126C59.0864 12.8566 60.1664 13.4806 60.9344 13.4806C61.5344 13.4806 62.3624 13.2046 63.2864 13.0006C64.0304 12.8446 64.8344 12.7246 65.6384 12.8446C68.7344 13.3126 72.4184 16.1326 75.0344 19.6246C77.2064 22.5166 78.0584 26.1286 80.3624 26.1286C80.9024 26.1286 81.0584 26.4406 80.9264 26.8846Z" fill="url(#paint60_linear_1_97)"/>
<path style="mix-blend-mode:multiply" opacity="0.5" d="M51.3944 33.5207C50.3144 33.7967 50.5184 40.0727 50.5184 40.7087C50.5184 41.3447 48.8984 41.5847 48.6224 40.4447C48.2984 39.1127 46.3544 40.9127 46.3544 45.7487C46.3544 46.0847 43.2704 44.7167 42.8624 43.6247C41.9864 41.2967 40.2824 29.8007 40.4984 24.4967C43.2104 28.0367 48.8744 32.6807 50.3864 32.7767C53.3744 32.9807 58.0424 27.4847 59.0624 25.8647C58.9904 27.1727 58.5104 28.1567 57.8504 29.0087C58.4384 28.1807 58.8704 27.3527 58.8704 26.6687C57.8744 28.5647 55.0784 32.0207 51.4184 33.5207H51.3944Z" fill="url(#paint61_linear_1_97)"/>
<path style="mix-blend-mode:multiply" opacity="0.5" d="M57.6944 12.4126C59.0744 12.8566 60.1544 13.4806 60.9224 13.4806C61.5224 13.4806 62.3504 13.2046 63.2744 13.0006C62.1824 14.0206 62.9144 15.2926 62.6384 17.0086C62.4824 17.9926 60.4664 13.8406 57.6824 12.4246L57.6944 12.4126Z" fill="url(#paint62_linear_1_97)"/>
<path style="mix-blend-mode:multiply" opacity="0.5" d="M80.9264 26.8847C80.5664 28.1087 78.0224 30.3407 75.2144 30.0167C70.6184 29.4767 68.4344 26.8487 66.7184 25.4087C65.8184 30.2927 60.2984 32.5487 54.6944 33.0887C54.5024 33.1367 54.4544 33.0887 54.4904 32.9807C57.5624 32.3567 65.6384 30.7247 66.6464 24.2207C69.3344 26.9687 76.4864 29.9567 80.9264 26.8727V26.8847Z" fill="url(#paint63_linear_1_97)"/>
<g style="mix-blend-mode:screen" opacity="0.5">
<path style="mix-blend-mode:screen" d="M53.6623 28.4927C52.5823 27.9287 51.5143 27.3887 50.4823 26.7887C49.4623 26.1767 48.4783 25.5287 47.5543 24.7847C46.6423 24.0527 45.7903 23.2367 45.0223 22.3607C44.2543 21.4847 43.9663 21.1127 43.2943 20.1287C43.6903 21.2447 43.8583 21.7367 44.5663 22.7087C45.2743 23.6927 46.1263 24.5807 47.0863 25.3607C48.0463 26.1287 49.1023 26.7767 50.2063 27.3047C51.3103 27.8327 52.4623 28.2287 53.6503 28.5047L53.6623 28.4927Z" fill="url(#paint64_linear_1_97)"/>
</g>
<path d="M49.2944 40.7806C49.2104 38.9926 48.9824 37.8166 48.5384 36.9046C47.8664 35.5486 46.5944 34.3726 45.2984 34.6006C42.0104 35.1766 42.0944 40.4926 44.0024 42.6526C45.3584 44.1766 49.5344 46.2046 49.2944 40.7806Z" fill="url(#paint65_linear_1_97)"/>
<path opacity="0.09" d="M45.0223 37.6966C46.0663 37.5646 48.4783 38.9326 48.6223 40.7566C48.1663 40.1566 46.6903 40.2286 46.0183 40.2526C46.4143 40.0126 46.8463 40.0486 47.2783 40.0006C46.8463 39.2686 45.7543 38.1526 45.0343 37.6846L45.0223 37.6966Z" fill="url(#paint66_linear_1_97)"/>
<path opacity="0.18" d="M45.0223 37.6965C46.0663 37.5645 48.4783 38.9325 48.6103 40.7565C48.1183 40.2765 46.6783 40.2285 46.0063 40.2525C46.4143 40.0125 46.8463 40.0965 47.3143 40.0605C46.8943 39.2205 45.7183 38.1405 45.0223 37.6965Z" fill="url(#paint67_linear_1_97)"/>
<path opacity="0.27" d="M45.0223 37.6966C46.0663 37.5646 48.4663 38.9446 48.6103 40.7686C48.0823 40.3966 46.6783 40.2406 46.0063 40.2646C46.4263 40.0246 46.8583 40.1566 47.3503 40.1206C46.9543 39.1726 45.6943 38.1166 45.0223 37.6966Z" fill="url(#paint68_linear_1_97)"/>
<path opacity="0.36" d="M45.0344 37.6845C46.0784 37.5525 48.4784 38.9325 48.6224 40.7565C48.0584 40.5045 46.7024 40.2285 46.0184 40.2645C46.4384 40.0245 46.8944 40.2045 47.4104 40.1685C47.0384 39.1125 45.6824 38.0805 45.0344 37.6965V37.6845Z" fill="url(#paint69_linear_1_97)"/>
<path opacity="0.45" d="M45.0344 37.6845C46.0784 37.5525 48.4784 38.9325 48.6104 40.7565C48.0104 40.6125 46.6904 40.2285 46.0064 40.2645C46.4384 40.0245 46.8944 40.2645 47.4464 40.2165C47.0984 39.0405 45.6584 38.0445 45.0344 37.6845Z" fill="url(#paint70_linear_1_97)"/>
<path opacity="0.55" d="M45.0344 37.6845C46.0784 37.5525 48.4664 38.9325 48.6104 40.7565C47.9744 40.7325 46.6904 40.2405 46.0064 40.2645C46.4384 40.0245 46.9184 40.3005 47.4824 40.2645C47.1584 38.9805 45.6224 38.0085 45.0344 37.6845Z" fill="url(#paint71_linear_1_97)"/>
<path opacity="0.64" d="M45.0344 37.6845C46.0784 37.5525 48.4664 38.9325 48.6104 40.7565C47.9384 40.8405 46.6904 40.2405 46.0064 40.2645C46.4504 40.0245 46.9304 40.3485 47.5304 40.3125C47.2304 38.9205 45.5984 37.9725 45.0344 37.6845Z" fill="url(#paint72_linear_1_97)"/>
<path opacity="0.73" d="M45.0464 37.6846C46.0904 37.5526 48.4784 38.9446 48.6104 40.7686C47.9024 40.9606 46.6904 40.2526 46.0064 40.2766C46.4624 40.0486 46.9424 40.4086 47.5784 40.3726C47.2904 38.8726 45.5864 37.9486 45.0464 37.6846Z" fill="url(#paint73_linear_1_97)"/>
<path opacity="0.82" d="M45.0464 37.6725C46.0904 37.5405 48.4784 38.9325 48.6104 40.7565C47.8664 41.0685 46.6904 40.2405 46.0064 40.2765C46.4624 40.0485 46.9664 40.4565 47.6144 40.4205C47.3504 38.8125 45.5504 37.9125 45.0344 37.6845L45.0464 37.6725Z" fill="url(#paint74_linear_1_97)"/>
<path opacity="0.91" d="M45.0464 37.6725C46.0904 37.5405 48.4664 38.9325 48.6104 40.7565C47.8304 41.1765 46.6904 40.2405 46.0064 40.2765C46.4744 40.0485 46.9784 40.5165 47.6624 40.4685C47.4224 38.7525 45.5384 37.8765 45.0464 37.6725Z" fill="url(#paint75_linear_1_97)"/>
<path d="M47.7224 40.5165C47.5064 38.6925 45.5263 37.8525 45.0583 37.6725C46.1023 37.5405 48.4784 38.9325 48.6224 40.7565C47.8064 41.2965 46.7023 40.2525 46.0183 40.2765C46.4983 40.0485 47.0144 40.5645 47.7224 40.5165Z" fill="url(#paint76_linear_1_97)"/>
<path opacity="0.05" d="M46.6425 38.1886C47.2425 38.5366 48.4305 39.5446 48.6105 40.7566C48.2865 41.0206 47.8665 40.9726 46.9905 40.5886L46.6425 38.1886Z" fill="url(#paint77_linear_1_97)"/>
<path opacity="0.1" d="M46.6785 38.2126C47.2665 38.5486 48.4425 39.5566 48.6225 40.7566C48.3105 41.0086 47.8905 40.9726 47.0385 40.6006L46.6905 38.2126H46.6785Z" fill="url(#paint78_linear_1_97)"/>
<path opacity="0.14" d="M46.7024 38.2367C47.2784 38.5607 48.4424 39.5567 48.6104 40.7687C48.2984 41.0207 47.8904 40.9847 47.0504 40.6247L46.6904 38.2367H46.7024Z" fill="url(#paint79_linear_1_97)"/>
<path opacity="0.19" d="M46.7264 38.2487C47.2904 38.5727 48.4304 39.5447 48.6104 40.7567C48.3104 40.9967 47.8904 40.9727 47.0864 40.6247L46.7264 38.2487Z" fill="url(#paint80_linear_1_97)"/>
<path opacity="0.24" d="M46.7625 38.2726C47.3025 38.5846 48.4425 39.5566 48.6225 40.7566C48.3225 40.9846 47.9144 40.9846 47.1344 40.6366L46.7625 38.2606V38.2726Z" fill="url(#paint81_linear_1_97)"/>
<path opacity="0.29" d="M46.7864 38.2847C47.3144 38.5847 48.4424 39.5447 48.6104 40.7567C48.3224 40.9847 47.9144 40.9847 47.1584 40.6487L46.7864 38.2847Z" fill="url(#paint82_linear_1_97)"/>
<path opacity="0.33" d="M46.8104 38.3086C47.3264 38.6086 48.4304 39.5566 48.6104 40.7566C48.3224 40.9726 47.9264 40.9846 47.1824 40.6606L46.8104 38.3086Z" fill="url(#paint83_linear_1_97)"/>
<path opacity="0.38" d="M46.8464 38.3326C47.3504 38.6206 48.4424 39.5566 48.6224 40.7686C48.3464 40.9846 47.9504 41.0086 47.2304 40.6846L46.8464 38.3326Z" fill="url(#paint84_linear_1_97)"/>
<path opacity="0.43" d="M46.8704 38.3446C47.3624 38.6206 48.4424 39.5446 48.6104 40.7566C48.3344 40.9606 47.9384 40.9966 47.2544 40.6846L46.8704 38.3446Z" fill="url(#paint85_linear_1_97)"/>
<path opacity="0.48" d="M46.8944 38.3687C47.3624 38.6447 48.4304 39.5567 48.6104 40.7567C48.3464 40.9607 47.9504 40.9967 47.2904 40.7087L46.8944 38.3687Z" fill="url(#paint86_linear_1_97)"/>
<path opacity="0.52" d="M46.9304 38.3806C47.3864 38.6446 48.4424 39.5446 48.6224 40.7566C48.3584 40.9486 47.9744 40.9966 47.3384 40.7206L46.9424 38.3926L46.9304 38.3806Z" fill="url(#paint87_linear_1_97)"/>
<path opacity="0.57" d="M46.9544 38.4047C47.3984 38.6567 48.4424 39.5567 48.6104 40.7567C48.3584 40.9487 47.9744 41.0087 47.3504 40.7327L46.9424 38.4047H46.9544Z" fill="url(#paint88_linear_1_97)"/>
<path opacity="0.62" d="M46.9784 38.4286C47.4104 38.6806 48.4304 39.5566 48.6104 40.7566C48.3584 40.9366 47.9744 41.0086 47.3864 40.7446L46.9784 38.4286Z" fill="url(#paint89_linear_1_97)"/>
<path opacity="0.67" d="M47.0144 38.4407C47.4224 38.6807 48.4424 39.5447 48.6224 40.7567C48.3824 40.9367 47.9984 41.0087 47.4344 40.7567L47.0264 38.4407H47.0144Z" fill="url(#paint90_linear_1_97)"/>
<path opacity="0.71" d="M47.0385 38.4646C47.4345 38.7046 48.4425 39.5566 48.6105 40.7566C48.3705 40.9246 47.9985 41.0206 47.4585 40.7566L47.0385 38.4526V38.4646Z" fill="url(#paint91_linear_1_97)"/>
<path opacity="0.76" d="M47.0624 38.4767C47.4464 38.7047 48.4304 39.5447 48.6104 40.7567C48.3824 40.9127 48.0104 41.0207 47.4824 40.7807L47.0624 38.4767Z" fill="url(#paint92_linear_1_97)"/>
<path opacity="0.81" d="M47.0984 38.5006C47.4704 38.7166 48.4424 39.5446 48.6224 40.7566C48.3944 40.9126 48.0224 41.0206 47.5304 40.7926L47.0984 38.5006Z" fill="url(#paint93_linear_1_97)"/>
<path opacity="0.86" d="M47.1224 38.5247C47.4824 38.7407 48.4424 39.5567 48.6104 40.7567C48.3944 40.9007 48.0224 41.0207 47.5544 40.8047L47.1224 38.5127V38.5247Z" fill="url(#paint94_linear_1_97)"/>
<path opacity="0.9" d="M47.1464 38.5366C47.4824 38.7406 48.4304 39.5446 48.6104 40.7566C48.4064 40.9006 48.0344 41.0326 47.5904 40.8166L47.1464 38.5366Z" fill="url(#paint95_linear_1_97)"/>
<path opacity="0.95" d="M47.1824 38.5606C47.5064 38.7526 48.4424 39.5566 48.6104 40.7566C48.4064 40.8886 48.0464 41.0326 47.6264 40.8286L47.1824 38.5486V38.5606Z" fill="url(#paint96_linear_1_97)"/>
<path d="M47.2065 38.5846C47.5185 38.7766 48.4425 39.5566 48.6105 40.7686C48.4185 40.9006 48.0585 41.0446 47.6505 40.8526L47.1945 38.5846H47.2065Z" fill="url(#paint97_linear_1_97)"/>
<path d="M48.4663 40.6726C48.5023 39.4966 46.2463 37.5286 45.0583 37.6726C46.2463 37.5286 48.5864 39.1366 48.6224 40.7566C48.2264 41.0086 47.9384 40.9486 47.6624 40.8406C47.9264 40.8286 48.2503 40.7806 48.4663 40.6606V40.6726Z" fill="url(#paint98_linear_1_97)"/>
<path d="M37.0424 95.1406C37.0184 95.2126 36.9944 95.2846 36.9584 95.3566C31.6304 96.1006 20.0864 94.6846 17.3744 92.0926C21.5744 75.7126 24.7424 68.2606 28.8104 65.2966C30.6824 63.9286 32.7584 63.4126 35.2064 63.6166C42.6584 64.2286 41.0624 83.8966 37.0424 95.1406Z" fill="url(#paint99_linear_1_97)"/>
<path style="mix-blend-mode:multiply" opacity="0.5" d="M37.0424 95.1406C37.0184 95.2126 36.9944 95.2846 36.9584 95.3566C31.6304 96.1006 20.0864 94.6846 17.3744 92.0926C21.5744 75.7126 24.7424 68.2606 28.8104 65.2966C26.1344 68.5246 22.8824 77.2846 25.9784 75.4366C31.6544 72.0646 36.0344 72.7006 31.8944 73.9846C27.7544 75.2686 21.9464 81.1726 20.6984 84.3646C19.4504 87.5566 19.5104 90.3046 22.1264 92.2126C24.6944 94.0726 30.2144 94.3966 37.0424 95.1406Z" fill="url(#paint100_linear_1_97)"/>
<path d="M107.578 128.141C107.086 116.621 104.566 102.953 101.146 94.1085C87.8504 59.6925 64.4624 56.8005 56.5664 56.8005C48.6704 56.8005 47.5784 61.8045 47.5784 61.8045C50.4704 74.4285 54.3464 100.613 57.8984 128.141H107.578Z" fill="#239BB7"/>
<path d="M67.3785 128.141C64.1865 112.469 72.3825 85.1926 68.1345 74.5246C66.4665 70.3246 52.9305 81.5446 51.4545 82.8286C53.5305 95.7166 55.7625 111.677 57.8865 128.141H67.3785Z" fill="#178FA3"/>
<path d="M64.6424 128.141C64.4744 126.713 64.3064 125.381 64.1504 124.109C61.6664 103.781 71.5904 88.2526 69.5864 72.2566C67.5704 56.2606 48.0584 56.9686 40.7144 56.8006C19.9904 56.3086 15.6944 86.5966 10.4384 110.921C10.0424 112.745 6.46641 126.389 6.05841 128.141H64.6544H64.6424Z" fill="#25ADC4"/>
</g>
<path d="M76.4265 16.0126C76.1025 16.0126 75.8025 15.7846 75.7425 15.4486C75.6705 15.0646 75.9105 14.7046 76.2945 14.6206C77.4225 14.3926 78.2265 13.1926 78.0105 12.0406C77.6745 10.2286 78.4665 8.7406 80.1105 8.0806C81.1905 7.6366 82.0545 7.2886 81.2625 4.8166C80.8905 3.6646 80.9265 2.6686 81.3705 1.8526C81.9465 0.760599 83.0025 0.436599 83.1225 0.412599C83.4945 0.304599 83.8785 0.520599 83.9865 0.892599C84.0945 1.2646 83.8785 1.6486 83.5065 1.7566C83.4825 1.7566 82.8945 1.9606 82.5945 2.5366C82.3545 3.0046 82.3545 3.6286 82.5945 4.3966C83.6385 7.6606 82.2825 8.7286 80.6385 9.3886C79.3305 9.9166 79.2345 10.9846 79.3785 11.7886C79.7385 13.6966 78.4425 15.6286 76.5585 16.0006C76.5105 16.0006 76.4625 16.0126 76.4265 16.0126Z" fill="#DD193E"/>
<path d="M80.0865 17.6566C79.7145 17.6566 79.4025 17.3566 79.3905 16.9846C79.3785 16.6006 79.6785 16.2766 80.0625 16.2526C81.2145 16.2046 82.1865 15.1366 82.1625 13.9726C82.1145 12.1246 83.1225 10.7926 84.8505 10.3846C85.9905 10.1206 86.8905 9.90461 86.4825 7.33661C86.2905 6.14861 86.4825 5.16461 87.0465 4.42061C87.7905 3.43661 88.8825 3.28061 89.0025 3.26861C89.3865 3.22061 89.7345 3.49661 89.7825 3.88061C89.8305 4.26461 89.5545 4.61261 89.1825 4.66061C89.1585 4.66061 88.5345 4.76861 88.1625 5.28461C87.8505 5.71661 87.7545 6.32861 87.8745 7.12061C88.4025 10.5046 86.8905 11.3446 85.1745 11.7526C83.7945 12.0766 83.5425 13.1206 83.5665 13.9366C83.6265 15.8806 82.0425 17.5846 80.1225 17.6566H80.0985H80.0865Z" fill="#DD193E"/>
<path d="M82.6065 20.8126C82.4385 20.8126 82.2705 20.8126 82.1025 20.7766C81.7185 20.7166 81.4545 20.3566 81.5145 19.9846C81.5745 19.6006 81.9345 19.3366 82.3185 19.3966C83.4585 19.5766 84.6105 18.7126 84.8025 17.5486C85.0905 15.7246 86.3385 14.5966 88.1145 14.5246C89.2785 14.4766 90.2145 14.4406 90.2985 11.8486C90.3345 10.6366 90.7065 9.71259 91.4025 9.08859C92.3145 8.26059 93.4185 8.30859 93.5385 8.32059C93.9225 8.34459 94.2105 8.68059 94.1865 9.06459C94.1625 9.44859 93.8265 9.73659 93.4425 9.71259C93.4185 9.71259 92.7945 9.68859 92.3265 10.1326C91.9425 10.4926 91.7265 11.0806 91.7025 11.8846C91.5945 15.3166 89.9385 15.8566 88.1865 15.9286C86.7825 15.9886 86.3265 16.9606 86.1945 17.7646C85.9065 19.5166 84.3345 20.8126 82.6185 20.8126H82.6065Z" fill="#DD193E"/>
<path d="M38.6264 24.5565C38.8544 24.5565 39.0584 24.4005 39.0944 24.1725C39.1424 23.9085 38.9744 23.6565 38.7104 23.6085C37.9304 23.4525 37.3784 22.6245 37.5344 21.8325C37.7624 20.5845 37.2224 19.5765 36.0944 19.1085C35.3504 18.8085 34.7624 18.5685 35.3024 16.8645C35.5544 16.0725 35.5304 15.3885 35.2304 14.8245C34.8344 14.0805 34.1024 13.8525 34.0304 13.8285C33.7784 13.7565 33.5024 13.9005 33.4304 14.1645C33.3584 14.4165 33.5024 14.6805 33.7544 14.7525C33.7664 14.7525 34.1744 14.8965 34.3784 15.2805C34.5464 15.6045 34.5464 16.0365 34.3784 16.5525C33.6584 18.7965 34.5944 19.5285 35.7224 19.9845C36.6224 20.3445 36.6824 21.0885 36.5864 21.6405C36.3464 22.9485 37.2344 24.2805 38.5184 24.5325C38.5544 24.5325 38.5784 24.5325 38.6144 24.5325L38.6264 24.5565Z" fill="#DD193E"/>
<path d="M36.1184 25.6846C36.3704 25.6846 36.5864 25.4806 36.5984 25.2166C36.5984 24.9526 36.4064 24.7246 36.1424 24.7126C35.3504 24.6766 34.6784 23.9446 34.7024 23.1406C34.7384 21.8806 34.0424 20.9566 32.8544 20.6806C32.0744 20.5006 31.4504 20.3566 31.7264 18.5926C31.8584 17.7766 31.7264 17.1046 31.3424 16.5886C30.8384 15.9166 30.0824 15.8086 29.9984 15.7966C29.7344 15.7606 29.4944 15.9526 29.4584 16.2166C29.4224 16.4806 29.6144 16.7206 29.8784 16.7566C29.9024 16.7566 30.3224 16.8286 30.5864 17.1886C30.8024 17.4766 30.8744 17.9086 30.7784 18.4486C30.4184 20.7766 31.4504 21.3526 32.6384 21.6286C33.5864 21.8446 33.7544 22.5646 33.7424 23.1286C33.7064 24.4606 34.7864 25.6366 36.1064 25.6846C36.1064 25.6846 36.1184 25.6846 36.1304 25.6846H36.1184Z" fill="#DD193E"/>
<path d="M34.3784 27.8445C34.4984 27.8445 34.6064 27.8445 34.7264 27.8205C34.9904 27.7845 35.1704 27.5325 35.1344 27.2685C35.0984 27.0045 34.8464 26.8245 34.5824 26.8605C33.8024 26.9805 33.0104 26.3925 32.8784 25.5885C32.6744 24.3405 31.8224 23.5605 30.5984 23.5125C29.7944 23.4765 29.1584 23.4525 29.0984 21.6765C29.0744 20.8485 28.8224 20.2125 28.3424 19.7805C27.7184 19.2165 26.9624 19.2525 26.8784 19.2525C26.6144 19.2765 26.4104 19.5045 26.4344 19.7685C26.4464 20.0325 26.6864 20.2365 26.9384 20.2125C26.9504 20.2125 27.3824 20.2005 27.7064 20.5005C27.9704 20.7525 28.1144 21.1485 28.1384 21.7005C28.2104 24.0525 29.3504 24.4245 30.5504 24.4725C31.5224 24.5085 31.8224 25.1805 31.9184 25.7325C32.1104 26.9325 33.1904 27.8205 34.3664 27.8205L34.3784 27.8445Z" fill="#DD193E"/>
<path d="M97.1624 54.7485C97.9064 54.7485 98.5184 55.3605 98.5184 56.1045V71.4165C98.5184 72.1605 97.9184 72.7725 97.1624 72.7725C96.4064 72.7725 95.8064 72.1605 95.8064 71.4165V56.1045C95.8064 55.3605 96.4064 54.7485 97.1624 54.7485Z" fill="#81DFE2"/>
<path d="M95.8185 71.4165C95.8185 72.1605 96.4185 72.7725 97.1745 72.7725C97.9305 72.7725 98.5305 72.1605 98.5305 71.4165V68.1285H95.8305V71.4165H95.8185Z" fill="#BCBEC0"/>
<path d="M97.8344 34.7566C99.6944 34.7566 101.206 36.2686 101.206 38.1406V56.1646C101.206 58.0366 99.6944 63.7126 97.8344 63.7126H96.4784C94.6184 63.7126 93.1064 58.0246 93.1064 56.1646V38.1406C93.1064 36.2686 94.6184 34.7566 96.4784 34.7566H97.8344Z" fill="#9FDCE2"/>
<path d="M98.5904 40.0126C98.9624 40.0126 99.2624 40.3126 99.2624 40.6846V50.0806C99.2624 50.4526 98.9624 50.7646 98.5904 50.7646H95.7224C95.3504 50.7646 95.0504 50.4646 95.0504 50.0806V40.6846C95.0504 40.3126 95.3504 40.0126 95.7224 40.0126H98.5904Z" fill="white"/>
<path d="M98.2425 41.2126C98.5065 41.2126 98.7105 41.4406 98.7105 41.7406V49.0246C98.7105 49.3126 98.4945 49.5526 98.2425 49.5526H96.2145C95.9505 49.5526 95.7345 49.3126 95.7345 49.0246V41.7406C95.7345 41.4526 95.9505 41.2126 96.2145 41.2126H98.2425Z" fill="#F2382A"/>
<path d="M97.4384 36.6285C97.9184 36.6285 98.3144 37.0245 98.3144 37.5045V38.4885C98.3144 38.9805 97.9184 39.3645 97.4384 39.3645H97.1864C96.7064 39.3645 96.3104 38.9685 96.3104 38.4885V37.5045C96.3104 37.0245 96.7064 36.6285 97.1864 36.6285H97.4384Z" fill="#F2382A"/>
</g>
<defs>
<linearGradient id="paint0_linear_1_97" x1="0.210812" y1="63.2091" x2="120.211" y2="63.2091" gradientUnits="userSpaceOnUse">
<stop stop-color="#CCE9F1"/>
<stop offset="1" stop-color="#D0E1E7"/>
</linearGradient>
<linearGradient id="paint1_linear_1_97" x1="89.9025" y1="84.9046" x2="67.0665" y2="99.4606" gradientUnits="userSpaceOnUse">
<stop stop-color="#FF8533"/>
<stop offset="1" stop-color="#FFA973"/>
</linearGradient>
<linearGradient id="paint2_linear_1_97" x1="96.5265" y1="97.9486" x2="70.5825" y2="72.0166" gradientUnits="userSpaceOnUse">
<stop stop-color="#FFECDF"/>
<stop offset="1" stop-color="#E5A480"/>
</linearGradient>
<linearGradient id="paint3_linear_1_97" x1="96.8384" y1="72.5086" x2="71.2184" y2="87.1486" gradientUnits="userSpaceOnUse">
<stop stop-color="#24BEBE"/>
<stop offset="1" stop-color="#228686"/>
</linearGradient>
<linearGradient id="paint4_linear_1_97" x1="83.3744" y1="82.4926" x2="66.2744" y2="91.6246" gradientUnits="userSpaceOnUse">
<stop stop-color="#0BBEBE"/>
<stop offset="1" stop-color="#228686"/>
</linearGradient>
<linearGradient id="paint5_linear_1_97" x1="43.9184" y1="50.3567" x2="68.7944" y2="66.6527" gradientUnits="userSpaceOnUse">
<stop stop-color="#FF8533"/>
<stop offset="1" stop-color="#FFA973"/>
</linearGradient>
<linearGradient id="paint6_linear_1_97" x1="68.0384" y1="69.4367" x2="42.5624" y2="43.9727" gradientUnits="userSpaceOnUse">
<stop stop-color="#FFECDF"/>
<stop offset="1" stop-color="#E5A480"/>
</linearGradient>
<linearGradient id="paint7_linear_1_97" x1="73.3904" y1="56.7406" x2="43.3424" y2="110.669" gradientUnits="userSpaceOnUse">
<stop stop-color="#24BEBE"/>
<stop offset="1" stop-color="#228686"/>
</linearGradient>
<linearGradient id="paint8_linear_1_97" x1="69.3824" y1="128.177" x2="19.6784" y2="78.4607" gradientUnits="userSpaceOnUse">
<stop stop-color="#0BBEBE"/>
<stop offset="1" stop-color="#228686"/>
</linearGradient>
<linearGradient id="paint9_linear_1_97" x1="81.7064" y1="89.8487" x2="65.0864" y2="73.2287" gradientUnits="userSpaceOnUse">
<stop stop-color="#0BBEBE"/>
<stop offset="1" stop-color="#228686"/>
</linearGradient>
<linearGradient id="paint10_linear_1_97" x1="45.8625" y1="65.1526" x2="60.5145" y2="66.3526" gradientUnits="userSpaceOnUse">
<stop stop-color="#146969"/>
<stop offset="1" stop-color="#1A6969"/>
</linearGradient>
<linearGradient id="paint11_linear_1_97" x1="36.0224" y1="84.0526" x2="-1.53761" y2="104.105" gradientUnits="userSpaceOnUse">
<stop stop-color="#FF8533"/>
<stop offset="1" stop-color="#FFA973"/>
</linearGradient>
<linearGradient id="paint12_linear_1_97" x1="46.8224" y1="105.173" x2="9.77841" y2="124.937" gradientUnits="userSpaceOnUse">
<stop stop-color="#FF8533"/>
<stop offset="1" stop-color="#FFA973"/>
</linearGradient>
<linearGradient id="paint13_linear_1_97" x1="41.0864" y1="93.2566" x2="4.39036" y2="112.841" gradientUnits="userSpaceOnUse">
<stop stop-color="#FFECDF"/>
<stop offset="1" stop-color="#E5A480"/>
</linearGradient>
<linearGradient id="paint14_linear_1_97" x1="41.8663" y1="51.4126" x2="73.4143" y2="25.1686" gradientUnits="userSpaceOnUse">
<stop stop-color="#FF8533"/>
<stop offset="0.72" stop-color="#FFA973"/>
</linearGradient>
<linearGradient id="paint15_linear_1_97" x1="70.5463" y1="45.7127" x2="44.1583" y2="19.3127" gradientUnits="userSpaceOnUse">
<stop stop-color="#FFECDF"/>
<stop offset="1" stop-color="#E5A480"/>
</linearGradient>
<linearGradient id="paint16_linear_1_97" x1="60.5023" y1="42.5687" x2="60.6703" y2="38.0567" gradientUnits="userSpaceOnUse">
<stop stop-color="#FF944D"/>
<stop offset="1" stop-color="#B45414"/>
</linearGradient>
<linearGradient id="paint17_linear_1_97" x1="70.1623" y1="43.6726" x2="71.5063" y2="37.4446" gradientUnits="userSpaceOnUse">
<stop stop-color="#FF944D"/>
<stop offset="1" stop-color="#B45414"/>
</linearGradient>
<linearGradient id="paint18_linear_1_97" x1="70.8343" y1="40.5287" x2="70.3783" y2="45.2687" gradientUnits="userSpaceOnUse">
<stop stop-color="#FF8533"/>
<stop offset="1" stop-color="#FFA973"/>
</linearGradient>
<linearGradient id="paint19_linear_1_97" x1="70.9662" y1="38.6447" x2="70.7382" y2="42.1607" gradientUnits="userSpaceOnUse">
<stop stop-color="#FFECDF"/>
<stop offset="1" stop-color="#E54A35"/>
</linearGradient>
<linearGradient id="paint20_linear_1_97" x1="72.1992" y1="40.0063" x2="69.6792" y2="39.8733" gradientUnits="userSpaceOnUse">
<stop stop-color="#331500"/>
<stop offset="1" stop-color="#A04915"/>
</linearGradient>
<linearGradient id="paint21_linear_1_97" x1="72.1634" y1="40.2975" x2="69.6482" y2="40.1016" gradientUnits="userSpaceOnUse">
<stop stop-color="#331500"/>
<stop offset="1" stop-color="#A04915"/>
</linearGradient>
<linearGradient id="paint22_linear_1_97" x1="71.3588" y1="39.966" x2="70.5197" y2="39.9137" gradientUnits="userSpaceOnUse">
<stop stop-color="#140800"/>
<stop offset="1" stop-color="#421E08"/>
</linearGradient>
<linearGradient id="paint23_linear_1_97" x1="70.705" y1="39.4143" x2="70.1058" y2="39.3753" gradientUnits="userSpaceOnUse">
<stop stop-color="#FFF7F1"/>
<stop offset="1" stop-color="#E5DBD5"/>
</linearGradient>
<linearGradient id="paint24_linear_1_97" x1="73.2795" y1="40.6557" x2="43.6932" y2="32.4172" gradientUnits="userSpaceOnUse">
<stop stop-color="#FFECDF"/>
<stop offset="1" stop-color="#E5A480"/>
</linearGradient>
<linearGradient id="paint25_linear_1_97" x1="71.0262" y1="41.1287" x2="69.9942" y2="35.6208" gradientUnits="userSpaceOnUse">
<stop stop-color="#FF5854"/>
<stop offset="1" stop-color="#E57F71"/>
</linearGradient>
<linearGradient id="paint26_linear_1_97" x1="68.1702" y1="40.1808" x2="70.8702" y2="39.6168" gradientUnits="userSpaceOnUse">
<stop stop-color="#FF5854"/>
<stop offset="1" stop-color="#E57F71"/>
</linearGradient>
<linearGradient id="paint27_linear_1_97" x1="68.2422" y1="40.5527" x2="70.9422" y2="39.9887" gradientUnits="userSpaceOnUse">
<stop stop-color="#FF5854"/>
<stop offset="1" stop-color="#E57F71"/>
</linearGradient>
<linearGradient id="paint28_linear_1_97" x1="69.3222" y1="41.2967" x2="70.1382" y2="40.3727" gradientUnits="userSpaceOnUse">
<stop stop-color="#FF5854"/>
<stop offset="1" stop-color="#E57F71"/>
</linearGradient>
<linearGradient id="paint29_linear_1_97" x1="73.5703" y1="40.3727" x2="72.1783" y2="40.4567" gradientUnits="userSpaceOnUse">
<stop stop-color="#FF5854"/>
<stop offset="1" stop-color="#E57F71"/>
</linearGradient>
<linearGradient id="paint30_linear_1_97" x1="73.5702" y1="40.5407" x2="72.1902" y2="40.6247" gradientUnits="userSpaceOnUse">
<stop stop-color="#FF5854"/>
<stop offset="1" stop-color="#E57F71"/>
</linearGradient>
<linearGradient id="paint31_linear_1_97" x1="72.5742" y1="41.4407" x2="72.1182" y2="42.4727" gradientUnits="userSpaceOnUse">
<stop stop-color="#FF5854"/>
<stop offset="1" stop-color="#E57F71"/>
</linearGradient>
<linearGradient id="paint32_linear_1_97" x1="71.4703" y1="35.5367" x2="70.8943" y2="39.7007" gradientUnits="userSpaceOnUse">
<stop stop-color="#FF8533"/>
<stop offset="0.94" stop-color="#FFA973"/>
</linearGradient>
<linearGradient id="paint33_linear_1_97" x1="70.9543" y1="39.1967" x2="70.8103" y2="40.4327" gradientUnits="userSpaceOnUse">
<stop stop-color="#1F0D00"/>
<stop offset="1" stop-color="#421E08"/>
</linearGradient>
<linearGradient id="paint34_linear_1_97" x1="73.4607" y1="41.0414" x2="68.0988" y2="41.648" gradientUnits="userSpaceOnUse">
<stop stop-color="#1F0D00"/>
<stop offset="1" stop-color="#421E08"/>
</linearGradient>
<linearGradient id="paint35_linear_1_97" x1="65.6263" y1="46.0966" x2="67.6543" y2="34.4326" gradientUnits="userSpaceOnUse">
<stop stop-color="#FF8533"/>
<stop offset="1" stop-color="#FFA973"/>
</linearGradient>
<linearGradient id="paint36_linear_1_97" x1="65.0983" y1="48.1367" x2="64.0063" y2="55.0967" gradientUnits="userSpaceOnUse">
<stop stop-color="#C36727"/>
<stop offset="1" stop-color="#EF813A"/>
</linearGradient>
<linearGradient id="paint37_linear_1_97" x1="63.7063" y1="55.0606" x2="65.5183" y2="48.1966" gradientUnits="userSpaceOnUse">
<stop stop-color="#FFECDF"/>
<stop offset="1" stop-color="#E5A480"/>
</linearGradient>
<linearGradient id="paint38_linear_1_97" x1="60.2984" y1="43.2887" x2="60.5984" y2="40.3367" gradientUnits="userSpaceOnUse">
<stop stop-color="#FF8533"/>
<stop offset="0.94" stop-color="#FFA973"/>
</linearGradient>
<linearGradient id="paint39_linear_1_97" x1="62.0991" y1="37.1407" x2="59.7823" y2="41.0078" gradientUnits="userSpaceOnUse">
<stop stop-color="#FFECDF"/>
<stop offset="1" stop-color="#E5A480"/>
</linearGradient>
<linearGradient id="paint40_linear_1_97" x1="60.8023" y1="37.9966" x2="60.5743" y2="41.5126" gradientUnits="userSpaceOnUse">
<stop stop-color="#FFECDF"/>
<stop offset="1" stop-color="#E54A35"/>
</linearGradient>
<linearGradient id="paint41_linear_1_97" x1="62.7965" y1="39.6956" x2="60.0695" y2="39.7277" gradientUnits="userSpaceOnUse">
<stop stop-color="#331500"/>
<stop offset="1" stop-color="#A04915"/>
</linearGradient>
<linearGradient id="paint42_linear_1_97" x1="62.8807" y1="39.5414" x2="60.1542" y2="39.4821" gradientUnits="userSpaceOnUse">
<stop stop-color="#331500"/>
<stop offset="1" stop-color="#A04915"/>
</linearGradient>
<linearGradient id="paint43_linear_1_97" x1="61.923" y1="39.6156" x2="61.0103" y2="39.6182" gradientUnits="userSpaceOnUse">
<stop stop-color="#140800"/>
<stop offset="1" stop-color="#421E08"/>
</linearGradient>
<linearGradient id="paint44_linear_1_97" x1="61.2952" y1="39.0522" x2="60.6464" y2="39.0644" gradientUnits="userSpaceOnUse">
<stop stop-color="#FFF7F1"/>
<stop offset="1" stop-color="#E5DBD5"/>
</linearGradient>
<linearGradient id="paint45_linear_1_97" x1="63.8812" y1="39.6839" x2="24.9303" y2="31.1121" gradientUnits="userSpaceOnUse">
<stop stop-color="#FFECDF"/>
<stop offset="1" stop-color="#E5A480"/>
</linearGradient>
<linearGradient id="paint46_linear_1_97" x1="60.9103" y1="40.4206" x2="59.6623" y2="33.6766" gradientUnits="userSpaceOnUse">
<stop stop-color="#FF5854"/>
<stop offset="1" stop-color="#E57F71"/>
</linearGradient>
<linearGradient id="paint47_linear_1_97" x1="61.1503" y1="35.1527" x2="60.7423" y2="38.5127" gradientUnits="userSpaceOnUse">
<stop stop-color="#FF8533"/>
<stop offset="0.94" stop-color="#FFA973"/>
</linearGradient>
<linearGradient id="paint48_linear_1_97" x1="57.348" y1="39.357" x2="63.9919" y2="41.5321" gradientUnits="userSpaceOnUse">
<stop stop-color="#1F0D00"/>
<stop offset="1" stop-color="#421E08"/>
</linearGradient>
<linearGradient id="paint49_linear_1_97" x1="60.7662" y1="37.9847" x2="60.6822" y2="39.2687" gradientUnits="userSpaceOnUse">
<stop stop-color="#1F0D00"/>
<stop offset="1" stop-color="#421E08"/>
</linearGradient>
<linearGradient id="paint50_linear_1_97" x1="58.3903" y1="40.3607" x2="58.5223" y2="38.7527" gradientUnits="userSpaceOnUse">
<stop stop-color="#FF5854"/>
<stop offset="1" stop-color="#E57F71"/>
</linearGradient>
<linearGradient id="paint51_linear_1_97" x1="58.3903" y1="40.2767" x2="58.4143" y2="39.8927" gradientUnits="userSpaceOnUse">
<stop stop-color="#FF5854"/>
<stop offset="1" stop-color="#E57F71"/>
</linearGradient>
<linearGradient id="paint52_linear_1_97" x1="63.7663" y1="40.0007" x2="63.6103" y2="38.7047" gradientUnits="userSpaceOnUse">
<stop stop-color="#FF5854"/>
<stop offset="1" stop-color="#E57F71"/>
</linearGradient>
<linearGradient id="paint53_linear_1_97" x1="63.6223" y1="40.6967" x2="63.6823" y2="40.0007" gradientUnits="userSpaceOnUse">
<stop stop-color="#FF5854"/>
<stop offset="1" stop-color="#E57F71"/>
</linearGradient>
<linearGradient id="paint54_linear_1_97" x1="63.2983" y1="40.8047" x2="63.3223" y2="40.4087" gradientUnits="userSpaceOnUse">
<stop stop-color="#FF5854"/>
<stop offset="1" stop-color="#E57F71"/>
</linearGradient>
<linearGradient id="paint55_linear_1_97" x1="56.767" y1="37.2249" x2="66.7886" y2="34.6704" gradientUnits="userSpaceOnUse">
<stop stop-color="#693B26"/>
<stop offset="0.35" stop-color="#633722"/>
<stop offset="0.79" stop-color="#542B18"/>
<stop offset="1" stop-color="#4A2412"/>
</linearGradient>
<linearGradient id="paint56_linear_1_97" x1="67.96" y1="35.3672" x2="74.3297" y2="36.7875" gradientUnits="userSpaceOnUse">
<stop stop-color="#693B26"/>
<stop offset="0.35" stop-color="#633722"/>
<stop offset="0.79" stop-color="#542B18"/>
<stop offset="1" stop-color="#4A2412"/>
</linearGradient>
<linearGradient id="paint57_linear_1_97" x1="66.2834" y1="44.8383" x2="66.0852" y2="46.5671" gradientUnits="userSpaceOnUse">
<stop stop-color="#ECDBCF"/>
<stop offset="1" stop-color="#BC927F"/>
</linearGradient>
<linearGradient id="paint58_linear_1_97" x1="64.3636" y1="46.0311" x2="64.4585" y2="47.3621" gradientUnits="userSpaceOnUse">
<stop stop-color="#70220D"/>
<stop offset="1" stop-color="#CB684F"/>
</linearGradient>
<linearGradient id="paint59_linear_1_97" x1="66.6877" y1="46.4999" x2="66.4046" y2="47.7839" gradientUnits="userSpaceOnUse">
<stop stop-color="#70220D"/>
<stop offset="1" stop-color="#CB684F"/>
</linearGradient>
<linearGradient id="paint60_linear_1_97" x1="40.4624" y1="28.9006" x2="80.9744" y2="28.9006" gradientUnits="userSpaceOnUse">
<stop stop-color="#693B26"/>
<stop offset="0.35" stop-color="#633722"/>
<stop offset="0.79" stop-color="#542B18"/>
<stop offset="1" stop-color="#4A2412"/>
</linearGradient>
<linearGradient id="paint61_linear_1_97" x1="33.8264" y1="46.2527" x2="60.9464" y2="14.7767" gradientUnits="userSpaceOnUse">
<stop stop-color="#593D00"/>
<stop offset="1" stop-color="#B26217"/>
</linearGradient>
<linearGradient id="paint62_linear_1_97" x1="59.1944" y1="15.8806" x2="63.3104" y2="11.0926" gradientUnits="userSpaceOnUse">
<stop stop-color="#593D00"/>
<stop offset="1" stop-color="#B26217"/>
</linearGradient>
<linearGradient id="paint63_linear_1_97" x1="56.0264" y1="43.6487" x2="80.6264" y2="15.0887" gradientUnits="userSpaceOnUse">
<stop stop-color="#593D00"/>
<stop offset="1" stop-color="#B26217"/>
</linearGradient>
<linearGradient id="paint64_linear_1_97" x1="52.1589" y1="17.4947" x2="48.7966" y2="20.007" gradientUnits="userSpaceOnUse">
<stop stop-color="#380E00"/>
<stop offset="1" stop-color="#A73A16"/>
</linearGradient>
<linearGradient id="paint65_linear_1_97" x1="52.1301" y1="41.833" x2="40.5763" y2="37.0837" gradientUnits="userSpaceOnUse">
<stop stop-color="#FF6700"/>
<stop offset="1" stop-color="#FFA063"/>
</linearGradient>
<linearGradient id="paint66_linear_1_97" x1="47.709" y1="38.2276" x2="45.6581" y2="39.6608" gradientUnits="userSpaceOnUse">
<stop stop-color="#B44900"/>
<stop offset="1" stop-color="#FE8D43"/>
</linearGradient>
<linearGradient id="paint67_linear_1_97" x1="47.709" y1="38.2276" x2="45.6581" y2="39.6608" gradientUnits="userSpaceOnUse">
<stop stop-color="#B44900"/>
<stop offset="1" stop-color="#FC8B40"/>
</linearGradient>
<linearGradient id="paint68_linear_1_97" x1="47.709" y1="38.2276" x2="45.6581" y2="39.6608" gradientUnits="userSpaceOnUse">
<stop stop-color="#B44900"/>
<stop offset="1" stop-color="#FB8A3E"/>
</linearGradient>
<linearGradient id="paint69_linear_1_97" x1="47.7197" y1="38.2219" x2="45.6582" y2="39.6607" gradientUnits="userSpaceOnUse">
<stop stop-color="#B44900"/>
<stop offset="1" stop-color="#FA883C"/>
</linearGradient>
<linearGradient id="paint70_linear_1_97" x1="47.7197" y1="38.2219" x2="45.6582" y2="39.6607" gradientUnits="userSpaceOnUse">
<stop stop-color="#B44900"/>
<stop offset="1" stop-color="#F9863A"/>
</linearGradient>
<linearGradient id="paint71_linear_1_97" x1="47.7197" y1="38.2219" x2="45.6582" y2="39.6607" gradientUnits="userSpaceOnUse">
<stop stop-color="#B44900"/>
<stop offset="1" stop-color="#F78437"/>
</linearGradient>
<linearGradient id="paint72_linear_1_97" x1="47.7197" y1="38.2219" x2="45.6582" y2="39.6607" gradientUnits="userSpaceOnUse">
<stop stop-color="#B44900"/>
<stop offset="1" stop-color="#F68235"/>
</linearGradient>
<linearGradient id="paint73_linear_1_97" x1="47.7196" y1="38.2219" x2="45.6581" y2="39.6608" gradientUnits="userSpaceOnUse">
<stop stop-color="#B44900"/>
<stop offset="1" stop-color="#F58033"/>
</linearGradient>
<linearGradient id="paint74_linear_1_97" x1="47.7197" y1="38.2219" x2="45.6476" y2="39.6664" gradientUnits="userSpaceOnUse">
<stop stop-color="#B44900"/>
<stop offset="1" stop-color="#F47F31"/>
</linearGradient>
<linearGradient id="paint75_linear_1_97" x1="47.7196" y1="38.2219" x2="45.6475" y2="39.6664" gradientUnits="userSpaceOnUse">
<stop stop-color="#B44900"/>
<stop offset="1" stop-color="#F27D2E"/>
</linearGradient>
<linearGradient id="paint76_linear_1_97" x1="47.7196" y1="38.2219" x2="45.6475" y2="39.6664" gradientUnits="userSpaceOnUse">
<stop stop-color="#B44900"/>
<stop offset="1" stop-color="#F17B2C"/>
</linearGradient>
<linearGradient id="paint77_linear_1_97" x1="-440.167" y1="357.228" x2="-441.474" y2="358.324" gradientUnits="userSpaceOnUse">
<stop stop-color="#6B2C00"/>
<stop offset="1" stop-color="#E26E20"/>
</linearGradient>
<linearGradient id="paint78_linear_1_97" x1="-440.155" y1="357.244" x2="-441.452" y2="358.325" gradientUnits="userSpaceOnUse">
<stop stop-color="#6B2C00"/>
<stop offset="1" stop-color="#E26E20"/>
</linearGradient>
<linearGradient id="paint79_linear_1_97" x1="-440.151" y1="357.266" x2="-441.424" y2="358.321" gradientUnits="userSpaceOnUse">
<stop stop-color="#6B2C00"/>
<stop offset="1" stop-color="#E26E20"/>
</linearGradient>
<linearGradient id="paint80_linear_1_97" x1="-440.146" y1="357.274" x2="-441.395" y2="358.322" gradientUnits="userSpaceOnUse">
<stop stop-color="#6B2C00"/>
<stop offset="1" stop-color="#E26E20"/>
</linearGradient>
<linearGradient id="paint81_linear_1_97" x1="-440.134" y1="357.29" x2="-441.366" y2="358.318" gradientUnits="userSpaceOnUse">
<stop stop-color="#6B2C00"/>
<stop offset="1" stop-color="#E26E20"/>
</linearGradient>
<linearGradient id="paint82_linear_1_97" x1="-440.123" y1="357.307" x2="-441.341" y2="358.326" gradientUnits="userSpaceOnUse">
<stop stop-color="#6B2C00"/>
<stop offset="1" stop-color="#E26E20"/>
</linearGradient>
<linearGradient id="paint83_linear_1_97" x1="-440.118" y1="357.328" x2="-441.313" y2="358.322" gradientUnits="userSpaceOnUse">
<stop stop-color="#6B2C00"/>
<stop offset="1" stop-color="#E26E20"/>
</linearGradient>
<linearGradient id="paint84_linear_1_97" x1="-440.113" y1="357.336" x2="-441.287" y2="358.317" gradientUnits="userSpaceOnUse">
<stop stop-color="#6B2C00"/>
<stop offset="1" stop-color="#E26E20"/>
</linearGradient>
<linearGradient id="paint85_linear_1_97" x1="-440.102" y1="357.353" x2="-441.262" y2="358.324" gradientUnits="userSpaceOnUse">
<stop stop-color="#6B2C00"/>
<stop offset="1" stop-color="#E26E20"/>
</linearGradient>
<linearGradient id="paint86_linear_1_97" x1="-440.091" y1="357.369" x2="-441.234" y2="358.32" gradientUnits="userSpaceOnUse">
<stop stop-color="#6B2C00"/>
<stop offset="1" stop-color="#E26E20"/>
</linearGradient>
<linearGradient id="paint87_linear_1_97" x1="-440.086" y1="357.39" x2="-441.202" y2="358.323" gradientUnits="userSpaceOnUse">
<stop stop-color="#6B2C00"/>
<stop offset="1" stop-color="#E26E20"/>
</linearGradient>
<linearGradient id="paint88_linear_1_97" x1="-440.082" y1="357.399" x2="-441.177" y2="358.317" gradientUnits="userSpaceOnUse">
<stop stop-color="#6B2C00"/>
<stop offset="1" stop-color="#E26E20"/>
</linearGradient>
<linearGradient id="paint89_linear_1_97" x1="-440.07" y1="357.415" x2="-441.152" y2="358.325" gradientUnits="userSpaceOnUse">
<stop stop-color="#6B2C00"/>
<stop offset="1" stop-color="#E26E20"/>
</linearGradient>
<linearGradient id="paint90_linear_1_97" x1="-440.058" y1="357.432" x2="-441.123" y2="358.321" gradientUnits="userSpaceOnUse">
<stop stop-color="#6B2C00"/>
<stop offset="1" stop-color="#E26E20"/>
</linearGradient>
<linearGradient id="paint91_linear_1_97" x1="-440.047" y1="357.448" x2="-441.095" y2="358.318" gradientUnits="userSpaceOnUse">
<stop stop-color="#6B2C00"/>
<stop offset="1" stop-color="#E26E20"/>
</linearGradient>
<linearGradient id="paint92_linear_1_97" x1="-440.049" y1="357.461" x2="-441.073" y2="358.323" gradientUnits="userSpaceOnUse">
<stop stop-color="#6B2C00"/>
<stop offset="1" stop-color="#E26E20"/>
</linearGradient>
<linearGradient id="paint93_linear_1_97" x1="-440.037" y1="357.477" x2="-441.044" y2="358.319" gradientUnits="userSpaceOnUse">
<stop stop-color="#6B2C00"/>
<stop offset="1" stop-color="#E26E20"/>
</linearGradient>
<linearGradient id="paint94_linear_1_97" x1="-440.027" y1="357.494" x2="-441.013" y2="358.322" gradientUnits="userSpaceOnUse">
<stop stop-color="#6B2C00"/>
<stop offset="1" stop-color="#E26E20"/>
</linearGradient>
<linearGradient id="paint95_linear_1_97" x1="-440.015" y1="357.511" x2="-440.985" y2="358.318" gradientUnits="userSpaceOnUse">
<stop stop-color="#6B2C00"/>
<stop offset="1" stop-color="#E26E20"/>
</linearGradient>
<linearGradient id="paint96_linear_1_97" x1="-440.01" y1="357.519" x2="-440.966" y2="358.317" gradientUnits="userSpaceOnUse">
<stop stop-color="#6B2C00"/>
<stop offset="1" stop-color="#E26E20"/>
</linearGradient>
<linearGradient id="paint97_linear_1_97" x1="-440.005" y1="357.54" x2="-440.933" y2="358.32" gradientUnits="userSpaceOnUse">
<stop stop-color="#6B2C00"/>
<stop offset="1" stop-color="#E26E20"/>
</linearGradient>
<linearGradient id="paint98_linear_1_97" x1="46.5526" y1="39.1704" x2="48.5296" y2="39.8435" gradientUnits="userSpaceOnUse">
<stop stop-color="#D8661A"/>
<stop offset="1" stop-color="#A24B0D"/>
</linearGradient>
<linearGradient id="paint99_linear_1_97" x1="46.975" y1="81.0211" x2="18.818" y2="78.0773" gradientUnits="userSpaceOnUse">
<stop stop-color="#24BEBE"/>
<stop offset="1" stop-color="#228686"/>
</linearGradient>
<linearGradient id="paint100_linear_1_97" x1="37.7084" y1="94.9101" x2="18.0103" y2="73.0485" gradientUnits="userSpaceOnUse">
<stop stop-color="#0BBEBE"/>
<stop offset="1" stop-color="#228686"/>
</linearGradient>
<clipPath id="clip0_1_97">
<rect width="120" height="127.764" fill="white" transform="translate(0.214417 0.376709)"/>
</clipPath>
</defs>
</svg>
