<svg width="121" height="121" viewBox="0 0 121 121" fill="none" xmlns="http://www.w3.org/2000/svg">
<g clip-path="url(#clip0_1_253)">
<path d="M60.2144 120.141C93.3515 120.141 120.214 93.2778 120.214 60.1408C120.214 27.0037 93.3515 0.140747 60.2144 0.140747C27.0773 0.140747 0.214417 27.0037 0.214417 60.1408C0.214417 93.2778 27.0773 120.141 60.2144 120.141Z" fill="url(#paint0_linear_1_253)"/>
<mask id="mask0_1_253" style="mask-type:luminance" maskUnits="userSpaceOnUse" x="0" y="0" width="121" height="121">
<path d="M60.2144 120.141C93.3515 120.141 120.214 93.2778 120.214 60.1408C120.214 27.0037 93.3515 0.140747 60.2144 0.140747C27.0773 0.140747 0.214417 27.0037 0.214417 60.1408C0.214417 93.2778 27.0773 120.141 60.2144 120.141Z" fill="white"/>
</mask>
<g mask="url(#mask0_1_253)">
<path d="M80.3745 58.4368C81.0705 58.6408 87.4185 61.5568 89.1825 63.0448C89.9625 63.7048 83.1945 86.8648 82.1025 87.1288C81.5025 87.2848 77.0265 86.1088 74.6745 85.1368C72.3705 84.1888 76.7025 57.3448 80.3745 58.4248V58.4368Z" fill="url(#paint1_linear_1_253)"/>
<path d="M56.1705 44.2048C56.1705 44.2048 55.4025 48.1168 55.1505 49.5328C54.9105 50.9608 54.6945 63.9928 63.0225 65.0848C71.3385 66.1648 72.5985 57.8608 73.3185 54.6448C74.0385 51.4288 74.0385 48.9928 74.0385 48.9928L56.1705 44.2048Z" fill="url(#paint2_linear_1_253)"/>
<path style="mix-blend-mode:multiply" d="M56.1705 44.2048C56.1705 44.2048 55.4025 47.9728 55.1505 49.4008C54.9105 50.8288 54.6945 63.9928 63.0225 65.0848C71.3385 66.1648 72.5985 57.8608 73.3185 54.6448C74.0385 51.4288 74.0385 48.9928 74.0385 48.9928L56.1705 44.2048Z" fill="url(#paint3_linear_1_253)"/>
<path d="M76.1744 80.7688C76.0664 82.6648 76.0184 84.4408 76.0424 85.9528C76.0424 86.0728 76.0184 86.2048 76.0064 86.3248C75.2024 96.2488 74.8784 103.749 74.5784 109.293C74.3744 112.869 74.1824 115.617 73.8704 117.681C73.0544 122.973 31.6424 117.549 31.8464 116.325C32.0504 115.101 29.6744 95.3248 29.9504 87.5848C30.5624 70.1488 33.3224 62.8768 36.0224 56.0728C37.8224 51.5248 39.4304 49.2448 39.9104 49.0768C40.8464 48.7648 54.2504 49.4008 54.6224 49.4848C55.8464 53.4808 55.1624 62.0968 62.6264 63.9928C69.4304 65.7208 71.9264 58.3168 73.3424 54.6328C74.1224 54.9088 80.2784 58.3528 80.3984 58.4248C76.8584 62.7208 76.6304 73.1848 76.1984 80.7568L76.1744 80.7688Z" fill="url(#paint4_linear_1_253)"/>
<path style="mix-blend-mode:multiply" opacity="0.5" d="M49.0544 78.9808C44.5784 78.3688 46.6064 82.6528 47.0864 86.0248C48.1064 93.1408 68.4464 96.1648 63.2864 96.8728C58.8104 97.4848 53.8904 95.7808 46.8824 92.7328C43.7624 91.3768 43.5584 98.2888 45.8024 101.145C47.9864 103.929 65.3144 109.389 74.5784 109.293C74.3744 112.869 74.1824 115.617 73.8704 117.681C73.0544 122.973 31.6424 117.549 31.8464 116.325C32.0504 115.101 29.6744 95.3248 29.9504 87.5848C30.5624 70.1488 33.3224 62.8768 36.0224 56.0728L45.4064 53.1448C47.2424 55.7848 48.1904 67.6288 48.6584 69.8248C49.1384 72.0208 69.4544 78.4288 72.9224 79.5208C74.2064 79.9288 75.9104 80.0608 76.1984 80.2648C76.1624 80.8768 76.1144 81.9808 76.0904 82.5688C76.0424 83.7928 52.6424 79.4608 49.0664 78.9808H49.0544Z" fill="url(#paint5_linear_1_253)"/>
<path d="M75.0464 55.4609C73.4264 60.2249 69.9344 65.9489 64.6544 65.9009C52.4144 65.7929 53.0264 55.3289 52.8224 49.3169C53.0624 49.3529 54.7904 49.3169 55.1624 49.4129C56.3864 53.4089 54.8864 62.3369 62.9384 63.8729C68.7224 64.9769 71.9144 58.3289 73.3304 54.6569C73.6544 54.7769 74.8064 55.3289 75.0464 55.4729V55.4609Z" fill="url(#paint6_linear_1_253)"/>
<path d="M41.9384 68.8048C41.3504 72.3448 37.4984 82.5928 34.2344 87.5488C33.5024 88.6648 32.8064 89.5048 32.1704 89.9488C28.7504 92.3728 18.2624 89.9728 18.0944 87.7888C18.0944 87.7768 18.0944 87.7648 18.0944 87.7528C18.0104 84.2488 24.4184 65.7928 27.3104 61.2688C30.2024 56.7448 35.6744 50.5648 40.4144 53.2288C47.0144 56.9368 42.6464 64.4608 41.9264 68.7928L41.9384 68.8048Z" fill="url(#paint7_linear_1_253)"/>
<path style="mix-blend-mode:multiply" d="M41.9385 68.8048C41.3505 72.3448 37.4985 82.5928 34.2345 87.5488C31.4745 86.1928 27.2505 84.5728 26.3265 84.5128C25.0665 84.4168 28.4025 83.1568 32.9265 84.7768C34.6425 85.4128 35.2785 84.5128 32.9265 83.5168C30.5745 82.5208 25.0665 80.2648 22.9785 79.3648C21.2025 78.5968 18.7785 83.4088 18.1065 87.8008C18.1065 87.7888 18.1065 87.7768 18.1065 87.7648C18.0225 84.2608 24.4305 65.8048 27.3225 61.2808C30.2145 56.7568 35.6865 50.5768 40.4265 53.2408C47.0265 56.9488 42.6585 64.4728 41.9385 68.8048Z" fill="url(#paint8_linear_1_253)"/>
<path d="M49.9784 110.337C49.5824 110.661 49.2104 110.841 48.9224 110.769C47.2664 110.373 27.1904 103.329 20.3504 94.1488C18.8384 92.1088 17.9624 89.9608 18.0944 87.7648C18.8144 82.3408 32.1704 84.0568 34.8104 87.3088C38.3864 91.7008 48.7904 100.473 52.3304 103.521C52.4624 103.641 52.5824 103.749 52.7024 103.845C53.7464 104.745 51.6224 108.945 49.9664 110.325L49.9784 110.337Z" fill="url(#paint9_linear_1_253)"/>
<path d="M63.2984 103.569C63.9584 103.605 67.7144 105.909 67.8464 106.053C67.9784 106.197 70.8704 108.117 71.2184 108.369C71.8544 108.837 71.5784 110.121 70.2944 110.085C69.1904 110.061 67.0904 108.837 66.9104 108.753C66.7304 108.669 62.7224 106.941 62.2304 106.677C61.7504 106.413 62.9984 103.545 63.2864 103.557L63.2984 103.569Z" fill="url(#paint10_linear_1_253)"/>
<path d="M61.6424 106.713C62.3864 106.725 66.4425 108.813 66.5865 108.945C66.7305 109.089 69.9225 110.949 70.2945 111.189C71.1825 111.741 70.4024 113.253 69.3344 112.989C68.1344 112.689 65.6865 111.705 65.4945 111.633C65.3025 111.561 61.1384 110.013 60.5984 109.773C60.0584 109.521 61.3184 106.713 61.6304 106.713H61.6424Z" fill="url(#paint11_linear_1_253)"/>
<path d="M59.9864 109.641C60.6464 109.677 64.2704 111.765 64.4144 111.921C64.5464 112.065 67.8104 114.273 68.1464 114.537C68.5904 114.897 68.2904 116.193 66.9944 116.157C65.8904 116.133 63.6584 114.705 63.4784 114.621C63.2984 114.537 59.5184 113.109 59.0384 112.845C58.5584 112.581 59.7104 109.629 59.9864 109.641Z" fill="url(#paint12_linear_1_253)"/>
<path d="M58.6544 112.629C59.2184 112.653 62.2304 114.717 62.3504 114.849C62.4704 114.981 64.9664 116.649 65.2424 116.889C65.5184 117.129 65.3624 118.305 64.2704 118.281C63.3224 118.257 61.2104 117.417 61.0544 117.345C60.8984 117.273 57.8024 115.953 57.3944 115.725C56.9744 115.497 58.4264 112.629 58.6544 112.641V112.629Z" fill="url(#paint13_linear_1_253)"/>
<path d="M51.6345 104.229C52.3305 103.641 57.0945 100.341 58.2105 100.221C59.3385 100.089 64.4265 99.8007 65.2665 99.9447C66.1065 100.089 65.5425 102.141 63.5865 102.393C61.6305 102.645 60.4545 102.885 60.2145 102.885C59.9745 102.885 57.7545 104.961 57.4665 105.081C57.1665 105.201 50.3025 105.357 51.6465 104.229H51.6345Z" fill="url(#paint14_linear_1_253)"/>
<path d="M57.8984 115.917C57.8984 115.917 57.8385 115.905 57.8025 115.893C56.7345 115.569 49.8704 112.557 48.9224 110.781C48.5984 110.181 48.8025 109.005 49.1865 107.805C49.7265 106.113 50.6145 104.361 50.9025 104.121C50.9745 104.061 51.5624 103.821 52.3424 103.545C53.8184 103.029 56.0024 102.369 56.8424 102.453C59.3984 102.717 62.6744 103.413 63.2984 103.581C64.3424 103.869 58.9304 116.109 57.8984 115.929V115.917Z" fill="url(#paint15_linear_1_253)"/>
<path style="mix-blend-mode:multiply" d="M57.8024 115.893C56.7344 115.569 49.8704 112.557 48.9224 110.781C47.2664 110.385 27.1904 103.341 20.3504 94.1608C23.7944 97.7848 31.7984 102.873 35.7224 104.673C40.4264 106.845 47.2064 109.377 49.0064 107.925C49.0664 107.877 49.1264 107.829 49.1744 107.793C50.3024 106.929 48.9704 108.489 49.9664 110.337C50.2424 110.853 50.6984 111.381 51.4424 111.897C53.5664 113.361 56.0984 114.897 57.7904 115.881L57.8024 115.893Z" fill="url(#paint16_linear_1_253)"/>
<path d="M92.5784 76.1368C91.3064 83.0368 86.6264 87.9568 82.1144 87.1288C77.6024 86.3008 74.9744 80.0368 76.2344 73.1248C77.5064 66.2248 80.7464 60.9088 86.6984 62.1328C92.4944 63.3208 93.8384 69.2248 92.5784 76.1368Z" fill="url(#paint17_linear_1_253)"/>
<path style="mix-blend-mode:multiply" opacity="0.5" d="M92.4464 76.1128C91.1984 82.9048 86.5904 87.7408 82.1504 86.9248C77.7104 86.1088 75.1304 79.9528 76.3664 73.1608C77.6144 66.3688 80.7944 61.1488 86.6624 62.3488C92.3624 63.5128 93.6824 69.3208 92.4464 76.1128Z" fill="url(#paint18_linear_1_253)"/>
<path d="M45.7064 70.3047C41.3504 80.0247 38.8784 82.8687 38.4824 83.8647C38.3744 84.1407 37.4984 83.8407 35.3264 83.0367C29.5904 80.9127 18.1304 75.5127 18.5624 73.4967C19.1624 70.7247 30.5864 48.1527 39.7664 49.0887C47.4944 49.8807 50.0744 60.5847 45.7184 70.3047H45.7064Z" fill="url(#paint19_linear_1_253)"/>
<path style="mix-blend-mode:multiply" opacity="0.5" d="M24.4904 67.9888C23.2904 69.8248 22.1144 75.2608 24.2264 76.8448C27.1064 79.0048 32.5184 81.5608 35.3264 83.0248C29.5904 80.9008 18.1304 75.5008 18.5624 73.4848C19.1624 70.7128 30.5864 48.1408 39.7664 49.0768C34.9424 49.3408 29.7824 56.6128 28.1984 60.0448C26.6144 63.4768 29.9144 59.7808 34.0184 60.5728C38.4584 61.4368 28.7264 61.4968 24.5024 67.9768L24.4904 67.9888Z" fill="url(#paint20_linear_1_253)"/>
<path d="M83.7464 49.4488C85.5824 47.6968 86.8424 45.4048 87.9224 42.8968C92.5664 32.1928 86.5064 25.5688 78.4064 22.8208C70.3184 20.0608 58.5104 17.8288 55.3544 31.5568C53.9984 37.4608 56.9384 42.3088 56.9264 44.0248C56.9264 44.0248 56.1824 48.9568 56.5904 50.1928C57.4784 52.9048 62.3504 60.4168 63.0224 60.8128C63.6944 61.2088 67.9184 63.6928 72.2024 63.2008C73.6784 63.0328 81.1424 56.4688 82.1744 53.3728C82.5584 52.2088 82.8704 50.6128 83.7464 49.4608V49.4488Z" fill="url(#paint21_linear_1_253)"/>
<path style="mix-blend-mode:multiply" d="M88.3784 41.7928C84.8384 39.7408 82.1864 36.2848 81.8144 34.6408C79.3424 37.7128 73.2344 38.7808 68.0264 36.7168C66.4904 36.1888 64.3784 39.0088 62.4944 42.8488C60.7304 46.4488 60.8264 54.1888 63.0344 60.7888C62.3624 60.3928 57.4904 52.8808 56.6024 50.1688C56.1944 48.9448 56.9264 44.0368 56.9384 44.0008C56.9384 42.2848 54.0104 37.4248 55.3664 31.5328C58.5224 17.8048 70.3304 20.0488 78.4184 22.7968C86.2304 25.4608 92.1464 31.7248 88.3784 41.7808V41.7928Z" fill="url(#paint22_linear_1_253)"/>
<path d="M75.0104 43.1127C75.7904 44.7087 74.9024 47.2287 74.2064 47.7807C73.5224 48.3327 70.6064 47.6247 68.6624 45.9687C66.7184 44.3127 66.3944 42.7647 67.0424 41.4807C67.6904 40.1967 68.1464 39.0687 68.4704 39.1767C68.7944 39.2847 74.5784 42.2607 74.9984 43.1247L75.0104 43.1127Z" fill="url(#paint23_linear_1_253)"/>
<path d="M83.7463 49.4488H83.7583C83.4823 49.8208 83.2543 50.2408 83.0623 50.6728C81.8263 51.2488 78.0103 50.0128 77.2183 49.2088C76.3663 48.3448 76.9663 47.8528 77.3503 47.1328C77.9983 45.9328 78.8023 44.1208 79.7503 44.3008C80.5063 44.4448 84.5983 45.2128 86.3263 46.0888C85.5943 47.3368 84.7543 48.4768 83.7343 49.4488H83.7463Z" fill="url(#paint24_linear_1_253)"/>
<path d="M81.2504 44.8407C79.3544 45.0567 78.3704 46.5207 77.5544 48.2007C76.3304 50.7207 78.9344 51.2247 77.3984 52.8207C76.7384 53.4927 74.2664 53.4687 73.4504 53.1807C72.4424 52.8327 71.1584 51.6807 70.7144 50.8047C69.9344 49.2687 70.3904 48.8127 71.2664 48.7767C72.0944 48.7407 73.0904 48.8847 73.9784 47.5167C75.8264 44.6967 74.9744 43.2087 74.7464 42.4407C74.3744 41.1567 83.0264 44.6367 81.2504 44.8407Z" fill="url(#paint25_linear_1_253)"/>
<path style="mix-blend-mode:multiply" d="M77.3984 52.8208C76.4504 53.5768 73.9304 53.5408 72.9104 52.9408C71.9384 52.3768 70.8704 51.2968 70.5824 50.5168C70.7024 50.2528 71.1344 50.5408 73.1024 52.1848C73.9544 52.8928 76.3064 53.3128 77.3984 52.8208Z" fill="url(#paint26_linear_1_253)"/>
<path d="M72.6583 52.2927C72.4663 52.1007 71.4583 50.6967 71.1583 50.8047C70.8583 50.9127 71.9023 51.8367 72.1903 52.0887C72.4783 52.3527 72.8863 52.5087 72.6583 52.2927Z" fill="url(#paint27_linear_1_253)"/>
<path d="M74.6863 53.1208C74.8783 53.1328 76.1863 53.0728 76.2703 53.1568C76.4383 53.3488 75.2503 53.3368 74.9863 53.3008C74.7223 53.2648 74.4703 53.0968 74.6863 53.1088V53.1208Z" fill="url(#paint28_linear_1_253)"/>
<path d="M77.1224 42.0687C76.8104 42.6207 74.7944 43.7607 74.0384 43.2687C73.0304 42.6087 71.7584 41.4447 68.4104 39.3327C67.4984 38.7567 68.8544 37.7847 69.6944 38.2167C71.3144 39.0567 72.1184 39.5247 73.8824 40.3287C75.7544 41.1807 77.5184 41.3607 77.1224 42.0687Z" fill="url(#paint29_linear_1_253)"/>
<path d="M80.0264 42.8247C79.7864 43.3647 79.8824 45.0207 80.7344 45.2007C82.0184 45.4767 84.4304 45.8487 85.9544 46.1487C86.6864 46.2927 87.2864 45.0687 86.5184 44.8167C85.6184 44.5287 84.7544 44.3487 83.1824 43.7727C81.4664 43.1487 80.3384 42.1287 80.0384 42.8127L80.0264 42.8247Z" fill="url(#paint30_linear_1_253)"/>
<path d="M67.1024 42.7768C67.5344 43.2808 68.0504 43.7128 68.5784 44.0968C68.8424 44.2888 69.1184 44.4808 69.3944 44.6368C69.5384 44.7208 69.6704 44.7928 69.8144 44.8648C69.9464 44.9368 70.1024 44.9728 70.2464 45.0328C70.8464 45.2248 71.4704 45.1888 72.0944 45.2008C72.4064 45.2008 72.7304 45.1888 73.0544 45.1648C73.3784 45.1528 73.7144 45.1168 74.0744 45.1408V45.2128C73.5104 45.5848 72.8504 45.8608 72.1424 45.9568C71.7824 46.0048 71.4224 45.9928 71.0624 45.9208C70.7024 45.8488 70.3664 45.7288 70.0304 45.5968C69.8744 45.5128 69.7064 45.4528 69.5504 45.3568C69.3944 45.2608 69.2504 45.1648 69.1064 45.0568C68.8304 44.8408 68.5784 44.6128 68.3264 44.3848C68.0864 44.1448 67.8464 43.8928 67.6304 43.6408C67.4144 43.3768 67.1984 43.1128 67.0304 42.8128L67.0904 42.7648L67.1024 42.7768Z" fill="url(#paint31_linear_1_253)"/>
<path d="M78.5144 46.8208C78.5504 47.0728 78.5504 47.3128 78.6104 47.5408C78.6584 47.7688 78.7424 47.9848 78.8744 48.1648C78.9944 48.3448 79.1624 48.5008 79.3304 48.6448C79.5104 48.7888 79.6904 48.8848 79.8944 48.9808C80.0984 49.0648 80.3264 49.1248 80.5544 49.1728C80.7824 49.2208 81.0104 49.2808 81.2264 49.3528C81.4544 49.4248 81.6824 49.5088 81.9104 49.5928C82.0304 49.6408 82.1384 49.6888 82.2584 49.7488C82.3784 49.8088 82.4984 49.8688 82.6064 49.9768L82.5704 50.0488L82.1984 50.0968C82.0784 50.1088 81.9464 50.1208 81.8264 50.1328C81.5744 50.1328 81.3224 50.1328 81.0704 50.0968C80.8184 50.0608 80.5664 50.0008 80.3264 49.8928C80.0864 49.7848 79.8464 49.6648 79.6184 49.5208C79.3904 49.3768 79.1624 49.2088 78.9824 49.0168C78.8024 48.8248 78.6464 48.5968 78.5264 48.3448C78.4184 48.0928 78.3584 47.8288 78.3584 47.5648C78.3584 47.3008 78.3944 47.0608 78.4304 46.8208H78.5024H78.5144Z" fill="url(#paint32_linear_1_253)"/>
<path d="M78.7904 40.7008C78.6464 41.0968 78.4424 41.4688 78.1904 41.8168C77.9384 42.1648 77.6504 42.4768 77.3384 42.7648C77.0264 43.0528 76.6784 43.3048 76.3184 43.5208C75.9584 43.7368 75.5744 43.9168 75.1664 44.0488C75.5144 43.8088 75.8504 43.5688 76.1864 43.3288C76.5104 43.0768 76.8344 42.8248 77.1344 42.5488C77.4464 42.2728 77.7224 41.9848 77.9984 41.6728C78.2744 41.3608 78.5264 41.0488 78.7784 40.7008H78.7904Z" fill="url(#paint33_linear_1_253)"/>
<path d="M79.4504 41.8048C79.4144 42.1168 79.3544 42.4168 79.3064 42.7288L79.1624 43.6408C79.1144 43.9408 79.0664 44.2408 79.0304 44.5528C78.9944 44.8528 78.9704 45.1528 78.9704 45.4768C78.8384 45.1888 78.8024 44.8648 78.7904 44.5408C78.7904 44.2288 78.8024 43.9048 78.8624 43.5928C78.9104 43.2808 78.9824 42.9808 79.0784 42.6808C79.1744 42.3808 79.2944 42.0928 79.4504 41.8168V41.8048Z" fill="url(#paint34_linear_1_253)"/>
<path d="M78.5624 46.8087C78.8024 46.8807 79.0424 46.9047 79.2824 46.9287C79.5224 46.9527 79.7624 46.9647 80.0024 46.9767C80.4824 47.0127 80.9864 47.0487 81.4664 47.1927C81.7064 47.2647 81.9584 47.3847 82.1624 47.5167C82.3784 47.6487 82.5704 47.8047 82.7504 47.9967C83.1104 48.3687 83.3144 48.8607 83.3624 49.3407C83.2544 49.1127 83.1584 48.8967 83.0264 48.7047C82.8944 48.5127 82.7384 48.3327 82.5704 48.1767C82.4024 48.0207 82.2104 47.8887 82.0064 47.7687C81.9104 47.7087 81.8024 47.6487 81.7064 47.6007C81.6104 47.5527 81.5024 47.5047 81.3824 47.4687C80.9384 47.3247 80.4584 47.2527 79.9784 47.1807C79.7384 47.1447 79.4984 47.0967 79.2584 47.0487C79.0184 46.9887 78.7784 46.9287 78.5624 46.8087Z" fill="url(#paint35_linear_1_253)"/>
<path d="M74.2304 44.8528C73.9304 44.7088 73.6664 44.5048 73.4144 44.3008C73.1624 44.0848 72.9104 43.8688 72.6704 43.6648C72.4184 43.4608 72.1784 43.2448 71.9144 43.0648C71.6624 42.8728 71.3864 42.6928 71.1104 42.5488C70.5584 42.2368 69.9344 42.0808 69.2984 42.0208C68.6624 41.9728 68.0024 42.0208 67.3544 42.1168C67.9784 41.8888 68.6384 41.7808 69.3104 41.7808C69.9824 41.7808 70.6664 41.9368 71.2544 42.2728C71.8424 42.5968 72.3584 43.0288 72.8384 43.4848C73.0784 43.7128 73.2944 43.9528 73.5224 44.1928C73.7504 44.4328 73.9784 44.6608 74.2424 44.8528H74.2304Z" fill="url(#paint36_linear_1_253)"/>
<path opacity="0.06" d="M77.9504 52.4487C77.6864 53.4687 75.9584 53.9127 74.0864 53.4327C72.2144 52.9527 70.9184 51.7287 71.1824 50.7087C71.4464 49.6887 73.1744 49.2447 75.0464 49.7247C76.9184 50.2047 78.2144 51.4287 77.9504 52.4487Z" fill="url(#paint37_radial_1_253)"/>
<path opacity="0.12" d="M77.8065 52.4127C77.5545 53.3967 75.8985 53.8167 74.1225 53.3487C72.3345 52.8927 71.0985 51.7167 71.3505 50.7447C71.6025 49.7607 73.2585 49.3407 75.0345 49.8087C76.8225 50.2647 78.0585 51.4407 77.8065 52.4127Z" fill="url(#paint38_radial_1_253)"/>
<path opacity="0.19" d="M77.6624 52.3767C77.4224 53.3127 75.8504 53.7087 74.1464 53.2767C72.4424 52.8327 71.2544 51.7287 71.5064 50.7927C71.7464 49.8567 73.3184 49.4607 75.0224 49.8927C76.7264 50.3367 77.9144 51.4407 77.6624 52.3767Z" fill="url(#paint39_radial_1_253)"/>
<path opacity="0.25" d="M77.5064 52.3407C77.2784 53.2287 75.7784 53.6127 74.1584 53.1927C72.5384 52.7727 71.4104 51.7167 71.6384 50.8287C71.8664 49.9407 73.3664 49.5567 74.9864 49.9767C76.6064 50.3967 77.7344 51.4527 77.5064 52.3407Z" fill="url(#paint40_radial_1_253)"/>
<path opacity="0.31" d="M77.3625 52.3047C77.1465 53.1447 75.7185 53.5167 74.1825 53.1207C72.6465 52.7247 71.5785 51.7167 71.7945 50.8767C72.0105 50.0367 73.4385 49.6647 74.9745 50.0607C76.5105 50.4567 77.5785 51.4647 77.3625 52.3047Z" fill="url(#paint41_radial_1_253)"/>
<path opacity="0.38" d="M77.2065 52.2567C77.0025 53.0607 75.6585 53.3967 74.1945 53.0247C72.7425 52.6527 71.7225 51.6927 71.9265 50.9007C72.1305 50.0967 73.4745 49.7607 74.9385 50.1327C76.3905 50.5047 77.4105 51.4647 77.2065 52.2567Z" fill="url(#paint42_radial_1_253)"/>
<path opacity="0.44" d="M77.0624 52.2208C76.8704 52.9768 75.5984 53.3008 74.2184 52.9408C72.8504 52.5808 71.8904 51.6928 72.0824 50.9368C72.2744 50.1808 73.5464 49.8568 74.9264 50.2168C76.2944 50.5768 77.2544 51.4648 77.0624 52.2208Z" fill="url(#paint43_radial_1_253)"/>
<path opacity="0.5" d="M76.9185 52.1848C76.7385 52.8928 75.5385 53.1928 74.2545 52.8688C72.9585 52.5328 72.0705 51.6928 72.2505 50.9848C72.4305 50.2768 73.6305 49.9768 74.9145 50.3008C76.2105 50.6368 77.0985 51.4768 76.9185 52.1848Z" fill="url(#paint44_radial_1_253)"/>
<path opacity="0.56" d="M76.7625 52.1487C76.5945 52.8087 75.4785 53.0967 74.2665 52.7847C73.0545 52.4727 72.2145 51.6807 72.3825 51.0207C72.5505 50.3607 73.6785 50.0727 74.8785 50.3847C76.0905 50.6967 76.9305 51.4887 76.7625 52.1487Z" fill="url(#paint45_radial_1_253)"/>
<path opacity="0.62" d="M76.6184 52.1127C76.4624 52.7367 75.4184 53.0007 74.2904 52.7007C73.1624 52.4127 72.3824 51.6687 72.5384 51.0567C72.6944 50.4327 73.7384 50.1687 74.8664 50.4687C75.9944 50.7567 76.7744 51.5007 76.6184 52.1127Z" fill="url(#paint46_radial_1_253)"/>
<path opacity="0.69" d="M76.4625 52.0648C76.3185 52.6408 75.3465 52.8808 74.3025 52.6168C73.2585 52.3528 72.5265 51.6688 72.6825 51.0928C72.8265 50.5168 73.7985 50.2768 74.8425 50.5408C75.8865 50.8048 76.6185 51.4888 76.4625 52.0648Z" fill="url(#paint47_radial_1_253)"/>
<path opacity="0.75" d="M76.3185 52.0287C76.1865 52.5567 75.2865 52.7847 74.3265 52.5327C73.3665 52.2807 72.6945 51.6567 72.8265 51.1287C72.9585 50.6007 73.8585 50.3727 74.8185 50.6247C75.7785 50.8767 76.4505 51.5007 76.3185 52.0287Z" fill="url(#paint48_radial_1_253)"/>
<path opacity="0.81" d="M76.1625 51.9927C76.0425 52.4727 75.2265 52.6887 74.3385 52.4607C73.4625 52.2327 72.8505 51.6567 72.9705 51.1767C73.0905 50.6967 73.9065 50.4807 74.7945 50.7087C75.6705 50.9367 76.2825 51.5127 76.1625 51.9927Z" fill="url(#paint49_radial_1_253)"/>
<path opacity="0.88" d="M76.0184 51.9568C75.9104 52.3888 75.1664 52.5808 74.3744 52.3768C73.5824 52.1728 73.0184 51.6448 73.1384 51.2128C73.2464 50.7808 73.9904 50.5888 74.7824 50.7928C75.5744 50.9968 76.1384 51.5248 76.0184 51.9568Z" fill="url(#paint50_radial_1_253)"/>
<path opacity="0.94" d="M75.8745 51.9208C75.7785 52.3168 75.1065 52.4847 74.3985 52.2927C73.6785 52.1127 73.1865 51.6447 73.2825 51.2487C73.3785 50.8527 74.0505 50.6847 74.7585 50.8767C75.4785 51.0567 75.9705 51.5248 75.8745 51.9208Z" fill="url(#paint51_radial_1_253)"/>
<path d="M75.7184 51.8728C75.6344 52.2208 75.0465 52.3648 74.4105 52.2088C73.7745 52.0408 73.3424 51.6327 73.4264 51.2847C73.5104 50.9367 74.0984 50.7928 74.7344 50.9488C75.3704 51.1168 75.8024 51.5248 75.7184 51.8728Z" fill="#F17461"/>
<path d="M70.7743 53.3848C71.3503 53.3248 74.8543 54.5488 74.9863 55.0048C75.1183 55.4608 71.8183 59.0848 71.4943 59.1448C71.1703 59.2048 67.1623 58.4968 66.7663 58.0408C66.3823 57.5848 70.1983 53.4448 70.7743 53.3848Z" fill="url(#paint52_linear_1_253)"/>
<path d="M70.7624 53.2888C70.8944 53.2888 71.0023 53.2888 71.1223 53.3128C71.2303 53.3368 71.3503 53.3488 71.4583 53.3728C71.6743 53.4208 71.8903 53.4688 72.1063 53.5288C72.5383 53.6488 72.9583 53.8048 73.3663 53.9728C73.7743 54.1528 74.1703 54.3448 74.5663 54.5608C74.6623 54.6208 74.7584 54.6808 74.8544 54.7408C74.9024 54.7768 74.9504 54.8128 74.9864 54.8608L75.0224 54.8968C75.0224 54.8968 75.0464 54.9328 75.0464 54.9448C75.0584 54.9808 75.0584 55.0408 75.0464 55.0648C75.0104 55.1968 74.9624 55.2928 74.9024 55.3888C74.8424 55.4848 74.7823 55.5808 74.7224 55.6768C74.2063 56.4088 73.6303 57.0688 73.0423 57.7408C72.7543 58.0768 72.4543 58.4008 72.1423 58.7128C71.9863 58.8688 71.8303 59.0248 71.6384 59.1808C71.6024 59.2048 71.5903 59.2168 71.5423 59.2408C71.5183 59.2408 71.4944 59.2528 71.4704 59.2528C71.4464 59.2528 71.4343 59.2528 71.4223 59.2528C71.3623 59.2528 71.3023 59.2528 71.2423 59.2528L70.9063 59.2288C70.4623 59.1928 70.0183 59.1448 69.5743 59.0728C69.1303 59.0008 68.6984 58.9048 68.2784 58.7848C67.8464 58.6528 67.4263 58.5088 67.0063 58.3168C66.8983 58.2688 66.8023 58.2208 66.6823 58.1128C66.6823 58.1128 66.6703 58.1128 66.6583 58.0888C66.6583 58.0888 66.6463 58.0648 66.6343 58.0528C66.6343 58.0288 66.6104 58.0048 66.6104 57.9808C66.6104 57.9328 66.6104 57.8968 66.6104 57.8608C66.6224 57.7888 66.6464 57.7288 66.6704 57.6808C66.7664 57.4648 66.8863 57.2728 67.0183 57.0928C67.5343 56.3608 68.1104 55.6888 68.7104 55.0408C69.0104 54.7168 69.3224 54.3928 69.6464 54.0928C69.8024 53.9368 69.9704 53.7928 70.1384 53.6488C70.2224 53.5768 70.3183 53.5048 70.4143 53.4448C70.4623 53.4088 70.5104 53.3848 70.5704 53.3608C70.6304 53.3368 70.6784 53.3008 70.7624 53.2888ZM70.7864 53.4688C70.7864 53.4688 70.7143 53.4928 70.6663 53.5168C70.6183 53.5408 70.5823 53.5768 70.5343 53.6128L70.2823 53.8168C70.1143 53.9608 69.9583 54.1048 69.7903 54.2608C69.4783 54.5608 69.1663 54.8848 68.8663 55.1968C68.5663 55.5208 68.2663 55.8448 67.9903 56.1808C67.7023 56.5168 67.4384 56.8648 67.1864 57.2248C67.0664 57.4048 66.9463 57.5968 66.8743 57.7768C66.8383 57.8608 66.8263 57.9808 66.8383 57.9688C66.8863 58.0168 66.9943 58.0648 67.0903 58.1008C67.2823 58.1728 67.4983 58.2328 67.7143 58.2688C67.9303 58.3168 68.1464 58.3528 68.3624 58.4008C68.7944 58.4848 69.2264 58.5688 69.6464 58.6648C70.0784 58.7608 70.4983 58.8688 70.9303 58.9528C71.0384 58.9768 71.1464 58.9888 71.2544 59.0008C71.3024 59.0008 71.3624 59.0008 71.4104 59.0128C71.4704 59.0128 71.4344 59.0128 71.4944 58.9888C71.6504 58.8688 71.8183 58.7128 71.9743 58.5688C72.2863 58.2688 72.5983 57.9448 72.8983 57.6208C73.1983 57.2968 73.4983 56.9728 73.7743 56.6368C74.0623 56.3008 74.3383 55.9528 74.5903 55.6048C74.6503 55.5208 74.7104 55.4248 74.7704 55.3288C74.8304 55.2328 74.8783 55.1368 74.8903 55.0528C74.9143 55.0048 74.8304 54.9328 74.7464 54.8728C74.6624 54.8128 74.5664 54.7528 74.4704 54.7048C74.0864 54.5008 73.6663 54.3568 73.2583 54.2128L72.0104 53.7928C71.8064 53.7208 71.5904 53.6488 71.3864 53.5888C71.2784 53.5528 71.1823 53.5288 71.0743 53.5048C70.9663 53.4808 70.8583 53.4688 70.7743 53.4688H70.7864Z" fill="url(#paint53_linear_1_253)"/>
<path d="M94.6304 38.8528C93.8984 39.8968 90.7664 41.1928 88.2104 39.9688C84.0344 37.9768 82.8104 34.7848 81.6584 32.8648C79.2344 37.1968 73.2824 37.5568 67.7984 36.2608C67.6064 36.2488 67.5584 36.1888 67.6424 36.1048C67.9664 35.7208 70.3424 34.6768 72.0704 33.4408C72.0704 33.4408 72.0824 33.4408 72.0944 33.4288C72.9224 32.8288 73.5944 32.1808 73.8104 31.5448C72.2624 33.0208 68.4944 35.3848 64.5464 35.6248C63.4304 35.5288 61.5944 41.5408 61.3904 42.1408C61.1864 42.7408 59.5784 42.4408 59.6864 41.2768C59.8064 39.9088 58.2704 41.8528 56.7104 46.4248C56.6024 46.7488 53.2304 43.5928 53.2064 42.4288C53.1344 39.9328 55.2224 28.5088 57.1424 23.5528C57.4544 22.7488 57.7544 22.1248 58.0424 21.7288C60.7304 18.0568 74.0024 15.8608 75.7904 16.7248C76.3664 17.0008 76.8704 17.3368 77.3264 17.6728C78.4784 18.5368 79.3064 19.4728 80.0384 19.7248C80.6144 19.9168 81.4784 19.9168 82.4144 20.0248C83.1704 20.1088 83.9624 20.2648 84.6824 20.6368C87.4664 22.0768 90.0464 25.9288 91.3904 30.0808C92.5064 33.5128 92.1584 37.2208 94.3424 37.9648C94.8584 38.1448 94.9064 38.4808 94.6304 38.8648V38.8528Z" fill="url(#paint54_linear_1_253)"/>
<path style="mix-blend-mode:multiply" opacity="0.5" d="M64.5344 35.6008C63.4184 35.5048 61.5824 41.5168 61.3784 42.1168C61.1744 42.7168 59.5664 42.4168 59.6744 41.2528C59.7944 39.8848 58.2584 41.8288 56.6984 46.4008C56.5904 46.7248 53.2184 43.5688 53.1944 42.4048C53.1224 39.9088 55.2104 28.4848 57.1304 23.5288C58.5584 27.7528 62.4224 33.9688 63.8144 34.5568C66.5744 35.7088 72.7664 32.0248 74.2544 30.8128C73.7624 32.0248 72.9944 32.8048 72.0824 33.4048C72.9104 32.8048 73.5824 32.1568 73.7984 31.5208C72.2504 32.9968 68.4824 35.3608 64.5344 35.6008Z" fill="url(#paint55_linear_1_253)"/>
<path style="mix-blend-mode:multiply" opacity="0.5" d="M77.3145 17.6488C78.4665 18.5128 79.2945 19.4488 80.0265 19.7008C80.6025 19.8928 81.4665 19.8928 82.4025 20.0008C81.0345 20.6128 81.3225 22.0528 80.5065 23.5888C80.0385 24.4648 79.4745 19.8928 77.3025 17.6488H77.3145Z" fill="url(#paint56_linear_1_253)"/>
<path style="mix-blend-mode:multiply" opacity="0.5" d="M94.6305 38.8528C93.8985 39.8968 90.7665 41.1928 88.2105 39.9688C84.0345 37.9768 82.8105 34.7848 81.6585 32.8648C79.2345 37.1968 73.2825 37.5568 67.7985 36.2608C67.6065 36.2488 67.5585 36.1888 67.6425 36.1048C70.7505 36.5008 78.9225 37.5688 81.9705 31.7368C83.6265 35.2048 89.4345 40.3408 94.6305 38.8528Z" fill="url(#paint57_linear_1_253)"/>
<g style="mix-blend-mode:screen" opacity="0.5">
<path style="mix-blend-mode:screen" d="M68.8904 31.3408C68.0384 30.4768 67.1984 29.6248 66.4184 28.7248C65.6384 27.8248 64.9064 26.8888 64.2704 25.9048C63.6344 24.9208 63.0824 23.8768 62.6264 22.7968C62.1704 21.7168 62.0144 21.2728 61.6904 20.1328C61.7144 21.3208 61.7264 21.8368 62.0864 22.9888C62.4464 24.1528 62.9864 25.2688 63.6464 26.3008C64.3184 27.3328 65.1104 28.2808 65.9984 29.1208C66.8864 29.9608 67.8584 30.7168 68.8904 31.3408Z" fill="url(#paint58_linear_1_253)"/>
</g>
<path d="M60.2025 41.7928C60.6945 40.0768 60.8744 38.8768 60.7424 37.8808C60.5504 36.3808 59.7225 34.8568 58.4145 34.6528C55.1144 34.1368 53.4824 39.2008 54.5984 41.8648C55.3904 43.7488 58.6905 47.0128 60.2025 41.7928Z" fill="url(#paint59_linear_1_253)"/>
<path opacity="0.09" d="M57.1544 37.4969C58.1864 37.7009 60.0224 39.7889 59.5664 41.5529C59.3264 40.8449 57.9104 40.4249 57.2624 40.2329C57.7184 40.1369 58.1024 40.3049 58.5344 40.4009C58.3544 39.5609 57.6824 38.1689 57.1544 37.4849V37.4969Z" fill="url(#paint60_linear_1_253)"/>
<path opacity="0.18" d="M57.1544 37.4969C58.1864 37.7009 60.0224 39.7889 59.5664 41.5529C59.2544 40.9409 57.9104 40.4249 57.2624 40.2329C57.7304 40.1369 58.1024 40.3529 58.5584 40.4609C58.4384 39.5249 57.6704 38.1209 57.1544 37.4849V37.4969Z" fill="url(#paint61_linear_1_253)"/>
<path opacity="0.27" d="M57.1664 37.4968C58.1984 37.7008 60.0344 39.7888 59.5784 41.5528C59.1944 41.0368 57.9224 40.4368 57.2744 40.2448C57.7424 40.1488 58.1144 40.4248 58.5944 40.5328C58.5344 39.5008 57.6704 38.0968 57.1664 37.4968Z" fill="url(#paint62_linear_1_253)"/>
<path opacity="0.36" d="M57.1664 37.4968C58.1984 37.7008 60.0224 39.7888 59.5664 41.5528C59.1104 41.1328 57.9104 40.4368 57.2624 40.2448C57.7424 40.1608 58.1024 40.4728 58.6064 40.6048C58.6064 39.4768 57.6464 38.0728 57.1664 37.4968Z" fill="url(#paint63_linear_1_253)"/>
<path opacity="0.45" d="M57.1664 37.4849C58.1984 37.6889 60.0224 39.7769 59.5664 41.5529C59.0384 41.2289 57.9104 40.4369 57.2624 40.2449C57.7424 40.1609 58.1024 40.5209 58.6424 40.6649C58.6904 39.4409 57.6464 38.0249 57.1784 37.4969L57.1664 37.4849Z" fill="url(#paint64_linear_1_253)"/>
<path opacity="0.55" d="M57.1785 37.4849C58.2105 37.6889 60.0345 39.7769 59.5785 41.5529C58.9905 41.3249 57.9225 40.4369 57.2745 40.2449C57.7665 40.1609 58.1145 40.5809 58.6785 40.7249C58.7865 39.4049 57.6465 37.9889 57.1905 37.4969L57.1785 37.4849Z" fill="url(#paint65_linear_1_253)"/>
<path opacity="0.64" d="M57.1785 37.4849C58.2105 37.6889 60.0225 39.7769 59.5665 41.5529C58.9065 41.4089 57.9105 40.4369 57.2625 40.2449C57.7545 40.1609 58.1145 40.6289 58.6905 40.7849C58.8465 39.3689 57.6225 37.9529 57.1785 37.4849Z" fill="url(#paint66_linear_1_253)"/>
<path opacity="0.73" d="M57.1904 37.4849C58.2224 37.6889 60.0344 39.7769 59.5784 41.5529C58.8464 41.5049 57.9224 40.4489 57.2744 40.2569C57.7784 40.1849 58.1264 40.6889 58.7264 40.8569C58.9424 39.3449 57.6224 37.9169 57.1904 37.4969V37.4849Z" fill="url(#paint67_linear_1_253)"/>
<path opacity="0.82" d="M57.1905 37.4849C58.2225 37.6889 60.0225 39.7769 59.5665 41.5529C58.7625 41.6009 57.9105 40.4489 57.2625 40.2569C57.7785 40.1849 58.1145 40.7369 58.7385 40.9169C59.0145 39.3089 57.5985 37.8809 57.1785 37.4969L57.1905 37.4849Z" fill="url(#paint68_linear_1_253)"/>
<path opacity="0.91" d="M57.1904 37.4849C58.2224 37.6889 60.0224 39.7769 59.5664 41.5529C58.6904 41.6969 57.9104 40.4489 57.2624 40.2569C57.7784 40.1849 58.1144 40.7969 58.7744 40.9769C59.0984 39.2729 57.5984 37.8449 57.1904 37.4849Z" fill="url(#paint69_linear_1_253)"/>
<path d="M58.7984 41.0369C59.1824 39.2369 57.5864 37.7969 57.2024 37.4849C58.2344 37.6889 60.0344 39.7769 59.5784 41.5529C58.6304 41.7929 57.9224 40.4489 57.2744 40.2569C57.8024 40.1969 58.1264 40.8449 58.8104 41.0369H58.7984Z" fill="url(#paint70_linear_1_253)"/>
<path opacity="0.05" d="M58.5345 38.4929C58.9905 39.0089 59.7945 40.3529 59.5665 41.5529C59.1825 41.6969 58.7985 41.5169 58.0905 40.8689L58.5345 38.4929Z" fill="url(#paint71_linear_1_253)"/>
<path opacity="0.1" d="M58.5585 38.517C59.0025 39.021 59.7945 40.353 59.5665 41.553C59.1825 41.697 58.7985 41.517 58.1145 40.893L58.5585 38.517Z" fill="url(#paint72_linear_1_253)"/>
<path opacity="0.14" d="M58.5824 38.5409C59.0144 39.0329 59.8064 40.3529 59.5784 41.5529C59.2064 41.6849 58.8224 41.5289 58.1504 40.9169L58.5824 38.5409Z" fill="url(#paint73_linear_1_253)"/>
<path opacity="0.19" d="M58.5945 38.5769C59.0145 39.0569 59.7945 40.3529 59.5665 41.5529C59.2065 41.6849 58.8225 41.5289 58.1625 40.9409L58.5825 38.5769H58.5945Z" fill="url(#paint74_linear_1_253)"/>
<path opacity="0.24" d="M58.6185 38.601C59.0265 39.069 59.7945 40.353 59.5665 41.553C59.2065 41.673 58.8225 41.541 58.1985 40.965L58.6185 38.601Z" fill="url(#paint75_linear_1_253)"/>
<path opacity="0.29" d="M58.6425 38.6249C59.0505 39.0809 59.7945 40.3529 59.5785 41.5529C59.2305 41.6729 58.8465 41.5529 58.2345 40.9889L58.6425 38.6369V38.6249Z" fill="url(#paint76_linear_1_253)"/>
<path opacity="0.33" d="M58.6545 38.6489C59.0505 39.0929 59.7945 40.3529 59.5665 41.5529C59.2305 41.6729 58.8465 41.5529 58.2465 41.0129L58.6545 38.6609V38.6489Z" fill="url(#paint77_linear_1_253)"/>
<path opacity="0.38" d="M58.6785 38.6848C59.0625 39.1168 59.7945 40.3528 59.5665 41.5528C59.2305 41.6608 58.8465 41.5529 58.2825 41.0249L58.6785 38.6729V38.6848Z" fill="url(#paint78_linear_1_253)"/>
<path opacity="0.43" d="M58.7025 38.7089C59.0745 39.1289 59.7945 40.3529 59.5785 41.5529C59.2545 41.6609 58.8705 41.5529 58.3185 41.0489L58.7025 38.7089Z" fill="url(#paint79_linear_1_253)"/>
<path opacity="0.48" d="M58.7144 38.7329C59.0744 39.1409 59.7944 40.3529 59.5664 41.5529C59.2544 41.6609 58.8704 41.5649 58.3304 41.0729L58.7144 38.7329Z" fill="url(#paint80_linear_1_253)"/>
<path opacity="0.52" d="M58.7385 38.769C59.0865 39.165 59.7945 40.365 59.5665 41.553C59.2545 41.649 58.8705 41.577 58.3545 41.097L58.7265 38.757L58.7385 38.769Z" fill="url(#paint81_linear_1_253)"/>
<path opacity="0.57" d="M58.7625 38.793C59.0985 39.177 59.7945 40.353 59.5785 41.553C59.2785 41.649 58.8945 41.577 58.4025 41.121L58.7745 38.793H58.7625Z" fill="url(#paint82_linear_1_253)"/>
<path opacity="0.62" d="M58.7864 38.8169C59.1104 39.1889 59.8064 40.3529 59.5784 41.5529C59.2904 41.6489 58.8944 41.5889 58.4264 41.1449L58.7864 38.8169Z" fill="url(#paint83_linear_1_253)"/>
<path opacity="0.67" d="M58.7985 38.8409C59.1105 39.2009 59.7945 40.3529 59.5665 41.5529C59.2785 41.6369 58.8945 41.5889 58.4385 41.1689L58.7985 38.8409Z" fill="url(#paint84_linear_1_253)"/>
<path opacity="0.71" d="M58.8225 38.877C59.1225 39.225 59.7945 40.353 59.5665 41.553C59.2905 41.637 58.9065 41.601 58.4745 41.193L58.8225 38.877Z" fill="url(#paint85_linear_1_253)"/>
<path opacity="0.76" d="M58.8465 38.9009C59.1345 39.2369 59.8065 40.3529 59.5785 41.5529C59.3145 41.6369 58.9185 41.6009 58.5105 41.2169L58.8465 38.9009Z" fill="url(#paint86_linear_1_253)"/>
<path opacity="0.81" d="M58.8585 38.9249C59.1345 39.2489 59.7945 40.3529 59.5665 41.5529C59.3025 41.6249 58.9185 41.6129 58.5225 41.2409L58.8585 38.9369V38.9249Z" fill="url(#paint87_linear_1_253)"/>
<path opacity="0.86" d="M58.8824 38.9489C59.1464 39.2609 59.7944 40.3529 59.5664 41.5529C59.3144 41.6249 58.9304 41.6129 58.5464 41.2649L58.8704 38.9609L58.8824 38.9489Z" fill="url(#paint88_linear_1_253)"/>
<path opacity="0.9" d="M58.9065 38.9849C59.1585 39.2849 59.7945 40.3529 59.5785 41.5529C59.3385 41.6249 58.9425 41.6249 58.5945 41.2769L58.9185 38.9729L58.9065 38.9849Z" fill="url(#paint89_linear_1_253)"/>
<path opacity="0.95" d="M58.9184 39.0089C59.1704 39.2969 59.7944 40.3529 59.5664 41.5529C59.3264 41.6129 58.9424 41.6369 58.6064 41.3009L58.9184 39.0089Z" fill="url(#paint90_linear_1_253)"/>
<path d="M58.9425 39.033C59.1825 39.309 59.7945 40.353 59.5665 41.553C59.3385 41.613 58.9425 41.637 58.6305 41.325L58.9305 39.033H58.9425Z" fill="url(#paint91_linear_1_253)"/>
<path d="M59.4584 41.4209C59.8784 40.3289 58.3664 37.7369 57.1904 37.4849C58.3664 37.7369 60.0584 40.0169 59.5664 41.5529C59.1104 41.6729 58.8584 41.5169 58.6304 41.3249C58.8824 41.3969 59.2064 41.4569 59.4584 41.4209Z" fill="url(#paint92_linear_1_253)"/>
<path d="M95.2785 70.5088C95.2425 71.2528 94.9425 72.0088 94.5945 72.6808C94.2705 73.3168 93.8865 73.8688 93.6465 74.2648C93.1425 75.0688 90.6344 79.5328 83.0384 80.3848C70.1264 81.8248 51.5024 73.6648 49.8344 73.4608C49.7504 73.4608 49.6784 73.4248 49.6184 73.3888C49.3064 73.2088 49.1504 72.6928 49.1264 72.0208C49.0784 69.9448 50.3385 66.3088 52.1145 66.0088C52.2825 65.9848 52.5344 65.9488 52.8584 65.9008C53.0504 65.8768 53.2664 65.8408 53.5184 65.8168C55.9304 65.5168 60.6345 65.0368 65.5065 64.5808C70.6785 64.1008 76.0305 63.6448 79.0305 63.4888C85.6185 63.1288 90.2625 64.1368 92.2785 65.8528C94.2945 67.5688 95.3265 69.6448 95.2905 70.5088H95.2785Z" fill="url(#paint93_linear_1_253)"/>
<path d="M42.5984 59.2887C44.2784 59.3127 49.3784 58.3527 50.0144 58.7847C50.8424 59.3607 53.6144 65.5407 53.7464 66.3087C53.8904 67.0887 50.3144 68.0607 48.8864 66.9687C47.4584 65.8767 47.8784 62.8167 47.0744 62.4687C46.2704 62.1207 44.4944 61.9287 43.3184 61.8927C42.1424 61.8567 41.7104 59.2767 42.5864 59.2887H42.5984Z" fill="url(#paint94_linear_1_253)"/>
<path d="M53.8184 67.3887C53.7224 68.7927 53.1464 71.2047 51.5144 72.5727C51.3584 72.7047 51.1904 72.8247 51.0224 72.9327C50.6864 73.1487 50.2064 73.2927 49.6184 73.3887C45.8264 74.0127 37.7624 72.3207 36.3704 70.9887C36.2624 70.8807 36.2024 70.7847 36.1784 70.6887C35.8064 69.1407 39.4064 58.0887 40.5704 57.9207C41.7344 57.7647 43.4744 58.2567 45.3344 59.1327C46.1024 59.4927 51.2024 62.0967 52.0424 62.6847C52.1024 62.7207 52.1504 62.7687 52.1984 62.8167C52.2104 62.8287 52.2224 62.8407 52.2344 62.8527C52.8464 63.4887 53.0984 64.8567 53.4944 65.8047C53.5664 65.9847 53.6504 66.1527 53.7344 66.2967C53.8064 66.4167 53.8424 66.8127 53.8064 67.3647L53.8184 67.3887Z" fill="url(#paint95_linear_1_253)"/>
<path style="mix-blend-mode:multiply" d="M94.5944 72.6808C94.2704 73.3168 93.8864 73.8688 93.6464 74.2648C93.1424 75.0688 90.6344 79.5328 83.0384 80.3848C70.1264 81.8248 51.5024 73.6648 49.8344 73.4608C49.7504 73.4608 49.6784 73.4248 49.6184 73.3888C45.8264 74.0128 37.7624 72.3208 36.3704 70.9888C36.5144 71.0248 36.6704 71.0728 36.8384 71.1208C42.0704 72.7168 46.7264 72.0328 49.1264 72.0208C49.7264 72.0208 50.1824 72.0568 50.4704 72.1888C50.6264 72.2488 50.9744 72.3808 51.5024 72.5728C56.2064 74.2048 74.5664 79.9168 82.2704 79.3408C89.0384 78.8248 92.9624 74.9728 94.5944 72.6928V72.6808Z" fill="url(#paint96_linear_1_253)"/>
<path style="mix-blend-mode:multiply" d="M65.4945 64.5807C62.7585 65.0967 59.4345 65.7207 57.4785 66.0087C55.8465 66.2607 54.6345 66.8727 53.8185 67.3767C52.7625 68.0367 52.3785 68.5047 52.5945 67.7247C52.7265 67.2567 52.8225 66.5847 52.8585 65.9007C52.9065 64.7127 52.7745 63.4287 52.2465 62.8647C52.8585 63.5007 53.1105 64.8687 53.5065 65.8167C55.9185 65.5167 60.6225 65.0367 65.4945 64.5807Z" fill="url(#paint97_linear_1_253)"/>
</g>
</g>
<defs>
<linearGradient id="paint0_linear_1_253" x1="0.214417" y1="60.1407" x2="120.214" y2="60.1407" gradientUnits="userSpaceOnUse">
<stop stop-color="#CCE9F1"/>
<stop offset="1" stop-color="#D0E1E7"/>
</linearGradient>
<linearGradient id="paint1_linear_1_253" x1="92.5545" y1="65.5768" x2="75.2745" y2="76.3528" gradientUnits="userSpaceOnUse">
<stop stop-color="#24BEBE"/>
<stop offset="1" stop-color="#228686"/>
</linearGradient>
<linearGradient id="paint2_linear_1_253" x1="61.5225" y1="54.9808" x2="74.9625" y2="42.6688" gradientUnits="userSpaceOnUse">
<stop stop-color="#FF8533"/>
<stop offset="1" stop-color="#FFA973"/>
</linearGradient>
<linearGradient id="paint3_linear_1_253" x1="61.5345" y1="54.9688" x2="74.9625" y2="42.6688" gradientUnits="userSpaceOnUse">
<stop stop-color="#FFECDF"/>
<stop offset="1" stop-color="#E5A480"/>
</linearGradient>
<linearGradient id="paint4_linear_1_253" x1="76.1864" y1="53.1688" x2="40.7864" y2="108.333" gradientUnits="userSpaceOnUse">
<stop stop-color="#24BEBE"/>
<stop offset="1" stop-color="#228686"/>
</linearGradient>
<linearGradient id="paint5_linear_1_253" x1="58.5824" y1="121.125" x2="50.4584" y2="80.5048" gradientUnits="userSpaceOnUse">
<stop stop-color="#0BBEBE"/>
<stop offset="1" stop-color="#228686"/>
</linearGradient>
<linearGradient id="paint6_linear_1_253" x1="52.8224" y1="57.5969" x2="75.0464" y2="57.5969" gradientUnits="userSpaceOnUse">
<stop stop-color="#146969"/>
<stop offset="1" stop-color="#1A6969"/>
</linearGradient>
<linearGradient id="paint7_linear_1_253" x1="23.0744" y1="68.6968" x2="42.6464" y2="75.9088" gradientUnits="userSpaceOnUse">
<stop stop-color="#FF8533"/>
<stop offset="1" stop-color="#FFA973"/>
</linearGradient>
<linearGradient id="paint8_linear_1_253" x1="23.2305" y1="68.2648" x2="42.8025" y2="75.4888" gradientUnits="userSpaceOnUse">
<stop stop-color="#FFECDF"/>
<stop offset="1" stop-color="#E5A480"/>
</linearGradient>
<linearGradient id="paint9_linear_1_253" x1="29.5544" y1="102.261" x2="48.2624" y2="86.6608" gradientUnits="userSpaceOnUse">
<stop stop-color="#FF8533"/>
<stop offset="1" stop-color="#FFA973"/>
</linearGradient>
<linearGradient id="paint10_linear_1_253" x1="66.3922" y1="108.443" x2="67.6568" y2="105.764" gradientUnits="userSpaceOnUse">
<stop stop-color="#FF8533"/>
<stop offset="1" stop-color="#FFA973"/>
</linearGradient>
<linearGradient id="paint11_linear_1_253" x1="65.1749" y1="111.901" x2="66.4766" y2="107.648" gradientUnits="userSpaceOnUse">
<stop stop-color="#FF8533"/>
<stop offset="1" stop-color="#FFA973"/>
</linearGradient>
<linearGradient id="paint12_linear_1_253" x1="62.8142" y1="114.864" x2="64.3497" y2="112.009" gradientUnits="userSpaceOnUse">
<stop stop-color="#FF8533"/>
<stop offset="1" stop-color="#FFA973"/>
</linearGradient>
<linearGradient id="paint13_linear_1_253" x1="59.9473" y1="117.759" x2="62.64" y2="114.257" gradientUnits="userSpaceOnUse">
<stop stop-color="#FF8533"/>
<stop offset="1" stop-color="#FFA973"/>
</linearGradient>
<linearGradient id="paint14_linear_1_253" x1="59.0619" y1="104.184" x2="57.8875" y2="100.233" gradientUnits="userSpaceOnUse">
<stop stop-color="#FF8533"/>
<stop offset="1" stop-color="#FFA973"/>
</linearGradient>
<linearGradient id="paint15_linear_1_253" x1="42.8624" y1="119.685" x2="62.3024" y2="103.461" gradientUnits="userSpaceOnUse">
<stop stop-color="#FF8533"/>
<stop offset="1" stop-color="#FFA973"/>
</linearGradient>
<linearGradient id="paint16_linear_1_253" x1="17.3984" y1="97.0168" x2="65.2904" y2="114.705" gradientUnits="userSpaceOnUse">
<stop stop-color="#FFECDF"/>
<stop offset="1" stop-color="#E5A480"/>
</linearGradient>
<linearGradient id="paint17_linear_1_253" x1="93.2548" y1="91.6563" x2="84.7155" y2="74.7939" gradientUnits="userSpaceOnUse">
<stop stop-color="#21AFAF"/>
<stop offset="1" stop-color="#1D7373"/>
</linearGradient>
<linearGradient id="paint18_linear_1_253" x1="86.8544" y1="86.1208" x2="84.0464" y2="72.0568" gradientUnits="userSpaceOnUse">
<stop stop-color="#0BBEBE"/>
<stop offset="1" stop-color="#228686"/>
</linearGradient>
<linearGradient id="paint19_linear_1_253" x1="25.4144" y1="58.1607" x2="41.8904" y2="70.5567" gradientUnits="userSpaceOnUse">
<stop stop-color="#24BEBE"/>
<stop offset="1" stop-color="#228686"/>
</linearGradient>
<linearGradient id="paint20_linear_1_253" x1="33.4784" y1="83.0368" x2="29.6864" y2="64.0768" gradientUnits="userSpaceOnUse">
<stop stop-color="#0BBEBE"/>
<stop offset="1" stop-color="#228686"/>
</linearGradient>
<linearGradient id="paint21_linear_1_253" x1="49.6896" y1="49.2559" x2="88.0171" y2="34.5923" gradientUnits="userSpaceOnUse">
<stop stop-color="#FF8533"/>
<stop offset="1" stop-color="#FFA973"/>
</linearGradient>
<linearGradient id="paint22_linear_1_253" x1="86.7728" y1="52.0438" x2="52.4242" y2="29.1427" gradientUnits="userSpaceOnUse">
<stop stop-color="#FFECDF"/>
<stop offset="1" stop-color="#E5A480"/>
</linearGradient>
<linearGradient id="paint23_linear_1_253" x1="72.4679" y1="41.0831" x2="68.0163" y2="50.1645" gradientUnits="userSpaceOnUse">
<stop stop-color="#E57223"/>
<stop offset="1" stop-color="#FF9C5B"/>
</linearGradient>
<linearGradient id="paint24_linear_1_253" x1="82.6747" y1="45.2084" x2="78.5711" y2="52.1899" gradientUnits="userSpaceOnUse">
<stop stop-color="#E57223"/>
<stop offset="1" stop-color="#FF9C5B"/>
</linearGradient>
<linearGradient id="paint25_linear_1_253" x1="72.3894" y1="53.0244" x2="80.948" y2="40.3143" gradientUnits="userSpaceOnUse">
<stop stop-color="#FF8533"/>
<stop offset="1" stop-color="#FFA973"/>
</linearGradient>
<linearGradient id="paint26_linear_1_253" x1="74.0512" y1="51.5279" x2="73.1649" y2="53.0255" gradientUnits="userSpaceOnUse">
<stop stop-color="#ECDBCF"/>
<stop offset="1" stop-color="#BC927F"/>
</linearGradient>
<linearGradient id="paint27_linear_1_253" x1="71.8117" y1="51.8336" x2="71.349" y2="53.0977" gradientUnits="userSpaceOnUse">
<stop stop-color="#70220D"/>
<stop offset="1" stop-color="#CB684F"/>
</linearGradient>
<linearGradient id="paint28_linear_1_253" x1="75.6826" y1="53.2191" x2="74.889" y2="54.2684" gradientUnits="userSpaceOnUse">
<stop stop-color="#70220D"/>
<stop offset="1" stop-color="#CB684F"/>
</linearGradient>
<linearGradient id="paint29_linear_1_253" x1="68.0065" y1="39.1109" x2="76.8226" y2="42.8494" gradientUnits="userSpaceOnUse">
<stop stop-color="#693B26"/>
<stop offset="0.35" stop-color="#633722"/>
<stop offset="0.79" stop-color="#542B18"/>
<stop offset="1" stop-color="#4A2412"/>
</linearGradient>
<linearGradient id="paint30_linear_1_253" x1="58.4005" y1="40.428" x2="65.3738" y2="42.3973" gradientUnits="userSpaceOnUse">
<stop stop-color="#693B26"/>
<stop offset="0.35" stop-color="#633722"/>
<stop offset="0.79" stop-color="#542B18"/>
<stop offset="1" stop-color="#4A2412"/>
</linearGradient>
<linearGradient id="paint31_linear_1_253" x1="66.8972" y1="44.1422" x2="74.128" y2="44.915" gradientUnits="userSpaceOnUse">
<stop stop-color="#1F0D00"/>
<stop offset="1" stop-color="#421E08"/>
</linearGradient>
<linearGradient id="paint32_linear_1_253" x1="78.026" y1="47.5884" x2="82.5295" y2="50.1561" gradientUnits="userSpaceOnUse">
<stop stop-color="#1F0D00"/>
<stop offset="1" stop-color="#421E08"/>
</linearGradient>
<linearGradient id="paint33_linear_1_253" x1="75.0364" y1="42.2882" x2="80.5751" y2="42.5531" gradientUnits="userSpaceOnUse">
<stop stop-color="#70220D"/>
<stop offset="1" stop-color="#CB684F"/>
</linearGradient>
<linearGradient id="paint34_linear_1_253" x1="81.4098" y1="44.828" x2="75.8857" y2="41.8424" gradientUnits="userSpaceOnUse">
<stop stop-color="#70220D"/>
<stop offset="1" stop-color="#CB684F"/>
</linearGradient>
<linearGradient id="paint35_linear_1_253" x1="80.6231" y1="48.9448" x2="82.0323" y2="45.4799" gradientUnits="userSpaceOnUse">
<stop stop-color="#70220D"/>
<stop offset="1" stop-color="#CB684F"/>
</linearGradient>
<linearGradient id="paint36_linear_1_253" x1="70.4465" y1="44.5819" x2="71.6323" y2="40.714" gradientUnits="userSpaceOnUse">
<stop stop-color="#70220D"/>
<stop offset="1" stop-color="#CB684F"/>
</linearGradient>
<radialGradient id="paint37_radial_1_253" cx="0" cy="0" r="1" gradientUnits="userSpaceOnUse" gradientTransform="translate(74.4483 51.2327) rotate(13.57) scale(2.928 2.54736)">
<stop stop-color="#F47263"/>
<stop offset="0.72" stop-color="#F27665"/>
<stop offset="1" stop-color="#F17A68"/>
</radialGradient>
<radialGradient id="paint38_radial_1_253" cx="0" cy="0" r="1" gradientUnits="userSpaceOnUse" gradientTransform="translate(73.9363 52.5887) rotate(12.67) scale(2.796 2.46048)">
<stop stop-color="#F47263"/>
<stop offset="0.77" stop-color="#F27665"/>
<stop offset="1" stop-color="#F17967"/>
</radialGradient>
<radialGradient id="paint39_radial_1_253" cx="0" cy="0" r="1" gradientUnits="userSpaceOnUse" gradientTransform="translate(74.4328 49.4534) rotate(11.77) scale(2.664 2.34432)">
<stop stop-color="#F37263"/>
<stop offset="0.77" stop-color="#F17665"/>
<stop offset="1" stop-color="#F17967"/>
</radialGradient>
<radialGradient id="paint40_radial_1_253" cx="0" cy="0" r="1" gradientUnits="userSpaceOnUse" gradientTransform="translate(70.9016 49.9856) rotate(10.87) scale(2.50668 2.25348)">
<stop stop-color="#F37363"/>
<stop offset="0.84" stop-color="#F17765"/>
<stop offset="1" stop-color="#F17966"/>
</radialGradient>
<radialGradient id="paint41_radial_1_253" cx="0" cy="0" r="1" gradientUnits="userSpaceOnUse" gradientTransform="translate(70.9195 50.9754) rotate(9.96001) scale(2.376 2.16)">
<stop stop-color="#F37362"/>
<stop offset="0.92" stop-color="#F17765"/>
<stop offset="1" stop-color="#F17866"/>
</radialGradient>
<radialGradient id="paint42_radial_1_253" cx="0" cy="0" r="1" gradientUnits="userSpaceOnUse" gradientTransform="translate(71.0475 51.7514) rotate(9.04999) scale(2.23344 2.05296)">
<stop stop-color="#F37362"/>
<stop offset="0.92" stop-color="#F17764"/>
<stop offset="1" stop-color="#F17865"/>
</radialGradient>
<radialGradient id="paint43_radial_1_253" cx="0" cy="0" r="1" gradientUnits="userSpaceOnUse" gradientTransform="translate(71.2293 52.3529) rotate(8.14) scale(2.10276 1.95408)">
<stop stop-color="#F37362"/>
<stop offset="1" stop-color="#F17765"/>
</radialGradient>
<radialGradient id="paint44_radial_1_253" cx="0" cy="0" r="1" gradientUnits="userSpaceOnUse" gradientTransform="translate(71.7924 49.9234) rotate(7.24) scale(1.97208 1.83264)">
<stop stop-color="#F37362"/>
<stop offset="1" stop-color="#F17765"/>
</radialGradient>
<radialGradient id="paint45_radial_1_253" cx="0" cy="0" r="1" gradientUnits="userSpaceOnUse" gradientTransform="translate(72.0322 50.4706) rotate(6.33) scale(1.8414 1.7298)">
<stop stop-color="#F27362"/>
<stop offset="1" stop-color="#F17764"/>
</radialGradient>
<radialGradient id="paint46_radial_1_253" cx="0" cy="0" r="1" gradientUnits="userSpaceOnUse" gradientTransform="translate(72.3097 50.879) rotate(5.42) scale(1.71072 1.62432)">
<stop stop-color="#F27362"/>
<stop offset="1" stop-color="#F17664"/>
</radialGradient>
<radialGradient id="paint47_radial_1_253" cx="0" cy="0" r="1" gradientUnits="userSpaceOnUse" gradientTransform="translate(72.6143 51.1767) rotate(4.51) scale(1.59192 1.5276)">
<stop stop-color="#F27362"/>
<stop offset="1" stop-color="#F17663"/>
</radialGradient>
<radialGradient id="paint48_radial_1_253" cx="0" cy="0" r="1" gradientUnits="userSpaceOnUse" gradientTransform="translate(72.9268 51.3587) rotate(3.6) scale(1.46124 1.41696)">
<stop stop-color="#F27462"/>
<stop offset="1" stop-color="#F17663"/>
</radialGradient>
<radialGradient id="paint49_radial_1_253" cx="0" cy="0" r="1" gradientUnits="userSpaceOnUse" gradientTransform="translate(74.4366 51.5514) rotate(2.7) scale(1.344 1.30368)">
<stop stop-color="#F27461"/>
<stop offset="1" stop-color="#F17562"/>
</radialGradient>
<radialGradient id="paint50_radial_1_253" cx="0" cy="0" r="1" gradientUnits="userSpaceOnUse" gradientTransform="translate(74.5123 51.5885) rotate(1.8) scale(1.212 1.18776)">
<stop stop-color="#F17461"/>
<stop offset="1" stop-color="#F17562"/>
</radialGradient>
<radialGradient id="paint51_radial_1_253" cx="0" cy="0" r="1" gradientUnits="userSpaceOnUse" gradientTransform="translate(74.5631 52.4101) rotate(0.9) scale(1.08)">
<stop stop-color="#F17461"/>
<stop offset="1" stop-color="#F17461"/>
</radialGradient>
<linearGradient id="paint52_linear_1_253" x1="66.0343" y1="57.7288" x2="79.5223" y2="53.8408" gradientUnits="userSpaceOnUse">
<stop stop-color="#70220D"/>
<stop offset="1" stop-color="#CB684F"/>
</linearGradient>
<linearGradient id="paint53_linear_1_253" x1="66.4064" y1="57.6328" x2="75.2383" y2="55.0888" gradientUnits="userSpaceOnUse">
<stop stop-color="#C36727"/>
<stop offset="1" stop-color="#EF813A"/>
</linearGradient>
<linearGradient id="paint54_linear_1_253" x1="55.6199" y1="27.9499" x2="93.966" y2="41.0189" gradientUnits="userSpaceOnUse">
<stop stop-color="#693B26"/>
<stop offset="0.35" stop-color="#633722"/>
<stop offset="0.79" stop-color="#542B18"/>
<stop offset="1" stop-color="#4A2412"/>
</linearGradient>
<linearGradient id="paint55_linear_1_253" x1="44.1605" y1="42.4906" x2="79.9389" y2="21.4686" gradientUnits="userSpaceOnUse">
<stop stop-color="#593D00"/>
<stop offset="1" stop-color="#B26217"/>
</linearGradient>
<linearGradient id="paint56_linear_1_253" x1="77.632" y1="21.4304" x2="83.0725" y2="18.2261" gradientUnits="userSpaceOnUse">
<stop stop-color="#593D00"/>
<stop offset="1" stop-color="#B26217"/>
</linearGradient>
<linearGradient id="paint57_linear_1_253" x1="65.6755" y1="46.6918" x2="98.1736" y2="27.5946" gradientUnits="userSpaceOnUse">
<stop stop-color="#593D00"/>
<stop offset="1" stop-color="#B26217"/>
</linearGradient>
<linearGradient id="paint58_linear_1_253" x1="70.8745" y1="20.5512" x2="66.8917" y2="21.8759" gradientUnits="userSpaceOnUse">
<stop stop-color="#380E00"/>
<stop offset="1" stop-color="#A73A16"/>
</linearGradient>
<linearGradient id="paint59_linear_1_253" x1="62.5571" y1="43.6962" x2="53.1545" y2="35.4718" gradientUnits="userSpaceOnUse">
<stop stop-color="#FF6700"/>
<stop offset="1" stop-color="#FFA063"/>
</linearGradient>
<linearGradient id="paint60_linear_1_253" x1="59.478" y1="39.4314" x2="57.0645" y2="40.1402" gradientUnits="userSpaceOnUse">
<stop stop-color="#B44900"/>
<stop offset="1" stop-color="#FE8D43"/>
</linearGradient>
<linearGradient id="paint61_linear_1_253" x1="59.478" y1="39.4314" x2="57.0645" y2="40.1402" gradientUnits="userSpaceOnUse">
<stop stop-color="#B44900"/>
<stop offset="1" stop-color="#FC8B40"/>
</linearGradient>
<linearGradient id="paint62_linear_1_253" x1="59.478" y1="39.4314" x2="57.0645" y2="40.1401" gradientUnits="userSpaceOnUse">
<stop stop-color="#B44900"/>
<stop offset="1" stop-color="#FB8A3E"/>
</linearGradient>
<linearGradient id="paint63_linear_1_253" x1="59.478" y1="39.4314" x2="57.0645" y2="40.1401" gradientUnits="userSpaceOnUse">
<stop stop-color="#B44900"/>
<stop offset="1" stop-color="#FA883C"/>
</linearGradient>
<linearGradient id="paint64_linear_1_253" x1="59.478" y1="39.4314" x2="57.0645" y2="40.1402" gradientUnits="userSpaceOnUse">
<stop stop-color="#B44900"/>
<stop offset="1" stop-color="#F9863A"/>
</linearGradient>
<linearGradient id="paint65_linear_1_253" x1="59.4781" y1="39.4314" x2="57.0646" y2="40.1402" gradientUnits="userSpaceOnUse">
<stop stop-color="#B44900"/>
<stop offset="1" stop-color="#F78437"/>
</linearGradient>
<linearGradient id="paint66_linear_1_253" x1="59.4781" y1="39.4314" x2="57.0646" y2="40.1402" gradientUnits="userSpaceOnUse">
<stop stop-color="#B44900"/>
<stop offset="1" stop-color="#F68235"/>
</linearGradient>
<linearGradient id="paint67_linear_1_253" x1="59.478" y1="39.4314" x2="57.0645" y2="40.1402" gradientUnits="userSpaceOnUse">
<stop stop-color="#B44900"/>
<stop offset="1" stop-color="#F58033"/>
</linearGradient>
<linearGradient id="paint68_linear_1_253" x1="59.4781" y1="39.4314" x2="57.0646" y2="40.1402" gradientUnits="userSpaceOnUse">
<stop stop-color="#B44900"/>
<stop offset="1" stop-color="#F47F31"/>
</linearGradient>
<linearGradient id="paint69_linear_1_253" x1="59.478" y1="39.4314" x2="57.0645" y2="40.1402" gradientUnits="userSpaceOnUse">
<stop stop-color="#B44900"/>
<stop offset="1" stop-color="#F27D2E"/>
</linearGradient>
<linearGradient id="paint70_linear_1_253" x1="59.4898" y1="39.4295" x2="57.0645" y2="40.1402" gradientUnits="userSpaceOnUse">
<stop stop-color="#B44900"/>
<stop offset="1" stop-color="#F17B2C"/>
</linearGradient>
<linearGradient id="paint71_linear_1_253" x1="-410.799" y1="159.281" x2="-412.391" y2="159.889" gradientUnits="userSpaceOnUse">
<stop stop-color="#6B2C00"/>
<stop offset="1" stop-color="#E26E20"/>
</linearGradient>
<linearGradient id="paint72_linear_1_253" x1="-410.794" y1="159.3" x2="-412.362" y2="159.902" gradientUnits="userSpaceOnUse">
<stop stop-color="#6B2C00"/>
<stop offset="1" stop-color="#E26E20"/>
</linearGradient>
<linearGradient id="paint73_linear_1_253" x1="-410.792" y1="159.309" x2="-412.345" y2="159.907" gradientUnits="userSpaceOnUse">
<stop stop-color="#6B2C00"/>
<stop offset="1" stop-color="#E26E20"/>
</linearGradient>
<linearGradient id="paint74_linear_1_253" x1="-410.793" y1="159.331" x2="-412.314" y2="159.92" gradientUnits="userSpaceOnUse">
<stop stop-color="#6B2C00"/>
<stop offset="1" stop-color="#E26E20"/>
</linearGradient>
<linearGradient id="paint75_linear_1_253" x1="-410.788" y1="159.35" x2="-412.286" y2="159.926" gradientUnits="userSpaceOnUse">
<stop stop-color="#6B2C00"/>
<stop offset="1" stop-color="#E26E20"/>
</linearGradient>
<linearGradient id="paint76_linear_1_253" x1="-410.785" y1="159.369" x2="-412.26" y2="159.931" gradientUnits="userSpaceOnUse">
<stop stop-color="#6B2C00"/>
<stop offset="1" stop-color="#E26E20"/>
</linearGradient>
<linearGradient id="paint77_linear_1_253" x1="-410.78" y1="159.379" x2="-412.238" y2="159.944" gradientUnits="userSpaceOnUse">
<stop stop-color="#6B2C00"/>
<stop offset="1" stop-color="#E26E20"/>
</linearGradient>
<linearGradient id="paint78_linear_1_253" x1="-410.784" y1="159.4" x2="-412.211" y2="159.949" gradientUnits="userSpaceOnUse">
<stop stop-color="#6B2C00"/>
<stop offset="1" stop-color="#E26E20"/>
</linearGradient>
<linearGradient id="paint79_linear_1_253" x1="-410.78" y1="159.42" x2="-412.183" y2="159.962" gradientUnits="userSpaceOnUse">
<stop stop-color="#6B2C00"/>
<stop offset="1" stop-color="#E26E20"/>
</linearGradient>
<linearGradient id="paint80_linear_1_253" x1="-410.773" y1="159.439" x2="-412.162" y2="159.97" gradientUnits="userSpaceOnUse">
<stop stop-color="#6B2C00"/>
<stop offset="1" stop-color="#E26E20"/>
</linearGradient>
<linearGradient id="paint81_linear_1_253" x1="-410.77" y1="159.448" x2="-412.135" y2="159.973" gradientUnits="userSpaceOnUse">
<stop stop-color="#6B2C00"/>
<stop offset="1" stop-color="#E26E20"/>
</linearGradient>
<linearGradient id="paint82_linear_1_253" x1="-410.773" y1="159.47" x2="-412.106" y2="159.986" gradientUnits="userSpaceOnUse">
<stop stop-color="#6B2C00"/>
<stop offset="1" stop-color="#E26E20"/>
</linearGradient>
<linearGradient id="paint83_linear_1_253" x1="-410.769" y1="159.489" x2="-412.08" y2="159.992" gradientUnits="userSpaceOnUse">
<stop stop-color="#6B2C00"/>
<stop offset="1" stop-color="#E26E20"/>
</linearGradient>
<linearGradient id="paint84_linear_1_253" x1="-410.762" y1="159.508" x2="-412.057" y2="160.007" gradientUnits="userSpaceOnUse">
<stop stop-color="#6B2C00"/>
<stop offset="1" stop-color="#E26E20"/>
</linearGradient>
<linearGradient id="paint85_linear_1_253" x1="-410.76" y1="159.518" x2="-412.031" y2="160.01" gradientUnits="userSpaceOnUse">
<stop stop-color="#6B2C00"/>
<stop offset="1" stop-color="#E26E20"/>
</linearGradient>
<linearGradient id="paint86_linear_1_253" x1="-410.754" y1="159.537" x2="-412.002" y2="160.022" gradientUnits="userSpaceOnUse">
<stop stop-color="#6B2C00"/>
<stop offset="1" stop-color="#E26E20"/>
</linearGradient>
<linearGradient id="paint87_linear_1_253" x1="-410.757" y1="159.558" x2="-411.981" y2="160.03" gradientUnits="userSpaceOnUse">
<stop stop-color="#6B2C00"/>
<stop offset="1" stop-color="#E26E20"/>
</linearGradient>
<linearGradient id="paint88_linear_1_253" x1="-410.751" y1="159.578" x2="-411.953" y2="160.036" gradientUnits="userSpaceOnUse">
<stop stop-color="#6B2C00"/>
<stop offset="1" stop-color="#E26E20"/>
</linearGradient>
<linearGradient id="paint89_linear_1_253" x1="-410.749" y1="159.587" x2="-411.926" y2="160.046" gradientUnits="userSpaceOnUse">
<stop stop-color="#6B2C00"/>
<stop offset="1" stop-color="#E26E20"/>
</linearGradient>
<linearGradient id="paint90_linear_1_253" x1="-410.744" y1="159.606" x2="-411.898" y2="160.052" gradientUnits="userSpaceOnUse">
<stop stop-color="#6B2C00"/>
<stop offset="1" stop-color="#E26E20"/>
</linearGradient>
<linearGradient id="paint91_linear_1_253" x1="-410.738" y1="159.626" x2="-411.877" y2="160.067" gradientUnits="userSpaceOnUse">
<stop stop-color="#6B2C00"/>
<stop offset="1" stop-color="#E26E20"/>
</linearGradient>
<linearGradient id="paint92_linear_1_253" x1="58.0812" y1="39.9626" x2="59.7354" y2="41.2375" gradientUnits="userSpaceOnUse">
<stop stop-color="#D8661A"/>
<stop offset="1" stop-color="#A24B0D"/>
</linearGradient>
<linearGradient id="paint93_linear_1_253" x1="71.5067" y1="79.9438" x2="73.2648" y2="57.4472" gradientUnits="userSpaceOnUse">
<stop stop-color="#FF8533"/>
<stop offset="1" stop-color="#FFA973"/>
</linearGradient>
<linearGradient id="paint94_linear_1_253" x1="48.4566" y1="62.6888" x2="50.7137" y2="61.1" gradientUnits="userSpaceOnUse">
<stop stop-color="#FF8533"/>
<stop offset="1" stop-color="#FFA973"/>
</linearGradient>
<linearGradient id="paint95_linear_1_253" x1="44.2786" y1="77.8058" x2="46.0373" y2="55.3212" gradientUnits="userSpaceOnUse">
<stop stop-color="#FF8533"/>
<stop offset="1" stop-color="#FFA973"/>
</linearGradient>
<linearGradient id="paint96_linear_1_253" x1="36.3741" y1="63.0449" x2="100.568" y2="82.8594" gradientUnits="userSpaceOnUse">
<stop stop-color="#FFECDF"/>
<stop offset="1" stop-color="#E5A480"/>
</linearGradient>
<linearGradient id="paint97_linear_1_253" x1="51.3153" y1="63.9877" x2="66.3857" y2="68.6369" gradientUnits="userSpaceOnUse">
<stop stop-color="#FFECDF"/>
<stop offset="1" stop-color="#E5A480"/>
</linearGradient>
<clipPath id="clip0_1_253">
<rect width="120" height="120" fill="white" transform="translate(0.214417 0.140747)"/>
</clipPath>
</defs>
</svg>
