<svg width="120" height="120" viewBox="0 0 120 120" fill="none" xmlns="http://www.w3.org/2000/svg">
<path d="M60 120.001C93.1371 120.001 120 93.1378 120 60.0007C120 26.8636 93.1371 0.000732422 60 0.000732422C26.8629 0.000732422 0 26.8636 0 60.0007C0 93.1378 26.8629 120.001 60 120.001Z" fill="url(#paint0_linear_1_1565)"/>
<mask id="mask0_1_1565" style="mask-type:luminance" maskUnits="userSpaceOnUse" x="0" y="0" width="120" height="121">
<path d="M60 120.001C93.1371 120.001 120 93.1378 120 60.0007C120 26.8636 93.1371 0.000732422 60 0.000732422C26.8629 0.000732422 0 26.8636 0 60.0007C0 93.1378 26.8629 120.001 60 120.001Z" fill="white"/>
</mask>
<g mask="url(#mask0_1_1565)">
<path d="M93.864 98.4007C91.152 100.909 84.24 100.177 82.668 97.5487C81.192 95.1127 76.98 90.7207 74.58 82.5967C72.228 74.6407 81.96 61.5247 86.052 69.2647C89.316 75.4447 91.176 79.8487 92.424 83.9167C93.552 87.5767 94.176 90.9607 94.884 95.1127C95.136 96.5407 94.692 97.6327 93.852 98.4007H93.864Z" fill="url(#paint1_linear_1_1565)"/>
<path style="mix-blend-mode:multiply" d="M93.864 98.4007C91.152 100.909 84.24 100.177 82.668 97.5487C81.192 95.1127 76.98 90.7207 74.58 82.5967C72.228 74.6407 81.96 61.5247 86.052 69.2647C89.316 75.4447 91.176 79.8487 92.424 83.9167C90.108 87.7087 87.996 89.9167 88.656 90.0487C89.496 90.2287 92.364 89.8687 93.444 92.2207L93.864 98.4007Z" fill="url(#paint2_linear_1_1565)"/>
<path d="M94.284 79.7527C93.672 80.8207 92.604 82.6567 88.584 88.5007C88.296 88.9207 88.02 89.3287 87.744 89.7487C85.2 93.5047 81.348 96.3607 80.736 95.8807C78.18 93.8887 76.476 91.7647 75.48 89.9167C75.192 86.2447 77.232 76.1407 78.192 68.8447C78.648 65.4007 79.728 63.4807 80.856 63.0967C81 63.0487 81.132 63.0247 81.276 63.0247C81.468 63.1447 81.66 63.2767 81.864 63.4327C81.924 63.4807 81.984 63.5287 82.056 63.5767C86.712 67.1527 93.924 78.0487 94.296 79.7647L94.284 79.7527Z" fill="url(#paint3_linear_1_1565)"/>
<path style="mix-blend-mode:multiply" opacity="0.5" d="M87.732 89.7487C85.188 93.5047 81.336 96.3607 80.724 95.8807C78.168 93.8887 76.464 91.7647 75.468 89.9167C75.18 86.2447 77.22 76.1407 78.18 68.8447C78.636 65.4007 79.716 63.4807 80.844 63.0967C80.988 63.0487 81.12 63.0247 81.264 63.0247C81.456 63.1447 81.648 63.2767 81.852 63.4327L82.02 63.4927C82.02 63.4927 82.02 63.5527 82.032 63.5767C85.212 79.5247 82.776 82.2727 83.592 85.9207C84.3 89.0767 85.668 79.6687 86.592 77.3767C88.14 73.5127 87.216 81.4087 86.292 85.6207C85.86 87.5647 86.616 89.1367 87.732 89.7607V89.7487Z" fill="url(#paint4_linear_1_1565)"/>
<path d="M63.816 72.3967C56.412 73.1527 50.928 65.7727 52.752 55.2847C53.268 54.0247 57.684 38.7847 58.104 37.3567C58.104 37.3567 75.516 45.6607 75.24 46.5847C75.012 47.3527 72.072 54.7567 71.028 59.3407C71.016 59.4127 70.992 59.4967 70.98 59.5687C71.04 59.9047 70.632 61.3927 70.656 61.8127C70.884 65.4127 69.54 71.8207 63.804 72.4087L63.816 72.3967Z" fill="url(#paint5_linear_1_1565)"/>
<path style="mix-blend-mode:multiply" d="M63.816 72.3967C56.412 73.1527 50.928 65.7727 52.752 55.2847C53.268 54.0247 57.684 38.7847 58.104 37.3567C58.104 37.3567 75.516 45.6607 75.24 46.5847C75.012 47.3527 72.072 54.7567 71.028 59.3407C68.388 59.2567 64.872 60.3007 61.416 57.9847C57.636 55.4527 57.288 54.5167 56.256 57.0367C55.224 59.5567 59.448 64.6687 63.084 65.4607C66.792 66.2767 68.868 65.7367 70.536 62.0767C70.584 61.9807 70.62 61.8847 70.668 61.8007C70.896 65.4007 69.552 71.8087 63.816 72.3967Z" fill="url(#paint6_linear_1_1565)"/>
<path d="M81.888 86.2568C80.856 94.4768 79.02 102.049 77.676 108.601C76.692 113.377 75.972 117.601 76.008 121.141C76.008 122.089 45.144 122.317 36.06 119.881C36.06 119.881 32.04 96.1568 31.116 89.1728C30.492 84.4808 32.604 69.8528 32.964 60.4088C33.072 57.5768 33.24 55.7408 33.492 55.6208C35.928 54.4688 53.736 51.1808 54.096 51.1448C54.372 57.2408 55.116 65.6888 64.128 66.8768C69.276 67.5488 70.008 64.7288 71.22 58.4288C71.664 58.6088 80.004 62.0048 81.552 63.2168C82.728 71.0888 82.788 79.1288 81.9 86.2688L81.888 86.2568Z" fill="url(#paint7_linear_1_1565)"/>
<path d="M66.492 69.6488C54.084 70.1288 52.596 58.0568 51.78 51.5528C52.512 51.4208 53.712 51.1808 54.084 51.1448C54.624 59.7488 57.348 66.0968 65.7 66.5528C68.952 66.7328 69.588 64.3808 71.208 58.4168C71.76 58.5728 72.42 58.9328 73.032 59.1728C72.552 63.3728 71.268 69.4688 66.492 69.6488Z" fill="url(#paint8_linear_1_1565)"/>
<path style="mix-blend-mode:multiply" opacity="0.5" d="M77.676 108.601C76.692 113.377 75.972 117.601 76.008 121.141C76.008 122.089 45.144 122.317 36.06 119.881C36.06 119.881 32.04 96.1567 31.116 89.1727C30.492 84.4807 32.604 69.8527 32.964 60.4087L38.508 60.3607C41.76 63.7447 42.3 70.6687 42.984 80.9647C43.44 87.8407 59.256 93.9847 66.708 95.8807C74.16 97.7767 57.624 96.4207 49.62 94.6567C42.504 93.0847 44.064 106.321 44.472 111.193C44.88 116.077 55.452 115.261 57.348 115.261C59.244 115.261 51.66 105.361 55.584 104.545C57.972 104.053 60.876 102.913 61.824 100.477C64.944 101.017 68.88 101.557 70.776 104.413C72.324 106.741 75.048 107.617 77.688 108.601H77.676Z" fill="url(#paint9_linear_1_1565)"/>
<path style="mix-blend-mode:multiply" opacity="0.5" d="M81.888 86.2567C77.856 89.7007 71.04 90.2768 73.344 89.2328C80.796 85.8488 81.072 82.0928 81.408 80.0768C82.08 76.0808 81.612 69.5647 81.54 63.1927C82.716 71.0647 82.776 79.1048 81.888 86.2448V86.2567Z" fill="url(#paint10_linear_1_1565)"/>
<path d="M85.0799 38.2328C86.3879 36.0608 86.9879 33.5168 87.3719 30.8048C89.0159 19.2608 81.4199 14.4728 72.8759 13.9568C64.3439 13.4408 52.3679 14.4128 52.9559 28.4888C53.2079 34.5368 57.3359 38.4368 57.7799 40.0928C57.7799 40.1048 58.3679 45.0488 59.0879 46.1288C60.6719 48.5048 65.4599 54.6848 67.6199 55.3808C69.4079 55.9568 74.5079 56.9048 77.0999 55.8128C78.4679 55.2368 85.5359 46.1768 85.2719 42.3128C85.0799 39.5888 84.7919 38.7248 85.0919 38.2208C85.0919 38.2208 85.0919 38.2208 85.0799 38.2208V38.2328Z" fill="url(#paint11_linear_1_1565)"/>
<path style="mix-blend-mode:multiply" d="M87.504 29.6288C83.544 28.5968 80.076 25.9568 79.284 24.4688C77.712 28.0808 72.12 30.7328 66.54 30.1328C64.92 30.0368 63.636 33.3008 62.832 37.5128C62.088 41.4608 63.564 52.4528 67.62 55.3928C65.508 54.7688 60.672 48.5168 59.088 46.1408C58.368 45.0608 57.78 40.1408 57.78 40.1048C57.336 38.4488 53.22 34.5488 52.956 28.4888C52.356 14.4128 64.332 13.4528 72.876 13.9568C81.12 14.4488 88.488 18.9248 87.504 29.6168V29.6288Z" fill="url(#paint12_linear_1_1565)"/>
<path style="mix-blend-mode:multiply" d="M76.392 31.7528C77.568 33.0848 76.392 37.0928 75.876 37.8128C75.36 38.5328 73.356 37.3568 69.888 37.3808C67.332 37.4048 67.188 35.4008 67.476 33.9848C67.764 32.5808 68.052 31.2968 68.388 31.3208C68.724 31.3448 75.744 31.0328 76.38 31.7408L76.392 31.7528Z" fill="url(#paint13_linear_1_1565)"/>
<path d="M75.96 36.5288C75.924 36.8408 75.78 37.0928 75.576 37.2968C74.832 36.8648 74.124 36.8408 72.672 36.6488C71.244 36.4688 69.468 36.4808 69.072 36.5528C68.58 36.1808 68.376 35.7608 68.568 35.2448C69.036 34.0328 71.112 32.4488 73.464 33.1328C75.012 33.5888 76.14 35.1008 75.96 36.5168V36.5288Z" fill="url(#paint14_linear_1_1565)"/>
<mask id="mask1_1_1565" style="mask-type:luminance" maskUnits="userSpaceOnUse" x="68" y="32" width="8" height="6">
<path d="M75.96 36.5288C75.924 36.8408 75.78 37.0928 75.576 37.2968C74.928 36.9848 74.124 36.8288 72.672 36.6488C71.196 36.4568 69.468 36.4808 69.072 36.5528C68.58 36.1808 68.376 35.7608 68.568 35.2448C69.036 34.0328 71.112 32.4488 73.464 33.1328C75.012 33.5888 76.14 35.1008 75.96 36.5168V36.5288Z" fill="white"/>
</mask>
<g mask="url(#mask1_1_1565)">
<path d="M75.012 35.4367C74.94 36.3007 74.244 36.9487 73.476 36.8767C72.708 36.8047 72.144 36.0487 72.216 35.1847C72.288 34.3207 72.984 33.6727 73.752 33.7447C74.52 33.8167 75.084 34.5727 75.012 35.4367Z" fill="url(#paint15_linear_1_1565)"/>
<path style="mix-blend-mode:multiply" d="M73.752 33.7447C72.984 33.6727 72.288 34.3207 72.216 35.1847C72.144 36.0487 72.708 36.8047 73.476 36.8767C74.244 36.9487 74.94 36.3007 75.012 35.4367C75.084 34.5727 74.52 33.8167 73.752 33.7447ZM73.416 36.6607C72.744 36.6007 72.252 35.9527 72.324 35.1967C72.396 34.4527 72.984 33.8887 73.656 33.9487C74.328 34.0087 74.82 34.6567 74.748 35.4127C74.676 36.1687 74.088 36.7207 73.416 36.6607Z" fill="url(#paint16_linear_1_1565)"/>
<path d="M74.112 35.2567C74.088 35.5447 73.86 35.7607 73.596 35.7367C73.344 35.7127 73.152 35.4607 73.176 35.1727C73.2 34.8847 73.428 34.6687 73.692 34.6927C73.944 34.7167 74.136 34.9687 74.112 35.2567Z" fill="url(#paint17_linear_1_1565)"/>
<path d="M73.5 34.6448C73.476 34.8968 73.308 35.0768 73.128 35.0648C72.948 35.0528 72.816 34.8368 72.828 34.5848C72.852 34.3328 73.02 34.1528 73.2 34.1648C73.38 34.1768 73.512 34.3928 73.5 34.6448Z" fill="url(#paint18_linear_1_1565)"/>
</g>
<path style="mix-blend-mode:multiply" d="M75.96 36.5287C76.14 35.1007 75.012 33.5887 73.464 33.1447C71.112 32.4607 69.036 34.0567 68.568 35.2567C68.376 35.7727 68.58 36.1927 69.072 36.5647C69.432 36.4687 71.136 36.4807 72.672 36.6607C73.992 36.8167 74.808 36.8527 75.576 37.3087C75.792 37.1047 75.924 36.8527 75.96 36.5407V36.5287ZM73.128 36.2407C70.764 35.7007 69.396 36.0127 69.78 35.0167C70.164 34.0327 71.952 33.6607 73.224 33.8287C74.676 34.0207 75.792 35.2807 75.612 36.4567C75.516 37.0687 74.556 36.5647 73.128 36.2407Z" fill="url(#paint19_linear_1_1565)"/>
<path d="M75.924 36.5888C75.996 35.7128 75.648 34.8368 75.048 34.2248C74.748 33.9128 74.388 33.6728 74.004 33.5048C73.62 33.3368 73.2 33.2288 72.78 33.1928C72.36 33.1568 71.94 33.2048 71.532 33.3008C71.124 33.3968 70.716 33.5288 70.332 33.7088C69.576 34.0688 68.88 34.6208 68.508 35.4248H68.46C68.52 34.9688 68.748 34.5368 69.048 34.1768C69.348 33.8168 69.72 33.5288 70.128 33.3008C70.932 32.8448 71.892 32.6528 72.828 32.7968C73.284 32.8688 73.728 33.0008 74.148 33.2168C74.556 33.4208 74.94 33.7088 75.24 34.0568C75.54 34.4048 75.768 34.8128 75.888 35.2448C76.02 35.6768 76.056 36.1448 75.984 36.5768H75.936L75.924 36.5888Z" fill="url(#paint20_linear_1_1565)"/>
<path d="M75.5039 37.3087C75.3479 37.2007 75.1079 37.1167 74.8439 37.0447C74.5919 36.9727 74.3159 36.9127 74.0279 36.8527C73.4639 36.7447 72.8879 36.6727 72.3119 36.6127C71.7359 36.5647 71.1719 36.5287 70.6079 36.5167C70.3319 36.5167 70.0439 36.5167 69.7799 36.5167C69.5159 36.5167 69.2399 36.5407 69.0239 36.5767C69.2519 36.5407 69.5279 36.5287 69.7919 36.5287C70.0679 36.5287 70.3439 36.5287 70.6199 36.5407C71.1839 36.5647 71.7479 36.6007 72.3119 36.6487C72.8759 36.6967 73.4519 36.7807 74.0039 36.8767C74.2799 36.9247 74.5559 36.9847 74.8079 37.0567C75.0599 37.1287 75.3119 37.2127 75.4799 37.3087H75.5039Z" fill="url(#paint21_linear_1_1565)"/>
<path style="mix-blend-mode:multiply" d="M85.08 38.2328H85.092C84.936 38.6048 85.092 38.9768 85.032 39.3848C82.968 38.9768 79.908 38.9168 78.828 38.7608C77.628 38.5808 78.36 37.7528 78.54 36.9488C78.84 35.6288 80.532 32.1008 81.48 32.0168C82.068 31.9688 85.32 32.9048 86.964 33.1448C86.58 34.9808 86.004 36.6968 85.08 38.2328Z" fill="url(#paint22_linear_1_1565)"/>
<path d="M79.0801 37.1768C79.0561 37.4048 79.0801 37.6088 79.1761 37.8008C80.2561 37.5968 80.9641 37.8248 82.2001 37.9328C83.3161 38.0288 84.2641 38.3768 84.4801 38.7128C84.8881 38.4128 84.9841 37.9568 84.9121 37.3328C84.7561 36.0968 84.4201 34.6088 82.1161 34.6568C80.6041 34.6928 79.2361 35.8088 79.0801 37.1768Z" fill="url(#paint23_linear_1_1565)"/>
<mask id="mask2_1_1565" style="mask-type:luminance" maskUnits="userSpaceOnUse" x="79" y="34" width="6" height="5">
<path d="M79.0801 37.2367C79.0561 37.4407 79.0801 37.6327 79.1761 37.8007C80.4961 37.6447 80.9761 37.8007 82.2001 37.9207C83.1721 38.0167 84.2641 38.3167 84.4801 38.6287C84.8881 38.3647 84.9841 37.9447 84.9121 37.3807C84.7561 36.2647 84.4201 34.9327 82.1161 34.9687C80.6041 34.9927 79.2361 36.0127 79.0801 37.2367Z" fill="white"/>
</mask>
<g mask="url(#mask2_1_1565)">
<path d="M83.916 36.8288C83.844 37.5848 83.232 38.1368 82.548 38.0768C81.876 38.0048 81.384 37.3448 81.468 36.5888C81.54 35.8328 82.152 35.2808 82.836 35.3408C83.52 35.4008 84 36.0728 83.916 36.8288Z" fill="url(#paint24_linear_1_1565)"/>
<path style="mix-blend-mode:multiply" d="M82.824 35.3408C82.152 35.2688 81.54 35.8328 81.456 36.5888C81.384 37.3448 81.864 38.0168 82.536 38.0768C83.208 38.1488 83.82 37.5848 83.904 36.8288C83.976 36.0728 83.496 35.4008 82.824 35.3408ZM82.5 37.8848C81.912 37.8248 81.492 37.2488 81.564 36.5888C81.636 35.9288 82.164 35.4488 82.74 35.5088C83.328 35.5688 83.748 36.1448 83.676 36.8048C83.604 37.4648 83.076 37.9448 82.5 37.8848Z" fill="url(#paint25_linear_1_1565)"/>
<path d="M83.1 36.7448C83.076 36.9968 82.8721 37.1768 82.6441 37.1648C82.4161 37.1528 82.26 36.9248 82.284 36.6728C82.308 36.4208 82.512 36.2408 82.74 36.2528C82.968 36.2648 83.124 36.4928 83.1 36.7448Z" fill="url(#paint26_linear_1_1565)"/>
<path d="M82.452 36.2048C82.428 36.4208 82.284 36.5768 82.116 36.5648C81.96 36.5528 81.84 36.3608 81.864 36.1448C81.888 35.9288 82.032 35.7728 82.2 35.7848C82.356 35.7968 82.476 35.9888 82.452 36.2048Z" fill="url(#paint27_linear_1_1565)"/>
</g>
<path style="mix-blend-mode:multiply" d="M81.9361 37.8848C83.0161 38.0168 84.3241 38.3768 84.4801 38.7008C84.8881 38.4008 84.9841 37.9448 84.9121 37.3208C84.7561 36.0848 84.4201 34.5968 82.1161 34.6448C80.6041 34.6808 79.2361 35.7968 79.0801 37.1648C79.0561 37.3928 79.0801 37.5968 79.1761 37.7888C80.1841 37.5848 80.7001 37.7408 81.9361 37.8848ZM80.7961 36.5768C80.9521 35.4608 81.5521 35.3528 82.6081 35.4248C84.1681 35.5328 84.4441 36.1808 84.5641 37.1888C84.6841 38.1968 84.3601 37.6568 82.7161 37.6088C81.5761 37.5848 80.6521 37.5848 80.7961 36.5648V36.5768Z" fill="url(#paint28_linear_1_1565)"/>
<path d="M84.9001 37.8488C84.9121 37.4648 84.9001 37.0808 84.8041 36.7208C84.7201 36.3608 84.5641 36.0128 84.3481 35.7248C84.1321 35.4368 83.8321 35.2208 83.5081 35.0888C83.1841 34.9448 82.8241 34.8728 82.4761 34.8488C82.1281 34.8248 81.7681 34.8488 81.4441 34.9448C81.1081 35.0288 80.7961 35.1608 80.5081 35.3408C79.9201 35.7008 79.4761 36.2888 79.1281 36.9728H79.0801C79.1881 36.1928 79.5841 35.4248 80.2321 34.9328C80.5561 34.6808 80.9281 34.5128 81.3241 34.4288C81.7201 34.3448 82.1281 34.3568 82.5241 34.4168C82.9081 34.4768 83.3041 34.5848 83.6641 34.7768C84.0241 34.9568 84.3481 35.2328 84.5761 35.5808C84.8041 35.9168 84.9241 36.3128 84.9841 36.7088C85.0441 37.1048 85.0321 37.4888 84.9721 37.8728H84.9241L84.9001 37.8488Z" fill="url(#paint29_linear_1_1565)"/>
<path d="M79.14 37.8488C79.308 37.7888 79.512 37.7528 79.74 37.7408C79.956 37.7288 80.196 37.7288 80.424 37.7408C80.892 37.7648 81.36 37.8248 81.828 37.8968C82.296 37.9688 82.764 38.0408 83.22 38.1488C83.448 38.1968 83.676 38.2688 83.88 38.3408C84.084 38.4128 84.288 38.4968 84.42 38.6168C84.312 38.4968 84.108 38.4008 83.904 38.3288C83.7 38.2448 83.472 38.1848 83.244 38.1248C82.788 38.0168 82.308 37.9328 81.84 37.8608C81.372 37.7888 80.892 37.7288 80.424 37.7168C80.184 37.7168 79.956 37.7168 79.728 37.7288C79.512 37.7528 79.308 37.7888 79.14 37.8608V37.8488Z" fill="url(#paint30_linear_1_1565)"/>
<path d="M81.744 32.2928C80.04 33.1568 79.296 35.9888 79.128 37.8608C78.864 40.6568 81.492 40.2008 80.604 42.2408C80.232 43.1048 77.904 43.9448 77.04 43.9688C75.972 43.9928 74.364 43.3688 73.644 42.7088C72.372 41.5448 72.636 40.9568 73.44 40.6088C74.208 40.2848 75.18 40.0688 75.54 38.4728C76.272 35.1848 76.368 32.7728 75.888 32.1248C75.084 31.0568 83.34 31.4768 81.744 32.2808V32.2928Z" fill="url(#paint31_linear_1_1565)"/>
<path d="M77.82 30.0008C77.856 30.6368 76.656 32.7128 75.684 32.7008C73.428 32.7008 70.74 32.2088 68.604 31.6088C67.488 31.2968 68.988 29.9168 69.684 30.1208C70.908 30.4568 72.48 30.8648 74.568 30.6008C76.128 30.3968 77.784 29.1848 77.82 30.0008Z" fill="url(#paint32_linear_1_1565)"/>
<path d="M81.3481 30.2288C81.0601 30.7328 80.9641 32.2328 81.6841 32.5568C82.9921 33.1568 84.6841 33.9608 86.0521 34.3208C86.7121 34.4888 87.3961 33.4088 86.7481 33.0608C85.9321 32.6168 85.1761 32.1128 84.0121 31.3208C82.6441 30.3848 81.7201 29.5688 81.3481 30.2168V30.2288Z" fill="url(#paint33_linear_1_1565)"/>
<path style="mix-blend-mode:multiply" d="M80.604 42.2408C79.992 43.2728 77.616 44.1368 76.44 43.9328C75.336 43.7408 73.956 43.1168 73.416 42.4808C73.44 42.1928 73.944 42.3128 76.356 43.1528C77.4 43.5128 79.752 43.0808 80.604 42.2288V42.2408Z" fill="url(#paint34_linear_1_1565)"/>
<path d="M75.984 43.4168C75.732 43.3088 74.292 42.3488 74.064 42.5528C73.836 42.7568 75.12 43.2488 75.48 43.3928C75.84 43.5368 76.272 43.5488 75.984 43.4168Z" fill="url(#paint35_linear_1_1565)"/>
<path d="M78.18 43.4768C78.36 43.4288 79.56 42.9008 79.668 42.9608C79.884 43.0808 78.78 43.4888 78.516 43.5488C78.252 43.6088 77.964 43.5488 78.168 43.4768H78.18Z" fill="url(#paint36_linear_1_1565)"/>
<path d="M72.528 45.6728C73.764 45.0488 78.996 45.5408 79.62 45.7208C80.256 45.9008 79.848 47.9408 79.716 48.2048C79.584 48.4808 77.688 47.7968 75.96 47.7968C73.884 47.7968 72.024 48.0728 71.712 47.8928C71.4 47.7128 72.252 45.8168 72.528 45.6728Z" fill="url(#paint37_linear_1_1565)"/>
<path d="M72.468 45.5648C72.684 45.4568 72.888 45.4088 73.104 45.3728C73.32 45.3368 73.536 45.3008 73.74 45.2888C74.172 45.2408 74.592 45.2288 75.024 45.2288C75.444 45.2288 75.876 45.2288 76.296 45.2528C76.716 45.2648 77.148 45.3008 77.568 45.3368C77.988 45.3848 78.408 45.4328 78.828 45.4928C79.044 45.5288 79.248 45.5648 79.464 45.6008C79.512 45.6008 79.572 45.6248 79.632 45.6368C79.692 45.6608 79.764 45.6848 79.8 45.7328C79.896 45.8288 79.944 45.9368 79.968 46.0448C80.028 46.2608 80.04 46.4768 80.028 46.6928C80.028 46.9088 80.004 47.1248 79.98 47.3408C79.956 47.5568 79.92 47.7608 79.872 47.9768C79.86 48.0248 79.848 48.0848 79.836 48.1328C79.836 48.1568 79.824 48.1928 79.812 48.2168V48.2408H79.8V48.2648C79.8 48.2648 79.764 48.2888 79.752 48.3008C79.752 48.3008 79.728 48.3128 79.716 48.3248C79.632 48.3728 79.572 48.3728 79.512 48.3728C79.452 48.3728 79.392 48.3728 79.344 48.3728C78.9 48.3368 78.492 48.2648 78.072 48.2168C77.652 48.1688 77.244 48.1208 76.824 48.0848C76.62 48.0728 76.416 48.0608 76.212 48.0488C76.008 48.0488 75.804 48.0488 75.588 48.0488H74.328H73.056H72.42C72.204 48.0488 71.988 48.0488 71.772 47.9888C71.736 47.9888 71.712 47.9648 71.676 47.9528C71.664 47.9528 71.64 47.9288 71.628 47.9168C71.616 47.9048 71.604 47.8808 71.592 47.8688C71.568 47.7968 71.568 47.7368 71.568 47.6768C71.568 47.5568 71.592 47.4488 71.616 47.3528C71.664 47.1368 71.736 46.9328 71.808 46.7288C71.88 46.5248 71.964 46.3328 72.06 46.1288C72.108 46.0328 72.156 45.9368 72.216 45.8408C72.24 45.7928 72.276 45.7448 72.312 45.6968C72.348 45.6488 72.384 45.6008 72.468 45.5528V45.5648ZM72.588 45.7808C72.588 45.7808 72.54 45.8168 72.516 45.8648L72.432 45.9848C72.372 46.0688 72.324 46.1528 72.276 46.2488C72.18 46.4288 72.084 46.6208 71.988 46.8008C71.904 46.9928 71.82 47.1848 71.772 47.3888C71.748 47.4848 71.724 47.5928 71.724 47.6888C71.724 47.7368 71.724 47.7848 71.736 47.8088C71.736 47.8088 71.736 47.8088 71.736 47.8208H71.796C71.988 47.8688 72.204 47.8568 72.408 47.8448C72.612 47.8328 72.828 47.8088 73.032 47.7848L74.292 47.6288C74.712 47.5808 75.144 47.5448 75.564 47.5328C75.984 47.5208 76.44 47.5328 76.86 47.5928C77.292 47.6528 77.712 47.7488 78.12 47.8448C78.528 47.9408 78.948 48.0608 79.344 48.1208C79.392 48.1208 79.44 48.1208 79.488 48.1328C79.536 48.1328 79.584 48.1328 79.584 48.1328C79.572 48.1688 79.596 48.1088 79.608 48.0608C79.62 48.0128 79.644 47.9648 79.656 47.9168C79.716 47.7128 79.752 47.5088 79.788 47.3048C79.848 46.8968 79.884 46.4648 79.788 46.0808C79.764 45.9848 79.716 45.9008 79.656 45.8528C79.632 45.8288 79.596 45.8168 79.56 45.8048C79.512 45.8048 79.464 45.7808 79.416 45.7808C79.212 45.7448 78.996 45.7328 78.792 45.7088C78.372 45.6728 77.952 45.6488 77.532 45.6248L76.272 45.5648C75.852 45.5528 75.432 45.5408 75.012 45.5288C74.592 45.5288 74.172 45.5288 73.752 45.5648C73.548 45.5768 73.332 45.6008 73.14 45.6368C72.936 45.6728 72.732 45.7208 72.564 45.7928L72.588 45.7808Z" fill="url(#paint38_linear_1_1565)"/>
<path d="M92.76 25.1407C92.328 26.3407 89.652 28.4167 86.868 27.9247C82.308 27.1087 80.292 24.3607 78.66 22.8127C77.46 27.6247 71.82 29.5567 66.204 29.7607C66.012 29.7967 65.964 29.7607 66.012 29.6407C66.216 29.1847 68.232 27.5527 69.576 25.8967C69.576 25.8967 69.588 25.8847 69.6 25.8727C70.236 25.0807 70.716 24.2767 70.752 23.6047C69.648 25.4407 66.636 28.7167 62.892 29.9887C61.788 30.1927 61.62 36.4807 61.584 37.1047C61.548 37.7407 59.916 37.8847 59.712 36.7207C59.472 35.3767 57.42 37.0567 57.12 41.8807C57.096 42.2167 54.108 40.6687 53.76 39.5527C53.028 37.1647 52.008 25.5967 52.548 20.3167C52.632 19.4647 52.764 18.7807 52.932 18.3127C54.552 14.0647 66.768 8.42472 68.724 8.78472C69.348 8.90472 69.924 9.08472 70.452 9.28872C71.796 9.81672 72.84 10.5007 73.62 10.5487C74.22 10.5847 75.06 10.3567 75.996 10.2127C76.74 10.0927 77.556 10.0327 78.348 10.2007C81.408 10.8487 84.924 13.8847 87.324 17.5327C89.316 20.5447 89.952 24.2167 92.256 24.3487C92.796 24.3847 92.94 24.6967 92.772 25.1407H92.76Z" fill="url(#paint39_linear_1_1565)"/>
<path style="mix-blend-mode:multiply" opacity="0.5" d="M62.88 29.9767C61.776 30.1807 61.608 36.4687 61.572 37.0927C61.536 37.7287 59.904 37.8727 59.7 36.7087C59.46 35.3647 57.408 37.0447 57.108 41.8687C57.084 42.2047 54.096 40.6567 53.748 39.5407C53.016 37.1527 51.996 25.5847 52.536 20.3047C55.032 24.0007 60.408 28.9807 61.908 29.1727C64.872 29.5567 69.876 24.3607 70.992 22.7887C70.836 24.0967 70.3081 25.0447 69.588 25.8607C70.2241 25.0687 70.704 24.2647 70.74 23.5927C69.636 25.4287 66.6241 28.7047 62.88 29.9767Z" fill="url(#paint40_linear_1_1565)"/>
<path style="mix-blend-mode:multiply" opacity="0.5" d="M70.4401 9.2887C71.7841 9.8167 72.8281 10.5007 73.6081 10.5487C74.2081 10.5847 75.0481 10.3567 75.9841 10.2127C74.8321 11.1607 75.4801 12.4687 75.1081 14.1727C74.8921 15.1447 73.1281 10.8847 70.4401 9.2887Z" fill="url(#paint41_linear_1_1565)"/>
<path style="mix-blend-mode:multiply" opacity="0.5" d="M92.7601 25.1407C92.3281 26.3407 89.6521 28.4167 86.8681 27.9247C82.3081 27.1087 80.2921 24.3607 78.6601 22.8127C77.4601 27.6247 71.8201 29.5567 66.2041 29.7607C66.0121 29.7967 65.9641 29.7607 66.0121 29.6407C69.1201 29.1967 77.2681 28.0687 78.6721 21.6367C81.1921 24.5407 88.1401 27.9607 92.7721 25.1527L92.7601 25.1407Z" fill="url(#paint42_linear_1_1565)"/>
<g style="mix-blend-mode:screen" opacity="0.5">
<path style="mix-blend-mode:screen" d="M66.2281 24.7807C65.1841 24.1567 64.1521 23.5567 63.1561 22.8967C62.1721 22.2367 61.2241 21.5167 60.3481 20.7367C59.4721 19.9447 58.6801 19.0927 57.9481 18.1687C57.2281 17.2447 56.9641 16.8607 56.3521 15.8407C56.6761 16.9807 56.8201 17.4727 57.4801 18.4927C58.1281 19.5127 58.9321 20.4607 59.8441 21.2767C60.7561 22.1047 61.7761 22.8127 62.8561 23.3887C63.9361 23.9767 65.0641 24.4447 66.2281 24.7807Z" fill="url(#paint43_linear_1_1565)"/>
</g>
<path d="M60.348 37.0927C60.372 35.3047 60.216 34.1047 59.832 33.1687C59.244 31.7767 58.044 30.5287 56.736 30.6727C53.412 31.0447 53.184 36.3607 54.96 38.6407C56.22 40.2487 60.276 42.5167 60.348 37.0927Z" fill="url(#paint44_linear_1_1565)"/>
<path opacity="0.09" d="M56.2679 33.7567C57.3239 33.6847 59.6399 35.1967 59.6759 37.0327C59.2559 36.4087 57.7799 36.3847 57.1079 36.3727C57.5159 36.1567 57.9479 36.2167 58.3799 36.2047C57.9839 35.4487 56.9639 34.2727 56.2799 33.7567H56.2679Z" fill="url(#paint45_linear_1_1565)"/>
<path opacity="0.18" d="M56.2679 33.7567C57.3239 33.6847 59.6399 35.1967 59.6639 37.0327C59.1959 36.5167 57.7679 36.3847 57.0959 36.3727C57.5159 36.1567 57.9479 36.2647 58.4039 36.2527C58.0439 35.3887 56.9279 34.2367 56.2679 33.7567Z" fill="url(#paint46_linear_1_1565)"/>
<path opacity="0.27" d="M56.2679 33.7567C57.3239 33.6847 59.6399 35.2088 59.6639 37.0328C59.1599 36.6368 57.7679 36.3967 57.0959 36.3727C57.5279 36.1567 57.9599 36.3248 58.4519 36.3008C58.1159 35.3288 56.9159 34.2008 56.2679 33.7448V33.7567Z" fill="url(#paint47_linear_1_1565)"/>
<path opacity="0.36" d="M56.28 33.7567C57.336 33.6847 59.64 35.2087 59.676 37.0327C59.124 36.7447 57.78 36.3967 57.108 36.3847C57.54 36.1687 57.984 36.3847 58.5 36.3727C58.188 35.2927 56.904 34.1767 56.28 33.7567Z" fill="url(#paint48_linear_1_1565)"/>
<path opacity="0.45" d="M56.28 33.7448C57.336 33.6728 59.64 35.1968 59.664 37.0328C59.076 36.8528 57.78 36.3968 57.096 36.3848C57.54 36.1688 57.984 36.4328 58.536 36.4208C58.26 35.2328 56.88 34.1408 56.28 33.7568V33.7448Z" fill="url(#paint49_linear_1_1565)"/>
<path opacity="0.55" d="M56.28 33.7448C57.336 33.6728 59.64 35.1968 59.664 37.0328C59.028 36.9608 57.78 36.3968 57.096 36.3848C57.552 36.1808 57.996 36.4808 58.572 36.4688C58.32 35.1728 56.856 34.1048 56.28 33.7448Z" fill="url(#paint50_linear_1_1565)"/>
<path opacity="0.64" d="M56.292 33.7448C57.348 33.6728 59.64 35.1968 59.676 37.0328C59.004 37.0808 57.792 36.3968 57.108 36.3848C57.564 36.1808 58.02 36.5288 58.632 36.5168C58.416 35.1128 56.844 34.0688 56.304 33.7328L56.292 33.7448Z" fill="url(#paint51_linear_1_1565)"/>
<path opacity="0.73" d="M56.292 33.7447C57.348 33.6727 59.64 35.2087 59.664 37.0327C58.944 37.1887 57.78 36.3967 57.096 36.3847C57.564 36.1807 58.032 36.5767 58.656 36.5767C58.464 35.0647 56.808 34.0447 56.28 33.7447H56.292Z" fill="url(#paint52_linear_1_1565)"/>
<path opacity="0.82" d="M56.292 33.7447C57.348 33.6727 59.64 35.2087 59.664 37.0327C58.896 37.2967 57.78 36.4087 57.096 36.3967C57.576 36.1927 58.044 36.6367 58.704 36.6367C58.536 35.0167 56.796 34.0087 56.292 33.7447Z" fill="url(#paint53_linear_1_1565)"/>
<path opacity="0.91" d="M56.304 33.7328C57.36 33.6608 59.64 35.1968 59.676 37.0208C58.872 37.3928 57.792 36.3968 57.108 36.3848C57.588 36.1808 58.068 36.6728 58.752 36.6728C58.62 34.9448 56.784 33.9608 56.304 33.7328Z" fill="url(#paint54_linear_1_1565)"/>
<path d="M58.788 36.7328C58.68 34.8968 56.76 33.9368 56.304 33.7328C57.36 33.6608 59.64 35.1968 59.676 37.0328C58.824 37.5128 57.792 36.4088 57.108 36.3968C57.6 36.1928 58.08 36.7328 58.788 36.7448V36.7328Z" fill="url(#paint55_linear_1_1565)"/>
<path opacity="0.05" d="M57.864 34.3568C58.44 34.7408 59.568 35.8208 59.676 37.0328C59.34 37.2728 58.92 37.2008 58.068 36.7688L57.864 34.3568Z" fill="url(#paint56_linear_1_1565)"/>
<path opacity="0.1" d="M57.8881 34.3688C58.4521 34.7408 59.5681 35.8088 59.6641 37.0328C59.3401 37.2608 58.9201 37.2008 58.0921 36.7808L57.8881 34.3808V34.3688Z" fill="url(#paint57_linear_1_1565)"/>
<path opacity="0.14" d="M57.912 34.3928C58.464 34.7528 59.568 35.8088 59.664 37.0328C59.34 37.2608 58.932 37.2128 58.116 36.7928L57.9 34.3928H57.912Z" fill="url(#paint58_linear_1_1565)"/>
<path opacity="0.19" d="M57.936 34.4167C58.476 34.7647 59.568 35.8207 59.664 37.0327C59.352 37.2487 58.932 37.2127 58.152 36.8047L57.936 34.4167Z" fill="url(#paint59_linear_1_1565)"/>
<path opacity="0.24" d="M57.972 34.4408C58.5 34.7888 59.568 35.8208 59.676 37.0328C59.364 37.2488 58.956 37.2128 58.2 36.8288L57.972 34.4408Z" fill="url(#paint60_linear_1_1565)"/>
<path opacity="0.29" d="M57.996 34.4528C58.512 34.7888 59.568 35.8088 59.676 37.0328C59.376 37.2368 58.968 37.2248 58.224 36.8408L57.996 34.4648V34.4528Z" fill="url(#paint61_linear_1_1565)"/>
<path opacity="0.33" d="M58.02 34.4768C58.512 34.8008 59.568 35.8088 59.664 37.0328C59.364 37.2368 58.968 37.2248 58.248 36.8528L58.02 34.4768Z" fill="url(#paint62_linear_1_1565)"/>
<path opacity="0.38" d="M58.0439 34.5007C58.5239 34.8247 59.5679 35.8207 59.6639 37.0327C59.3759 37.2247 58.9679 37.2247 58.2839 36.8647L58.0439 34.5007Z" fill="url(#paint63_linear_1_1565)"/>
<path opacity="0.43" d="M58.08 34.5248C58.548 34.8368 59.568 35.8208 59.676 37.0328C59.388 37.2248 58.992 37.2248 58.332 36.8888L58.092 34.5248H58.08Z" fill="url(#paint64_linear_1_1565)"/>
<path opacity="0.48" d="M58.104 34.5367C58.56 34.8367 59.568 35.8087 59.676 37.0327C59.4 37.2127 59.004 37.2367 58.356 36.9007L58.104 34.5487V34.5367Z" fill="url(#paint65_linear_1_1565)"/>
<path opacity="0.52" d="M58.1281 34.5608C58.5721 34.8488 59.5681 35.8208 59.6641 37.0328C59.3881 37.2128 59.0041 37.2368 58.3801 36.9128L58.1281 34.5608Z" fill="url(#paint66_linear_1_1565)"/>
<path opacity="0.57" d="M58.152 34.5847C58.584 34.8727 59.568 35.8207 59.664 37.0327C59.4 37.2007 59.004 37.2367 58.416 36.9247L58.152 34.5847Z" fill="url(#paint67_linear_1_1565)"/>
<path opacity="0.62" d="M58.176 34.6088C58.584 34.8848 59.568 35.8208 59.664 37.0328C59.412 37.2008 59.016 37.2488 58.44 36.9488L58.176 34.6088Z" fill="url(#paint68_linear_1_1565)"/>
<path opacity="0.67" d="M58.212 34.6207C58.608 34.8847 59.568 35.8087 59.676 37.0327C59.424 37.1887 59.04 37.2487 58.488 36.9607L58.212 34.6327V34.6207Z" fill="url(#paint69_linear_1_1565)"/>
<path opacity="0.71" d="M58.236 34.6448C58.62 34.9088 59.568 35.8208 59.664 37.0328C59.424 37.1888 59.04 37.2488 58.512 36.9728L58.236 34.6448Z" fill="url(#paint70_linear_1_1565)"/>
<path opacity="0.76" d="M58.26 34.6687C58.632 34.9207 59.568 35.8207 59.664 37.0327C59.424 37.1767 59.04 37.2607 58.548 36.9847L58.26 34.6687Z" fill="url(#paint71_linear_1_1565)"/>
<path opacity="0.81" d="M58.2841 34.6927C58.6441 34.9327 59.5681 35.8207 59.6641 37.0328C59.4361 37.1767 59.0521 37.2607 58.5721 37.0087L58.2841 34.6927Z" fill="url(#paint72_linear_1_1565)"/>
<path opacity="0.86" d="M58.3199 34.7047C58.6679 34.9327 59.5679 35.8087 59.6759 37.0327C59.4479 37.1647 59.0759 37.2607 58.6199 37.0207L58.3199 34.7167V34.7047Z" fill="url(#paint73_linear_1_1565)"/>
<path opacity="0.9" d="M58.344 34.7288C58.668 34.9568 59.568 35.8208 59.664 37.0328C59.448 37.1648 59.076 37.2728 58.644 37.0328L58.344 34.7288Z" fill="url(#paint74_linear_1_1565)"/>
<path opacity="0.95" d="M58.368 34.7528C58.68 34.9688 59.568 35.8208 59.664 37.0328C59.448 37.1528 59.076 37.2728 58.668 37.0448L58.356 34.7528H58.368Z" fill="url(#paint75_linear_1_1565)"/>
<path d="M58.392 34.7648C58.692 34.9688 59.568 35.8088 59.664 37.0208C59.46 37.1408 59.088 37.2608 58.704 37.0568L58.392 34.7648Z" fill="url(#paint76_linear_1_1565)"/>
<path d="M59.532 36.9367C59.64 35.7727 57.504 33.6727 56.304 33.7327C57.504 33.6607 59.748 35.4127 59.676 37.0327C59.268 37.2607 58.98 37.1887 58.716 37.0687C58.98 37.0687 59.304 37.0447 59.532 36.9367Z" fill="url(#paint77_linear_1_1565)"/>
<path d="M94.9441 97.1287C94.8481 99.4927 93.9961 102.385 91.4641 104.509C85.5841 109.465 79.0321 111.601 75.9121 112.537C75.8041 112.573 75.6721 112.261 75.5161 111.769C74.9761 110.005 74.2681 105.805 74.4241 105.685C74.4721 105.649 74.5201 105.613 74.5561 105.577C74.5921 105.541 74.6401 105.505 74.6761 105.469C75.9601 104.377 77.1361 102.649 78.2761 100.789C79.6801 98.4967 81.0361 96.0127 82.5121 94.2847C86.6641 89.4007 93.0841 89.8087 94.5361 93.8287C94.8121 94.5847 95.0041 95.7607 94.9441 97.1047V97.1287Z" fill="url(#paint78_linear_1_1565)"/>
<path d="M62.988 102.433C64.572 103.105 65.616 102.949 65.988 103.069C66.504 103.225 67.152 103.345 67.272 103.705C67.608 104.677 68.568 105.913 69.804 106.321C70.86 106.669 72.516 106.297 73.632 106.033C73.788 105.997 73.932 105.949 74.064 105.901C74.388 105.781 74.616 105.625 74.664 105.457C74.7 105.349 73.812 104.353 73.344 103.909C72.144 102.793 70.848 101.521 69.804 100.945C68.58 100.273 63.972 100.045 62.34 100.069C61.524 100.081 61.536 101.809 62.976 102.433H62.988Z" fill="url(#paint79_linear_1_1565)"/>
<path d="M62.964 104.041C62.412 104.041 59.376 104.341 59.028 104.341C58.68 104.341 56.388 104.197 55.572 104.197C54.756 104.197 54.384 105.565 55.8 106.033C57.216 106.501 58.716 106.777 59.256 106.777C59.796 106.777 62.616 106.705 63.084 106.573C63.564 106.441 63.696 104.029 62.952 104.029L62.964 104.041Z" fill="url(#paint80_linear_1_1565)"/>
<path d="M63.648 106.657C63.024 106.645 59.616 107.113 59.22 107.089C57.48 106.969 56.292 106.861 55.356 106.837C54.432 106.813 53.76 108.421 55.38 109.009C56.988 109.585 58.536 109.777 59.148 109.801C59.772 109.813 63.288 109.777 63.828 109.633C64.368 109.489 64.488 106.681 63.636 106.657H63.648Z" fill="url(#paint81_linear_1_1565)"/>
<path d="M64.5361 109.597C63.9601 109.585 60.2881 110.041 59.9401 110.029C58.5721 109.981 57.6241 109.837 56.9401 109.789C56.0881 109.729 55.5961 111.337 57.0721 111.865C58.5481 112.393 59.3041 112.489 59.8681 112.501C60.4321 112.513 64.1761 112.561 64.6681 112.429C65.1601 112.297 65.3041 109.609 64.5241 109.597H64.5361Z" fill="url(#paint82_linear_1_1565)"/>
<path d="M65.2801 112.273C64.8001 112.297 62.2201 112.849 61.9201 112.861C61.6201 112.873 59.2081 113.029 58.4881 113.065C57.7681 113.101 57.4321 114.541 58.7041 114.901C59.9641 115.249 61.5961 115.117 62.0641 115.093C62.5441 115.069 65.1601 114.781 65.5681 114.637C65.9761 114.493 65.9161 112.237 65.2681 112.273H65.2801Z" fill="url(#paint83_linear_1_1565)"/>
<path d="M75.9121 112.549C74.8321 112.957 67.6441 114.721 65.6041 114.721C65.6041 114.721 65.5801 114.721 65.5681 114.721C65.4601 114.721 65.3641 114.685 65.2561 114.625C63.3481 113.569 61.6561 104.041 62.6761 104.041C63.0001 104.041 64.9801 103.729 66.8881 103.489C68.1481 103.333 69.3721 103.189 70.0681 103.189C70.9561 103.189 73.4161 104.569 74.3281 105.181C74.5321 105.313 74.6521 105.421 74.6641 105.457C74.6641 105.457 74.6641 105.469 74.6641 105.481C74.7361 105.697 74.8321 105.985 74.9401 106.321C74.9641 106.393 74.9881 106.465 75.0121 106.537C75.4681 108.001 76.1041 110.245 76.1641 111.541C76.1881 112.081 76.1161 112.465 75.8881 112.549H75.9121Z" fill="url(#paint84_linear_1_1565)"/>
<path style="mix-blend-mode:multiply" d="M94.944 97.1287C94.848 99.4927 93.996 102.385 91.464 104.509C85.584 109.465 79.032 111.601 75.912 112.537C74.832 112.945 67.644 114.709 65.604 114.709C65.604 114.709 65.58 114.709 65.568 114.709C65.46 114.709 65.364 114.673 65.256 114.613C68.508 114.037 73.488 112.465 75.504 111.769C75.792 111.673 76.008 111.589 76.164 111.529C77.424 111.049 81.048 110.017 86.748 106.765C91.8 103.873 94.152 100.141 94.932 97.1167L94.944 97.1287Z" fill="url(#paint85_linear_1_1565)"/>
<path style="mix-blend-mode:multiply" d="M78.288 100.801C77.82 101.737 77.448 102.757 76.92 103.789C75.792 106.009 75.744 107.989 75.516 107.449C75.348 107.053 74.892 106.249 74.688 105.481C75.972 104.389 77.148 102.661 78.288 100.801Z" fill="url(#paint86_linear_1_1565)"/>
<path d="M38.556 74.9287C37.968 78.4687 34.116 88.7167 30.852 93.6727C30.12 94.7887 29.424 95.6287 28.788 96.0727C25.368 98.4967 14.88 96.0967 14.712 93.9127C14.712 93.9007 14.712 93.8887 14.712 93.8767C14.628 90.3727 21.036 71.9167 23.928 67.3927C26.82 62.8687 32.292 56.6887 37.032 59.3527C43.632 63.0607 39.264 70.5847 38.544 74.9167L38.556 74.9287Z" fill="url(#paint87_linear_1_1565)"/>
<path style="mix-blend-mode:multiply" d="M38.556 74.9287C37.968 78.4687 34.116 88.7167 30.852 93.6727C28.092 92.3167 23.868 90.6967 22.944 90.6367C21.684 90.5407 25.02 89.2807 29.544 90.9007C31.26 91.5367 31.896 90.6367 29.544 89.6407C27.192 88.6447 21.684 86.3887 19.596 85.4887C17.82 84.7207 15.396 89.5327 14.724 93.9247C14.724 93.9127 14.724 93.9007 14.724 93.8887C14.64 90.3847 21.048 71.9287 23.94 67.4047C26.832 62.8807 32.304 56.7007 37.044 59.3647C43.644 63.0727 39.276 70.5967 38.556 74.9287Z" fill="url(#paint88_linear_1_1565)"/>
<path d="M46.596 116.449C46.2 116.773 45.828 116.953 45.54 116.881C43.884 116.485 23.808 109.441 16.968 100.261C15.456 98.2207 14.58 96.0727 14.712 93.8767C15.432 88.4527 28.788 90.1687 31.428 93.4207C35.004 97.8127 45.408 106.585 48.948 109.633C49.08 109.753 49.2 109.861 49.32 109.957C50.364 110.857 48.24 115.057 46.584 116.437L46.596 116.449Z" fill="url(#paint89_linear_1_1565)"/>
<path d="M59.916 109.681C60.576 109.717 64.332 112.021 64.464 112.165C64.596 112.309 67.488 114.229 67.836 114.481C68.472 114.949 68.196 116.233 66.912 116.197C65.808 116.173 63.708 114.949 63.528 114.865C63.348 114.781 59.34 113.053 58.848 112.789C58.368 112.525 59.616 109.657 59.904 109.669L59.916 109.681Z" fill="url(#paint90_linear_1_1565)"/>
<path d="M58.26 112.825C59.004 112.837 63.06 114.925 63.204 115.057C63.348 115.201 66.54 117.061 66.912 117.301C67.8 117.853 67.02 119.365 65.952 119.101C64.752 118.801 62.304 117.817 62.112 117.745C61.92 117.673 57.756 116.125 57.216 115.885C56.676 115.633 57.936 112.825 58.248 112.825H58.26Z" fill="url(#paint91_linear_1_1565)"/>
<path d="M56.6039 115.753C57.2639 115.789 60.8879 117.877 61.0319 118.033C61.1639 118.177 64.4279 120.385 64.7639 120.649C65.2079 121.009 64.9079 122.305 63.6119 122.269C62.5079 122.245 60.2759 120.817 60.0959 120.733C59.9159 120.649 56.1359 119.221 55.6559 118.957C55.1759 118.693 56.3279 115.741 56.6039 115.753Z" fill="url(#paint92_linear_1_1565)"/>
<path d="M55.272 118.741C55.836 118.765 58.848 120.829 58.968 120.961C59.088 121.093 61.584 122.761 61.86 123.001C62.136 123.241 61.98 124.417 60.888 124.393C59.94 124.369 57.828 123.529 57.672 123.457C57.516 123.385 54.42 122.065 54.012 121.837C53.592 121.609 55.044 118.741 55.272 118.753V118.741Z" fill="url(#paint93_linear_1_1565)"/>
<path d="M48.2521 110.341C48.9481 109.753 53.7121 106.453 54.8281 106.333C55.9561 106.201 61.0441 105.913 61.8841 106.057C62.7241 106.201 62.1601 108.253 60.2041 108.505C58.2481 108.757 57.0721 108.997 56.8321 108.997C56.5921 108.997 54.3721 111.073 54.0841 111.193C53.7841 111.313 46.9201 111.469 48.2641 110.341H48.2521Z" fill="url(#paint94_linear_1_1565)"/>
<path d="M54.516 122.029C54.516 122.029 54.456 122.017 54.42 122.005C53.352 121.681 46.488 118.669 45.54 116.893C45.216 116.293 45.42 115.117 45.804 113.917C46.344 112.225 47.232 110.473 47.52 110.233C47.592 110.173 48.18 109.933 48.96 109.657C50.436 109.141 52.62 108.481 53.46 108.565C56.016 108.829 59.292 109.525 59.916 109.693C60.96 109.981 55.548 122.221 54.516 122.041V122.029Z" fill="url(#paint95_linear_1_1565)"/>
<path style="mix-blend-mode:multiply" d="M54.42 122.005C53.352 121.681 46.488 118.669 45.54 116.893C43.884 116.497 23.808 109.453 16.968 100.273C20.412 103.897 28.416 108.985 32.34 110.785C37.044 112.957 43.824 115.489 45.624 114.037C45.684 113.989 45.744 113.941 45.792 113.905C46.92 113.041 45.588 114.601 46.584 116.449C46.86 116.965 47.316 117.493 48.06 118.009C50.184 119.473 52.716 121.009 54.408 121.993L54.42 122.005Z" fill="url(#paint96_linear_1_1565)"/>
<path d="M42.3241 76.4167C37.9681 86.1367 35.4961 88.9807 35.1001 89.9767C34.9921 90.2527 34.1161 89.9527 31.9441 89.1487C26.2081 87.0247 14.7481 81.6247 15.1801 79.6087C15.7801 76.8367 27.2041 54.2647 36.3841 55.2007C44.1121 55.9927 46.6921 66.6967 42.3361 76.4167H42.3241Z" fill="url(#paint97_linear_1_1565)"/>
<path style="mix-blend-mode:multiply" opacity="0.5" d="M21.1081 74.1007C19.9081 75.9367 18.7321 81.3727 20.8441 82.9567C23.7241 85.1167 29.1361 87.6727 31.9441 89.1367C26.2081 87.0127 14.7481 81.6127 15.1801 79.5967C15.7801 76.8247 27.2041 54.2527 36.3841 55.1887C31.5601 55.4527 26.4001 62.7247 24.8161 66.1567C23.2321 69.5887 26.5321 65.8927 30.6361 66.6847C35.0761 67.5487 25.3441 67.6087 21.1201 74.0887L21.1081 74.1007Z" fill="url(#paint98_linear_1_1565)"/>
</g>
<defs>
<linearGradient id="paint0_linear_1_1565" x1="0" y1="60.0007" x2="120" y2="60.0007" gradientUnits="userSpaceOnUse">
<stop stop-color="#CCE9F1"/>
<stop offset="1" stop-color="#D0E1E7"/>
</linearGradient>
<linearGradient id="paint1_linear_1_1565" x1="93.744" y1="81.3727" x2="61.428" y2="90.3247" gradientUnits="userSpaceOnUse">
<stop stop-color="#EC7A2A"/>
<stop offset="1" stop-color="#C87944"/>
</linearGradient>
<linearGradient id="paint2_linear_1_1565" x1="88.392" y1="95.1607" x2="78.684" y2="71.3887" gradientUnits="userSpaceOnUse">
<stop stop-color="#FFECDF"/>
<stop offset="1" stop-color="#E5A480"/>
</linearGradient>
<linearGradient id="paint3_linear_1_1565" x1="97.752" y1="69.9367" x2="71.328" y2="85.0447" gradientUnits="userSpaceOnUse">
<stop stop-color="#24BEBE"/>
<stop offset="1" stop-color="#228686"/>
</linearGradient>
<linearGradient id="paint4_linear_1_1565" x1="85.38" y1="77.1727" x2="63.672" y2="88.7527" gradientUnits="userSpaceOnUse">
<stop stop-color="#0BBEBE"/>
<stop offset="1" stop-color="#228686"/>
</linearGradient>
<linearGradient id="paint5_linear_1_1565" x1="53.7194" y1="43.9478" x2="72.967" y2="66.6259" gradientUnits="userSpaceOnUse">
<stop stop-color="#FF8533"/>
<stop offset="1" stop-color="#FFA973"/>
</linearGradient>
<linearGradient id="paint6_linear_1_1565" x1="71.4429" y1="69.079" x2="54.2245" y2="37.4409" gradientUnits="userSpaceOnUse">
<stop stop-color="#FFECDF"/>
<stop offset="1" stop-color="#E5A480"/>
</linearGradient>
<linearGradient id="paint7_linear_1_1565" x1="74.424" y1="53.0528" x2="44.04" y2="107.569" gradientUnits="userSpaceOnUse">
<stop stop-color="#24BEBE"/>
<stop offset="1" stop-color="#228686"/>
</linearGradient>
<linearGradient id="paint8_linear_1_1565" x1="53.724" y1="59.9168" x2="67.296" y2="61.0328" gradientUnits="userSpaceOnUse">
<stop stop-color="#146969"/>
<stop offset="1" stop-color="#1A6969"/>
</linearGradient>
<linearGradient id="paint9_linear_1_1565" x1="30.996" y1="91.0807" x2="77.676" y2="91.0807" gradientUnits="userSpaceOnUse">
<stop stop-color="#0BBEBE"/>
<stop offset="1" stop-color="#228686"/>
</linearGradient>
<linearGradient id="paint10_linear_1_1565" x1="72.876" y1="76.4527" x2="82.5" y2="76.4527" gradientUnits="userSpaceOnUse">
<stop stop-color="#0BBEBE"/>
<stop offset="1" stop-color="#228686"/>
</linearGradient>
<linearGradient id="paint11_linear_1_1565" x1="52.3427" y1="47.3981" x2="85.4424" y2="23.0834" gradientUnits="userSpaceOnUse">
<stop stop-color="#FF8533"/>
<stop offset="0.72" stop-color="#FFA973"/>
</linearGradient>
<linearGradient id="paint12_linear_1_1565" x1="81.2946" y1="43.5704" x2="56.3897" y2="15.4601" gradientUnits="userSpaceOnUse">
<stop stop-color="#FFECDF"/>
<stop offset="1" stop-color="#E5A480"/>
</linearGradient>
<linearGradient id="paint13_linear_1_1565" x1="71.8104" y1="37.5871" x2="72.1522" y2="34.1214" gradientUnits="userSpaceOnUse">
<stop stop-color="#FFECDF"/>
<stop offset="1" stop-color="#E5A480"/>
</linearGradient>
<linearGradient id="paint14_linear_1_1565" x1="73.8828" y1="33.5671" x2="71.284" y2="37.4202" gradientUnits="userSpaceOnUse">
<stop stop-color="#FFECDF"/>
<stop offset="1" stop-color="#E5A480"/>
</linearGradient>
<linearGradient id="paint15_linear_1_1565" x1="74.9406" y1="35.278" x2="72.1308" y2="35.1742" gradientUnits="userSpaceOnUse">
<stop stop-color="#331500"/>
<stop offset="1" stop-color="#A04915"/>
</linearGradient>
<linearGradient id="paint16_linear_1_1565" x1="74.7792" y1="34.6854" x2="72.0613" y2="35.6125" gradientUnits="userSpaceOnUse">
<stop stop-color="#331500"/>
<stop offset="1" stop-color="#A04915"/>
</linearGradient>
<linearGradient id="paint17_linear_1_1565" x1="74.0363" y1="35.1499" x2="73.0997" y2="35.1153" gradientUnits="userSpaceOnUse">
<stop stop-color="#140800"/>
<stop offset="1" stop-color="#421E08"/>
</linearGradient>
<linearGradient id="paint18_linear_1_1565" x1="73.4264" y1="34.5539" x2="72.7549" y2="34.5187" gradientUnits="userSpaceOnUse">
<stop stop-color="#FFF7F1"/>
<stop offset="1" stop-color="#E5DBD5"/>
</linearGradient>
<linearGradient id="paint19_linear_1_1565" x1="75.3874" y1="35.4434" x2="37.2132" y2="29.7488" gradientUnits="userSpaceOnUse">
<stop stop-color="#FFECDF"/>
<stop offset="1" stop-color="#E5A480"/>
</linearGradient>
<linearGradient id="paint20_linear_1_1565" x1="68.2445" y1="35.1869" x2="76.0643" y2="34.5109" gradientUnits="userSpaceOnUse">
<stop stop-color="#1F0D00"/>
<stop offset="1" stop-color="#421E08"/>
</linearGradient>
<linearGradient id="paint21_linear_1_1565" x1="67.5929" y1="48.1732" x2="73.0053" y2="46.0565" gradientUnits="userSpaceOnUse">
<stop stop-color="#1F0D00"/>
<stop offset="1" stop-color="#421E08"/>
</linearGradient>
<linearGradient id="paint22_linear_1_1565" x1="81.0098" y1="40.3381" x2="83.2636" y2="33.8678" gradientUnits="userSpaceOnUse">
<stop stop-color="#FFECDF"/>
<stop offset="1" stop-color="#E5A480"/>
</linearGradient>
<linearGradient id="paint23_linear_1_1565" x1="84.311" y1="36.1972" x2="80.7463" y2="37.5295" gradientUnits="userSpaceOnUse">
<stop stop-color="#FFECDF"/>
<stop offset="1" stop-color="#E5A480"/>
</linearGradient>
<linearGradient id="paint24_linear_1_1565" x1="83.9528" y1="36.5642" x2="81.4932" y2="36.435" gradientUnits="userSpaceOnUse">
<stop stop-color="#331500"/>
<stop offset="1" stop-color="#A04915"/>
</linearGradient>
<linearGradient id="paint25_linear_1_1565" x1="84.1605" y1="36.4486" x2="81.7751" y2="37.2344" gradientUnits="userSpaceOnUse">
<stop stop-color="#331500"/>
<stop offset="1" stop-color="#A04915"/>
</linearGradient>
<linearGradient id="paint26_linear_1_1565" x1="83.1374" y1="36.5175" x2="82.3207" y2="36.4828" gradientUnits="userSpaceOnUse">
<stop stop-color="#140800"/>
<stop offset="1" stop-color="#421E08"/>
</linearGradient>
<linearGradient id="paint27_linear_1_1565" x1="82.4922" y1="35.9817" x2="81.9036" y2="35.9581" gradientUnits="userSpaceOnUse">
<stop stop-color="#FFF7F1"/>
<stop offset="1" stop-color="#E5DBD5"/>
</linearGradient>
<linearGradient id="paint28_linear_1_1565" x1="79.578" y1="36.3207" x2="109.605" y2="39.462" gradientUnits="userSpaceOnUse">
<stop stop-color="#FFECDF"/>
<stop offset="1" stop-color="#E5A480"/>
</linearGradient>
<linearGradient id="paint29_linear_1_1565" x1="79.1255" y1="35.3807" x2="85.4305" y2="36.5142" gradientUnits="userSpaceOnUse">
<stop stop-color="#1F0D00"/>
<stop offset="1" stop-color="#421E08"/>
</linearGradient>
<linearGradient id="paint30_linear_1_1565" x1="82.506" y1="53.486" x2="78.2199" y2="50.9354" gradientUnits="userSpaceOnUse">
<stop stop-color="#1F0D00"/>
<stop offset="1" stop-color="#421E08"/>
</linearGradient>
<linearGradient id="paint31_linear_1_1565" x1="76.3171" y1="43.3777" x2="79.124" y2="31.5495" gradientUnits="userSpaceOnUse">
<stop stop-color="#FF8533"/>
<stop offset="1" stop-color="#FFA973"/>
</linearGradient>
<linearGradient id="paint32_linear_1_1565" x1="68.5212" y1="32.1238" x2="78.0625" y2="30.4843" gradientUnits="userSpaceOnUse">
<stop stop-color="#693B26"/>
<stop offset="0.35" stop-color="#633722"/>
<stop offset="0.79" stop-color="#542B18"/>
<stop offset="1" stop-color="#4A2412"/>
</linearGradient>
<linearGradient id="paint33_linear_1_1565" x1="97.6961" y1="37.601" x2="103.841" y2="39.7988" gradientUnits="userSpaceOnUse">
<stop stop-color="#693B26"/>
<stop offset="0.35" stop-color="#633722"/>
<stop offset="0.79" stop-color="#542B18"/>
<stop offset="1" stop-color="#4A2412"/>
</linearGradient>
<linearGradient id="paint34_linear_1_1565" x1="77.065" y1="42.1304" x2="76.7654" y2="43.8324" gradientUnits="userSpaceOnUse">
<stop stop-color="#ECDBCF"/>
<stop offset="1" stop-color="#BC927F"/>
</linearGradient>
<linearGradient id="paint35_linear_1_1565" x1="75.0769" y1="43.2055" x2="75.1033" y2="44.5421" gradientUnits="userSpaceOnUse">
<stop stop-color="#70220D"/>
<stop offset="1" stop-color="#CB684F"/>
</linearGradient>
<linearGradient id="paint36_linear_1_1565" x1="78.408" y1="43.7054" x2="78.0345" y2="44.9781" gradientUnits="userSpaceOnUse">
<stop stop-color="#70220D"/>
<stop offset="1" stop-color="#CB684F"/>
</linearGradient>
<linearGradient id="paint37_linear_1_1565" x1="71.22" y1="48.3488" x2="84.168" y2="44.6168" gradientUnits="userSpaceOnUse">
<stop stop-color="#70220D"/>
<stop offset="1" stop-color="#CB684F"/>
</linearGradient>
<linearGradient id="paint38_linear_1_1565" x1="71.52" y1="48.2528" x2="80.088" y2="45.7808" gradientUnits="userSpaceOnUse">
<stop stop-color="#C36727"/>
<stop offset="1" stop-color="#EF813A"/>
</linearGradient>
<linearGradient id="paint39_linear_1_1565" x1="52.2481" y1="24.707" x2="92.6742" y2="27.1512" gradientUnits="userSpaceOnUse">
<stop stop-color="#693B26"/>
<stop offset="0.35" stop-color="#633722"/>
<stop offset="0.79" stop-color="#542B18"/>
<stop offset="1" stop-color="#4A2412"/>
</linearGradient>
<linearGradient id="paint40_linear_1_1565" x1="44.565" y1="41.6261" x2="73.5352" y2="11.8442" gradientUnits="userSpaceOnUse">
<stop stop-color="#593D00"/>
<stop offset="1" stop-color="#B26217"/>
</linearGradient>
<linearGradient id="paint41_linear_1_1565" x1="71.7198" y1="12.8405" x2="76.1172" y2="8.30961" gradientUnits="userSpaceOnUse">
<stop stop-color="#593D00"/>
<stop offset="1" stop-color="#B26217"/>
</linearGradient>
<linearGradient id="paint42_linear_1_1565" x1="66.8817" y1="40.3667" x2="93.1605" y2="13.3434" gradientUnits="userSpaceOnUse">
<stop stop-color="#593D00"/>
<stop offset="1" stop-color="#B26217"/>
</linearGradient>
<linearGradient id="paint43_linear_1_1565" x1="65.9602" y1="13.5563" x2="62.4691" y2="15.8819" gradientUnits="userSpaceOnUse">
<stop stop-color="#380E00"/>
<stop offset="1" stop-color="#A73A16"/>
</linearGradient>
<linearGradient id="paint44_linear_1_1565" x1="63.1251" y1="38.3045" x2="51.8906" y2="32.8695" gradientUnits="userSpaceOnUse">
<stop stop-color="#FF6700"/>
<stop offset="1" stop-color="#FFA063"/>
</linearGradient>
<linearGradient id="paint45_linear_1_1565" x1="59.0627" y1="34.4363" x2="56.934" y2="35.754" gradientUnits="userSpaceOnUse">
<stop stop-color="#B44900"/>
<stop offset="1" stop-color="#FE8D43"/>
</linearGradient>
<linearGradient id="paint46_linear_1_1565" x1="59.0627" y1="34.4363" x2="56.934" y2="35.754" gradientUnits="userSpaceOnUse">
<stop stop-color="#B44900"/>
<stop offset="1" stop-color="#FC8B40"/>
</linearGradient>
<linearGradient id="paint47_linear_1_1565" x1="59.0627" y1="34.4363" x2="56.934" y2="35.754" gradientUnits="userSpaceOnUse">
<stop stop-color="#B44900"/>
<stop offset="1" stop-color="#FB8A3E"/>
</linearGradient>
<linearGradient id="paint48_linear_1_1565" x1="59.0628" y1="34.4363" x2="56.9341" y2="35.754" gradientUnits="userSpaceOnUse">
<stop stop-color="#B44900"/>
<stop offset="1" stop-color="#FA883C"/>
</linearGradient>
<linearGradient id="paint49_linear_1_1565" x1="59.0737" y1="34.4313" x2="56.9341" y2="35.754" gradientUnits="userSpaceOnUse">
<stop stop-color="#B44900"/>
<stop offset="1" stop-color="#F9863A"/>
</linearGradient>
<linearGradient id="paint50_linear_1_1565" x1="59.0737" y1="34.4313" x2="56.9341" y2="35.754" gradientUnits="userSpaceOnUse">
<stop stop-color="#B44900"/>
<stop offset="1" stop-color="#F78437"/>
</linearGradient>
<linearGradient id="paint51_linear_1_1565" x1="59.0737" y1="34.4313" x2="56.9232" y2="35.7591" gradientUnits="userSpaceOnUse">
<stop stop-color="#B44900"/>
<stop offset="1" stop-color="#F68235"/>
</linearGradient>
<linearGradient id="paint52_linear_1_1565" x1="59.0737" y1="34.4313" x2="56.9232" y2="35.759" gradientUnits="userSpaceOnUse">
<stop stop-color="#B44900"/>
<stop offset="1" stop-color="#F58033"/>
</linearGradient>
<linearGradient id="paint53_linear_1_1565" x1="59.0737" y1="34.4313" x2="56.9232" y2="35.759" gradientUnits="userSpaceOnUse">
<stop stop-color="#B44900"/>
<stop offset="1" stop-color="#F47F31"/>
</linearGradient>
<linearGradient id="paint54_linear_1_1565" x1="59.0736" y1="34.4313" x2="56.9231" y2="35.759" gradientUnits="userSpaceOnUse">
<stop stop-color="#B44900"/>
<stop offset="1" stop-color="#F27D2E"/>
</linearGradient>
<linearGradient id="paint55_linear_1_1565" x1="59.0736" y1="34.4313" x2="56.9231" y2="35.759" gradientUnits="userSpaceOnUse">
<stop stop-color="#B44900"/>
<stop offset="1" stop-color="#F17B2C"/>
</linearGradient>
<linearGradient id="paint56_linear_1_1565" x1="-414.855" y1="304.808" x2="-416.226" y2="305.823" gradientUnits="userSpaceOnUse">
<stop stop-color="#6B2C00"/>
<stop offset="1" stop-color="#E26E20"/>
</linearGradient>
<linearGradient id="paint57_linear_1_1565" x1="-414.845" y1="304.825" x2="-416.198" y2="305.821" gradientUnits="userSpaceOnUse">
<stop stop-color="#6B2C00"/>
<stop offset="1" stop-color="#E26E20"/>
</linearGradient>
<linearGradient id="paint58_linear_1_1565" x1="-414.835" y1="304.842" x2="-416.167" y2="305.825" gradientUnits="userSpaceOnUse">
<stop stop-color="#6B2C00"/>
<stop offset="1" stop-color="#E26E20"/>
</linearGradient>
<linearGradient id="paint59_linear_1_1565" x1="-414.826" y1="304.859" x2="-416.146" y2="305.828" gradientUnits="userSpaceOnUse">
<stop stop-color="#6B2C00"/>
<stop offset="1" stop-color="#E26E20"/>
</linearGradient>
<linearGradient id="paint60_linear_1_1565" x1="-414.826" y1="304.872" x2="-416.115" y2="305.83" gradientUnits="userSpaceOnUse">
<stop stop-color="#6B2C00"/>
<stop offset="1" stop-color="#E26E20"/>
</linearGradient>
<linearGradient id="paint61_linear_1_1565" x1="-414.816" y1="304.889" x2="-416.087" y2="305.828" gradientUnits="userSpaceOnUse">
<stop stop-color="#6B2C00"/>
<stop offset="1" stop-color="#E26E20"/>
</linearGradient>
<linearGradient id="paint62_linear_1_1565" x1="-414.807" y1="304.906" x2="-416.06" y2="305.826" gradientUnits="userSpaceOnUse">
<stop stop-color="#6B2C00"/>
<stop offset="1" stop-color="#E26E20"/>
</linearGradient>
<linearGradient id="paint63_linear_1_1565" x1="-414.797" y1="304.923" x2="-416.035" y2="305.835" gradientUnits="userSpaceOnUse">
<stop stop-color="#6B2C00"/>
<stop offset="1" stop-color="#E26E20"/>
</linearGradient>
<linearGradient id="paint64_linear_1_1565" x1="-414.798" y1="304.936" x2="-416.008" y2="305.831" gradientUnits="userSpaceOnUse">
<stop stop-color="#6B2C00"/>
<stop offset="1" stop-color="#E26E20"/>
</linearGradient>
<linearGradient id="paint65_linear_1_1565" x1="-414.789" y1="304.953" x2="-415.977" y2="305.835" gradientUnits="userSpaceOnUse">
<stop stop-color="#6B2C00"/>
<stop offset="1" stop-color="#E26E20"/>
</linearGradient>
<linearGradient id="paint66_linear_1_1565" x1="-414.779" y1="304.97" x2="-415.956" y2="305.838" gradientUnits="userSpaceOnUse">
<stop stop-color="#6B2C00"/>
<stop offset="1" stop-color="#E26E20"/>
</linearGradient>
<linearGradient id="paint67_linear_1_1565" x1="-414.769" y1="304.987" x2="-415.928" y2="305.836" gradientUnits="userSpaceOnUse">
<stop stop-color="#6B2C00"/>
<stop offset="1" stop-color="#E26E20"/>
</linearGradient>
<linearGradient id="paint68_linear_1_1565" x1="-414.763" y1="304.996" x2="-415.898" y2="305.839" gradientUnits="userSpaceOnUse">
<stop stop-color="#6B2C00"/>
<stop offset="1" stop-color="#E26E20"/>
</linearGradient>
<linearGradient id="paint69_linear_1_1565" x1="-414.76" y1="305.017" x2="-415.87" y2="305.837" gradientUnits="userSpaceOnUse">
<stop stop-color="#6B2C00"/>
<stop offset="1" stop-color="#E26E20"/>
</linearGradient>
<linearGradient id="paint70_linear_1_1565" x1="-414.751" y1="305.034" x2="-415.846" y2="305.845" gradientUnits="userSpaceOnUse">
<stop stop-color="#6B2C00"/>
<stop offset="1" stop-color="#E26E20"/>
</linearGradient>
<linearGradient id="paint71_linear_1_1565" x1="-414.74" y1="305.052" x2="-415.817" y2="305.844" gradientUnits="userSpaceOnUse">
<stop stop-color="#6B2C00"/>
<stop offset="1" stop-color="#E26E20"/>
</linearGradient>
<linearGradient id="paint72_linear_1_1565" x1="-414.73" y1="305.069" x2="-415.789" y2="305.842" gradientUnits="userSpaceOnUse">
<stop stop-color="#6B2C00"/>
<stop offset="1" stop-color="#E26E20"/>
</linearGradient>
<linearGradient id="paint73_linear_1_1565" x1="-414.732" y1="305.082" x2="-415.766" y2="305.848" gradientUnits="userSpaceOnUse">
<stop stop-color="#6B2C00"/>
<stop offset="1" stop-color="#E26E20"/>
</linearGradient>
<linearGradient id="paint74_linear_1_1565" x1="-414.722" y1="305.099" x2="-415.738" y2="305.847" gradientUnits="userSpaceOnUse">
<stop stop-color="#6B2C00"/>
<stop offset="1" stop-color="#E26E20"/>
</linearGradient>
<linearGradient id="paint75_linear_1_1565" x1="-414.711" y1="305.116" x2="-415.706" y2="305.851" gradientUnits="userSpaceOnUse">
<stop stop-color="#6B2C00"/>
<stop offset="1" stop-color="#E26E20"/>
</linearGradient>
<linearGradient id="paint76_linear_1_1565" x1="-414.701" y1="305.133" x2="-415.678" y2="305.849" gradientUnits="userSpaceOnUse">
<stop stop-color="#6B2C00"/>
<stop offset="1" stop-color="#E26E20"/>
</linearGradient>
<linearGradient id="paint77_linear_1_1565" x1="57.8565" y1="35.3185" x2="59.7893" y2="36.1097" gradientUnits="userSpaceOnUse">
<stop stop-color="#D8661A"/>
<stop offset="1" stop-color="#A24B0D"/>
</linearGradient>
<linearGradient id="paint78_linear_1_1565" x1="93.3361" y1="106.765" x2="63.0361" y2="90.9727" gradientUnits="userSpaceOnUse">
<stop stop-color="#FF8533"/>
<stop offset="1" stop-color="#FFA973"/>
</linearGradient>
<linearGradient id="paint79_linear_1_1565" x1="67.608" y1="104.569" x2="69.048" y2="101.065" gradientUnits="userSpaceOnUse">
<stop stop-color="#FF8533"/>
<stop offset="1" stop-color="#FFA973"/>
</linearGradient>
<linearGradient id="paint80_linear_1_1565" x1="59.28" y1="104.113" x2="59.052" y2="106.465" gradientUnits="userSpaceOnUse">
<stop stop-color="#FF8533"/>
<stop offset="1" stop-color="#FFA973"/>
</linearGradient>
<linearGradient id="paint81_linear_1_1565" x1="59.424" y1="107.401" x2="59.196" y2="109.237" gradientUnits="userSpaceOnUse">
<stop stop-color="#FF8533"/>
<stop offset="1" stop-color="#FFA973"/>
</linearGradient>
<linearGradient id="paint82_linear_1_1565" x1="60.6481" y1="109.897" x2="60.5641" y2="111.877" gradientUnits="userSpaceOnUse">
<stop stop-color="#FF8533"/>
<stop offset="1" stop-color="#FFA973"/>
</linearGradient>
<linearGradient id="paint83_linear_1_1565" x1="61.7401" y1="112.765" x2="61.9561" y2="114.841" gradientUnits="userSpaceOnUse">
<stop stop-color="#FF8533"/>
<stop offset="1" stop-color="#FFA973"/>
</linearGradient>
<linearGradient id="paint84_linear_1_1565" x1="87.7681" y1="119.197" x2="55.7641" y2="102.529" gradientUnits="userSpaceOnUse">
<stop stop-color="#FF8533"/>
<stop offset="1" stop-color="#FFA973"/>
</linearGradient>
<linearGradient id="paint85_linear_1_1565" x1="81.132" y1="111.961" x2="77.7" y2="91.5367" gradientUnits="userSpaceOnUse">
<stop stop-color="#FFECDF"/>
<stop offset="1" stop-color="#E5A480"/>
</linearGradient>
<linearGradient id="paint86_linear_1_1565" x1="78.036" y1="107.857" x2="72.936" y2="92.4007" gradientUnits="userSpaceOnUse">
<stop stop-color="#FFECDF"/>
<stop offset="1" stop-color="#E5A480"/>
</linearGradient>
<linearGradient id="paint87_linear_1_1565" x1="19.692" y1="74.8087" x2="39.264" y2="82.0327" gradientUnits="userSpaceOnUse">
<stop stop-color="#FF8533"/>
<stop offset="1" stop-color="#FFA973"/>
</linearGradient>
<linearGradient id="paint88_linear_1_1565" x1="19.86" y1="74.3767" x2="39.42" y2="81.6007" gradientUnits="userSpaceOnUse">
<stop stop-color="#FFECDF"/>
<stop offset="1" stop-color="#E5A480"/>
</linearGradient>
<linearGradient id="paint89_linear_1_1565" x1="26.172" y1="108.373" x2="44.88" y2="92.7727" gradientUnits="userSpaceOnUse">
<stop stop-color="#FF8533"/>
<stop offset="1" stop-color="#FFA973"/>
</linearGradient>
<linearGradient id="paint90_linear_1_1565" x1="63.0078" y1="114.532" x2="64.2728" y2="111.865" gradientUnits="userSpaceOnUse">
<stop stop-color="#FF8533"/>
<stop offset="1" stop-color="#FFA973"/>
</linearGradient>
<linearGradient id="paint91_linear_1_1565" x1="61.7788" y1="118.002" x2="63.0925" y2="113.749" gradientUnits="userSpaceOnUse">
<stop stop-color="#FF8533"/>
<stop offset="1" stop-color="#FFA973"/>
</linearGradient>
<linearGradient id="paint92_linear_1_1565" x1="59.4298" y1="120.954" x2="60.9656" y2="118.111" gradientUnits="userSpaceOnUse">
<stop stop-color="#FF8533"/>
<stop offset="1" stop-color="#FFA973"/>
</linearGradient>
<linearGradient id="paint93_linear_1_1565" x1="56.5633" y1="123.86" x2="59.256" y2="120.359" gradientUnits="userSpaceOnUse">
<stop stop-color="#FF8533"/>
<stop offset="1" stop-color="#FFA973"/>
</linearGradient>
<linearGradient id="paint94_linear_1_1565" x1="55.6659" y1="110.285" x2="54.5034" y2="106.334" gradientUnits="userSpaceOnUse">
<stop stop-color="#FF8533"/>
<stop offset="1" stop-color="#FFA973"/>
</linearGradient>
<linearGradient id="paint95_linear_1_1565" x1="39.48" y1="125.797" x2="58.92" y2="109.573" gradientUnits="userSpaceOnUse">
<stop stop-color="#FF8533"/>
<stop offset="1" stop-color="#FFA973"/>
</linearGradient>
<linearGradient id="paint96_linear_1_1565" x1="14.016" y1="103.129" x2="61.908" y2="120.817" gradientUnits="userSpaceOnUse">
<stop stop-color="#FFECDF"/>
<stop offset="1" stop-color="#E5A480"/>
</linearGradient>
<linearGradient id="paint97_linear_1_1565" x1="22.0321" y1="64.2727" x2="38.5081" y2="76.6687" gradientUnits="userSpaceOnUse">
<stop stop-color="#24BEBE"/>
<stop offset="1" stop-color="#228686"/>
</linearGradient>
<linearGradient id="paint98_linear_1_1565" x1="30.0961" y1="89.1487" x2="26.3041" y2="70.1887" gradientUnits="userSpaceOnUse">
<stop stop-color="#0BBEBE"/>
<stop offset="1" stop-color="#228686"/>
</linearGradient>
</defs>
</svg>
