<svg width="44" height="44" viewBox="0 0 44 44" fill="none" xmlns="http://www.w3.org/2000/svg">
<path d="M2.909 22.0029C2.90848 18.4174 3.91777 14.9042 5.82128 11.8656C7.7248 8.82695 10.4456 6.38583 13.6721 4.82171C16.8986 3.2576 20.5004 2.63372 24.065 3.02153C27.6296 3.40933 31.013 4.79314 33.8276 7.01449H30.9231C30.6715 7.01693 30.4311 7.11858 30.254 7.29735C30.077 7.47612 29.9776 7.71756 29.9776 7.96916C29.9776 8.22076 30.077 8.4622 30.254 8.64097C30.4311 8.81974 30.6715 8.92139 30.9231 8.92383H36.3237C36.5769 8.92383 36.8197 8.82324 36.9988 8.6442C37.1778 8.46516 37.2784 8.22232 37.2784 7.96911V2.56851C37.276 2.31691 37.1743 2.07645 36.9956 1.89941C36.8168 1.72236 36.5753 1.62304 36.3237 1.62304C36.0721 1.62304 35.8307 1.72236 35.6519 1.89941C35.4731 2.07645 35.3715 2.31691 35.369 2.56851V5.8013C31.2061 2.36724 25.881 0.667299 20.4983 1.05404C15.1155 1.44079 10.0882 3.88454 6.45892 7.87845C2.82968 11.8724 0.877041 17.11 1.006 22.5049C1.13497 27.8999 3.33563 33.0382 7.15157 36.8541C7.33129 37.0297 7.573 37.1274 7.82428 37.126C8.07556 37.1245 8.31613 37.0241 8.49382 36.8464C8.6715 36.6687 8.77196 36.4281 8.77341 36.1769C8.77486 35.9256 8.67717 35.6839 8.50155 35.5042C6.72295 33.7353 5.31286 31.6312 4.3529 29.3137C3.39293 26.9962 2.90217 24.5114 2.909 22.0029Z" fill="white"/>
<path d="M13.6588 39.183C13.1171 38.9196 12.581 38.6264 12.0656 38.3123C11.8495 38.1803 11.5898 38.1397 11.3437 38.1992C11.0976 38.2587 10.8853 38.4136 10.7533 38.6297C10.6214 38.8458 10.5807 39.1054 10.6403 39.3515C10.6998 39.5976 10.8546 39.81 11.0708 39.9419C11.6381 40.2883 12.2282 40.6104 12.8245 40.9003C12.9373 40.9551 13.0597 40.9871 13.1848 40.9946C13.31 41.0021 13.4354 40.9848 13.5539 40.9438C13.6723 40.9028 13.7816 40.8389 13.8753 40.7557C13.9691 40.6725 14.0456 40.5716 14.1004 40.4589C14.1552 40.3461 14.1872 40.2237 14.1947 40.0985C14.2021 39.9734 14.1849 39.848 14.1439 39.7295C14.1029 39.6111 14.039 39.5018 13.9558 39.408C13.8726 39.3143 13.7717 39.2378 13.6589 39.183H13.6588Z" fill="white"/>
<path d="M39.192 13.6765C39.2467 13.7894 39.323 13.8903 39.4167 13.9737C39.5104 14.057 39.6195 14.1211 39.738 14.1622C39.8564 14.2033 39.9818 14.2207 40.107 14.2134C40.2321 14.2061 40.3546 14.1742 40.4674 14.1196C40.5803 14.0649 40.6813 13.9886 40.7646 13.8949C40.8479 13.8012 40.912 13.6921 40.9531 13.5736C40.9943 13.4552 41.0117 13.3298 41.0044 13.2047C40.997 13.0795 40.9651 12.957 40.9105 12.8442C40.6228 12.2498 40.3012 11.6597 39.9549 11.0899C39.8897 10.9828 39.8041 10.8896 39.7029 10.8155C39.6017 10.7415 39.4869 10.6881 39.365 10.6585C39.119 10.5985 38.8592 10.6388 38.6428 10.7704C38.4265 10.902 38.2713 11.1142 38.2113 11.3602C38.1514 11.6063 38.1917 11.8661 38.3233 12.0824C38.6382 12.6004 38.9305 13.1368 39.192 13.6765Z" fill="white"/>
<path d="M24.2682 40.9629C23.6655 41.0345 23.0557 41.0771 22.4553 41.0916C22.2067 41.1011 21.9716 41.2073 21.8001 41.3875C21.6286 41.5677 21.5343 41.8078 21.5372 42.0566C21.5401 42.3053 21.64 42.5432 21.8156 42.7194C21.9912 42.8956 22.2287 42.9963 22.4775 43C22.4849 43 22.4929 43 22.5003 42.9995C23.1604 42.9842 23.8302 42.9369 24.4922 42.8588C24.7434 42.8288 24.9725 42.7004 25.1291 42.5017C25.2857 42.3029 25.357 42.0502 25.3274 41.7989C25.2977 41.5476 25.1696 41.3184 24.971 41.1616C24.7724 41.0047 24.5198 40.9331 24.2684 40.9625L24.2682 40.9629Z" fill="white"/>
<path d="M18.8347 40.8333C18.2408 40.734 17.6436 40.6048 17.06 40.4484C16.8153 40.383 16.5547 40.4175 16.3354 40.5442C16.1162 40.671 15.9562 40.8797 15.8908 41.1244C15.8254 41.369 15.8599 41.6297 15.9867 41.8489C16.1135 42.0682 16.3221 42.2281 16.5668 42.2935C17.2092 42.465 17.8665 42.6072 18.5205 42.7163C18.6442 42.7369 18.7707 42.733 18.8928 42.7047C19.015 42.6764 19.1303 42.6244 19.2324 42.5515C19.3344 42.4787 19.4211 42.3865 19.4875 42.2801C19.5538 42.1737 19.5986 42.0554 19.6193 41.9317C19.6399 41.808 19.636 41.6815 19.6077 41.5594C19.5794 41.4373 19.5274 41.3219 19.4545 41.2199C19.3817 41.1178 19.2894 41.0312 19.1831 40.9648C19.0767 40.8984 18.9583 40.8536 18.8347 40.833V40.8333Z" fill="white"/>
<path d="M42.0692 21.5426C41.8161 21.5365 41.5709 21.6311 41.3875 21.8056C41.2041 21.9802 41.0976 22.2204 41.0912 22.4735C41.0758 23.0771 41.032 23.6868 40.9602 24.2863C40.9303 24.5377 41.0014 24.7908 41.1579 24.9898C41.3145 25.1888 41.5436 25.3176 41.7951 25.3477C41.8331 25.352 41.8714 25.3541 41.9097 25.3542C42.1431 25.3539 42.3682 25.2681 42.5426 25.1131C42.7171 24.9581 42.8287 24.7446 42.8565 24.5129C42.9348 23.8543 42.9833 23.1844 42.9997 22.5211C43.0029 22.3957 42.9813 22.271 42.9363 22.154C42.8913 22.0369 42.8236 21.9299 42.7372 21.8391C42.6508 21.7482 42.5473 21.6753 42.4327 21.6244C42.3181 21.5735 42.1946 21.5457 42.0692 21.5426Z" fill="white"/>
<path d="M39.1389 32.4625C38.9293 32.3205 38.672 32.2674 38.4234 32.3149C38.1747 32.3623 37.9551 32.5064 37.8126 32.7157C37.4732 33.2149 37.1063 33.7039 36.7213 34.1686C36.6394 34.2649 36.5775 34.3765 36.5391 34.4969C36.5007 34.6173 36.4866 34.7442 36.4977 34.8701C36.5087 34.996 36.5446 35.1184 36.6033 35.2304C36.6621 35.3423 36.7424 35.4414 36.8398 35.522C36.9372 35.6026 37.0495 35.663 37.1705 35.6999C37.2914 35.7367 37.4184 35.7491 37.5441 35.7364C37.6699 35.7238 37.7919 35.6863 37.903 35.6261C38.0141 35.5659 38.1122 35.4842 38.1916 35.3858C38.6148 34.875 39.019 34.3374 39.3919 33.7883C39.4623 33.6847 39.5117 33.5681 39.5371 33.4454C39.5625 33.3227 39.5635 33.1961 39.54 33.073C39.5165 32.9499 39.469 32.8326 39.4001 32.7279C39.3313 32.6231 39.2425 32.533 39.1389 32.4625Z" fill="white"/>
<path d="M40.4544 17.0776C40.6091 17.6589 40.7378 18.2561 40.8371 18.8527C40.8741 19.0755 40.9889 19.2781 41.1611 19.4243C41.3334 19.5705 41.5519 19.6509 41.7778 19.6512C41.8304 19.6511 41.8829 19.6467 41.9349 19.6381C42.0586 19.6176 42.177 19.5729 42.2835 19.5066C42.3899 19.4403 42.4822 19.3537 42.5551 19.2517C42.6281 19.1497 42.6802 19.0344 42.7086 18.9122C42.7369 18.7901 42.7409 18.6636 42.7203 18.5399C42.6117 17.8836 42.4697 17.226 42.2997 16.5862C42.2345 16.3416 42.0748 16.1328 41.8557 16.0059C41.6367 15.8789 41.3761 15.8442 41.1314 15.9094C40.8868 15.9745 40.678 16.1342 40.551 16.3533C40.4241 16.5724 40.3894 16.8329 40.4546 17.0776H40.4544Z" fill="white"/>
<path d="M34.1528 36.7339C33.6861 37.1199 33.1971 37.4867 32.6998 37.8238C32.596 37.8941 32.5071 37.9842 32.4382 38.0889C32.3692 38.1936 32.3216 38.3108 32.2979 38.4339C32.2743 38.557 32.2752 38.6836 32.3004 38.8064C32.3257 38.9291 32.3749 39.0457 32.4453 39.1495C32.5156 39.2533 32.6057 39.3422 32.7104 39.4111C32.8151 39.48 32.9323 39.5277 33.0555 39.5513C33.1786 39.575 33.3051 39.5741 33.4279 39.5488C33.5507 39.5236 33.6673 39.4743 33.771 39.404C34.3184 39.0334 34.8558 38.6302 35.3695 38.206C35.5647 38.0447 35.6878 37.8124 35.7118 37.5603C35.7357 37.3082 35.6586 37.0568 35.4972 36.8616C35.3359 36.6664 35.1036 36.5433 34.8515 36.5193C34.5993 36.4954 34.348 36.5726 34.1528 36.7339Z" fill="white"/>
<path d="M41.3881 27.2132C41.1469 27.1366 40.8851 27.1588 40.6603 27.2749C40.4354 27.3911 40.2659 27.5917 40.1887 27.8327C40.006 28.4055 39.7925 28.9776 39.5542 29.5337C39.5022 29.6493 39.4737 29.7741 39.4704 29.9009C39.4671 30.0277 39.4891 30.1538 39.5351 30.272C39.5811 30.3901 39.6501 30.4979 39.7383 30.5891C39.8264 30.6803 39.9318 30.753 40.0483 30.8029C40.1649 30.8529 40.2902 30.8792 40.417 30.8802C40.5438 30.8812 40.6695 30.8569 40.7869 30.8088C40.9042 30.7607 41.0107 30.6897 41.1003 30.5999C41.1899 30.5102 41.2606 30.4035 41.3085 30.286C41.5715 29.6739 41.8064 29.0433 42.0073 28.4126C42.0454 28.2932 42.0597 28.1674 42.0492 28.0425C42.0387 27.9176 42.0038 27.796 41.9463 27.6846C41.8888 27.5732 41.8099 27.4742 41.7141 27.3933C41.6183 27.3125 41.5075 27.2512 41.3881 27.2132Z" fill="white"/>
<path d="M29.5159 39.5615C28.9653 39.7974 28.3929 40.0105 27.8144 40.195C27.695 40.2331 27.5842 40.2943 27.4884 40.3752C27.3926 40.4561 27.3137 40.555 27.2562 40.6664C27.1987 40.7778 27.1637 40.8994 27.1531 41.0243C27.1426 41.1492 27.1568 41.275 27.1949 41.3944C27.2329 41.5139 27.2942 41.6246 27.375 41.7204C27.4559 41.8162 27.5549 41.8951 27.6663 41.9526C27.7776 42.0101 27.8993 42.0452 28.0242 42.0557C28.1491 42.0662 28.2749 42.052 28.3943 42.014C29.0306 41.8111 29.6609 41.5767 30.2673 41.3171C30.5001 41.2174 30.6838 41.0293 30.7779 40.7942C30.8721 40.5591 30.8689 40.2962 30.7692 40.0634C30.6695 39.8306 30.4814 39.6469 30.2463 39.5528C30.0112 39.4587 29.7483 39.4618 29.5155 39.5615H29.5159Z" fill="white"/>
<path d="M13.9291 20.0525C13.9291 18.4879 12.9003 17.2341 11.3079 16.8582C10.4332 16.651 9.51397 16.7465 8.70043 17.129C7.88688 17.5115 7.22702 18.1585 6.82855 18.9643C6.77164 19.0765 6.73748 19.1989 6.72803 19.3244C6.71858 19.4499 6.73403 19.576 6.77348 19.6955C6.81294 19.8149 6.87563 19.9255 6.95794 20.0206C7.04026 20.1158 7.14058 20.1938 7.25313 20.2501C7.36568 20.3063 7.48825 20.3398 7.61378 20.3486C7.73932 20.3573 7.86534 20.3412 7.98461 20.301C8.10388 20.2609 8.21405 20.1976 8.30877 20.1148C8.40349 20.0319 8.4809 19.9312 8.53655 19.8183C8.74038 19.3953 9.08327 19.055 9.50788 18.8545C9.93249 18.654 10.4131 18.6053 10.8693 18.7165C11.1392 18.7802 12.0198 19.065 12.0198 20.0525C12.0198 21.0482 10.8697 21.8162 9.65212 22.6295C8.2811 23.5445 6.72786 24.5818 6.72786 26.299C6.72786 26.5522 6.82843 26.795 7.00746 26.9741C7.18649 27.1531 7.42931 27.2537 7.6825 27.2537H12.9744C13.226 27.2513 13.4665 27.1496 13.6435 26.9709C13.8206 26.7921 13.9199 26.5507 13.9199 26.2991C13.9199 26.0475 13.8206 25.806 13.6435 25.6273C13.4665 25.4485 13.226 25.3468 12.9744 25.3444H9.19198C9.59197 24.9655 10.1574 24.5878 10.7121 24.2172C12.2203 23.2103 13.9291 22.0692 13.9291 20.0525Z" fill="white"/>
<path d="M22.9578 23.1963C22.9578 22.9431 22.8572 22.7003 22.6782 22.5212C22.4991 22.3422 22.2563 22.2416 22.0031 22.2416H21.2274V17.1699C21.2273 16.9721 21.1659 16.7793 21.0516 16.618C20.9373 16.4567 20.7757 16.3348 20.5891 16.2692C20.4026 16.2037 20.2003 16.1977 20.0102 16.252C19.8201 16.3063 19.6515 16.4183 19.5278 16.5725L14.6946 22.5992C14.5821 22.7396 14.5116 22.9089 14.4912 23.0876C14.4708 23.2663 14.5012 23.4472 14.5791 23.6093C14.6569 23.7715 14.779 23.9084 14.9312 24.0042C15.0834 24.1 15.2596 24.1509 15.4395 24.151H19.318V26.836C19.3168 26.9622 19.3406 27.0873 19.388 27.2042C19.4354 27.3211 19.5055 27.4274 19.5943 27.5171C19.6831 27.6067 19.7887 27.6779 19.9052 27.7264C20.0216 27.775 20.1465 27.8 20.2727 27.8C20.3988 27.8 20.5237 27.775 20.6402 27.7264C20.7566 27.6779 20.8623 27.6067 20.951 27.5171C21.0398 27.4274 21.1099 27.3211 21.1574 27.2042C21.2048 27.0873 21.2286 26.9622 21.2274 26.836V24.151H22.0031C22.2563 24.151 22.4992 24.0504 22.6782 23.8714C22.8572 23.6923 22.9578 23.4495 22.9578 23.1963ZM19.318 22.2416H17.4295L19.318 19.8861V22.2416Z" fill="white"/>
<path d="M27.8441 15.6969C27.7212 15.672 27.5945 15.6717 27.4714 15.6959C27.3483 15.7201 27.2312 15.7684 27.1269 15.838C27.0225 15.9075 26.9329 15.997 26.8632 16.1013C26.7935 16.2056 26.745 16.3227 26.7207 16.4457L24.5726 27.1859C24.5229 27.4341 24.5738 27.692 24.7142 27.9027C24.8547 28.1133 25.073 28.2596 25.3213 28.3093C25.3832 28.3216 25.4461 28.3279 25.5092 28.3279C25.7297 28.3277 25.9434 28.2511 26.1138 28.1113C26.2843 27.9714 26.4011 27.7768 26.4444 27.5606L28.5925 16.8205C28.6171 16.6975 28.6174 16.571 28.5931 16.448C28.5689 16.325 28.5206 16.2079 28.4511 16.1036C28.3816 15.9993 28.2922 15.9096 28.1881 15.8398C28.0839 15.77 27.967 15.7215 27.8441 15.6969Z" fill="white"/>
<path d="M32.7431 27.2542C32.9316 27.2541 33.1159 27.1982 33.2728 27.0936C33.4296 26.989 33.5521 26.8403 33.6246 26.6663L37.2048 18.0742C37.2653 17.9291 37.2891 17.7713 37.274 17.6149C37.2589 17.4584 37.2054 17.3081 37.1182 17.1773C37.031 17.0465 36.9129 16.9392 36.7743 16.8651C36.6357 16.7909 36.4809 16.7521 36.3237 16.7522H31.4905C31.2389 16.7546 30.9984 16.8563 30.8214 17.035C30.6443 17.2138 30.545 17.4552 30.545 17.7068C30.545 17.9584 30.6443 18.1999 30.8214 18.3786C30.9984 18.5574 31.2389 18.6591 31.4905 18.6615H34.8916L31.8625 25.9321C31.8022 26.0771 31.7787 26.2348 31.7939 26.3912C31.8091 26.5475 31.8626 26.6977 31.9496 26.8285C32.0367 26.9592 32.1546 27.0665 32.293 27.1408C32.4314 27.2151 32.586 27.2542 32.7431 27.2545V27.2542Z" fill="white"/>
<path d="M2.909 22.0029C2.90848 18.4174 3.91777 14.9042 5.82128 11.8656C7.7248 8.82695 10.4456 6.38583 13.6721 4.82171C16.8986 3.2576 20.5004 2.63372 24.065 3.02153C27.6296 3.40933 31.013 4.79314 33.8276 7.01449H30.9231C30.6715 7.01693 30.4311 7.11858 30.254 7.29735C30.077 7.47612 29.9776 7.71756 29.9776 7.96916C29.9776 8.22076 30.077 8.4622 30.254 8.64097C30.4311 8.81974 30.6715 8.92139 30.9231 8.92383H36.3237C36.5769 8.92383 36.8197 8.82324 36.9988 8.6442C37.1778 8.46516 37.2784 8.22232 37.2784 7.96911V2.56851C37.276 2.31691 37.1743 2.07645 36.9956 1.89941C36.8168 1.72236 36.5753 1.62304 36.3237 1.62304C36.0721 1.62304 35.8307 1.72236 35.6519 1.89941C35.4731 2.07645 35.3715 2.31691 35.369 2.56851V5.8013C31.2061 2.36724 25.881 0.667299 20.4983 1.05404C15.1155 1.44079 10.0882 3.88454 6.45892 7.87845C2.82968 11.8724 0.877041 17.11 1.006 22.5049C1.13497 27.8999 3.33563 33.0382 7.15157 36.8541C7.33129 37.0297 7.573 37.1274 7.82428 37.126C8.07556 37.1245 8.31613 37.0241 8.49382 36.8464C8.6715 36.6687 8.77196 36.4281 8.77341 36.1769C8.77486 35.9256 8.67717 35.6839 8.50155 35.5042C6.72295 33.7353 5.31286 31.6312 4.3529 29.3137C3.39293 26.9962 2.90217 24.5114 2.909 22.0029Z" stroke="white" stroke-width="0.5"/>
<path d="M13.6588 39.183C13.1171 38.9196 12.581 38.6264 12.0656 38.3123C11.8495 38.1803 11.5898 38.1397 11.3437 38.1992C11.0976 38.2587 10.8853 38.4136 10.7533 38.6297C10.6214 38.8458 10.5807 39.1054 10.6403 39.3515C10.6998 39.5976 10.8546 39.81 11.0708 39.9419C11.6381 40.2883 12.2282 40.6104 12.8245 40.9003C12.9373 40.9551 13.0597 40.9871 13.1848 40.9946C13.31 41.0021 13.4354 40.9848 13.5539 40.9438C13.6723 40.9028 13.7816 40.8389 13.8753 40.7557C13.9691 40.6725 14.0456 40.5716 14.1004 40.4589C14.1552 40.3461 14.1872 40.2237 14.1947 40.0985C14.2021 39.9734 14.1849 39.848 14.1439 39.7295C14.1029 39.6111 14.039 39.5018 13.9558 39.408C13.8726 39.3143 13.7717 39.2378 13.6589 39.183H13.6588Z" stroke="white" stroke-width="0.5"/>
<path d="M39.192 13.6765C39.2467 13.7894 39.323 13.8903 39.4167 13.9737C39.5104 14.057 39.6195 14.1211 39.738 14.1622C39.8564 14.2033 39.9818 14.2207 40.107 14.2134C40.2321 14.2061 40.3546 14.1742 40.4674 14.1196C40.5803 14.0649 40.6813 13.9886 40.7646 13.8949C40.8479 13.8012 40.912 13.6921 40.9531 13.5736C40.9943 13.4552 41.0117 13.3298 41.0044 13.2047C40.997 13.0795 40.9651 12.957 40.9105 12.8442C40.6228 12.2498 40.3012 11.6597 39.9549 11.0899C39.8897 10.9828 39.8041 10.8896 39.7029 10.8155C39.6017 10.7415 39.4869 10.6881 39.365 10.6585C39.119 10.5985 38.8592 10.6388 38.6428 10.7704C38.4265 10.902 38.2713 11.1142 38.2113 11.3602C38.1514 11.6063 38.1917 11.8661 38.3233 12.0824C38.6382 12.6004 38.9305 13.1368 39.192 13.6765Z" stroke="white" stroke-width="0.5"/>
<path d="M24.2682 40.9629C23.6655 41.0345 23.0557 41.0771 22.4553 41.0916C22.2067 41.1011 21.9716 41.2073 21.8001 41.3875C21.6286 41.5677 21.5343 41.8078 21.5372 42.0566C21.5401 42.3053 21.64 42.5432 21.8156 42.7194C21.9912 42.8956 22.2287 42.9963 22.4775 43C22.4849 43 22.4929 43 22.5003 42.9995C23.1604 42.9842 23.8302 42.9369 24.4922 42.8588C24.7434 42.8288 24.9725 42.7004 25.1291 42.5017C25.2857 42.3029 25.357 42.0502 25.3274 41.7989C25.2977 41.5476 25.1696 41.3184 24.971 41.1616C24.7724 41.0047 24.5198 40.9331 24.2684 40.9625L24.2682 40.9629Z" stroke="white" stroke-width="0.5"/>
<path d="M18.8347 40.8333C18.2408 40.734 17.6436 40.6048 17.06 40.4484C16.8153 40.383 16.5547 40.4175 16.3354 40.5442C16.1162 40.671 15.9562 40.8797 15.8908 41.1244C15.8254 41.369 15.8599 41.6297 15.9867 41.8489C16.1135 42.0682 16.3221 42.2281 16.5668 42.2935C17.2092 42.465 17.8665 42.6072 18.5205 42.7163C18.6442 42.7369 18.7707 42.733 18.8928 42.7047C19.015 42.6764 19.1303 42.6244 19.2324 42.5515C19.3344 42.4787 19.4211 42.3865 19.4875 42.2801C19.5538 42.1737 19.5986 42.0554 19.6193 41.9317C19.6399 41.808 19.636 41.6815 19.6077 41.5594C19.5794 41.4373 19.5274 41.3219 19.4545 41.2199C19.3817 41.1178 19.2894 41.0312 19.1831 40.9648C19.0767 40.8984 18.9583 40.8536 18.8347 40.833V40.8333Z" stroke="white" stroke-width="0.5"/>
<path d="M42.0692 21.5426C41.8161 21.5365 41.5709 21.6311 41.3875 21.8056C41.2041 21.9802 41.0976 22.2204 41.0912 22.4735C41.0758 23.0771 41.032 23.6868 40.9602 24.2863C40.9303 24.5377 41.0014 24.7908 41.1579 24.9898C41.3145 25.1888 41.5436 25.3176 41.7951 25.3477C41.8331 25.352 41.8714 25.3541 41.9097 25.3542C42.1431 25.3539 42.3682 25.2681 42.5426 25.1131C42.7171 24.9581 42.8287 24.7446 42.8565 24.5129C42.9348 23.8543 42.9833 23.1844 42.9997 22.5211C43.0029 22.3957 42.9813 22.271 42.9363 22.154C42.8913 22.0369 42.8236 21.9299 42.7372 21.8391C42.6508 21.7482 42.5473 21.6753 42.4327 21.6244C42.3181 21.5735 42.1946 21.5457 42.0692 21.5426Z" stroke="white" stroke-width="0.5"/>
<path d="M39.1389 32.4625C38.9293 32.3205 38.672 32.2674 38.4234 32.3149C38.1747 32.3623 37.9551 32.5064 37.8126 32.7157C37.4732 33.2149 37.1063 33.7039 36.7213 34.1686C36.6394 34.2649 36.5775 34.3765 36.5391 34.4969C36.5007 34.6173 36.4866 34.7442 36.4977 34.8701C36.5087 34.996 36.5446 35.1184 36.6033 35.2304C36.6621 35.3423 36.7424 35.4414 36.8398 35.522C36.9372 35.6026 37.0495 35.663 37.1705 35.6999C37.2914 35.7367 37.4184 35.7491 37.5441 35.7364C37.6699 35.7238 37.7919 35.6863 37.903 35.6261C38.0141 35.5659 38.1122 35.4842 38.1916 35.3858C38.6148 34.875 39.019 34.3374 39.3919 33.7883C39.4623 33.6847 39.5117 33.5681 39.5371 33.4454C39.5625 33.3227 39.5635 33.1961 39.54 33.073C39.5165 32.9499 39.469 32.8326 39.4001 32.7279C39.3313 32.6231 39.2425 32.533 39.1389 32.4625Z" stroke="white" stroke-width="0.5"/>
<path d="M40.4544 17.0776C40.6091 17.6589 40.7378 18.2561 40.8371 18.8527C40.8741 19.0755 40.9889 19.2781 41.1611 19.4243C41.3334 19.5705 41.5519 19.6509 41.7778 19.6512C41.8304 19.6511 41.8829 19.6467 41.9349 19.6381C42.0586 19.6176 42.177 19.5729 42.2835 19.5066C42.3899 19.4403 42.4822 19.3537 42.5551 19.2517C42.6281 19.1497 42.6802 19.0344 42.7086 18.9122C42.7369 18.7901 42.7409 18.6636 42.7203 18.5399C42.6117 17.8836 42.4697 17.226 42.2997 16.5862C42.2345 16.3416 42.0748 16.1328 41.8557 16.0059C41.6367 15.8789 41.3761 15.8442 41.1314 15.9094C40.8868 15.9745 40.678 16.1342 40.551 16.3533C40.4241 16.5724 40.3894 16.8329 40.4546 17.0776H40.4544Z" stroke="white" stroke-width="0.5"/>
<path d="M34.1528 36.7339C33.6861 37.1199 33.1971 37.4867 32.6998 37.8238C32.596 37.8941 32.5071 37.9842 32.4382 38.0889C32.3692 38.1936 32.3216 38.3108 32.2979 38.4339C32.2743 38.557 32.2752 38.6836 32.3004 38.8064C32.3257 38.9291 32.3749 39.0457 32.4453 39.1495C32.5156 39.2533 32.6057 39.3422 32.7104 39.4111C32.8151 39.48 32.9323 39.5277 33.0555 39.5513C33.1786 39.575 33.3051 39.5741 33.4279 39.5488C33.5507 39.5236 33.6673 39.4743 33.771 39.404C34.3184 39.0334 34.8558 38.6302 35.3695 38.206C35.5647 38.0447 35.6878 37.8124 35.7118 37.5603C35.7357 37.3082 35.6586 37.0568 35.4972 36.8616C35.3359 36.6664 35.1036 36.5433 34.8515 36.5193C34.5993 36.4954 34.348 36.5726 34.1528 36.7339Z" stroke="white" stroke-width="0.5"/>
<path d="M41.3881 27.2132C41.1469 27.1366 40.8851 27.1588 40.6603 27.2749C40.4354 27.3911 40.2659 27.5917 40.1887 27.8327C40.006 28.4055 39.7925 28.9776 39.5542 29.5337C39.5022 29.6493 39.4737 29.7741 39.4704 29.9009C39.4671 30.0277 39.4891 30.1538 39.5351 30.272C39.5811 30.3901 39.6501 30.4979 39.7383 30.5891C39.8264 30.6803 39.9318 30.753 40.0483 30.8029C40.1649 30.8529 40.2902 30.8792 40.417 30.8802C40.5438 30.8812 40.6695 30.8569 40.7869 30.8088C40.9042 30.7607 41.0107 30.6897 41.1003 30.5999C41.1899 30.5102 41.2606 30.4035 41.3085 30.286C41.5715 29.6739 41.8064 29.0433 42.0073 28.4126C42.0454 28.2932 42.0597 28.1674 42.0492 28.0425C42.0387 27.9176 42.0038 27.796 41.9463 27.6846C41.8888 27.5732 41.8099 27.4742 41.7141 27.3933C41.6183 27.3125 41.5075 27.2512 41.3881 27.2132Z" stroke="white" stroke-width="0.5"/>
<path d="M29.5159 39.5615C28.9653 39.7974 28.3929 40.0105 27.8144 40.195C27.695 40.2331 27.5842 40.2943 27.4884 40.3752C27.3926 40.4561 27.3137 40.555 27.2562 40.6664C27.1987 40.7778 27.1637 40.8994 27.1531 41.0243C27.1426 41.1492 27.1568 41.275 27.1949 41.3944C27.2329 41.5139 27.2942 41.6246 27.375 41.7204C27.4559 41.8162 27.5549 41.8951 27.6663 41.9526C27.7776 42.0101 27.8993 42.0452 28.0242 42.0557C28.1491 42.0662 28.2749 42.052 28.3943 42.014C29.0306 41.8111 29.6609 41.5767 30.2673 41.3171C30.5001 41.2174 30.6838 41.0293 30.7779 40.7942C30.8721 40.5591 30.8689 40.2962 30.7692 40.0634C30.6695 39.8306 30.4814 39.6469 30.2463 39.5528C30.0112 39.4587 29.7483 39.4618 29.5155 39.5615H29.5159Z" stroke="white" stroke-width="0.5"/>
<path d="M13.9291 20.0525C13.9291 18.4879 12.9003 17.2341 11.3079 16.8582C10.4332 16.651 9.51397 16.7465 8.70043 17.129C7.88688 17.5115 7.22702 18.1585 6.82855 18.9643C6.77164 19.0765 6.73748 19.1989 6.72803 19.3244C6.71858 19.4499 6.73403 19.576 6.77348 19.6955C6.81294 19.8149 6.87563 19.9255 6.95794 20.0206C7.04026 20.1158 7.14058 20.1938 7.25313 20.2501C7.36568 20.3063 7.48825 20.3398 7.61378 20.3486C7.73932 20.3573 7.86534 20.3412 7.98461 20.301C8.10388 20.2609 8.21405 20.1976 8.30877 20.1148C8.40349 20.0319 8.4809 19.9312 8.53655 19.8183C8.74038 19.3953 9.08327 19.055 9.50788 18.8545C9.93249 18.654 10.4131 18.6053 10.8693 18.7165C11.1392 18.7802 12.0198 19.065 12.0198 20.0525C12.0198 21.0482 10.8697 21.8162 9.65212 22.6295C8.2811 23.5445 6.72786 24.5818 6.72786 26.299C6.72786 26.5522 6.82843 26.795 7.00746 26.9741C7.18649 27.1531 7.42931 27.2537 7.6825 27.2537H12.9744C13.226 27.2513 13.4665 27.1496 13.6435 26.9709C13.8206 26.7921 13.9199 26.5507 13.9199 26.2991C13.9199 26.0475 13.8206 25.806 13.6435 25.6273C13.4665 25.4485 13.226 25.3468 12.9744 25.3444H9.19198C9.59197 24.9655 10.1574 24.5878 10.7121 24.2172C12.2203 23.2103 13.9291 22.0692 13.9291 20.0525Z" stroke="white" stroke-width="0.5"/>
<path d="M22.9578 23.1963C22.9578 22.9431 22.8572 22.7003 22.6782 22.5212C22.4991 22.3422 22.2563 22.2416 22.0031 22.2416H21.2274V17.1699C21.2273 16.9721 21.1659 16.7793 21.0516 16.618C20.9373 16.4567 20.7757 16.3348 20.5891 16.2692C20.4026 16.2037 20.2003 16.1977 20.0102 16.252C19.8201 16.3063 19.6515 16.4183 19.5278 16.5725L14.6946 22.5992C14.5821 22.7396 14.5116 22.9089 14.4912 23.0876C14.4708 23.2663 14.5012 23.4472 14.5791 23.6093C14.6569 23.7715 14.779 23.9084 14.9312 24.0042C15.0834 24.1 15.2596 24.1509 15.4395 24.151H19.318V26.836C19.3168 26.9622 19.3406 27.0873 19.388 27.2042C19.4354 27.3211 19.5055 27.4274 19.5943 27.5171C19.6831 27.6067 19.7887 27.6779 19.9052 27.7264C20.0216 27.775 20.1465 27.8 20.2727 27.8C20.3988 27.8 20.5237 27.775 20.6402 27.7264C20.7566 27.6779 20.8623 27.6067 20.951 27.5171C21.0398 27.4274 21.1099 27.3211 21.1574 27.2042C21.2048 27.0873 21.2286 26.9622 21.2274 26.836V24.151H22.0031C22.2563 24.151 22.4992 24.0504 22.6782 23.8714C22.8572 23.6923 22.9578 23.4495 22.9578 23.1963ZM19.318 22.2416H17.4295L19.318 19.8861V22.2416Z" stroke="white" stroke-width="0.5"/>
<path d="M27.8441 15.6969C27.7212 15.672 27.5945 15.6717 27.4714 15.6959C27.3483 15.7201 27.2312 15.7684 27.1269 15.838C27.0225 15.9075 26.9329 15.997 26.8632 16.1013C26.7935 16.2056 26.745 16.3227 26.7207 16.4457L24.5726 27.1859C24.5229 27.4341 24.5738 27.692 24.7142 27.9027C24.8547 28.1133 25.073 28.2596 25.3213 28.3093C25.3832 28.3216 25.4461 28.3279 25.5092 28.3279C25.7297 28.3277 25.9434 28.2511 26.1138 28.1113C26.2843 27.9714 26.4011 27.7768 26.4444 27.5606L28.5925 16.8205C28.6171 16.6975 28.6174 16.571 28.5931 16.448C28.5689 16.325 28.5206 16.2079 28.4511 16.1036C28.3816 15.9993 28.2922 15.9096 28.1881 15.8398C28.0839 15.77 27.967 15.7215 27.8441 15.6969Z" stroke="white" stroke-width="0.5"/>
<path d="M32.7431 27.2542C32.9316 27.2541 33.1159 27.1982 33.2728 27.0936C33.4296 26.989 33.5521 26.8403 33.6246 26.6663L37.2048 18.0742C37.2653 17.9291 37.2891 17.7713 37.274 17.6149C37.2589 17.4584 37.2054 17.3081 37.1182 17.1773C37.031 17.0465 36.9129 16.9392 36.7743 16.8651C36.6357 16.7909 36.4809 16.7521 36.3237 16.7522H31.4905C31.2389 16.7546 30.9984 16.8563 30.8214 17.035C30.6443 17.2138 30.545 17.4552 30.545 17.7068C30.545 17.9584 30.6443 18.1999 30.8214 18.3786C30.9984 18.5574 31.2389 18.6591 31.4905 18.6615H34.8916L31.8625 25.9321C31.8022 26.0771 31.7787 26.2348 31.7939 26.3912C31.8091 26.5475 31.8626 26.6977 31.9496 26.8285C32.0367 26.9592 32.1546 27.0665 32.293 27.1408C32.4314 27.2151 32.586 27.2542 32.7431 27.2545V27.2542Z" stroke="white" stroke-width="0.5"/>
</svg>
