<svg width="37" height="40" viewBox="0 0 37 40" fill="none" xmlns="http://www.w3.org/2000/svg">
<path d="M11.5366 31.8079L11.5302 31.8145C11.3086 32.0427 11.3076 32.4137 11.528 32.6431C11.6385 32.7583 11.7838 32.8159 11.9291 32.8159C12.0733 32.8159 12.2176 32.7591 12.328 32.6455L12.3344 32.6388C12.556 32.4107 12.557 32.0397 12.3366 31.8102C12.1165 31.5808 11.7582 31.5797 11.5366 31.8079Z" fill="white"/>
<path d="M16.1538 29.9333L16.1474 29.9399C15.9265 30.1687 15.9265 30.5398 16.1474 30.7685C16.2578 30.8829 16.4026 30.9402 16.5474 30.9402C16.6921 30.9402 16.837 30.883 16.9474 30.7685L16.9538 30.7619C17.1748 30.533 17.1748 30.162 16.9538 29.9333C16.733 29.7045 16.3747 29.7045 16.1538 29.9333Z" fill="white"/>
<path d="M16.8566 20.2181C16.8566 19.0427 15.9333 18.0864 14.7984 18.0864C13.6623 18.0864 12.7382 19.0427 12.7382 20.2181C12.7382 21.3948 13.6624 22.352 14.7984 22.352C15.9333 22.352 16.8566 21.3948 16.8566 20.2181ZM13.8696 20.2181C13.8696 19.6889 14.2863 19.2583 14.7984 19.2583C15.3094 19.2583 15.7251 19.6888 15.7251 20.2181C15.7251 20.7486 15.3094 21.1802 14.7984 21.1802C14.2863 21.1802 13.8696 20.7486 13.8696 20.2181Z" fill="white"/>
<path d="M20.6655 30.7205C19.0909 30.7205 17.8099 32.0473 17.8099 33.6783C17.8099 35.3104 19.0909 36.6382 20.6655 36.6382C22.2413 36.6382 23.5233 35.3104 23.5233 33.6783C23.5233 32.0474 22.2413 30.7205 20.6655 30.7205ZM20.6655 35.4664C19.7148 35.4664 18.9413 34.6643 18.9413 33.6784C18.9413 32.6937 19.7148 31.8925 20.6655 31.8925C21.6175 31.8925 22.3918 32.6937 22.3918 33.6784C22.3918 34.6643 21.6175 35.4664 20.6655 35.4664Z" fill="white"/>
<path d="M7.75333 32.9795C6.67272 32.9795 5.79357 33.8891 5.79357 35.0071C5.79357 36.1264 6.67272 37.037 7.75333 37.037C8.83395 37.037 9.71309 36.1264 9.71309 35.0071C9.71309 33.889 8.83395 32.9795 7.75333 32.9795ZM7.75333 35.865C7.2966 35.865 6.92503 35.4802 6.92503 35.007C6.92503 34.5352 7.2966 34.1512 7.75333 34.1512C8.21006 34.1512 8.58164 34.5352 8.58164 35.007C8.58164 35.4802 8.21006 35.865 7.75333 35.865Z" fill="white"/>
<path d="M29.7182 30.25L29.7118 30.2566C29.4908 30.4855 29.4908 30.8565 29.7118 31.0852C29.8222 31.1996 29.967 31.2569 30.1118 31.2569C30.2565 31.2569 30.4013 31.1997 30.5118 31.0852L30.5182 31.0786C30.7391 30.8498 30.7391 30.4788 30.5182 30.25C30.2973 30.0212 29.9391 30.0212 29.7182 30.25Z" fill="white"/>
<path d="M30.9253 34.7244L30.9189 34.7311C30.6973 34.9592 30.6963 35.3302 30.9166 35.5597C31.0272 35.6748 31.1725 35.7325 31.3177 35.7325C31.462 35.7325 31.6063 35.6757 31.7166 35.562L31.723 35.5554C31.9446 35.3273 31.9456 34.9562 31.7253 34.7268C31.505 34.4973 31.1468 34.4962 30.9253 34.7244Z" fill="white"/>
<path d="M30.9863 27.6537C32.0328 27.6537 32.8841 26.772 32.8841 25.6881C32.8841 24.603 32.0328 23.7203 30.9863 23.7203C29.9387 23.7203 29.0864 24.603 29.0864 25.6881C29.0864 26.772 29.9387 27.6537 30.9863 27.6537ZM30.9863 24.8922C31.4089 24.8922 31.7527 25.2492 31.7527 25.6881C31.7527 26.1258 31.4089 26.4819 30.9863 26.4819C30.5626 26.4819 30.2178 26.1258 30.2178 25.6881C30.2178 25.2492 30.5625 24.8922 30.9863 24.8922Z" fill="white"/>
<path d="M34.8627 2.83023H27.1099C25.9313 2.83023 24.9726 3.87992 24.9726 5.17008C24.9726 6.305 25.716 7.2532 26.6981 7.46375V26.8263L20.7694 18.7406C20.0094 17.7055 19.221 15.5866 19.217 13.832L19.1949 4.66602C20.3364 4.54969 21.2312 3.54992 21.2312 2.33758C21.2313 1.04867 20.2178 0 18.9721 0H10.6227C9.37697 0 8.36357 1.04867 8.36357 2.33766C8.36357 3.54992 9.2584 4.54977 10.3998 4.66609V13.832C10.3959 15.5848 9.58622 17.7046 8.82724 18.7409L6.9371 21.3188C6.74815 21.5765 6.79672 21.9441 7.04549 22.1398C7.14778 22.2202 7.26801 22.2591 7.38727 22.2591C7.55812 22.2591 7.72693 22.1793 7.83819 22.0276L9.72855 19.4495C10.5585 18.3162 11.4408 16.0715 11.5052 14.0519H13.4258C13.7382 14.0519 13.9915 13.7895 13.9915 13.4659C13.9915 13.1423 13.7382 12.88 13.4258 12.88H11.5114L11.5162 10.9271H13.4259C13.7383 10.9271 13.9916 10.6648 13.9916 10.3412C13.9916 10.0176 13.7383 9.75523 13.4259 9.75523H11.519L11.5238 7.80234H13.4259C13.7383 7.80234 13.9916 7.54 13.9916 7.21641C13.9916 6.89281 13.7383 6.63047 13.4259 6.63047H11.5266L11.5313 4.67758H18.0636V13.8345C18.0683 15.9105 19.0079 18.2774 19.8687 19.4497L23.8602 24.8935C22.5122 24.4452 21.1895 24.3705 19.808 24.6542C18.365 24.9504 17.0001 25.5976 15.5238 26.3925C12.5511 24.1807 8.12807 24.6627 5.17376 25.6941L6.2798 24.2025C6.47011 23.9459 6.42349 23.578 6.1757 23.3809C5.92776 23.1838 5.57271 23.232 5.3824 23.4887L1.94835 28.1197C1.06898 29.3071 0.409269 30.9402 0.138323 32.6001C-0.153518 34.388 0.0198216 36.0741 0.626358 37.3477C1.20265 38.5577 2.44574 40 5.09561 40H24.4992C25.923 40 27.1128 39.5607 27.9834 38.7252C28.7576 39.513 29.8179 40 30.9863 40C33.3508 40 35.2745 38.0076 35.2745 35.5584V15.9529C35.2745 15.6293 35.0212 15.367 34.7088 15.367C34.3964 15.367 34.1431 15.6293 34.1431 15.9529V19.7197C33.2933 20.147 32.0598 20.0995 31.3003 19.5735C30.3458 18.9137 28.9681 18.7703 27.8295 19.1431V16.8842H29.7227C30.0351 16.8842 30.2884 16.6219 30.2884 16.2983C30.2884 15.9747 30.0351 15.7123 29.7227 15.7123H27.8295V13.7573H29.7227C30.0351 13.7573 30.2884 13.4949 30.2884 13.1713C30.2884 12.8477 30.0351 12.5854 29.7227 12.5854H27.8295V10.6325H29.7227C30.0351 10.6325 30.2884 10.3702 30.2884 10.0466C30.2884 9.72297 30.0351 9.46063 29.7227 9.46063H27.8295V7.50781H34.1431V13.2489C34.1431 13.5725 34.3964 13.8348 34.7088 13.8348C35.0212 13.8348 35.2745 13.5725 35.2745 13.2489V7.46383C36.2566 7.25328 37 6.305 37 5.17016C37 3.87992 36.0412 2.83023 34.8627 2.83023ZM10.6227 3.5057C10.0009 3.5057 9.49502 2.98172 9.49502 2.33766C9.49502 1.69484 10.0009 1.17188 10.6227 1.17188H18.9721C19.594 1.17188 20.0998 1.69484 20.0998 2.33766C20.0998 2.98172 19.5939 3.5057 18.9721 3.5057H10.6227ZM2.84598 28.8332L3.75944 27.6014C6.03073 26.2477 11.1304 25.0857 14.3782 27.0209C14.3358 27.0445 14.2938 27.0677 14.2511 27.0914C10.9707 28.9114 7.27028 30.9623 1.65817 31.2027C1.9574 30.3041 2.36775 29.4789 2.84598 28.8332ZM24.4992 38.8281H5.09561C3.43501 38.8281 2.27278 38.1556 1.64112 36.8293C1.04839 35.5848 1.01513 33.946 1.3388 32.387C7.42091 32.2086 11.4963 29.9493 14.7853 28.1245C18.5652 26.0273 21.3046 24.5082 25.2736 26.8213L26.698 28.764V35.5585C26.698 36.3751 26.9128 37.1403 27.2855 37.7984C26.6183 38.482 25.6832 38.8281 24.4992 38.8281ZM30.6718 20.548C31.2813 20.9702 32.0638 21.1812 32.8467 21.1812C33.2891 21.1812 33.7316 21.1136 34.143 20.9788V35.5584C34.143 37.3613 32.7269 38.8281 30.9862 38.8281C29.2456 38.8281 27.8295 37.3614 27.8295 35.5584V20.4021C28.6787 19.9754 29.9122 20.0229 30.6718 20.548ZM34.8627 6.33594H27.1099C26.5552 6.33594 26.1041 5.81297 26.1041 5.17016C26.1041 4.52609 26.5553 4.00219 27.1099 4.00219H34.8627C35.4174 4.00219 35.8685 4.52617 35.8685 5.17016C35.8685 5.81289 35.4173 6.33594 34.8627 6.33594Z" fill="white"/>
</svg>
