<svg width="44" height="44" viewBox="0 0 44 44" fill="none" xmlns="http://www.w3.org/2000/svg">
<path d="M20.5333 17.583C20.4844 15.8039 19.7001 14.1247 18.3673 12.9454C17.7982 12.4271 17.1476 12.0059 16.4418 11.6987C15.612 10.7852 14.4353 10.2644 13.2013 10.2644C11.9672 10.2644 10.7905 10.7852 9.96071 11.6987C9.25581 12.0037 8.60619 12.4232 8.03816 12.9403C6.69895 14.1245 5.91289 15.8126 5.86851 17.5999V21.359C4.57214 21.6923 3.6659 22.8612 3.6659 24.1999C3.6659 25.5386 4.57214 26.7075 5.86851 27.0409V28.1966C5.8705 29.0364 6.23156 29.8352 6.86058 30.3915L8.69368 31.9945C8.62443 32.6241 8.47663 33.2424 8.25373 33.8352C6.9537 34.1286 3.16433 35.0929 1.67732 36.608C0.497537 37.8158 0.116253 40.4492 0.00260107 42.4461C-0.0214694 42.8499 0.122341 43.2458 0.400011 43.54C0.677681 43.8343 1.06454 44.0007 1.46908 44H24.9327C25.3372 44.0007 25.7241 43.8343 26.0018 43.54C26.2794 43.2458 26.4233 42.8499 26.3992 42.4461C26.2877 40.4492 25.9065 37.815 24.723 36.6072C23.2345 35.0922 19.4437 34.1293 18.1459 33.8345C17.9233 33.2406 17.7756 32.6213 17.7059 31.9909L19.5434 30.3871C20.1711 29.8319 20.5313 29.0347 20.5333 28.1966V27.0409C21.8303 26.708 22.7373 25.5388 22.7373 24.1995C22.7373 22.8603 21.8303 21.6911 20.5333 21.3582V17.583ZM7.33499 18.3332H10.7739C12.2442 19.311 14.1576 19.311 15.6279 18.3332H19.0668V19.7999H7.33499V18.3332ZM18.9854 16.8665H17.0057C17.395 16.1987 17.6002 15.4396 17.6003 14.6665C17.6003 14.5199 17.5923 14.3732 17.5783 14.2265C18.3049 14.9428 18.7963 15.8639 18.9854 16.8665ZM16.1338 14.6665C16.1338 16.2866 14.8207 17.5999 13.2009 17.5999C11.5811 17.5999 10.2679 16.2866 10.2679 14.6665C10.2679 13.0465 11.5811 11.7332 13.2009 11.7332C14.8207 11.7332 16.1338 13.0465 16.1338 14.6665ZM8.82346 14.2265C8.80953 14.3732 8.80146 14.5199 8.80146 14.6665C8.80182 15.4396 9.00727 16.1988 9.39685 16.8665H7.41711C7.60569 15.8638 8.09686 14.9427 8.82346 14.2265ZM16.4015 33.1122C16.4953 33.5347 16.6203 33.9497 16.7754 34.3537L15.3442 35.1266C14.9582 35.3339 14.6855 35.7035 14.6014 36.1335L14.4951 36.6666H11.8811L11.7718 36.1254C11.6871 35.7002 11.4187 35.3343 11.0386 35.1259L9.62636 34.3559C9.78209 33.9522 9.90734 33.5375 10.001 33.1151C10.5077 33.5137 11.1331 33.7313 11.7777 33.7333H14.6219C15.268 33.7319 15.8948 33.5131 16.4015 33.1122ZM14.2018 38.1333L13.3307 42.5333H13.0689L12.1802 38.1333H14.2018ZM6.60175 42.5333V41.8C6.60175 41.395 6.27347 41.0667 5.86851 41.0667C5.46355 41.0667 5.13527 41.395 5.13527 41.8V42.5333H1.46908V42.5275C1.60473 40.0964 2.06373 38.313 2.72878 37.6354C3.59547 36.7554 5.83038 35.9912 7.48237 35.5417L6.90897 36.7495C6.70774 37.1535 6.70234 37.6273 6.89431 38.0358L9.02143 42.5333H6.60175ZM8.22807 37.3919L9.03023 35.7008L10.3376 36.4136L11.5724 42.5333H10.6412L8.22807 37.3919ZM14.8272 42.5333L16.0385 36.4151L17.3708 35.6986L18.1818 37.4095L15.7672 42.5333H14.8272ZM23.6745 37.6346C24.3388 38.313 24.7978 40.0964 24.9327 42.5333H21.2665V41.8C21.2665 41.395 20.9382 41.0667 20.5333 41.0667C20.1283 41.0667 19.8 41.395 19.8 41.8V42.5333H17.3855L19.5119 38.0336C19.7035 37.6309 19.7003 37.1627 19.5031 36.7627L18.9238 35.5417C20.5736 35.9912 22.8056 36.751 23.6745 37.6346ZM20.8346 23.163C21.2536 23.5822 21.3792 24.2124 21.1528 24.7601C20.9265 25.3079 20.3927 25.6656 19.8 25.6666C19.3951 25.6666 19.0668 25.9949 19.0668 26.3999V28.1966C19.0658 28.6132 18.8877 29.0096 18.577 29.2871L15.5707 31.9095C15.3079 32.142 14.9684 32.2692 14.6175 32.2666H11.7777C11.4262 32.2673 11.0868 32.1383 10.8245 31.9043L7.83139 29.2915C7.5171 29.0142 7.33643 28.6157 7.33499 28.1966V26.3999C7.33499 25.9949 7.0067 25.6666 6.60175 25.6666C5.79183 25.6666 5.13527 25.0099 5.13527 24.1999C5.13527 23.3899 5.79183 22.7332 6.60175 22.7332C7.0067 22.7332 7.33499 22.4049 7.33499 21.9999V21.2666H19.0668V21.9999C19.0668 22.4049 19.3951 22.7332 19.8 22.7332C20.1884 22.7327 20.5609 22.8874 20.8346 23.163Z" fill="white"/>
<path d="M13.2002 15.3999C13.6051 15.3999 13.9334 15.0716 13.9334 14.6665C13.9334 14.2615 13.6051 13.9332 13.2002 13.9332C12.7952 13.9332 12.4669 14.2615 12.4669 14.6665C12.4669 15.0716 12.7952 15.3999 13.2002 15.3999Z" fill="white"/>
<path d="M41.7972 7.70351V2.19982C41.7972 1.3898 41.1406 0.733148 40.3307 0.733148H37.3978C36.5879 0.733148 35.9313 1.3898 35.9313 2.19982V3.06736L32.4601 0.323946C31.9166 -0.107982 31.1471 -0.107982 30.6036 0.323946L19.6534 8.97805C19.1312 9.38594 18.9301 10.0831 19.1548 10.7065C19.3542 11.3025 19.9051 11.7099 20.5333 11.7259V12.9579C20.5333 13.3629 20.8616 13.6912 21.2665 13.6912C21.6715 13.6912 21.9998 13.3629 21.9998 12.9579V11.7332H41.064V25.6666H35.198V18.3332C35.198 17.1182 34.2132 16.1332 32.9983 16.1332H30.0654C28.8505 16.1332 27.8657 17.1182 27.8657 18.3332V25.6666H24.4341C24.0292 25.6666 23.7009 25.9949 23.7009 26.3999C23.7009 26.8049 24.0292 27.1333 24.4341 27.1333H41.7972C42.2022 27.1333 42.5304 26.8049 42.5304 26.3999V11.7259C43.1585 11.7097 43.7094 11.3023 43.9089 10.7065C44.1338 10.0831 43.9327 9.3858 43.4103 8.97805L41.7972 7.70351ZM29.3321 25.6666V18.3332C29.3321 17.9282 29.6604 17.5999 30.0654 17.5999H32.9983C33.4033 17.5999 33.7316 17.9282 33.7316 18.3332V25.6666H29.3321ZM37.3978 2.19982H40.3307V6.54411L37.3978 4.22676V2.19982ZM31.5319 10.2665L20.5406 10.2262C20.5186 10.1639 20.5487 10.1397 20.5626 10.1294L31.5502 1.47602L42.5018 10.1294C42.515 10.1397 42.5451 10.1639 42.4828 10.2665H31.5319Z" fill="white"/>
</svg>
