<svg width="32" height="62" viewBox="0 0 32 62" fill="none" xmlns="http://www.w3.org/2000/svg">
<path d="M27.5312 5.0002H20.4323V4.40695C20.4323 1.97344 18.4475 0 16 0C13.5525 0 11.5677 1.97344 11.5677 4.40695V5.0002H4.4688C2.00913 5.0002 0 6.98575 0 9.44347V33.2701C0 39.0814 4.76103 43.8153 10.6058 43.8153H15.0259V44.8807H12.5297C11.9939 44.8807 11.5556 45.3165 11.5556 45.8493C11.5556 46.382 11.9939 46.8178 12.5297 46.8178H12.9559V48.9365C12.9559 50.2683 13.8204 51.3943 15.0259 51.8059V56.9514C15.0259 58.6706 13.6256 60.0629 11.8965 60.0629C10.1674 60.0629 8.76712 58.6706 8.76712 56.9514C8.76712 55.2322 10.1674 53.8399 11.8965 53.8399H12.3714C12.9072 53.8399 13.3455 53.404 13.3455 52.8713C13.3455 52.3386 12.9072 51.9028 12.3714 51.9028H11.8965C9.09589 51.9028 6.81887 54.1668 6.81887 56.9514C6.81887 59.736 9.09589 62 11.8965 62C14.6971 62 16.9741 59.736 16.9741 56.9514V51.8059C18.1796 51.4064 19.0441 50.2683 19.0441 48.9365V46.8178H19.4703C20.0061 46.8178 20.4444 46.382 20.4444 45.8493C20.4444 45.3165 20.0061 44.8807 19.4703 44.8807H16.9741V43.8153H21.3942C27.239 43.8153 32 39.0814 32 33.2701V9.44347C32 6.98575 29.9909 5.0002 27.5312 5.0002ZM17.0959 48.9365C17.0959 49.5419 16.6088 50.0262 16 50.0262C15.3912 50.0262 14.9041 49.5419 14.9041 48.9365V46.8178H17.0959V48.9365ZM30.0518 33.2701C30.0518 38.016 26.1674 41.8782 21.3942 41.8782H16.9741V40.2558H21.3942C25.2664 40.2558 28.4201 37.1201 28.4201 33.2701V10.2062C28.4201 9.29818 27.6773 8.55966 26.7641 8.55966H5.23592C4.32268 8.55966 3.57991 9.29818 3.57991 10.2062V33.2701C3.57991 37.1201 6.73364 40.2558 10.6058 40.2558H15.0259V41.8782H10.6058C5.83257 41.8782 1.94825 38.016 1.94825 33.2701V9.44347C1.94825 8.06327 3.08067 6.93732 4.4688 6.93732H12.4201C13.0289 6.93732 13.516 6.45304 13.516 5.84769V4.40695C13.516 3.03886 14.6362 1.93712 16 1.93712C17.3638 1.93712 18.484 3.05097 18.484 4.40695V5.84769C18.484 6.45304 18.9711 6.93732 19.5799 6.93732H27.5312C28.9193 6.93732 30.0518 8.06327 30.0518 9.44347V33.2701ZM26.4718 19.795H5.52816V10.4968H26.4718V19.795ZM5.52816 21.7321H26.4718V24.7709H24.5845C24.0487 24.7709 23.6103 25.2068 23.6103 25.7395C23.6103 26.2722 24.0487 26.7081 24.5845 26.7081H26.4718V28.8873H24.5845C24.0487 28.8873 23.6103 29.3232 23.6103 29.8559C23.6103 30.3886 24.0487 30.8245 24.5845 30.8245H26.4718V33.0037H24.5845C24.0487 33.0037 23.6103 33.4396 23.6103 33.9723C23.6103 34.505 24.0487 34.9408 24.5845 34.9408H26.1918C25.4977 36.9143 23.6103 38.3308 21.3942 38.3308H10.6058C7.80518 38.3308 5.52816 36.0668 5.52816 33.2822V21.7321Z" fill="white"/>
<path d="M25.5221 51.8906H19.6286C19.0928 51.8906 18.6545 52.3265 18.6545 52.8592C18.6545 53.3919 19.0928 53.8278 19.6286 53.8278H25.5221C26.0578 53.8278 26.4962 53.3919 26.4962 52.8592C26.4962 52.3265 26.0578 51.8906 25.5221 51.8906Z" fill="white"/>
<path d="M16 3.37786C15.4642 3.37786 15.0259 3.81371 15.0259 4.34642C15.0259 4.87913 15.4642 5.31498 16 5.31498C16.5358 5.31498 16.9741 4.87913 16.9741 4.34642C16.9741 3.81371 16.5358 3.37786 16 3.37786Z" fill="white"/>
</svg>
