<svg width="367" height="218" viewBox="0 0 367 218" fill="none" xmlns="http://www.w3.org/2000/svg">
<rect x="3.5" y="18.5" width="360" height="107" rx="22.5" fill="#01737F" stroke="#01737F" stroke-width="7"/>
<rect x="7" y="22" width="353" height="100" rx="19" stroke="white" stroke-width="3"/>
<rect x="37" y="5" width="293" height="33" rx="16.5" fill="#FF8A00" stroke="#FF8A00" stroke-width="10"/>
<rect x="37" y="5" width="293" height="33" rx="16.5" stroke="white" stroke-width="2"/>
<path d="M76.346 21.38H78.566C80.146 21.38 80.846 20.6 80.846 19.36C80.846 18.08 80.146 17.32 78.566 17.32H76.346V21.38ZM83.726 19.36C83.726 21.48 82.286 23.64 78.686 23.64H76.346V29H73.546V15.04H78.686C82.046 15.04 83.726 16.94 83.726 19.36ZM84.994 23.42C84.994 19.96 87.234 17.74 90.054 17.74C91.834 17.74 93.054 18.58 93.714 19.5V17.92H96.534V29H93.714V27.38C93.054 28.34 91.794 29.18 90.034 29.18C87.234 29.18 84.994 26.88 84.994 23.42ZM93.714 23.46C93.714 21.36 92.314 20.2 90.774 20.2C89.274 20.2 87.854 21.32 87.854 23.42C87.854 25.52 89.274 26.72 90.774 26.72C92.314 26.72 93.714 25.56 93.714 23.46ZM99.2687 29V14.2H102.069V22.62L105.789 17.92H109.429L104.549 23.48L109.469 29H105.829L102.069 24.28V29H99.2687ZM115.708 20.04C114.368 20.04 113.308 20.9 113.088 22.42H118.348C118.308 20.96 117.148 20.04 115.708 20.04ZM120.968 25.52C120.368 27.56 118.528 29.18 115.788 29.18C112.568 29.18 110.228 26.94 110.228 23.46C110.228 19.96 112.508 17.74 115.788 17.74C118.988 17.74 121.248 19.92 121.248 23.22C121.248 23.58 121.228 23.94 121.168 24.3H113.068C113.208 25.94 114.328 26.86 115.728 26.86C116.928 26.86 117.588 26.26 117.948 25.52H120.968ZM123.732 25.56V20.22H122.412V17.92H123.732V15.18H126.552V17.92H129.032V20.22H126.552V25.58C126.552 26.32 126.852 26.64 127.732 26.64H129.032V29H127.272C125.152 29 123.732 28.1 123.732 25.56ZM138.612 21.38H140.832C142.412 21.38 143.112 20.6 143.112 19.36C143.112 18.08 142.412 17.32 140.832 17.32H138.612V21.38ZM145.992 19.36C145.992 21.48 144.552 23.64 140.952 23.64H138.612V29H135.812V15.04H140.952C144.312 15.04 145.992 16.94 145.992 19.36ZM152.74 20.04C151.4 20.04 150.34 20.9 150.12 22.42H155.38C155.34 20.96 154.18 20.04 152.74 20.04ZM158 25.52C157.4 27.56 155.56 29.18 152.82 29.18C149.6 29.18 147.26 26.94 147.26 23.46C147.26 19.96 149.54 17.74 152.82 17.74C156.02 17.74 158.28 19.92 158.28 23.22C158.28 23.58 158.26 23.94 158.2 24.3H150.1C150.24 25.94 151.36 26.86 152.76 26.86C153.96 26.86 154.62 26.26 154.98 25.52H158ZM163.123 23.48V29H160.323V17.92H163.123V19.64C163.823 18.5 164.983 17.76 166.523 17.76V20.7H165.783C164.123 20.7 163.123 21.34 163.123 23.48ZM167.689 23.42C167.689 19.96 169.929 17.74 172.749 17.74C174.529 17.74 175.749 18.58 176.409 19.5V17.92H179.229V29H176.409V27.38C175.749 28.34 174.489 29.18 172.729 29.18C169.929 29.18 167.689 26.88 167.689 23.42ZM176.409 23.46C176.409 21.36 175.009 20.2 173.469 20.2C171.969 20.2 170.549 21.32 170.549 23.42C170.549 25.52 171.969 26.72 173.469 26.72C175.009 26.72 176.409 25.56 176.409 23.46ZM183.984 29L180.724 17.92H183.564L185.524 26.36L187.644 17.92H190.604L192.684 26.34L194.644 17.92H197.324L194.084 29H191.064L189.044 21.26L187.024 29H183.984ZM198.119 23.42C198.119 19.96 200.359 17.74 203.179 17.74C204.959 17.74 206.179 18.58 206.839 19.5V17.92H209.659V29H206.839V27.38C206.179 28.34 204.919 29.18 203.159 29.18C200.359 29.18 198.119 26.88 198.119 23.42ZM206.839 23.46C206.839 21.36 205.439 20.2 203.899 20.2C202.399 20.2 200.979 21.32 200.979 23.42C200.979 25.52 202.399 26.72 203.899 26.72C205.439 26.72 206.839 25.56 206.839 23.46ZM212.834 25.56V20.22H211.514V17.92H212.834V15.18H215.654V17.92H218.134V20.22H215.654V25.58C215.654 26.32 215.954 26.64 216.834 26.64H218.134V29H216.374C214.254 29 212.834 28.1 212.834 25.56ZM219.428 23.42C219.428 19.96 221.668 17.74 224.488 17.74C226.268 17.74 227.488 18.58 228.148 19.5V17.92H230.968V29H228.148V27.38C227.488 28.34 226.228 29.18 224.468 29.18C221.668 29.18 219.428 26.88 219.428 23.42ZM228.148 23.46C228.148 21.36 226.748 20.2 225.208 20.2C223.708 20.2 222.288 21.32 222.288 23.42C222.288 25.52 223.708 26.72 225.208 26.72C226.748 26.72 228.148 25.56 228.148 23.46ZM241.462 29V22.88C241.462 21.1 240.482 20.14 239.002 20.14C237.482 20.14 236.502 21.1 236.502 22.88V29H233.702V17.92H236.502V19.3C237.222 18.36 238.422 17.76 239.842 17.76C242.422 17.76 244.262 19.44 244.262 22.5V29H241.462ZM256.571 15.04C261.031 15.04 263.931 17.8 263.931 22.04C263.931 26.26 261.031 29 256.571 29H251.691V15.04H256.571ZM254.491 26.62H256.471C259.411 26.62 261.071 24.94 261.071 22.04C261.071 19.14 259.411 17.4 256.471 17.4H254.491V26.62ZM273.806 24.88C273.806 23.68 272.946 22.96 271.586 22.96H268.826V26.72H271.646C273.006 26.72 273.806 26.06 273.806 24.88ZM273.466 19.06C273.466 17.94 272.706 17.3 271.386 17.3H268.826V20.8H271.386C272.706 20.8 273.466 20.2 273.466 19.06ZM276.646 25.22C276.646 27.44 274.946 29 272.046 29H266.026V15.04H271.786C274.706 15.04 276.326 16.56 276.326 18.64C276.326 20.34 275.306 21.4 273.946 21.84C275.526 22.12 276.646 23.58 276.646 25.22ZM283.758 15.04C288.218 15.04 291.118 17.8 291.118 22.04C291.118 26.26 288.218 29 283.758 29H278.878V15.04H283.758ZM281.678 26.62H283.658C286.598 26.62 288.258 24.94 288.258 22.04C288.258 19.14 286.598 17.4 283.658 17.4H281.678V26.62Z" fill="white"/>
<path d="M79.7964 96.7766V70.898H75.3096V63.6918H87.8637V96.7766H79.7964ZM91.0351 63.7371H112.925V69.493L101.55 96.7766H93.6185L105.13 70.3541H91.0351V63.7371ZM123.674 92.9696C123.674 95.281 121.816 97.1392 119.096 97.1392C116.332 97.1392 114.473 95.281 114.473 92.9696C114.473 90.5675 116.332 88.7094 119.096 88.7094C121.816 88.7094 123.674 90.5675 123.674 92.9696ZM128.262 63.6465H149.427V70.4447H135.286V76.6991C136.465 75.3848 138.731 74.433 141.359 74.433C148.566 74.433 151.33 79.917 151.33 85.2649C151.33 92.2444 147.251 96.7766 139.909 96.7766C132.476 96.7766 128.171 92.6523 127.899 86.9418H135.468C135.785 88.664 137.099 90.205 139.637 90.205C142.583 90.205 143.852 88.0749 143.852 85.2196C143.852 82.2284 142.357 80.6421 139.592 80.6421C137.417 80.6421 136.148 81.8205 135.74 83.3614H128.262V63.6465ZM154.249 79.781C154.249 70.0822 157.557 63.012 166.984 63.012C176.411 63.012 179.719 70.0822 179.719 79.781C179.719 89.5705 176.411 96.6406 166.984 96.6406C157.557 96.6406 154.249 89.5705 154.249 79.781ZM172.105 79.781C172.105 74.705 171.561 70.2635 166.984 70.2635C162.406 70.2635 161.863 74.705 161.863 79.781C161.863 85.0383 162.406 89.3892 166.984 89.3892C171.561 89.3892 172.105 85.0383 172.105 79.781ZM182.454 79.781C182.454 70.0822 185.763 63.012 195.19 63.012C204.616 63.012 207.925 70.0822 207.925 79.781C207.925 89.5705 204.616 96.6406 195.19 96.6406C185.763 96.6406 182.454 89.5705 182.454 79.781ZM200.311 79.781C200.311 74.705 199.767 70.2635 195.19 70.2635C190.612 70.2635 190.068 74.705 190.068 79.781C190.068 85.0383 190.612 89.3892 195.19 89.3892C199.767 89.3892 200.311 85.0383 200.311 79.781ZM219.634 92.9696C219.634 95.281 217.775 97.1392 215.056 97.1392C212.291 97.1392 210.433 95.281 210.433 92.9696C210.433 90.5675 212.291 88.7094 215.056 88.7094C217.775 88.7094 219.634 90.5675 219.634 92.9696ZM222.091 79.781C222.091 70.0822 225.4 63.012 234.827 63.012C244.253 63.012 247.562 70.0822 247.562 79.781C247.562 89.5705 244.253 96.6406 234.827 96.6406C225.4 96.6406 222.091 89.5705 222.091 79.781ZM239.948 79.781C239.948 74.705 239.404 70.2635 234.827 70.2635C230.249 70.2635 229.705 74.705 229.705 79.781C229.705 85.0383 230.249 89.3892 234.827 89.3892C239.404 89.3892 239.948 85.0383 239.948 79.781ZM250.297 79.781C250.297 70.0822 253.605 63.012 263.032 63.012C272.459 63.012 275.768 70.0822 275.768 79.781C275.768 89.5705 272.459 96.6406 263.032 96.6406C253.605 96.6406 250.297 89.5705 250.297 79.781ZM268.154 79.781C268.154 74.705 267.61 70.2635 263.032 70.2635C258.455 70.2635 257.911 74.705 257.911 79.781C257.911 85.0383 258.455 89.3892 263.032 89.3892C267.61 89.3892 268.154 85.0383 268.154 79.781ZM278.502 79.781C278.502 70.0822 281.811 63.012 291.238 63.012C300.665 63.012 303.973 70.0822 303.973 79.781C303.973 89.5705 300.665 96.6406 291.238 96.6406C281.811 96.6406 278.502 89.5705 278.502 79.781ZM296.359 79.781C296.359 74.705 295.815 70.2635 291.238 70.2635C286.66 70.2635 286.116 74.705 286.116 79.781C286.116 85.0383 286.66 89.3892 291.238 89.3892C295.815 89.3892 296.359 85.0383 296.359 79.781Z" fill="white"/>
<path d="M52.0643 66.0897C52.0643 64.4984 51.178 63.4711 49.0832 63.4711H46.384V68.7888H49.0832C51.1579 68.7888 52.0643 67.6608 52.0643 66.0897ZM44.551 61.9604H49.0832C52.3866 61.9604 53.9578 63.7934 53.9578 66.0897C53.9578 67.8824 52.9708 69.5945 50.614 70.1183L54.1391 76H51.9435L48.5997 70.2593H46.384V76H44.551V61.9604ZM58.639 66.9961C59.3037 65.8278 60.754 64.7804 62.7683 64.7804C65.7293 64.7804 68.0054 66.9961 68.0054 70.4405C68.0054 73.8648 65.7293 76.1813 62.7683 76.1813C60.754 76.1813 59.3238 75.0936 58.639 73.9656V81.2372H56.806V64.9617H58.639V66.9961ZM66.1321 70.4405C66.1321 67.8421 64.42 66.3717 62.3855 66.3717C60.3914 66.3717 58.639 67.9025 58.639 70.4607C58.639 73.0591 60.3914 74.5699 62.3855 74.5699C64.42 74.5699 66.1321 73.039 66.1321 70.4405Z" fill="white"/>
<path d="M308.96 98.8101L310.43 93.3916H312.444L310.188 98.8101H308.96ZM314.161 89.3227V87.7717H322.199V89.3227H314.161Z" fill="white"/>
<path d="M50.9216 162L50.0816 159.52H44.8416L44.0016 162H40.4216L45.5016 147.96H49.4616L54.5416 162H50.9216ZM49.2016 156.88L47.4616 151.74L45.7416 156.88H49.2016ZM59.5077 152.42C60.1277 151.44 61.3077 150.68 62.9477 150.68C65.6877 150.68 67.8677 152.88 67.8677 156.4C67.8677 159.92 65.6877 162.16 62.9477 162.16C61.3077 162.16 60.1277 161.38 59.5077 160.44V167.32H56.0877V150.84H59.5077V152.42ZM64.3877 156.4C64.3877 154.62 63.2277 153.66 61.9277 153.66C60.6477 153.66 59.4877 154.64 59.4877 156.42C59.4877 158.2 60.6477 159.18 61.9277 159.18C63.2277 159.18 64.3877 158.18 64.3877 156.4ZM68.9819 156.4C68.9819 152.88 71.1619 150.68 73.9019 150.68C75.5619 150.68 76.7419 151.44 77.3419 152.42V150.84H80.7619V162H77.3419V160.42C76.7219 161.4 75.5419 162.16 73.8819 162.16C71.1619 162.16 68.9819 159.92 68.9819 156.4ZM77.3419 156.42C77.3419 154.64 76.2019 153.66 74.9019 153.66C73.6219 153.66 72.4619 154.62 72.4619 156.4C72.4619 158.18 73.6219 159.18 74.9019 159.18C76.2019 159.18 77.3419 158.2 77.3419 156.42ZM92.6144 157.82L95.1744 150.84H98.8744L91.8744 167.3H88.1944L90.7544 161.62L86.2144 150.84H90.0344L92.6144 157.82ZM99.4311 156.4C99.4311 152.88 101.611 150.68 104.351 150.68C106.011 150.68 107.191 151.44 107.791 152.42V150.84H111.211V162H107.791V160.42C107.171 161.4 105.991 162.16 104.331 162.16C101.611 162.16 99.4311 159.92 99.4311 156.4ZM107.791 156.42C107.791 154.64 106.651 153.66 105.351 153.66C104.071 153.66 102.911 154.62 102.911 156.4C102.911 158.18 104.071 159.18 105.351 159.18C106.651 159.18 107.791 158.2 107.791 156.42ZM121.385 162V155.94C121.385 154.42 120.545 153.58 119.245 153.58C117.945 153.58 117.105 154.42 117.105 155.94V162H113.685V150.84H117.105V152.32C117.785 151.38 118.985 150.72 120.485 150.72C123.065 150.72 124.785 152.48 124.785 155.48V162H121.385ZM126.482 156.4C126.482 152.88 128.662 150.68 131.402 150.68C133.042 150.68 134.242 151.42 134.842 152.42V150.84H138.262V161.98C138.262 164.96 136.542 167.5 132.682 167.5C129.362 167.5 127.202 165.82 126.902 163.16H130.282C130.502 164 131.342 164.54 132.522 164.54C133.822 164.54 134.842 163.86 134.842 161.98V160.4C134.222 161.38 133.042 162.16 131.402 162.16C128.662 162.16 126.482 159.92 126.482 156.4ZM134.842 156.42C134.842 154.64 133.702 153.66 132.402 153.66C131.122 153.66 129.962 154.62 129.962 156.4C129.962 158.18 131.122 159.18 132.402 159.18C133.702 159.18 134.842 158.2 134.842 156.42ZM154.554 162L153.714 159.52H148.474L147.634 162H144.054L149.134 147.96H153.094L158.174 162H154.554ZM152.834 156.88L151.094 151.74L149.374 156.88H152.834ZM167.42 162V155.94C167.42 154.42 166.58 153.58 165.28 153.58C163.98 153.58 163.14 154.42 163.14 155.94V162H159.72V150.84H163.14V152.32C163.82 151.38 165.02 150.72 166.52 150.72C169.1 150.72 170.82 152.48 170.82 155.48V162H167.42ZM172.517 156.4C172.517 152.88 174.697 150.68 177.437 150.68C178.917 150.68 180.197 151.36 180.877 152.38V147.2H184.297V162H180.877V160.4C180.257 161.42 179.077 162.16 177.437 162.16C174.697 162.16 172.517 159.92 172.517 156.4ZM180.877 156.42C180.877 154.64 179.737 153.66 178.437 153.66C177.157 153.66 175.997 154.62 175.997 156.4C175.997 158.18 177.157 159.18 178.437 159.18C179.737 159.18 180.877 158.2 180.877 156.42ZM186.091 156.4C186.091 152.88 188.271 150.68 191.011 150.68C192.671 150.68 193.851 151.44 194.451 152.42V150.84H197.871V162H194.451V160.42C193.831 161.4 192.651 162.16 190.991 162.16C188.271 162.16 186.091 159.92 186.091 156.4ZM194.451 156.42C194.451 154.64 193.311 153.66 192.011 153.66C190.731 153.66 189.571 154.62 189.571 156.4C189.571 158.18 190.731 159.18 192.011 159.18C193.311 159.18 194.451 158.2 194.451 156.42ZM209.844 147.96C214.324 147.96 217.204 150.8 217.204 154.98C217.204 159.14 214.324 162 209.844 162H204.584V147.96H209.844ZM208.004 159.04H209.624C212.204 159.04 213.724 157.56 213.724 154.98C213.724 152.4 212.204 150.88 209.624 150.88H208.004V159.04ZM218.435 156.4C218.435 152.88 220.615 150.68 223.355 150.68C225.015 150.68 226.195 151.44 226.795 152.42V150.84H230.215V162H226.795V160.42C226.175 161.4 224.995 162.16 223.335 162.16C220.615 162.16 218.435 159.92 218.435 156.4ZM226.795 156.42C226.795 154.64 225.655 153.66 224.355 153.66C223.075 153.66 221.915 154.62 221.915 156.4C221.915 158.18 223.075 159.18 224.355 159.18C225.655 159.18 226.795 158.2 226.795 156.42ZM236.109 152.42C236.729 151.44 237.909 150.68 239.549 150.68C242.289 150.68 244.469 152.88 244.469 156.4C244.469 159.92 242.289 162.16 239.549 162.16C237.909 162.16 236.729 161.38 236.109 160.44V167.32H232.689V150.84H236.109V152.42ZM240.989 156.4C240.989 154.62 239.829 153.66 238.529 153.66C237.249 153.66 236.089 154.64 236.089 156.42C236.089 158.2 237.249 159.18 238.529 159.18C239.829 159.18 240.989 158.18 240.989 156.4ZM245.583 156.4C245.583 152.88 247.763 150.68 250.503 150.68C252.163 150.68 253.343 151.44 253.943 152.42V150.84H257.363V162H253.943V160.42C253.323 161.4 252.143 162.16 250.483 162.16C247.763 162.16 245.583 159.92 245.583 156.4ZM253.943 156.42C253.943 154.64 252.803 153.66 251.503 153.66C250.223 153.66 249.063 154.62 249.063 156.4C249.063 158.18 250.223 159.18 251.503 159.18C252.803 159.18 253.943 158.2 253.943 156.42ZM260.378 158.12V153.68H259.018V150.84H260.378V148.12H263.798V150.84H266.038V153.68H263.798V158.16C263.798 158.82 264.078 159.1 264.838 159.1H266.058V162H264.318C261.998 162 260.378 161.02 260.378 158.12ZM267.963 162V147.2H271.383V155.38L274.763 150.84H278.983L274.343 156.44L279.023 162H274.783L271.383 157.32V162H267.963ZM279.646 156.4C279.646 152.88 281.826 150.68 284.566 150.68C286.226 150.68 287.406 151.44 288.006 152.42V150.84H291.426V162H288.006V160.42C287.386 161.4 286.206 162.16 284.546 162.16C281.826 162.16 279.646 159.92 279.646 156.4ZM288.006 156.42C288.006 154.64 286.866 153.66 285.566 153.66C284.286 153.66 283.126 154.62 283.126 156.4C283.126 158.18 284.286 159.18 285.566 159.18C286.866 159.18 288.006 158.2 288.006 156.42ZM301.6 162V155.94C301.6 154.42 300.76 153.58 299.46 153.58C298.16 153.58 297.32 154.42 297.32 155.94V162H293.9V150.84H297.32V152.32C298 151.38 299.2 150.72 300.7 150.72C303.28 150.72 305 152.48 305 155.48V162H301.6ZM306.697 151.5C306.637 149.1 308.317 147.18 311.477 147.18C314.257 147.18 316.197 148.68 316.197 151.46C316.197 154.04 314.337 155.44 311.717 155.46L311.617 156.96H308.617L308.517 153.24H309.717C311.597 153.24 312.897 152.9 312.877 151.44C312.877 150.54 312.317 149.98 311.437 149.98C310.457 149.98 309.917 150.58 309.917 151.5H306.697ZM312.177 160.32C312.177 161.34 311.357 162.16 310.157 162.16C308.937 162.16 308.117 161.34 308.117 160.32C308.117 159.26 308.937 158.44 310.157 158.44C311.357 158.44 312.177 159.26 312.177 160.32Z" fill="#FFCB8E"/>
<path d="M273.5 192.062H68.5L54.2497 207.253V192.062H29.1431C26.4619 192.062 24.281 189.914 24.281 187.275L24.281 123H21L21 187.275C21 191.696 24.6528 195.292 29.1431 195.292H50.9688V205.211V215.131L69.8589 195.292H273.5V192.062Z" fill="white"/>
<path d="M341.735 123V187.275C341.735 189.914 339.554 192.062 336.873 192.062H319.5V195.292H336.873C341.363 195.292 345.016 191.696 345.016 187.275V123H341.735Z" fill="white"/>
<path d="M295.025 203.768V193H285V201.435C285 206.015 285.56 209.331 286.679 211.382C288.148 214.116 290.474 216.184 293.658 217.586L295.937 213.994C294.005 213.213 292.583 212.05 291.67 210.509C290.756 208.966 290.248 206.718 290.142 203.768L295.025 203.768ZM311.156 203.768V193H301.131V201.435C301.131 206.015 301.691 209.331 302.81 211.382C304.279 214.116 306.605 216.184 309.789 217.586L312.068 213.994C310.137 213.213 308.714 212.05 307.802 210.509C306.888 208.966 306.379 206.718 306.273 203.768L311.156 203.768Z" fill="white"/>
</svg>
