<svg width="367" height="218" viewBox="0 0 367 218" fill="none" xmlns="http://www.w3.org/2000/svg">
<rect x="3.5" y="18.5" width="360" height="107" rx="22.5" fill="#01737F" stroke="#01737F" stroke-width="7"/>
<rect x="7" y="22" width="353" height="100" rx="19" stroke="white" stroke-width="3"/>
<rect x="28" y="5" width="311" height="33" rx="16.5" fill="#FF8A00" stroke="#FF8A00" stroke-width="10"/>
<rect x="28" y="5" width="311" height="33" rx="16.5" stroke="white" stroke-width="2"/>
<path d="M46.26 15.04C50.72 15.04 53.62 17.8 53.62 22.04C53.62 26.26 50.72 29 46.26 29H41.38V15.04H46.26ZM44.18 26.62H46.16C49.1 26.62 50.76 24.94 50.76 22.04C50.76 19.14 49.1 17.4 46.16 17.4H44.18V26.62ZM60.4759 20.04C59.1359 20.04 58.0759 20.9 57.8559 22.42H63.1159C63.0759 20.96 61.9159 20.04 60.4759 20.04ZM65.7359 25.52C65.1359 27.56 63.2959 29.18 60.5559 29.18C57.3359 29.18 54.9959 26.94 54.9959 23.46C54.9959 19.96 57.2759 17.74 60.5559 17.74C63.7559 17.74 66.0159 19.92 66.0159 23.22C66.0159 23.58 65.9959 23.94 65.9359 24.3H57.8359C57.9759 25.94 59.0959 26.86 60.4959 26.86C61.6959 26.86 62.3559 26.26 62.7159 25.52H65.7359ZM75.8197 29V22.88C75.8197 21.1 74.8397 20.14 73.3597 20.14C71.8397 20.14 70.8597 21.1 70.8597 22.88V29H68.0597V17.92H70.8597V19.3C71.5797 18.36 72.7797 17.76 74.1997 17.76C76.7797 17.76 78.6197 19.44 78.6197 22.5V29H75.8197ZM80.5623 23.42C80.5623 19.96 82.8023 17.74 85.6223 17.74C87.3623 17.74 88.6223 18.54 89.2823 19.5V17.92H92.1023V29.08C92.1023 32.08 90.2623 34.46 86.6223 34.46C83.5023 34.46 81.3223 32.9 81.0423 30.36H83.8223C84.1023 31.36 85.1423 32.02 86.5423 32.02C88.0823 32.02 89.2823 31.14 89.2823 29.08V27.36C88.6223 28.32 87.3623 29.18 85.6223 29.18C82.8023 29.18 80.5623 26.88 80.5623 23.42ZM89.2823 23.46C89.2823 21.36 87.8823 20.2 86.3423 20.2C84.8423 20.2 83.4223 21.32 83.4223 23.42C83.4223 25.52 84.8423 26.72 86.3423 26.72C87.8823 26.72 89.2823 25.56 89.2823 23.46ZM105.297 17.92V29H102.477V27.6C101.777 28.54 100.557 29.14 99.177 29.14C96.597 29.14 94.737 27.46 94.737 24.42V17.92H97.537V24.02C97.537 25.8 98.517 26.76 99.997 26.76C101.517 26.76 102.477 25.8 102.477 24.02V17.92H105.297ZM112.82 20.04C111.48 20.04 110.42 20.9 110.2 22.42H115.46C115.42 20.96 114.26 20.04 112.82 20.04ZM118.08 25.52C117.48 27.56 115.64 29.18 112.9 29.18C109.68 29.18 107.34 26.94 107.34 23.46C107.34 19.96 109.62 17.74 112.9 17.74C116.1 17.74 118.36 19.92 118.36 23.22C118.36 23.58 118.34 23.94 118.28 24.3H110.18C110.32 25.94 111.44 26.86 112.84 26.86C114.04 26.86 114.7 26.26 115.06 25.52H118.08ZM124.429 17.3V15.04H134.669V17.3H130.949V29H128.149V17.3H124.429ZM139.512 23.48V29H136.712V17.92H139.512V19.64C140.212 18.5 141.372 17.76 142.912 17.76V20.7H142.172C140.512 20.7 139.512 21.34 139.512 23.48ZM149.558 20.04C148.218 20.04 147.158 20.9 146.938 22.42H152.198C152.158 20.96 150.998 20.04 149.558 20.04ZM154.818 25.52C154.218 27.56 152.378 29.18 149.638 29.18C146.418 29.18 144.078 26.94 144.078 23.46C144.078 19.96 146.358 17.74 149.638 17.74C152.838 17.74 155.098 19.92 155.098 23.22C155.098 23.58 155.078 23.94 155.018 24.3H146.918C147.058 25.94 148.178 26.86 149.578 26.86C150.778 26.86 151.438 26.26 151.798 25.52H154.818ZM156.422 23.42C156.422 19.96 158.662 17.74 161.482 17.74C163.262 17.74 164.482 18.58 165.142 19.5V17.92H167.962V29H165.142V27.38C164.482 28.34 163.222 29.18 161.462 29.18C158.662 29.18 156.422 26.88 156.422 23.42ZM165.142 23.46C165.142 21.36 163.742 20.2 162.202 20.2C160.702 20.2 159.282 21.32 159.282 23.42C159.282 25.52 160.702 26.72 162.202 26.72C163.742 26.72 165.142 25.56 165.142 23.46ZM171.136 25.56V20.22H169.816V17.92H171.136V15.18H173.956V17.92H176.436V20.22H173.956V25.58C173.956 26.32 174.256 26.64 175.136 26.64H176.436V29H174.676C172.556 29 171.136 28.1 171.136 25.56ZM193.95 29V22.88C193.95 21.12 192.97 20.2 191.49 20.2C189.99 20.2 189.01 21.12 189.01 22.88V29H186.21V22.88C186.21 21.12 185.23 20.2 183.75 20.2C182.23 20.2 181.25 21.12 181.25 22.88V29H178.45V17.92H181.25V19.26C181.95 18.34 183.13 17.76 184.51 17.76C186.23 17.76 187.65 18.5 188.41 19.88C189.13 18.62 190.59 17.76 192.21 17.76C194.87 17.76 196.75 19.44 196.75 22.5V29H193.95ZM204.167 20.04C202.827 20.04 201.767 20.9 201.547 22.42H206.807C206.767 20.96 205.607 20.04 204.167 20.04ZM209.427 25.52C208.827 27.56 206.987 29.18 204.247 29.18C201.027 29.18 198.687 26.94 198.687 23.46C198.687 19.96 200.967 17.74 204.247 17.74C207.447 17.74 209.707 19.92 209.707 23.22C209.707 23.58 209.687 23.94 209.627 24.3H201.527C201.667 25.94 202.787 26.86 204.187 26.86C205.387 26.86 206.047 26.26 206.407 25.52H209.427ZM219.511 29V22.88C219.511 21.1 218.531 20.14 217.051 20.14C215.531 20.14 214.551 21.1 214.551 22.88V29H211.751V17.92H214.551V19.3C215.271 18.36 216.471 17.76 217.891 17.76C220.471 17.76 222.311 19.44 222.311 22.5V29H219.511ZM225.414 25.56V20.22H224.094V17.92H225.414V15.18H228.234V17.92H230.714V20.22H228.234V25.58C228.234 26.32 228.534 26.64 229.414 26.64H230.714V29H228.954C226.834 29 225.414 28.1 225.414 25.56ZM240.293 21.38H242.513C244.093 21.38 244.793 20.6 244.793 19.36C244.793 18.08 244.093 17.32 242.513 17.32H240.293V21.38ZM247.673 19.36C247.673 21.48 246.233 23.64 242.633 23.64H240.293V29H237.493V15.04H242.633C245.993 15.04 247.673 16.94 247.673 19.36ZM248.941 23.42C248.941 19.96 251.181 17.74 254.001 17.74C255.781 17.74 257.001 18.58 257.661 19.5V17.92H260.481V29H257.661V27.38C257.001 28.34 255.741 29.18 253.981 29.18C251.181 29.18 248.941 26.88 248.941 23.42ZM257.661 23.46C257.661 21.36 256.261 20.2 254.721 20.2C253.221 20.2 251.801 21.32 251.801 23.42C251.801 25.52 253.221 26.72 254.721 26.72C256.261 26.72 257.661 25.56 257.661 23.46ZM262.496 23.46C262.496 19.98 264.776 17.74 267.976 17.74C270.736 17.74 272.596 19.18 273.196 21.66H270.176C269.856 20.72 269.116 20.12 267.956 20.12C266.396 20.12 265.356 21.3 265.356 23.46C265.356 25.62 266.396 26.78 267.956 26.78C269.116 26.78 269.836 26.26 270.176 25.26H273.196C272.596 27.62 270.736 29.18 267.976 29.18C264.776 29.18 262.496 26.94 262.496 23.46ZM275.247 29V14.2H278.047V22.62L281.767 17.92H285.407L280.527 23.48L285.447 29H281.807L278.047 24.28V29H275.247ZM286.207 23.42C286.207 19.96 288.447 17.74 291.267 17.74C293.047 17.74 294.267 18.58 294.927 19.5V17.92H297.747V29H294.927V27.38C294.267 28.34 293.007 29.18 291.247 29.18C288.447 29.18 286.207 26.88 286.207 23.42ZM294.927 23.46C294.927 21.36 293.527 20.2 291.987 20.2C290.487 20.2 289.067 21.32 289.067 23.42C289.067 25.52 290.487 26.72 291.987 26.72C293.527 26.72 294.927 25.56 294.927 23.46ZM299.762 23.42C299.762 19.96 302.002 17.74 304.822 17.74C306.562 17.74 307.822 18.54 308.482 19.5V17.92H311.302V29.08C311.302 32.08 309.462 34.46 305.822 34.46C302.702 34.46 300.522 32.9 300.242 30.36H303.022C303.302 31.36 304.342 32.02 305.742 32.02C307.282 32.02 308.482 31.14 308.482 29.08V27.36C307.822 28.32 306.562 29.18 304.822 29.18C302.002 29.18 299.762 26.88 299.762 23.42ZM308.482 23.46C308.482 21.36 307.082 20.2 305.542 20.2C304.042 20.2 302.622 21.32 302.622 23.42C302.622 25.52 304.042 26.72 305.542 26.72C307.082 26.72 308.482 25.56 308.482 23.46ZM318.796 20.04C317.456 20.04 316.396 20.9 316.176 22.42H321.436C321.396 20.96 320.236 20.04 318.796 20.04ZM324.056 25.52C323.456 27.56 321.616 29.18 318.876 29.18C315.656 29.18 313.316 26.94 313.316 23.46C313.316 19.96 315.596 17.74 318.876 17.74C322.076 17.74 324.336 19.92 324.336 23.22C324.336 23.58 324.316 23.94 324.256 24.3H316.156C316.296 25.94 317.416 26.86 318.816 26.86C320.016 26.86 320.676 26.26 321.036 25.52H324.056Z" fill="white"/>
<path d="M79.7964 96.7766V70.898H75.3096V63.6918H87.8637V96.7766H79.7964ZM91.0351 63.7371H112.925V69.493L101.55 96.7766H93.6185L105.13 70.3541H91.0351V63.7371ZM123.674 92.9696C123.674 95.281 121.816 97.1392 119.096 97.1392C116.332 97.1392 114.473 95.281 114.473 92.9696C114.473 90.5675 116.332 88.7094 119.096 88.7094C121.816 88.7094 123.674 90.5675 123.674 92.9696ZM128.262 63.6465H149.427V70.4447H135.286V76.6991C136.465 75.3848 138.731 74.433 141.359 74.433C148.566 74.433 151.33 79.917 151.33 85.2649C151.33 92.2444 147.251 96.7766 139.909 96.7766C132.476 96.7766 128.171 92.6523 127.899 86.9418H135.468C135.785 88.664 137.099 90.205 139.637 90.205C142.583 90.205 143.852 88.0749 143.852 85.2196C143.852 82.2284 142.357 80.6421 139.592 80.6421C137.417 80.6421 136.148 81.8205 135.74 83.3614H128.262V63.6465ZM154.249 79.781C154.249 70.0822 157.557 63.012 166.984 63.012C176.411 63.012 179.719 70.0822 179.719 79.781C179.719 89.5705 176.411 96.6406 166.984 96.6406C157.557 96.6406 154.249 89.5705 154.249 79.781ZM172.105 79.781C172.105 74.705 171.561 70.2635 166.984 70.2635C162.406 70.2635 161.863 74.705 161.863 79.781C161.863 85.0383 162.406 89.3892 166.984 89.3892C171.561 89.3892 172.105 85.0383 172.105 79.781ZM182.454 79.781C182.454 70.0822 185.763 63.012 195.19 63.012C204.616 63.012 207.925 70.0822 207.925 79.781C207.925 89.5705 204.616 96.6406 195.19 96.6406C185.763 96.6406 182.454 89.5705 182.454 79.781ZM200.311 79.781C200.311 74.705 199.767 70.2635 195.19 70.2635C190.612 70.2635 190.068 74.705 190.068 79.781C190.068 85.0383 190.612 89.3892 195.19 89.3892C199.767 89.3892 200.311 85.0383 200.311 79.781ZM219.634 92.9696C219.634 95.281 217.775 97.1392 215.056 97.1392C212.291 97.1392 210.433 95.281 210.433 92.9696C210.433 90.5675 212.291 88.7094 215.056 88.7094C217.775 88.7094 219.634 90.5675 219.634 92.9696ZM222.091 79.781C222.091 70.0822 225.4 63.012 234.827 63.012C244.253 63.012 247.562 70.0822 247.562 79.781C247.562 89.5705 244.253 96.6406 234.827 96.6406C225.4 96.6406 222.091 89.5705 222.091 79.781ZM239.948 79.781C239.948 74.705 239.404 70.2635 234.827 70.2635C230.249 70.2635 229.705 74.705 229.705 79.781C229.705 85.0383 230.249 89.3892 234.827 89.3892C239.404 89.3892 239.948 85.0383 239.948 79.781ZM250.297 79.781C250.297 70.0822 253.605 63.012 263.032 63.012C272.459 63.012 275.768 70.0822 275.768 79.781C275.768 89.5705 272.459 96.6406 263.032 96.6406C253.605 96.6406 250.297 89.5705 250.297 79.781ZM268.154 79.781C268.154 74.705 267.61 70.2635 263.032 70.2635C258.455 70.2635 257.911 74.705 257.911 79.781C257.911 85.0383 258.455 89.3892 263.032 89.3892C267.61 89.3892 268.154 85.0383 268.154 79.781ZM278.502 79.781C278.502 70.0822 281.811 63.012 291.238 63.012C300.665 63.012 303.973 70.0822 303.973 79.781C303.973 89.5705 300.665 96.6406 291.238 96.6406C281.811 96.6406 278.502 89.5705 278.502 79.781ZM296.359 79.781C296.359 74.705 295.815 70.2635 291.238 70.2635C286.66 70.2635 286.116 74.705 286.116 79.781C286.116 85.0383 286.66 89.3892 291.238 89.3892C295.815 89.3892 296.359 85.0383 296.359 79.781Z" fill="white"/>
<path d="M52.0643 66.0897C52.0643 64.4984 51.178 63.4711 49.0832 63.4711H46.384V68.7888H49.0832C51.1579 68.7888 52.0643 67.6608 52.0643 66.0897ZM44.551 61.9604H49.0832C52.3866 61.9604 53.9578 63.7934 53.9578 66.0897C53.9578 67.8824 52.9708 69.5945 50.614 70.1183L54.1391 76H51.9435L48.5997 70.2593H46.384V76H44.551V61.9604ZM58.639 66.9961C59.3037 65.8278 60.754 64.7804 62.7683 64.7804C65.7293 64.7804 68.0054 66.9961 68.0054 70.4405C68.0054 73.8648 65.7293 76.1813 62.7683 76.1813C60.754 76.1813 59.3238 75.0936 58.639 73.9656V81.2372H56.806V64.9617H58.639V66.9961ZM66.1321 70.4405C66.1321 67.8421 64.42 66.3717 62.3855 66.3717C60.3914 66.3717 58.639 67.9025 58.639 70.4607C58.639 73.0591 60.3914 74.5699 62.3855 74.5699C64.42 74.5699 66.1321 73.039 66.1321 70.4405Z" fill="white"/>
<path d="M308.96 98.81L310.43 93.3916H312.444L310.188 98.81H308.96ZM314.161 89.3227V87.7717H322.199V89.3227H314.161Z" fill="white"/>
<path d="M110.716 148.446L106.998 164H102.334L99.8484 153.594L97.3404 164H92.6764L88.9584 148.446H93.0504L95.0524 159.71L97.7804 148.446H101.894L104.622 159.71L106.646 148.446H110.716ZM120.48 151.592C121.888 151.592 123.002 152.061 123.824 153C124.66 153.939 125.078 155.229 125.078 156.872V164H121.316V157.312C121.316 156.491 121.096 155.853 120.656 155.398C120.23 154.929 119.658 154.694 118.94 154.694C118.177 154.694 117.568 154.936 117.114 155.42C116.674 155.904 116.454 156.593 116.454 157.488V164H112.692V147.72H116.454V153.968C116.806 153.235 117.326 152.655 118.016 152.23C118.72 151.805 119.541 151.592 120.48 151.592ZM132.223 151.57C133.161 151.57 133.968 151.783 134.643 152.208C135.317 152.633 135.816 153.213 136.139 153.946V151.724H139.879V164H136.139V161.778C135.816 162.511 135.317 163.091 134.643 163.516C133.968 163.941 133.161 164.154 132.223 164.154C131.211 164.154 130.301 163.905 129.495 163.406C128.703 162.893 128.072 162.159 127.603 161.206C127.148 160.253 126.921 159.138 126.921 157.862C126.921 156.571 127.148 155.457 127.603 154.518C128.072 153.565 128.703 152.839 129.495 152.34C130.301 151.827 131.211 151.57 132.223 151.57ZM133.433 154.87C132.626 154.87 131.973 155.134 131.475 155.662C130.991 156.19 130.749 156.923 130.749 157.862C130.749 158.801 130.991 159.534 131.475 160.062C131.973 160.59 132.626 160.854 133.433 160.854C134.225 160.854 134.87 160.583 135.369 160.04C135.882 159.497 136.139 158.771 136.139 157.862C136.139 156.938 135.882 156.212 135.369 155.684C134.87 155.141 134.225 154.87 133.433 154.87ZM149.421 160.766V164H147.727C146.29 164 145.168 163.648 144.361 162.944C143.569 162.225 143.173 161.045 143.173 159.402V154.892H141.523V151.724H143.173V148.71H146.935V151.724H149.399V154.892H146.935V159.468C146.935 159.952 147.03 160.289 147.221 160.48C147.426 160.671 147.764 160.766 148.233 160.766H149.421ZM158.778 151.724L161.726 159.248L164.476 151.724H168.634L160.978 169.852H156.842L159.724 163.538L154.576 151.724H158.778ZM175.625 151.57C176.842 151.57 177.928 151.827 178.881 152.34C179.849 152.839 180.604 153.565 181.147 154.518C181.704 155.471 181.983 156.586 181.983 157.862C181.983 159.138 181.704 160.253 181.147 161.206C180.604 162.159 179.849 162.893 178.881 163.406C177.928 163.905 176.842 164.154 175.625 164.154C174.408 164.154 173.315 163.905 172.347 163.406C171.379 162.893 170.616 162.159 170.059 161.206C169.516 160.253 169.245 159.138 169.245 157.862C169.245 156.586 169.516 155.471 170.059 154.518C170.616 153.565 171.379 152.839 172.347 152.34C173.315 151.827 174.408 151.57 175.625 151.57ZM175.625 154.826C174.906 154.826 174.298 155.09 173.799 155.618C173.315 156.131 173.073 156.879 173.073 157.862C173.073 158.845 173.315 159.593 173.799 160.106C174.298 160.619 174.906 160.876 175.625 160.876C176.344 160.876 176.945 160.619 177.429 160.106C177.913 159.593 178.155 158.845 178.155 157.862C178.155 156.879 177.913 156.131 177.429 155.618C176.945 155.09 176.344 154.826 175.625 154.826ZM196.144 151.724V164H192.36V161.778C192.008 162.497 191.48 163.069 190.776 163.494C190.086 163.919 189.28 164.132 188.356 164.132C186.948 164.132 185.826 163.663 184.99 162.724C184.168 161.785 183.758 160.495 183.758 158.852V151.724H187.498V158.39C187.498 159.226 187.71 159.879 188.136 160.348C188.576 160.803 189.162 161.03 189.896 161.03C190.658 161.03 191.26 160.788 191.7 160.304C192.14 159.82 192.36 159.131 192.36 158.236V151.724H196.144ZM201.508 146.378L201.222 151.24H198.692L198.406 146.378H201.508ZM207.526 147.72V164H203.764V147.72H207.526ZM213.885 147.72V164H210.123V147.72H213.885ZM225.551 151.57C226.49 151.57 227.296 151.783 227.971 152.208C228.646 152.633 229.144 153.213 229.467 153.946V151.724H233.207V163.934C233.207 165.078 232.987 166.105 232.547 167.014C232.107 167.938 231.432 168.671 230.523 169.214C229.614 169.757 228.484 170.028 227.135 170.028C225.287 170.028 223.806 169.588 222.691 168.708C221.591 167.843 220.931 166.662 220.711 165.166H224.429C224.546 165.665 224.81 166.053 225.221 166.332C225.646 166.611 226.196 166.75 226.871 166.75C227.648 166.75 228.272 166.523 228.741 166.068C229.225 165.628 229.467 164.917 229.467 163.934V161.778C229.144 162.511 228.646 163.091 227.971 163.516C227.296 163.941 226.49 164.154 225.551 164.154C224.539 164.154 223.63 163.905 222.823 163.406C222.031 162.893 221.4 162.159 220.931 161.206C220.476 160.253 220.249 159.138 220.249 157.862C220.249 156.571 220.476 155.457 220.931 154.518C221.4 153.565 222.031 152.839 222.823 152.34C223.63 151.827 224.539 151.57 225.551 151.57ZM226.761 154.87C225.954 154.87 225.302 155.134 224.803 155.662C224.319 156.19 224.077 156.923 224.077 157.862C224.077 158.801 224.319 159.534 224.803 160.062C225.302 160.59 225.954 160.854 226.761 160.854C227.553 160.854 228.198 160.583 228.697 160.04C229.21 159.497 229.467 158.771 229.467 157.862C229.467 156.938 229.21 156.212 228.697 155.684C228.198 155.141 227.553 154.87 226.761 154.87ZM247.457 157.532C247.457 157.84 247.42 158.177 247.347 158.544H238.833C238.877 159.468 239.112 160.135 239.537 160.546C239.962 160.942 240.505 161.14 241.165 161.14C241.722 161.14 242.184 161.001 242.551 160.722C242.918 160.443 243.16 160.084 243.277 159.644H247.259C247.098 160.509 246.746 161.287 246.203 161.976C245.66 162.651 244.971 163.186 244.135 163.582C243.299 163.963 242.368 164.154 241.341 164.154C240.138 164.154 239.068 163.905 238.129 163.406C237.205 162.893 236.479 162.159 235.951 161.206C235.423 160.253 235.159 159.138 235.159 157.862C235.159 156.571 235.416 155.457 235.929 154.518C236.457 153.565 237.19 152.839 238.129 152.34C239.068 151.827 240.138 151.57 241.341 151.57C242.558 151.57 243.629 151.819 244.553 152.318C245.477 152.817 246.188 153.521 246.687 154.43C247.2 155.325 247.457 156.359 247.457 157.532ZM243.651 156.96C243.666 156.153 243.446 155.552 242.991 155.156C242.551 154.745 242.001 154.54 241.341 154.54C240.652 154.54 240.08 154.745 239.625 155.156C239.17 155.567 238.914 156.168 238.855 156.96H243.651ZM256.37 160.766V164H254.676C253.239 164 252.117 163.648 251.31 162.944C250.518 162.225 250.122 161.045 250.122 159.402V154.892H248.472V151.724H250.122V148.71H253.884V151.724H256.348V154.892H253.884V159.468C253.884 159.952 253.979 160.289 254.17 160.48C254.375 160.671 254.713 160.766 255.182 160.766H256.37ZM263.061 147.324C264.615 147.324 265.855 147.727 266.779 148.534C267.703 149.326 268.165 150.47 268.165 151.966C268.165 153.359 267.71 154.452 266.801 155.244C265.906 156.036 264.703 156.447 263.193 156.476V158.434H259.651V154.056H261.125C262.181 154.056 263.002 153.909 263.589 153.616C264.175 153.308 264.469 152.765 264.469 151.988C264.469 151.489 264.329 151.101 264.051 150.822C263.772 150.543 263.398 150.404 262.929 150.404C262.401 150.404 261.983 150.565 261.675 150.888C261.381 151.196 261.235 151.592 261.235 152.076H257.693C257.663 151.196 257.847 150.397 258.243 149.678C258.653 148.945 259.269 148.373 260.091 147.962C260.912 147.537 261.902 147.324 263.061 147.324ZM263.391 160.238V164H259.475V160.238H263.391Z" fill="#FFCB8E"/>
<path d="M273.5 192.062H68.5L54.2497 207.253V192.062H29.1431C26.4619 192.062 24.281 189.914 24.281 187.275L24.281 123H21L21 187.275C21 191.696 24.6528 195.292 29.1431 195.292H50.9688V205.211V215.131L69.8589 195.292H273.5V192.062Z" fill="white"/>
<path d="M341.735 123V187.275C341.735 189.914 339.554 192.062 336.873 192.062H319.5V195.292H336.873C341.363 195.292 345.016 191.696 345.016 187.275V123H341.735Z" fill="white"/>
<path d="M295.025 203.768V193H285V201.435C285 206.015 285.56 209.331 286.679 211.382C288.148 214.116 290.474 216.184 293.658 217.586L295.937 213.994C294.005 213.213 292.583 212.05 291.67 210.509C290.756 208.966 290.248 206.718 290.142 203.768L295.025 203.768ZM311.156 203.768V193H301.131V201.435C301.131 206.015 301.691 209.331 302.81 211.382C304.279 214.116 306.605 216.184 309.789 217.586L312.068 213.994C310.137 213.213 308.714 212.05 307.802 210.509C306.888 208.966 306.379 206.718 306.273 203.768L311.156 203.768Z" fill="white"/>
</svg>
